<?xml version="1.0" encoding="UTF-8"?>
<!-- 2020-02-13 21:32:40 Generated by QCAD 3.24.2 SVG Exporter -->
<svg width="9.745mm" height="1.3447mm" viewBox="-4.8725 -0.5421 9.745 1.3447" version="1.1" xmlns="http://www.w3.org/2000/svg" style="stroke-linecap:round;stroke-linejoin:round;fill:none">
    <g transform="scale(1,-1)">
        <!-- Text: Simple Cut Text -->
        <g>
            <path d="M-4.8475,-0.1787 L-4.7227,-0.1678 C-4.7168,-0.2178 -4.703,-0.2589 -4.6814,-0.2909 C-4.6598,-0.323 -4.6263,-0.3489 -4.5808,-0.3687 C-4.5353,-0.3885 -4.4841,-0.3984 -4.4273,-0.3984 C-4.3768,-0.3984 -4.3323,-0.3909 -4.2936,-0.3759 C-4.255,-0.3608 -4.2262,-0.3403 -4.2073,-0.3141 C-4.1884,-0.288 -4.179,-0.2594 -4.179,-0.2285 C-4.179,-0.1971 -4.1881,-0.1697 -4.2063,-0.1463 C-4.2245,-0.1229 -4.2545,-0.1032 -4.2963,-0.0873 C-4.3232,-0.0769 -4.3825,-0.0606 -4.4744,-0.0385 C-4.5662,-0.0165 -4.6306,0.0043 -4.6674,0.0239 C-4.7152,0.0489 -4.7507,0.0799 -4.7742,0.117 C-4.7976,0.154 -4.8093,0.1955 -4.8093,0.2415 C-4.8093,0.292 -4.795,0.3391 -4.7663,0.383 C-4.7377,0.4269 -4.6958,0.4602 -4.6408,0.4829 C-4.5858,0.5057 -4.5246,0.5171 -4.4573,0.5171 C-4.3832,0.5171 -4.3178,0.5051 -4.2612,0.4812 C-4.2046,0.4574 -4.161,0.4222 -4.1306,0.3759 C-4.1001,0.3295 -4.0837,0.2769 -4.0815,0.2183 L-4.2083,0.2087 C-4.2152,0.2719 -4.2382,0.3197 -4.2776,0.352 C-4.3169,0.3843 -4.375,0.4004 -4.4519,0.4004 C-4.5319,0.4004 -4.5902,0.3857 -4.6268,0.3564 C-4.6634,0.3271 -4.6817,0.2917 -4.6817,0.2503 C-4.6817,0.2144 -4.6688,0.1849 -4.6429,0.1617 C-4.6174,0.1385 -4.5509,0.1147 -4.4433,0.0904 C-4.3358,0.0661 -4.262,0.0448 -4.222,0.0266 C-4.1638,-0.0002 -4.1208,-0.0342 -4.0931,-0.0754 C-4.0653,-0.1165 -4.0515,-0.1639 -4.0515,-0.2176 C-4.0515,-0.2708 -4.0667,-0.3209 -4.0972,-0.368 C-4.1276,-0.4151 -4.1714,-0.4517 -4.2285,-0.4778 C-4.2855,-0.504 -4.3498,-0.5171 -4.4212,-0.5171 C-4.5117,-0.5171 -4.5875,-0.5039 -4.6487,-0.4775 C-4.7098,-0.4511 -4.7578,-0.4114 -4.7926,-0.3585 C-4.8274,-0.3055 -4.8457,-0.2456 -4.8475,-0.1787 M-3.8826,0.3588 L-3.8826,0.5 L-3.7599,0.5 L-3.7599,0.3588 Z M-3.8826,-0.5 L-3.8826,0.2244 L-3.7599,0.2244 L-3.7599,-0.5 Z M-3.5682,-0.5 L-3.5682,0.2244 L-3.4584,0.2244 L-3.4584,0.1228 C-3.4357,0.1583 -3.4054,0.1868 -3.3677,0.2084 C-3.3299,0.23 -3.287,0.2408 -3.2388,0.2408 C-3.1851,0.2408 -3.1411,0.2296 -3.1068,0.2074 C-3.0724,0.1851 -3.0482,0.1539 -3.0341,0.1139 C-2.9768,0.1985 -2.9022,0.2408 -2.8104,0.2408 C-2.7385,0.2408 -2.6833,0.2209 -2.6446,0.1811 C-2.606,0.1413 -2.5866,0.08 -2.5866,-0.0027 L-2.5866,-0.5 L-2.7087,-0.5 L-2.7087,-0.0437 C-2.7087,0.0055 -2.7127,0.0408 -2.7207,0.0624 C-2.7286,0.084 -2.7431,0.1014 -2.764,0.1146 C-2.7849,0.1278 -2.8095,0.1344 -2.8377,0.1344 C-2.8886,0.1344 -2.9309,0.1174 -2.9645,0.0836 C-2.9982,0.0497 -3.015,-0.0045 -3.015,-0.0791 L-3.015,-0.5 L-3.1378,-0.5 L-3.1378,-0.0293 C-3.1378,0.0252 -3.1478,0.0662 -3.1678,0.0935 C-3.1878,0.1207 -3.2206,0.1344 -3.266,0.1344 C-3.3006,0.1344 -3.3325,0.1253 -3.3619,0.1071 C-3.3912,0.0889 -3.4125,0.0623 -3.4257,0.0273 C-3.4388,-0.0077 -3.4454,-0.0582 -3.4454,-0.1241 L-3.4454,-0.5 Z M-2.4023,-0.7776 L-2.4023,0.2244 L-2.2904,0.2244 L-2.2904,0.1303 C-2.2641,0.1671 -2.2343,0.1947 -2.2011,0.2132 C-2.1679,0.2316 -2.1276,0.2408 -2.0803,0.2408 C-2.0185,0.2408 -1.9639,0.2249 -1.9166,0.193 C-1.8693,0.1612 -1.8336,0.1163 -1.8095,0.0583 C-1.7854,0.0003 -1.7734,-0.0632 -1.7734,-0.1323 C-1.7734,-0.2065 -1.7867,-0.2732 -1.8133,-0.3325 C-1.8399,-0.3919 -1.8785,-0.4374 -1.9292,-0.469 C-1.98,-0.5006 -2.0333,-0.5164 -2.0892,-0.5164 C-2.1301,-0.5164 -2.1669,-0.5077 -2.1994,-0.4905 C-2.2319,-0.4732 -2.2586,-0.4513 -2.2795,-0.425 L-2.2795,-0.7776 Z M-2.2911,-0.1419 C-2.2911,-0.2351 -2.2722,-0.304 -2.2345,-0.3486 C-2.1968,-0.3931 -2.1511,-0.4154 -2.0974,-0.4154 C-2.0428,-0.4154 -1.9961,-0.3923 -1.9572,-0.3462 C-1.9183,-0.3 -1.8989,-0.2285 -1.8989,-0.1317 C-1.8989,-0.0393 -1.9179,0.0298 -1.9558,0.0757 C-1.9938,0.1216 -2.0392,0.1446 -2.0919,0.1446 C-2.1442,0.1446 -2.1905,0.1202 -2.2307,0.0713 C-2.271,0.0224 -2.2911,-0.0487 -2.2911,-0.1419 M-1.6278,-0.5 L-1.6278,0.5 L-1.505,0.5 L-1.505,-0.5 Z M-0.814,-0.2667 L-0.6871,-0.2824 C-0.7071,-0.3565 -0.7442,-0.4141 -0.7983,-0.455 C-0.8524,-0.4959 -0.9216,-0.5164 -1.0057,-0.5164 C-1.1116,-0.5164 -1.1957,-0.4837 -1.2577,-0.4185 C-1.3198,-0.3532 -1.3508,-0.2617 -1.3508,-0.1439 C-1.3508,-0.0221 -1.3195,0.0725 -1.2567,0.1398 C-1.194,0.2071 -1.1125,0.2408 -1.0125,0.2408 C-0.9156,0.2408 -0.8365,0.2078 -0.7751,0.1419 C-0.7137,0.0759 -0.683,-0.0168 -0.683,-0.1364 C-0.683,-0.1437 -0.6833,-0.1546 -0.6837,-0.1692 L-1.224,-0.1692 C-1.2194,-0.2487 -1.1969,-0.3097 -1.1564,-0.352 C-1.116,-0.3943 -1.0655,-0.4154 -1.005,-0.4154 C-0.96,-0.4154 -0.9216,-0.4036 -0.8897,-0.3799 C-0.8579,-0.3563 -0.8326,-0.3186 -0.814,-0.2667 M-1.2171,-0.0682 L-0.8126,-0.0682 C-0.8181,-0.0073 -0.8336,0.0384 -0.859,0.0689 C-0.8981,0.1162 -0.9488,0.1398 -1.0111,0.1398 C-1.0675,0.1398 -1.1149,0.121 -1.1534,0.0832 C-1.1918,0.0455 -1.213,-0.005 -1.2171,-0.0682 M0.5852,-0.1494 L0.7175,-0.1828 C0.6898,-0.2915 0.6399,-0.3744 0.5678,-0.4314 C0.4957,-0.4885 0.4076,-0.5171 0.3035,-0.5171 C0.1957,-0.5171 0.1081,-0.4951 0.0405,-0.4512 C-0.027,-0.4073 -0.0784,-0.3438 -0.1136,-0.2606 C-0.1489,-0.1774 -0.1665,-0.088 -0.1665,0.0075 C-0.1665,0.1116 -0.1466,0.2025 -0.1068,0.28 C-0.067,0.3575 -0.0104,0.4164 0.063,0.4567 C0.1365,0.4969 0.2173,0.5171 0.3055,0.5171 C0.4056,0.5171 0.4897,0.4916 0.5579,0.4407 C0.6261,0.3897 0.6736,0.3181 0.7005,0.2258 L0.5702,0.1951 C0.547,0.2678 0.5133,0.3208 0.4692,0.354 C0.4251,0.3872 0.3696,0.4038 0.3028,0.4038 C0.2259,0.4038 0.1617,0.3854 0.1101,0.3486 C0.0585,0.3117 0.0222,0.2623 0.0013,0.2002 C-0.0196,0.1381 -0.0301,0.0741 -0.0301,0.0082 C-0.0301,-0.0769 -0.0177,-0.1511 0.0071,-0.2145 C0.0319,-0.278 0.0704,-0.3254 0.1227,-0.3568 C0.175,-0.3881 0.2316,-0.4038 0.2926,-0.4038 C0.3667,-0.4038 0.4294,-0.3824 0.4808,-0.3397 C0.5322,-0.297 0.567,-0.2335 0.5852,-0.1494 M1.3391,-0.5 L1.3391,-0.3936 C1.2827,-0.4754 1.2061,-0.5164 1.1092,-0.5164 C1.0665,-0.5164 1.0266,-0.5082 0.9895,-0.4918 C0.9525,-0.4754 0.925,-0.4549 0.907,-0.4301 C0.889,-0.4053 0.8764,-0.3749 0.8691,-0.339 C0.8641,-0.3149 0.8616,-0.2767 0.8616,-0.2244 L0.8616,0.2244 L0.9844,0.2244 L0.9844,-0.1774 C0.9844,-0.2415 0.9869,-0.2847 0.9919,-0.307 C0.9997,-0.3392 1.016,-0.3646 1.041,-0.383 C1.066,-0.4014 1.097,-0.4106 1.1338,-0.4106 C1.1706,-0.4106 1.2052,-0.4012 1.2375,-0.3823 C1.2698,-0.3635 1.2926,-0.3378 1.306,-0.3053 C1.3195,-0.2727 1.3262,-0.2256 1.3262,-0.1637 L1.3262,0.2244 L1.4489,0.2244 L1.4489,-0.5 Z M1.9097,-0.3902 L1.9275,-0.4986 C1.8929,-0.5059 1.862,-0.5095 1.8347,-0.5095 C1.7901,-0.5095 1.7556,-0.5025 1.731,-0.4884 C1.7064,-0.4743 1.6892,-0.4558 1.6792,-0.4328 C1.6692,-0.4098 1.6642,-0.3615 1.6642,-0.2879 L1.6642,0.1289 L1.5741,0.1289 L1.5741,0.2244 L1.6642,0.2244 L1.6642,0.4038 L1.7863,0.4775 L1.7863,0.2244 L1.9097,0.2244 L1.9097,0.1289 L1.7863,0.1289 L1.7863,-0.2947 C1.7863,-0.3297 1.7884,-0.3522 1.7927,-0.3622 C1.7971,-0.3722 1.8041,-0.3802 1.8139,-0.3861 C1.8237,-0.392 1.8376,-0.395 1.8558,-0.395 C1.8695,-0.395 1.8874,-0.3934 1.9097,-0.3902 M2.668,-0.5 L2.668,0.382 L2.3386,0.382 L2.3386,0.5 L3.1312,0.5 L3.1312,0.382 L2.8004,0.382 L2.8004,-0.5 Z M3.5871,-0.2667 L3.7139,-0.2824 C3.6939,-0.3565 3.6569,-0.4141 3.6028,-0.455 C3.5486,-0.4959 3.4795,-0.5164 3.3954,-0.5164 C3.2894,-0.5164 3.2054,-0.4837 3.1433,-0.4185 C3.0813,-0.3532 3.0502,-0.2617 3.0502,-0.1439 C3.0502,-0.0221 3.0816,0.0725 3.1444,0.1398 C3.2071,0.2071 3.2885,0.2408 3.3886,0.2408 C3.4854,0.2408 3.5646,0.2078 3.6259,0.1419 C3.6873,0.0759 3.718,-0.0168 3.718,-0.1364 C3.718,-0.1437 3.7178,-0.1546 3.7174,-0.1692 L3.1771,-0.1692 C3.1817,-0.2487 3.2042,-0.3097 3.2446,-0.352 C3.2851,-0.3943 3.3356,-0.4154 3.3961,-0.4154 C3.4411,-0.4154 3.4795,-0.4036 3.5113,-0.3799 C3.5432,-0.3563 3.5684,-0.3186 3.5871,-0.2667 M3.1839,-0.0682 L3.5884,-0.0682 C3.583,-0.0073 3.5675,0.0384 3.542,0.0689 C3.5029,0.1162 3.4522,0.1398 3.3899,0.1398 C3.3335,0.1398 3.2861,0.121 3.2477,0.0832 C3.2093,0.0455 3.188,-0.005 3.1839,-0.0682 M3.7866,-0.5 L4.0512,-0.1235 L3.8064,0.2244 L3.9598,0.2244 L4.071,0.0546 C4.0919,0.0223 4.1088,-0.0048 4.1215,-0.0266 C4.1415,0.0034 4.1599,0.03 4.1768,0.0532 L4.2989,0.2244 L4.4455,0.2244 L4.1952,-0.1166 L4.4646,-0.5 L4.3139,-0.5 L4.1652,-0.2749 L4.1256,-0.2142 L3.9353,-0.5 Z M4.8298,-0.3902 L4.8475,-0.4986 C4.8129,-0.5059 4.782,-0.5095 4.7547,-0.5095 C4.7102,-0.5095 4.6756,-0.5025 4.651,-0.4884 C4.6265,-0.4743 4.6092,-0.4558 4.5992,-0.4328 C4.5892,-0.4098 4.5842,-0.3615 4.5842,-0.2879 L4.5842,0.1289 L4.4942,0.1289 L4.4942,0.2244 L4.5842,0.2244 L4.5842,0.4038 L4.7063,0.4775 L4.7063,0.2244 L4.8298,0.2244 L4.8298,0.1289 L4.7063,0.1289 L4.7063,-0.2947 C4.7063,-0.3297 4.7085,-0.3522 4.7128,-0.3622 C4.7171,-0.3722 4.7241,-0.3802 4.7339,-0.3861 C4.7437,-0.392 4.7577,-0.395 4.7759,-0.395 C4.7895,-0.395 4.8075,-0.3934 4.8298,-0.3902" style="fill:#fff6c9;fill-rule:evenodd;0"/>
        </g>
    </g>
</svg>
