  0
SECTION
  2
HEADER
  9
$ACADVER
  1
AC1018
  9
$ACADMAINTVER
 70
     0
  9
$DWGCODEPAGE
  3
ANSI_1252
  9
$INSBASE
 10
0.0
 20
0.0
 30
0.0
  9
$EXTMIN
 10
-12.00001968503937
 20
4.020814960629921
 30
0.0
  9
$EXTMAX
 10
-8.991129921259843
 20
6.000027559055118
 30
0.0
  9
$LIMMIN
 10
0.0
 20
0.0
  9
$LIMMAX
 10
12.0
 20
9.0
  9
$ORTHOMODE
 70
     0
  9
$REGENMODE
 70
     1
  9
$FILLMODE
 70
     1
  9
$QTEXTMODE
 70
     0
  9
$MIRRTEXT
 70
     1
  9
$LTSCALE
 40
1.0
  9
$ATTMODE
 70
     1
  9
$TEXTSIZE
 40
0.2
  9
$TRACEWID
 40
0.05
  9
$TEXTSTYLE
  7
Standard
  9
$CLAYER
  8
0
  9
$CELTYPE
  6
ByLayer
  9
$CECOLOR
 62
   256
  9
$CELTSCALE
 40
1.0
  9
$DISPSILH
 70
     0
  9
$DIMSCALE
 40
1.0
  9
$DIMASZ
 40
0.18
  9
$DIMEXO
 40
0.0625
  9
$DIMDLI
 40
0.38
  9
$DIMRND
 40
0.0
  9
$DIMDLE
 40
0.0
  9
$DIMEXE
 40
0.18
  9
$DIMTP
 40
0.0
  9
$DIMTM
 40
0.0
  9
$DIMTXT
 40
0.18
  9
$DIMCEN
 40
0.09
  9
$DIMTSZ
 40
0.0
  9
$DIMTOL
 70
     0
  9
$DIMLIM
 70
     0
  9
$DIMTIH
 70
     1
  9
$DIMTOH
 70
     1
  9
$DIMSE1
 70
     0
  9
$DIMSE2
 70
     0
  9
$DIMTAD
 70
     0
  9
$DIMZIN
 70
     0
  9
$DIMBLK
  1

  9
$DIMASO
 70
     1
  9
$DIMSHO
 70
     1
  9
$DIMPOST
  1

  9
$DIMAPOST
  1

  9
$DIMALT
 70
     0
  9
$DIMALTD
 70
     2
  9
$DIMALTF
 40
25.4
  9
$DIMLFAC
 40
1.0
  9
$DIMTOFL
 70
     0
  9
$DIMTVP
 40
0.0
  9
$DIMTIX
 70
     0
  9
$DIMSOXD
 70
     0
  9
$DIMSAH
 70
     0
  9
$DIMBLK1
  1

  9
$DIMBLK2
  1

  9
$DIMSTYLE
  2
Standard
  9
$DIMCLRD
 70
     0
  9
$DIMCLRE
 70
     0
  9
$DIMCLRT
 70
     0
  9
$DIMTFAC
 40
1.0
  9
$DIMGAP
 40
0.09
  9
$DIMJUST
 70
     0
  9
$DIMSD1
 70
     0
  9
$DIMSD2
 70
     0
  9
$DIMTOLJ
 70
     1
  9
$DIMTZIN
 70
     0
  9
$DIMALTZ
 70
     0
  9
$DIMALTTZ
 70
     0
  9
$DIMUPT
 70
     0
  9
$DIMDEC
 70
     4
  9
$DIMTDEC
 70
     4
  9
$DIMALTU
 70
     2
  9
$DIMALTTD
 70
     2
  9
$DIMTXSTY
  7
Standard
  9
$DIMAUNIT
 70
     0
  9
$DIMADEC
 70
     0
  9
$DIMALTRND
 40
0.0
  9
$DIMAZIN
 70
     0
  9
$DIMDSEP
 70
    46
  9
$DIMATFIT
 70
     3
  9
$DIMFRAC
 70
     0
  9
$DIMLDRBLK
  1

  9
$DIMLUNIT
 70
     2
  9
$DIMLWD
 70
    -2
  9
$DIMLWE
 70
    -2
  9
$DIMTMOVE
 70
     0
  9
$LUNITS
 70
     2
  9
$LUPREC
 70
     4
  9
$SKETCHINC
 40
0.1
  9
$FILLETRAD
 40
0.5
  9
$AUNITS
 70
     0
  9
$AUPREC
 70
     0
  9
$MENU
  1
.
  9
$ELEVATION
 40
0.0
  9
$PELEVATION
 40
0.0
  9
$THICKNESS
 40
0.0
  9
$LIMCHECK
 70
     0
  9
$CHAMFERA
 40
0.5
  9
$CHAMFERB
 40
0.5
  9
$CHAMFERC
 40
1.0
  9
$CHAMFERD
 40
0.0
  9
$SKPOLY
 70
     0
  9
$TDCREATE
 40
2454822.760048137
  9
$TDUCREATE
 40
2454823.051714803
  9
$TDUPDATE
 40
2454822.760048148
  9
$TDUUPDATE
 40
2454823.051714815
  9
$TDINDWG
 40
0.0000000116
  9
$TDUSRTIMER
 40
0.0000000116
  9
$USRTIMER
 70
     1
  9
$ANGBASE
 50
0.0
  9
$ANGDIR
 70
     0
  9
$PDMODE
 70
     0
  9
$PDSIZE
 40
0.0
  9
$PLINEWID
 40
0.0
  9
$SPLFRAME
 70
     0
  9
$SPLINETYPE
 70
     6
  9
$SPLINESEGS
 70
     8
  9
$HANDSEED
  5
48
  9
$SURFTAB1
 70
     6
  9
$SURFTAB2
 70
     6
  9
$SURFTYPE
 70
     6
  9
$SURFU
 70
     6
  9
$SURFV
 70
     6
  9
$UCSBASE
  2

  9
$UCSNAME
  2

  9
$UCSORG
 10
0.0
 20
0.0
 30
0.0
  9
$UCSXDIR
 10
1.0
 20
0.0
 30
0.0
  9
$UCSYDIR
 10
0.0
 20
1.0
 30
0.0
  9
$UCSORTHOREF
  2

  9
$UCSORTHOVIEW
 70
     0
  9
$UCSORGTOP
 10
0.0
 20
0.0
 30
0.0
  9
$UCSORGBOTTOM
 10
0.0
 20
0.0
 30
0.0
  9
$UCSORGLEFT
 10
0.0
 20
0.0
 30
0.0
  9
$UCSORGRIGHT
 10
0.0
 20
0.0
 30
0.0
  9
$UCSORGFRONT
 10
0.0
 20
0.0
 30
0.0
  9
$UCSORGBACK
 10
0.0
 20
0.0
 30
0.0
  9
$PUCSBASE
  2

  9
$PUCSNAME
  2

  9
$PUCSORG
 10
0.0
 20
0.0
 30
0.0
  9
$PUCSXDIR
 10
1.0
 20
0.0
 30
0.0
  9
$PUCSYDIR
 10
0.0
 20
1.0
 30
0.0
  9
$PUCSORTHOREF
  2

  9
$PUCSORTHOVIEW
 70
     0
  9
$PUCSORGTOP
 10
0.0
 20
0.0
 30
0.0
  9
$PUCSORGBOTTOM
 10
0.0
 20
0.0
 30
0.0
  9
$PUCSORGLEFT
 10
0.0
 20
0.0
 30
0.0
  9
$PUCSORGRIGHT
 10
0.0
 20
0.0
 30
0.0
  9
$PUCSORGFRONT
 10
0.0
 20
0.0
 30
0.0
  9
$PUCSORGBACK
 10
0.0
 20
0.0
 30
0.0
  9
$USERI1
 70
     0
  9
$USERI2
 70
     0
  9
$USERI3
 70
     0
  9
$USERI4
 70
     0
  9
$USERI5
 70
     0
  9
$USERR1
 40
0.0
  9
$USERR2
 40
0.0
  9
$USERR3
 40
0.0
  9
$USERR4
 40
0.0
  9
$USERR5
 40
0.0
  9
$WORLDVIEW
 70
     1
  9
$SHADEDGE
 70
     3
  9
$SHADEDIF
 70
    70
  9
$TILEMODE
 70
     1
  9
$MAXACTVP
 70
    64
  9
$PINSBASE
 10
0.0
 20
0.0
 30
0.0
  9
$PLIMCHECK
 70
     0
  9
$PEXTMIN
 10
1.000000000000000E+20
 20
1.000000000000000E+20
 30
1.000000000000000E+20
  9
$PEXTMAX
 10
-1.000000000000000E+20
 20
-1.000000000000000E+20
 30
-1.000000000000000E+20
  9
$PLIMMIN
 10
0.0
 20
0.0
  9
$PLIMMAX
 10
12.0
 20
9.0
  9
$UNITMODE
 70
     0
  9
$VISRETAIN
 70
     1
  9
$PLINEGEN
 70
     0
  9
$PSLTSCALE
 70
     1
  9
$TREEDEPTH
 70
  3020
  9
$CMLSTYLE
  2
Standard
  9
$CMLJUST
 70
     0
  9
$CMLSCALE
 40
1.0
  9
$PROXYGRAPHICS
 70
     1
  9
$MEASUREMENT
 70
     0
  9
$CELWEIGHT
370
    -1
  9
$ENDCAPS
280
     0
  9
$JOINSTYLE
280
     0
  9
$LWDISPLAY
290
     0
  9
$INSUNITS
 70
     1
  9
$HYPERLINKBASE
  1

  9
$STYLESHEET
  1

  9
$XEDIT
290
     1
  9
$CEPSNTYPE
380
     0
  9
$PSTYLEMODE
290
     0
  9
$FINGERPRINTGUID
  2
{FAEB1C30-E019-11D5-929B-00C0DF256EC4}
  9
$VERSIONGUID
  2
{FAEB1C32-E019-11D5-929B-00C0DF256EC4}
  9
$EXTNAMES
290
     1
  9
$PSVPSCALE
 40
0.0
  9
$OLESTARTUP
290
     0
  9
$SORTENTS
280
   127
  9
$INDEXCTL
280
     0
  9
$HIDETEXT
280
     1
  9
$XCLIPFRAME
290
     0
  9
$HALOGAP
280
     0
  9
$OBSCOLOR
 70
   257
  9
$OBSLTYPE
280
     0
  9
$INTERSECTIONDISPLAY
280
     0
  9
$INTERSECTIONCOLOR
 70
   257
  9
$DIMASSOC
280
     2
  9
$PROJECTNAME
  1

  0
ENDSEC
  0
SECTION
  2
CLASSES
  0
CLASS
  1
ACDBDICTIONARYWDFLT
  2
AcDbDictionaryWithDefault
  3
ObjectDBX Classes
 90
        0
 91
        1
280
     0
281
     0
  0
ENDSEC
  0
SECTION
  2
TABLES
  0
TABLE
  2
VPORT
  5
8
330
0
100
AcDbSymbolTable
 70
     2
  0
VPORT
  5
29
330
8
100
AcDbSymbolTableRecord
100
AcDbViewportTableRecord
  2
*Active
 70
     0
 10
0.0
 20
0.0
 11
1.0
 21
1.0
 12
10.42990654205607
 22
4.5
 13
0.0
 23
0.0
 14
0.5
 24
0.5
 15
0.5
 25
0.5
 16
0.0
 26
0.0
 36
1.0
 17
0.0
 27
0.0
 37
0.0
 40
9.0
 41
1.972972972850329
 42
50.0
 43
0.0
 44
0.0
 50
0.0
 51
0.0
 71
     0
 72
   100
 73
     1
 74
     3
 75
     0
 76
     0
 77
     0
 78
     0
281
     0
 65
     1
110
0.0
120
0.0
130
0.0
111
1.0
121
0.0
131
0.0
112
0.0
122
1.0
132
0.0
 79
     0
146
0.0
  0
ENDTAB
  0
TABLE
  2
LTYPE
  5
5
330
0
100
AcDbSymbolTable
 70
     1
  0
LTYPE
  5
14
330
5
100
AcDbSymbolTableRecord
100
AcDbLinetypeTableRecord
  2
ByBlock
 70
     0
  3

 72
    65
 73
     0
 40
0.0
  0
LTYPE
  5
15
330
5
100
AcDbSymbolTableRecord
100
AcDbLinetypeTableRecord
  2
ByLayer
 70
     0
  3

 72
    65
 73
     0
 40
0.0
  0
LTYPE
  5
16
330
5
100
AcDbSymbolTableRecord
100
AcDbLinetypeTableRecord
  2
Continuous
 70
     0
  3
Solid line
 72
    65
 73
     0
 40
0.0
  0
ENDTAB
  0
TABLE
  2
LAYER
  5
2
330
0
100
AcDbSymbolTable
 70
     2
  0
LAYER
  5
10
330
2
100
AcDbSymbolTableRecord
100
AcDbLayerTableRecord
  2
0
 70
     0
 62
     7
  6
Continuous
370
    -3
390
F
  0
LAYER
  5
2B
330
2
100
AcDbSymbolTableRecord
100
AcDbLayerTableRecord
  2
Layer 1
 70
     0
 62
     7
  6
Continuous
370
    -3
390
F
  0
ENDTAB
  0
TABLE
  2
STYLE
  5
3
330
0
100
AcDbSymbolTable
 70
     3
  0
STYLE
  5
11
330
3
100
AcDbSymbolTableRecord
100
AcDbTextStyleTableRecord
  2
Standard
 70
     0
 40
0.0
 41
1.0
 50
0.0
 71
     0
 42
0.2
  3
txt
  4

  0
STYLE
  5
2E
330
3
100
AcDbSymbolTableRecord
100
AcDbTextStyleTableRecord
  2
0
 70
     0
 40
1.0
 41
1.0
 50
0.0
 71
     0
 42
1.0
  3
Arial
  4

1001
ACAD
1000
Arial
1071
       34
  0
STYLE
  5
38
330
3
100
AcDbSymbolTableRecord
100
AcDbTextStyleTableRecord
  2
1
 70
     0
 40
1.0
 41
1.0
 50
0.0
 71
     0
 42
1.0
  3
Arial
  4

1001
ACAD
1000
Arial
1071
       34
  0
ENDTAB
  0
TABLE
  2
VIEW
  5
6
330
0
100
AcDbSymbolTable
 70
     0
  0
ENDTAB
  0
TABLE
  2
UCS
  5
7
330
0
100
AcDbSymbolTable
 70
     0
  0
ENDTAB
  0
TABLE
  2
APPID
  5
9
330
0
100
AcDbSymbolTable
 70
     2
  0
APPID
  5
12
330
9
100
AcDbSymbolTableRecord
100
AcDbRegAppTableRecord
  2
ACAD
 70
     0
  0
APPID
  5
2A
330
9
100
AcDbSymbolTableRecord
100
AcDbRegAppTableRecord
  2
ODA
 70
     0
  0
ENDTAB
  0
TABLE
  2
DIMSTYLE
  5
A
330
0
100
AcDbSymbolTable
 70
     1
100
AcDbDimStyleTable
  0
DIMSTYLE
105
27
330
A
100
AcDbSymbolTableRecord
100
AcDbDimStyleTableRecord
  2
Standard
 70
     0
340
11
  0
ENDTAB
  0
TABLE
  2
BLOCK_RECORD
  5
1
330
0
100
AcDbSymbolTable
 70
     1
  0
BLOCK_RECORD
  5
1F
330
1
100
AcDbSymbolTableRecord
100
AcDbBlockTableRecord
  2
*Model_Space
340
22
  0
BLOCK_RECORD
  5
1B
330
1
100
AcDbSymbolTableRecord
100
AcDbBlockTableRecord
  2
*Paper_Space
340
1E
  0
BLOCK_RECORD
  5
23
330
1
100
AcDbSymbolTableRecord
100
AcDbBlockTableRecord
  2
*Paper_Space0
340
26
  0
ENDTAB
  0
ENDSEC
  0
SECTION
  2
BLOCKS
  0
BLOCK
  5
20
330
1F
100
AcDbEntity
  8
0
100
AcDbBlockBegin
  2
*Model_Space
 70
     0
 71
     0
 10
0.0
 20
0.0
 30
0.0
  3
*Model_Space
  1

  0
ENDBLK
  5
21
330
1F
100
AcDbEntity
  8
0
100
AcDbBlockEnd
  0
BLOCK
  5
1C
330
1B
100
AcDbEntity
 67
     1
  8
0
100
AcDbBlockBegin
  2
*Paper_Space
 70
     0
 71
     0
 10
0.0
 20
0.0
 30
0.0
  3
*Paper_Space
  1

  0
ENDBLK
  5
1D
330
1B
100
AcDbEntity
 67
     1
  8
0
100
AcDbBlockEnd
  0
BLOCK
  5
24
330
23
100
AcDbEntity
  8
0
100
AcDbBlockBegin
  2
*Paper_Space0
 70
     0
 71
     0
 10
0.0
 20
0.0
 30
0.0
  3
*Paper_Space0
  1

  0
ENDBLK
  5
25
330
23
100
AcDbEntity
  8
0
100
AcDbBlockEnd
  0
ENDSEC
  0
SECTION
  2
ENTITIES
  0
LWPOLYLINE
  5
2C
330
1F
100
AcDbEntity
  8
Layer 1
 62
    22
370
     5
100
AcDbPolyline
 90
        5
 70
     1
 43
0.0
 10
-11.90944488188976
 20
4.10755905511811
 10
-11.56454724409449
 20
4.10755905511811
 10
-11.56454724409449
 20
4.347700787401575
 10
-11.90944488188976
 20
4.347700787401575
 10
-11.90944488188976
 20
4.10755905511811
  0
LWPOLYLINE
  5
2D
330
1F
100
AcDbEntity
  8
Layer 1
 62
    22
370
     5
100
AcDbPolyline
 90
        5
 70
     1
 43
0.0
 10
-9.426606299212599
 20
4.10755905511811
 10
-9.081708661417324
 20
4.10755905511811
 10
-9.081708661417324
 20
4.347700787401575
 10
-9.426606299212599
 20
4.347700787401575
 10
-9.426606299212599
 20
4.10755905511811
  0
TEXT
  5
2F
330
1F
100
AcDbEntity
  8
Layer 1
 62
   250
100
AcDbText
 10
-11.31644488188976
 20
5.470618110236221
 30
0.0
 40
0.1399974803149606
  1
Ssllgggiiioooeellyy
 51
-0.0000015352344868
  7
0
100
AcDbText
  0
LWPOLYLINE
  5
30
330
1F
100
AcDbEntity
  8
Layer 1
 62
   250
100
AcDbPolyline
 90
        5
 70
     1
 43
0.0
 10
-11.42344488188977
 20
5.012555118110236
 10
-9.297452755905512
 20
5.012555118110236
 10
-9.297452755905512
 20
5.38061811023622
 10
-11.42344488188977
 20
5.38061811023622
 10
-11.42344488188977
 20
5.012555118110236
  0
LWPOLYLINE
  5
31
330
1F
100
AcDbEntity
  8
Layer 1
 62
   250
100
AcDbPolyline
 90
        5
 70
     1
 43
0.0
 10
-9.312070866141733
 20
4.812114173228347
 10
-9.297448818897639
 20
4.812114173228347
 10
-9.297448818897639
 20
5.180177165354331
 10
-9.312070866141733
 20
5.180177165354331
 10
-9.312070866141733
 20
4.812114173228347
  0
LWPOLYLINE
  5
32
330
1F
100
AcDbEntity
  8
Layer 1
 62
   250
100
AcDbPolyline
 90
        5
 70
     1
 43
0.0
 10
-9.312070866141733
 20
4.515007874015748
 10
-9.297448818897639
 20
4.515007874015748
 10
-9.297448818897639
 20
4.698771653543307
 10
-9.312070866141733
 20
4.698771653543307
 10
-9.312070866141733
 20
4.515007874015748
  0
SPLINE
  5
33
330
1F
100
AcDbEntity
  8
Layer 1
 62
    22
370
     5
100
AcDbSpline
210
0.0
220
0.0
230
1.0
 70
    11
 71
     3
 72
    16
 73
    12
 74
     0
 42
0.0000000001
 43
0.0000000001
 40
0.0
 40
0.0
 40
0.0
 40
0.0
 40
0.3333333333333333
 40
0.3333333333333333
 40
0.3333333333333333
 40
0.3333333333333333
 40
0.6666666666666666
 40
0.6666666666666666
 40
0.6666666666666666
 40
0.6666666666666666
 40
1.0
 40
1.0
 40
1.0
 40
1.0
 10
-11.25450787401575
 20
4.234043307086615
 30
0.0
 10
-11.25450787401575
 20
4.234043307086615
 30
0.0
 10
-11.25444488188976
 20
4.233700787401575
 30
0.0
 10
-11.25444488188976
 20
4.233700787401575
 30
0.0
 10
-11.25444488188976
 20
4.233700787401575
 30
0.0
 10
-11.25444488188976
 20
4.233700787401575
 30
0.0
 10
-11.25418503937008
 20
4.23394094488189
 30
0.0
 10
-11.25418503937008
 20
4.23394094488189
 30
0.0
 10
-11.25418503937008
 20
4.23394094488189
 30
0.0
 10
-11.25418503937008
 20
4.23394094488189
 30
0.0
 10
-11.25450787401575
 20
4.234043307086615
 30
0.0
 10
-11.25450787401575
 20
4.234043307086615
 30
0.0
  0
SPLINE
  5
34
330
1F
100
AcDbEntity
  8
Layer 1
 62
    22
370
     5
100
AcDbSpline
210
0.0
220
0.0
230
1.0
 70
    11
 71
     3
 72
    28
 73
    24
 74
     0
 42
0.0000000001
 43
0.0000000001
 40
0.0
 40
0.0
 40
0.0
 40
0.0
 40
0.1666666666666667
 40
0.1666666666666667
 40
0.1666666666666667
 40
0.1666666666666667
 40
0.3333333333333333
 40
0.3333333333333333
 40
0.3333333333333333
 40
0.3333333333333333
 40
0.5
 40
0.5
 40
0.5
 40
0.5
 40
0.6666666666666666
 40
0.6666666666666666
 40
0.6666666666666666
 40
0.6666666666666666
 40
0.8333333333333333
 40
0.8333333333333333
 40
0.8333333333333333
 40
0.8333333333333333
 40
1.0
 40
1.0
 40
1.0
 40
1.0
 10
-11.25444488188976
 20
4.233700787401575
 30
0.0
 10
-11.25444488188976
 20
4.233700787401575
 30
0.0
 10
-11.07544488188976
 20
4.785700787401575
 30
0.0
 10
-11.07544488188976
 20
4.785700787401575
 30
0.0
 10
-11.07544488188976
 20
4.785700787401575
 30
0.0
 10
-11.07544488188976
 20
4.785700787401575
 30
0.0
 10
-10.89544488188976
 20
4.233700787401575
 30
0.0
 10
-10.89544488188976
 20
4.233700787401575
 30
0.0
 10
-10.89544488188976
 20
4.233700787401575
 30
0.0
 10
-10.89544488188976
 20
4.233700787401575
 30
0.0
 10
-11.36444488188976
 20
4.574700787401575
 30
0.0
 10
-11.36444488188976
 20
4.574700787401575
 30
0.0
 10
-11.36444488188976
 20
4.574700787401575
 30
0.0
 10
-11.36444488188976
 20
4.574700787401575
 30
0.0
 10
-11.36444488188976
 20
4.574700787401575
 30
0.0
 10
-11.36444488188976
 20
4.574700787401575
 30
0.0
 10
-11.36444488188976
 20
4.574700787401575
 30
0.0
 10
-11.36444488188976
 20
4.574700787401575
 30
0.0
 10
-10.78444488188976
 20
4.574700787401575
 30
0.0
 10
-10.78444488188976
 20
4.574700787401575
 30
0.0
 10
-10.78444488188976
 20
4.574700787401575
 30
0.0
 10
-10.78444488188976
 20
4.574700787401575
 30
0.0
 10
-11.25444488188976
 20
4.233700787401575
 30
0.0
 10
-11.25444488188976
 20
4.233700787401575
 30
0.0
  0
LWPOLYLINE
  5
35
330
1F
100
AcDbEntity
  8
Layer 1
 62
    22
370
     5
100
AcDbPolyline
 90
        5
 70
     1
 43
0.0
 10
-9.599055118110236
 20
4.347700787401575
 10
-9.426606299212599
 20
4.347700787401575
 10
-9.426606299212599
 20
4.467771653543307
 10
-9.599055118110236
 20
4.467771653543307
 10
-9.599055118110236
 20
4.347700787401575
  0
SPLINE
  5
36
330
1F
100
AcDbEntity
  8
Layer 1
 62
    22
370
     5
100
AcDbSpline
210
0.0
220
0.0
230
1.0
 70
    11
 71
     3
 72
    16
 73
    12
 74
     0
 42
0.0000000001
 43
0.0000000001
 40
0.0
 40
0.0
 40
0.0
 40
0.0
 40
0.3333333333333333
 40
0.3333333333333333
 40
0.3333333333333333
 40
0.3333333333333333
 40
0.6666666666666666
 40
0.6666666666666666
 40
0.6666666666666666
 40
0.6666666666666666
 40
1.0
 40
1.0
 40
1.0
 40
1.0
 10
-11.83615748031496
 20
6.000169291338583
 30
0.0
 10
-11.83615748031496
 20
6.000169291338583
 30
0.0
 10
-11.83646850393701
 20
6.0
 30
0.0
 10
-11.83646850393701
 20
6.0
 30
0.0
 10
-11.83646850393701
 20
6.0
 30
0.0
 10
-11.83646850393701
 20
6.0
 30
0.0
 10
-11.83615748031496
 20
5.999826771653543
 30
0.0
 10
-11.83615748031496
 20
5.999826771653543
 30
0.0
 10
-11.83615748031496
 20
5.999826771653543
 30
0.0
 10
-11.83615748031496
 20
5.999826771653543
 30
0.0
 10
-11.83615748031496
 20
6.000169291338583
 30
0.0
 10
-11.83615748031496
 20
6.000169291338583
 30
0.0
  0
SPLINE
  5
37
330
1F
100
AcDbEntity
  8
Layer 1
 62
    22
370
     5
100
AcDbSpline
210
0.0
220
0.0
230
1.0
 70
    11
 71
     3
 72
    36
 73
    32
 74
     0
 42
0.0000000001
 43
0.0000000001
 40
0.0
 40
0.0
 40
0.0
 40
0.0
 40
0.125
 40
0.125
 40
0.125
 40
0.125
 40
0.25
 40
0.25
 40
0.25
 40
0.25
 40
0.375
 40
0.375
 40
0.375
 40
0.375
 40
0.5
 40
0.5
 40
0.5
 40
0.5
 40
0.625
 40
0.625
 40
0.625
 40
0.625
 40
0.75
 40
0.75
 40
0.75
 40
0.75
 40
0.875
 40
0.875
 40
0.875
 40
0.875
 40
1.0
 40
1.0
 40
1.0
 40
1.0
 10
-11.83646850393701
 20
6.0
 30
0.0
 10
-11.83646850393701
 20
6.0
 30
0.0
 10
-9.154681102362206
 20
6.0
 30
0.0
 10
-9.154681102362206
 20
6.0
 30
0.0
 10
-9.154681102362206
 20
6.0
 30
0.0
 10
-9.064740157480316
 20
6.0
 30
0.0
 10
-8.991157480314961
 20
5.92659842519685
 30
0.0
 10
-8.991157480314961
 20
5.83688188976378
 30
0.0
 10
-8.991157480314961
 20
5.83688188976378
 30
0.0
 10
-8.991157480314961
 20
5.83688188976378
 30
0.0
 10
-8.991157480314961
 20
4.18396062992126
 30
0.0
 10
-8.991157480314961
 20
4.18396062992126
 30
0.0
 10
-8.991157480314961
 20
4.18396062992126
 30
0.0
 10
-8.991157480314961
 20
4.09424409448819
 30
0.0
 10
-9.064740157480316
 20
4.02084251968504
 30
0.0
 10
-9.154681102362206
 20
4.02084251968504
 30
0.0
 10
-9.154681102362206
 20
4.02084251968504
 30
0.0
 10
-9.154681102362206
 20
4.02084251968504
 30
0.0
 10
-11.83646850393701
 20
4.02084251968504
 30
0.0
 10
-11.83646850393701
 20
4.02084251968504
 30
0.0
 10
-11.83646850393701
 20
4.02084251968504
 30
0.0
 10
-11.9264094488189
 20
4.02084251968504
 30
0.0
 10
-11.99999212598425
 20
4.09424409448819
 30
0.0
 10
-11.99999212598425
 20
4.18396062992126
 30
0.0
 10
-11.99999212598425
 20
4.18396062992126
 30
0.0
 10
-11.99999212598425
 20
4.18396062992126
 30
0.0
 10
-11.99999212598425
 20
5.83688188976378
 30
0.0
 10
-11.99999212598425
 20
5.83688188976378
 30
0.0
 10
-11.99999212598425
 20
5.83688188976378
 30
0.0
 10
-11.99999212598425
 20
5.92659842519685
 30
0.0
 10
-11.9264094488189
 20
6.0
 30
0.0
 10
-11.83646850393701
 20
6.0
 30
0.0
  0
TEXT
  5
39
330
1F
100
AcDbEntity
  8
Layer 1
 62
   250
100
AcDbText
 10
-10.92244488188976
 20
5.725618110236221
 30
0.0
 40
0.0799993700787402
  1
Ssllgggiiioooeellyy
 51
-0.0000015352344868
  7
1
100
AcDbText
  0
LWPOLYLINE
  5
3A
330
1F
100
AcDbEntity
  8
Layer 1
 62
    22
370
     5
100
AcDbPolyline
 90
        5
 70
     1
 43
0.0
 10
-9.426606299212599
 20
5.688476377952756
 10
-9.081708661417324
 20
5.688476377952756
 10
-9.081708661417324
 20
5.92861811023622
 10
-9.426606299212599
 20
5.92861811023622
 10
-9.426606299212599
 20
5.688476377952756
  0
LWPOLYLINE
  5
3B
330
1F
100
AcDbEntity
  8
Layer 1
 62
    22
370
     5
100
AcDbPolyline
 90
        5
 70
     1
 43
0.0
 10
-9.599055118110236
 20
5.56840157480315
 10
-9.426606299212599
 20
5.56840157480315
 10
-9.426606299212599
 20
5.688472440944882
 10
-9.599055118110236
 20
5.688472440944882
 10
-9.599055118110236
 20
5.56840157480315
  0
LWPOLYLINE
  5
3C
330
1F
100
AcDbEntity
  8
Layer 1
 62
    22
370
     5
100
AcDbPolyline
 90
        5
 70
     1
 43
0.0
 10
-11.90944488188976
 20
5.688476377952756
 10
-11.56454724409449
 20
5.688476377952756
 10
-11.56454724409449
 20
5.92861811023622
 10
-11.90944488188976
 20
5.92861811023622
 10
-11.90944488188976
 20
5.688476377952756
  0
LWPOLYLINE
  5
3D
330
1F
100
AcDbEntity
  8
Layer 1
 62
    22
370
     5
100
AcDbPolyline
 90
        5
 70
     1
 43
0.0
 10
-11.56454724409449
 20
5.56840157480315
 10
-11.39209842519685
 20
5.56840157480315
 10
-11.39209842519685
 20
5.688472440944882
 10
-11.56454724409449
 20
5.688472440944882
 10
-11.56454724409449
 20
5.56840157480315
  0
LWPOLYLINE
  5
3E
330
1F
100
AcDbEntity
  8
Layer 1
 62
    22
370
     5
100
AcDbPolyline
 90
        5
 70
     1
 43
0.0
 10
-11.56454724409449
 20
4.347700787401575
 10
-11.39209842519685
 20
4.347700787401575
 10
-11.39209842519685
 20
4.467771653543307
 10
-11.56454724409449
 20
4.467771653543307
 10
-11.56454724409449
 20
4.347700787401575
  0
ELLIPSE
  5
3F
330
1F
100
AcDbEntity
  8
Layer 1
 62
    22
370
     5
100
AcDbEllipse
 10
-10.61834251968504
 20
4.874027559055119
 30
0.0
 11
0.0
 21
0.1175
 31
0.0
210
0.0
220
0.0
230
1.0
 40
1.0
 41
0.0
 42
6.283185307179586
  0
ELLIPSE
  5
40
330
1F
100
AcDbEntity
  8
Layer 1
 62
    22
370
     5
100
AcDbEllipse
 10
-10.523
 20
4.29505905511811
 30
0.0
 11
0.0
 21
0.2428307086614173
 31
0.0
210
0.0
220
0.0
230
1.0
 40
1.0
 41
0.0
 42
6.283185307179586
  0
ELLIPSE
  5
41
330
1F
100
AcDbEntity
  8
Layer 1
 62
    22
370
     5
100
AcDbEllipse
 10
-9.98313779527559
 20
4.661661417322835
 30
0.0
 11
0.0
 21
0.3349803149606299
 31
0.0
210
0.0
220
0.0
230
1.0
 40
1.0
 41
0.0
 42
6.283185307179586
  0
LWPOLYLINE
  5
42
330
1F
100
AcDbEntity
  8
Layer 1
 62
   250
100
AcDbPolyline
 90
        5
 70
     1
 43
0.0
 10
-11.42344488188977
 20
4.489736220472441
 10
-11.37642913385827
 20
4.489736220472441
 10
-11.37642913385827
 20
4.707909448818898
 10
-11.42344488188977
 20
4.707909448818898
 10
-11.42344488188977
 20
4.489736220472441
  0
LWPOLYLINE
  5
43
330
1F
100
AcDbEntity
  8
Layer 1
 62
   250
100
AcDbPolyline
 90
        5
 70
     1
 43
0.0
 10
-11.42344488188977
 20
4.781047244094489
 10
-11.37642913385827
 20
4.781047244094489
 10
-11.37642913385827
 20
4.946086614173229
 10
-11.42344488188977
 20
4.946086614173229
 10
-11.42344488188977
 20
4.781047244094489
  0
LWPOLYLINE
  5
44
330
1F
100
AcDbEntity
  8
Layer 1
 62
   250
100
AcDbPolyline
 90
        5
 70
     1
 43
0.0
 10
-10.41040551181103
 20
4.89244094488189
 10
-10.36338976377953
 20
4.89244094488189
 10
-10.36338976377953
 20
5.014425196850394
 10
-10.41040551181103
 20
5.014425196850394
 10
-10.41040551181103
 20
4.89244094488189
  0
LWPOLYLINE
  5
45
330
1F
100
AcDbEntity
  8
Layer 1
 62
   250
100
AcDbPolyline
 90
        5
 70
     1
 43
0.0
 10
-11.35129133858268
 20
4.631590551181103
 10
-11.16474015748032
 20
4.631590551181103
 10
-11.16474015748032
 20
4.842409448818898
 10
-11.35129133858268
 20
4.842409448818898
 10
-11.35129133858268
 20
4.631590551181103
  0
LWPOLYLINE
  5
46
330
1F
100
AcDbEntity
  8
Layer 1
 62
   250
100
AcDbPolyline
 90
        5
 70
     1
 43
0.0
 10
-10.99476377952756
 20
4.631590551181103
 10
-10.38949606299213
 20
4.631590551181103
 10
-10.38949606299213
 20
4.731086614173228
 10
-10.99476377952756
 20
4.731086614173228
 10
-10.99476377952756
 20
4.631590551181103
  0
LWPOLYLINE
  5
47
330
1F
100
AcDbEntity
  8
Layer 1
 62
   250
100
AcDbPolyline
 90
        5
 70
     1
 43
0.0
 10
-10.28170866141732
 20
4.631590551181103
 10
-9.67644094488189
 20
4.631590551181103
 10
-9.67644094488189
 20
4.731086614173228
 10
-10.28170866141732
 20
4.731086614173228
 10
-10.28170866141732
 20
4.631590551181103
  0
ENDSEC
  0
SECTION
  2
OBJECTS
  0
DICTIONARY
  5
C
330
0
100
AcDbDictionary
281
     1
  3
ACAD_GROUP
350
D
  3
ACAD_LAYOUT
350
1A
  3
ACAD_MLINESTYLE
350
17
  3
ACAD_PLOTSETTINGS
350
19
  3
ACAD_PLOTSTYLENAME
350
E
  0
DICTIONARY
  5
D
102
{ACAD_REACTORS
330
C
102
}
330
C
100
AcDbDictionary
281
     1
  0
DICTIONARY
  5
1A
102
{ACAD_REACTORS
330
C
102
}
330
C
100
AcDbDictionary
281
     1
  3
Layout1
350
1E
  3
Layout2
350
26
  3
Model
350
22
  0
DICTIONARY
  5
17
102
{ACAD_REACTORS
330
C
102
}
330
C
100
AcDbDictionary
281
     1
  3
Standard
350
18
  0
DICTIONARY
  5
19
102
{ACAD_REACTORS
330
C
102
}
330
C
100
AcDbDictionary
281
     1
  0
ACDBDICTIONARYWDFLT
  5
E
102
{ACAD_REACTORS
330
C
102
}
330
C
100
AcDbDictionary
281
     1
  3
Normal
350
F
100
AcDbDictionaryWithDefault
340
F
  0
LAYOUT
  5
1E
102
{ACAD_REACTORS
330
1A
102
}
330
1A
100
AcDbPlotSettings
  1

  2

  4

  6

 40
0.0
 41
0.0
 42
0.0
 43
0.0
 44
0.0
 45
0.0
 46
0.0
 47
0.0
 48
0.0
 49
0.0
140
0.0
141
0.0
142
1.0
143
1.0
 70
   688
 72
     0
 73
     0
 74
     5
  7

 75
    16
 76
     0
 77
     2
 78
   300
147
1.0
148
0.0
149
0.0
100
AcDbLayout
  1
Layout1
 70
     1
 71
     1
 10
0.0
 20
0.0
 11
12.0
 21
9.0
 12
0.0
 22
0.0
 32
0.0
 14
1.000000000000000E+20
 24
1.000000000000000E+20
 34
1.000000000000000E+20
 15
-1.000000000000000E+20
 25
-1.000000000000000E+20
 35
-1.000000000000000E+20
146
0.0
 13
0.0
 23
0.0
 33
0.0
 16
1.0
 26
0.0
 36
0.0
 17
0.0
 27
1.0
 37
0.0
 76
     0
330
1B
  0
LAYOUT
  5
26
102
{ACAD_REACTORS
330
1A
102
}
330
1A
100
AcDbPlotSettings
  1

  2

  4

  6

 40
0.0
 41
0.0
 42
0.0
 43
0.0
 44
0.0
 45
0.0
 46
0.0
 47
0.0
 48
0.0
 49
0.0
140
0.0
141
0.0
142
1.0
143
1.0
 70
   688
 72
     0
 73
     0
 74
     5
  7

 75
    16
 76
     0
 77
     2
 78
   300
147
1.0
148
0.0
149
0.0
100
AcDbLayout
  1
Layout2
 70
     1
 71
     2
 10
0.0
 20
0.0
 11
0.0
 21
0.0
 12
0.0
 22
0.0
 32
0.0
 14
0.0
 24
0.0
 34
0.0
 15
0.0
 25
0.0
 35
0.0
146
0.0
 13
0.0
 23
0.0
 33
0.0
 16
1.0
 26
0.0
 36
0.0
 17
0.0
 27
1.0
 37
0.0
 76
     0
330
23
  0
LAYOUT
  5
22
102
{ACAD_REACTORS
330
1A
102
}
330
1A
100
AcDbPlotSettings
  1

  2

  4

  6

 40
0.0
 41
0.0
 42
0.0
 43
0.0
 44
0.0
 45
0.0
 46
0.0
 47
0.0
 48
0.0
 49
0.0
140
0.0
141
0.0
142
1.0
143
1.0
 70
  1712
 72
     0
 73
     0
 74
     0
  7

 75
     0
 76
     0
 77
     2
 78
   300
147
1.0
148
0.0
149
0.0
100
AcDbLayout
  1
Model
 70
     1
 71
     0
 10
0.0
 20
0.0
 11
0.0
 21
0.0
 12
0.0
 22
0.0
 32
0.0
 14
-12.00001968503937
 24
4.020814960629921
 34
0.0
 15
-8.991129921259843
 25
6.000027559055118
 35
0.0
146
0.0
 13
0.0
 23
0.0
 33
0.0
 16
1.0
 26
0.0
 36
0.0
 17
0.0
 27
1.0
 37
0.0
 76
     0
330
1F
  0
MLINESTYLE
  5
18
102
{ACAD_REACTORS
330
17
102
}
330
17
100
AcDbMlineStyle
  2
Standard
 70
     0
  3

 62
   256
 51
90.0
 52
90.0
 71
     2
 49
0.5
 62
   256
  6
BYLAYER
 49
-0.5
 62
   256
  6
BYLAYER
  0
ACDBPLACEHOLDER
  5
F
102
{ACAD_REACTORS
330
E
102
}
330
E
  0
ENDSEC
  0
EOF
