  0
SECTION
  2
HEADER
  9
$ACADVER
  1
AC1032
  9
$ACADMAINTVER
 90
       55
  9
$DWGCODEPAGE
  3
ANSI_1252
  9
$LASTSAVEDBY
  1
finson
  9
$REQUIREDVERSIONS
160
                 0
  9
$INSBASE
 10
0.0
 20
0.0
 30
0.0
  9
$EXTMIN
 10
0.0
 20
0.0
 30
0.0
  9
$EXTMAX
 10
280.0
 20
220.0
 30
0.0
  9
$LIMMIN
 10
0.0
 20
0.0
  9
$LIMMAX
 10
12.0
 20
9.0
  9
$ORTHOMODE
 70
     0
  9
$REGENMODE
 70
     1
  9
$FILLMODE
 70
     1
  9
$QTEXTMODE
 70
     0
  9
$MIRRTEXT
 70
     1
  9
$LTSCALE
 40
1.0
  9
$ATTMODE
 70
     1
  9
$TEXTSIZE
 40
0.2
  9
$TRACEWID
 40
0.05
  9
$TEXTSTYLE
  7
Standard
  9
$CLAYER
  8
1. Printing Layers ... 1.3 Raster
  9
$CELTYPE
  6
ByLayer
  9
$CECOLOR
 62
   256
  9
$CELTSCALE
 40
1.0
  9
$DISPSILH
 70
     0
  9
$DIMSCALE
 40
1.0
  9
$DIMASZ
 40
1.5
  9
$DIMEXO
 40
0.375
  9
$DIMDLI
 40
3.0
  9
$DIMRND
 40
0.0
  9
$DIMDLE
 40
0.0
  9
$DIMEXE
 40
0.75
  9
$DIMTP
 40
0.0
  9
$DIMTM
 40
0.0
  9
$DIMTXT
 40
1.5
  9
$DIMCEN
 40
0.09
  9
$DIMTSZ
 40
0.0
  9
$DIMTOL
 70
     0
  9
$DIMLIM
 70
     0
  9
$DIMTIH
 70
     1
  9
$DIMTOH
 70
     1
  9
$DIMSE1
 70
     0
  9
$DIMSE2
 70
     0
  9
$DIMTAD
 70
     0
  9
$DIMZIN
 70
     8
  9
$DIMBLK
  1

  9
$DIMASO
 70
     1
  9
$DIMSHO
 70
     1
  9
$DIMPOST
  1

  9
$DIMAPOST
  1

  9
$DIMALT
 70
     0
  9
$DIMALTD
 70
     2
  9
$DIMALTF
 40
25.4
  9
$DIMLFAC
 40
1.0
  9
$DIMTOFL
 70
     0
  9
$DIMTVP
 40
0.0
  9
$DIMTIX
 70
     0
  9
$DIMSOXD
 70
     0
  9
$DIMSAH
 70
     0
  9
$DIMBLK1
  1

  9
$DIMBLK2
  1

  9
$DIMSTYLE
  2
Standard
  9
$DIMCLRD
 70
    18
  9
$DIMCLRE
 70
    18
  9
$DIMCLRT
 70
    18
  9
$DIMTFAC
 40
1.0
  9
$DIMGAP
 40
0.375
  9
$DIMJUST
 70
     0
  9
$DIMSD1
 70
     0
  9
$DIMSD2
 70
     0
  9
$DIMTOLJ
 70
     1
  9
$DIMTZIN
 70
     0
  9
$DIMALTZ
 70
     0
  9
$DIMALTTZ
 70
     0
  9
$DIMUPT
 70
     0
  9
$DIMDEC
 70
     3
  9
$DIMTDEC
 70
     4
  9
$DIMALTU
 70
     2
  9
$DIMALTTD
 70
     2
  9
$DIMTXSTY
  7
Standard
  9
$DIMAUNIT
 70
     0
  9
$DIMADEC
 70
     1
  9
$DIMALTRND
 40
0.0
  9
$DIMAZIN
 70
     2
  9
$DIMDSEP
 70
    46
  9
$DIMATFIT
 70
     3
  9
$DIMFRAC
 70
     0
  9
$DIMLDRBLK
  1

  9
$DIMLUNIT
 70
     2
  9
$DIMLWD
 70
    -2
  9
$DIMLWE
 70
    -2
  9
$DIMTMOVE
 70
     0
  9
$DIMFXL
 40
1.0
  9
$DIMFXLON
 70
     0
  9
$DIMJOGANG
 40
0.7853981633974483
  9
$DIMTFILL
 70
     0
  9
$DIMTFILLCLR
 70
     0
  9
$DIMARCSYM
 70
     0
  9
$DIMLTYPE
  6

  9
$DIMLTEX1
  6

  9
$DIMLTEX2
  6

  9
$DIMTXTDIRECTION
 70
     0
  9
$LUNITS
 70
     2
  9
$LUPREC
 70
     4
  9
$SKETCHINC
 40
0.1
  9
$FILLETRAD
 40
0.5
  9
$AUNITS
 70
     0
  9
$AUPREC
 70
     0
  9
$MENU
  1
.
  9
$ELEVATION
 40
0.0
  9
$PELEVATION
 40
0.0
  9
$THICKNESS
 40
0.0
  9
$LIMCHECK
 70
     0
  9
$CHAMFERA
 40
0.0
  9
$CHAMFERB
 40
0.0
  9
$CHAMFERC
 40
0.0
  9
$CHAMFERD
 40
0.0
  9
$SKPOLY
 70
     0
  9
$TDCREATE
 40
2458875.92711581
  9
$TDUCREATE
 40
2458876.260449144
  9
$TDUPDATE
 40
2458875.927115891
  9
$TDUUPDATE
 40
2458876.260449225
  9
$TDINDWG
 40
0.0000000116
  9
$TDUSRTIMER
 40
0.0000000116
  9
$USRTIMER
 70
     1
  9
$ANGBASE
 50
0.0
  9
$ANGDIR
 70
     0
  9
$PDMODE
 70
     0
  9
$PDSIZE
 40
0.0
  9
$PLINEWID
 40
0.0
  9
$SPLFRAME
 70
     0
  9
$SPLINETYPE
 70
     6
  9
$SPLINESEGS
 70
     8
  9
$HANDSEED
  5
642
  9
$SURFTAB1
 70
     6
  9
$SURFTAB2
 70
     6
  9
$SURFTYPE
 70
     6
  9
$SURFU
 70
     6
  9
$SURFV
 70
     6
  9
$UCSBASE
  2

  9
$UCSNAME
  2

  9
$UCSORG
 10
0.0
 20
0.0
 30
0.0
  9
$UCSXDIR
 10
1.0
 20
0.0
 30
0.0
  9
$UCSYDIR
 10
0.0
 20
1.0
 30
0.0
  9
$UCSORTHOREF
  2

  9
$UCSORTHOVIEW
 70
     0
  9
$UCSORGTOP
 10
0.0
 20
0.0
 30
0.0
  9
$UCSORGBOTTOM
 10
0.0
 20
0.0
 30
0.0
  9
$UCSORGLEFT
 10
0.0
 20
0.0
 30
0.0
  9
$UCSORGRIGHT
 10
0.0
 20
0.0
 30
0.0
  9
$UCSORGFRONT
 10
0.0
 20
0.0
 30
0.0
  9
$UCSORGBACK
 10
0.0
 20
0.0
 30
0.0
  9
$PUCSBASE
  2

  9
$PUCSNAME
  2

  9
$PUCSORG
 10
0.0
 20
0.0
 30
0.0
  9
$PUCSXDIR
 10
1.0
 20
0.0
 30
0.0
  9
$PUCSYDIR
 10
0.0
 20
1.0
 30
0.0
  9
$PUCSORTHOREF
  2

  9
$PUCSORTHOVIEW
 70
     0
  9
$PUCSORGTOP
 10
0.0
 20
0.0
 30
0.0
  9
$PUCSORGBOTTOM
 10
0.0
 20
0.0
 30
0.0
  9
$PUCSORGLEFT
 10
0.0
 20
0.0
 30
0.0
  9
$PUCSORGRIGHT
 10
0.0
 20
0.0
 30
0.0
  9
$PUCSORGFRONT
 10
0.0
 20
0.0
 30
0.0
  9
$PUCSORGBACK
 10
0.0
 20
0.0
 30
0.0
  9
$USERI1
 70
     0
  9
$USERI2
 70
     0
  9
$USERI3
 70
     0
  9
$USERI4
 70
     0
  9
$USERI5
 70
     0
  9
$USERR1
 40
0.0
  9
$USERR2
 40
0.0
  9
$USERR3
 40
0.0
  9
$USERR4
 40
0.0
  9
$USERR5
 40
0.0
  9
$WORLDVIEW
 70
     1
  9
$SHADEDGE
 70
     3
  9
$SHADEDIF
 70
    70
  9
$TILEMODE
 70
     1
  9
$MAXACTVP
 70
    64
  9
$PINSBASE
 10
0.0
 20
0.0
 30
0.0
  9
$PLIMCHECK
 70
     0
  9
$PEXTMIN
 10
0.0
 20
0.0
 30
0.0
  9
$PEXTMAX
 10
0.0
 20
0.0
 30
0.0
  9
$PLIMMIN
 10
-20.0
 20
-7.5
  9
$PLIMMAX
 10
277.0
 20
202.5
  9
$UNITMODE
 70
     0
  9
$VISRETAIN
 70
     1
  9
$PLINEGEN
 70
     0
  9
$PSLTSCALE
 70
     1
  9
$TREEDEPTH
 70
  3020
  9
$CMLSTYLE
  2
Standard
  9
$CMLJUST
 70
     0
  9
$CMLSCALE
 40
1.0
  9
$PROXYGRAPHICS
 70
     1
  9
$MEASUREMENT
 70
     1
  9
$CELWEIGHT
370
    -1
  9
$ENDCAPS
280
     0
  9
$JOINSTYLE
280
     0
  9
$LWDISPLAY
290
     0
  9
$INSUNITS
 70
     4
  9
$HYPERLINKBASE
  1

  9
$STYLESHEET
  1

  9
$XEDIT
290
     1
  9
$CEPSNTYPE
380
     0
  9
$PSTYLEMODE
290
     1
  9
$FINGERPRINTGUID
  2
{6090c581-4dab-46e2-a84b-fe0ceecf9754}
  9
$VERSIONGUID
  2
{FAEB1C32-E019-11D5-929B-00C0DF256EC4}
  9
$EXTNAMES
290
     1
  9
$PSVPSCALE
 40
0.0
  9
$OLESTARTUP
290
     0
  9
$SORTENTS
280
   127
  9
$INDEXCTL
280
     0
  9
$HIDETEXT
280
     1
  9
$XCLIPFRAME
280
     2
  9
$HALOGAP
280
     0
  9
$OBSCOLOR
 70
   257
  9
$OBSLTYPE
280
     0
  9
$INTERSECTIONDISPLAY
280
     0
  9
$INTERSECTIONCOLOR
 70
   257
  9
$DIMASSOC
280
     2
  9
$PROJECTNAME
  1

  9
$CAMERADISPLAY
290
     0
  9
$LENSLENGTH
 40
50.0
  9
$CAMERAHEIGHT
 40
0.0
  9
$STEPSPERSEC
 40
2.0
  9
$STEPSIZE
 40
6.0
  9
$3DDWFPREC
 40
2.0
  9
$PSOLWIDTH
 40
0.25
  9
$PSOLHEIGHT
 40
4.0
  9
$LOFTANG1
 40
1.570796326794897
  9
$LOFTANG2
 40
1.570796326794897
  9
$LOFTMAG1
 40
0.0
  9
$LOFTMAG2
 40
0.0
  9
$LOFTPARAM
 70
     7
  9
$LOFTNORMALS
280
     1
  9
$LATITUDE
 40
37.795
  9
$LONGITUDE
 40
-122.394
  9
$NORTHDIRECTION
 40
0.0
  9
$TIMEZONE
 70
 -8000
  9
$LIGHTGLYPHDISPLAY
280
     1
  9
$TILEMODELIGHTSYNCH
280
     1
  9
$CMATERIAL
347
578
  9
$SOLIDHIST
280
     0
  9
$SHOWHIST
280
     1
  9
$DWFFRAME
280
     2
  9
$DGNFRAME
280
     2
  9
$REALWORLDSCALE
290
     1
  9
$INTERFERECOLOR
 62
   256
  9
$CSHADOW
280
     0
  9
$SHADOWPLANELOCATION
 40
0.0
  0
ENDSEC
  0
SECTION
  2
CLASSES
  0
CLASS
  1
ACDBDICTIONARYWDFLT
  2
AcDbDictionaryWithDefault
  3
ObjectDBX Classes
 90
        0
 91
        3
280
     0
281
     0
  0
CLASS
  1
VISUALSTYLE
  2
AcDbVisualStyle
  3
ObjectDBX Classes
 90
     4095
 91
        3
280
     0
281
     0
  0
CLASS
  1
MATERIAL
  2
AcDbMaterial
  3
ObjectDBX Classes
 90
     1153
 91
        3
280
     0
281
     0
  0
CLASS
  1
SCALE
  2
AcDbScale
  3
ObjectDBX Classes
 90
     1153
 91
        3
280
     0
281
     0
  0
CLASS
  1
TABLESTYLE
  2
AcDbTableStyle
  3
ObjectDBX Classes
 90
     4095
 91
        3
280
     0
281
     0
  0
CLASS
  1
MLEADERSTYLE
  2
AcDbMLeaderStyle
  3
ACDB_MLEADERSTYLE_CLASS
 90
     4095
 91
        3
280
     0
281
     0
  0
CLASS
  1
SUN
  2
AcDbSun
  3
SCENEOE
 90
     1153
 91
        3
280
     0
281
     0
  0
CLASS
  1
DICTIONARYVAR
  2
AcDbDictionaryVar
  3
ObjectDBX Classes
 90
        0
 91
        3
280
     0
281
     0
  0
CLASS
  1
CELLSTYLEMAP
  2
AcDbCellStyleMap
  3
ObjectDBX Classes
 90
     1152
 91
        3
280
     0
281
     0
  0
ENDSEC
  0
SECTION
  2
TABLES
  0
TABLE
  2
VPORT
  5
53D
330
0
100
AcDbSymbolTable
 70
     1
  0
VPORT
  5
55D
330
53D
100
AcDbSymbolTableRecord
100
AcDbViewportTableRecord
  2
*Active
 70
     0
 10
0.0
 20
0.0
 11
1.0
 21
1.0
 12
139.9999999999999
 22
110.0
 13
0.0
 23
0.0
 14
0.5
 24
0.5
 15
0.5
 25
0.5
 16
0.0
 26
0.0
 36
1.0
 17
0.0
 27
0.0
 37
0.0
 40
238.0984602917342
 41
2.127436281859071
 42
50.0
 43
0.0
 44
0.0
 50
0.0
 51
0.0
 71
     0
 72
   100
 73
     1
 74
     3
 75
     0
 76
     0
 77
     0
 78
     0
281
     0
 65
     1
110
0.0
120
0.0
130
0.0
111
1.0
121
0.0
131
0.0
112
0.0
122
1.0
132
0.0
 79
     0
146
0.0
348
563
 60
     3
 61
     5
292
     1
282
     1
141
0.0
142
0.0
 63
   250
361
5A1
  0
ENDTAB
  0
TABLE
  2
LTYPE
  5
53A
330
0
100
AcDbSymbolTable
 70
    52
  0
LTYPE
  5
548
330
53A
100
AcDbSymbolTableRecord
100
AcDbLinetypeTableRecord
  2
ByBlock
 70
     0
  3

 72
    65
 73
     0
 40
0.0
  0
LTYPE
  5
549
330
53A
100
AcDbSymbolTableRecord
100
AcDbLinetypeTableRecord
  2
ByLayer
 70
     0
  3

 72
    65
 73
     0
 40
0.0
  0
LTYPE
  5
54A
330
53A
100
AcDbSymbolTableRecord
100
AcDbLinetypeTableRecord
  2
Continuous
 70
     0
  3
Solid line
 72
    65
 73
     0
 40
0.0
  0
LTYPE
  5
5E0
330
53A
100
AcDbSymbolTableRecord
100
AcDbLinetypeTableRecord
  2
ACAD_ISO04W100
 70
     0
  3
ISO long-dash dot ____ . ____ . ____ . ____ . _
 72
    65
 73
     4
 40
30.0
 49
24.0
 74
     0
 49
-3.0
 74
     0
 49
0.0
 74
     0
 49
-3.0
 74
     0
  0
LTYPE
  5
5E1
330
53A
100
AcDbSymbolTableRecord
100
AcDbLinetypeTableRecord
  2
ACAD_ISO15W100
 70
     0
  3
ISO double-dash triple-dot __ __ . . . __ __ . .
 72
    65
 73
    10
 40
39.0
 49
12.0
 74
     0
 49
-3.0
 74
     0
 49
12.0
 74
     0
 49
-3.0
 74
     0
 49
0.0
 74
     0
 49
-3.0
 74
     0
 49
0.0
 74
     0
 49
-3.0
 74
     0
 49
0.0
 74
     0
 49
-3.0
 74
     0
  0
LTYPE
  5
5E2
330
53A
100
AcDbSymbolTableRecord
100
AcDbLinetypeTableRecord
  2
ACAD_ISO14W100
 70
     0
  3
ISO dash triple-dot __ . . . __ . . . __ . . . _
 72
    65
 73
     8
 40
24.0
 49
12.0
 74
     0
 49
-3.0
 74
     0
 49
0.0
 74
     0
 49
-3.0
 74
     0
 49
0.0
 74
     0
 49
-3.0
 74
     0
 49
0.0
 74
     0
 49
-3.0
 74
     0
  0
LTYPE
  5
5E3
330
53A
100
AcDbSymbolTableRecord
100
AcDbLinetypeTableRecord
  2
BORDER
 70
     0
  3
Border __ __ . __ __ . __ __ . __ __ . __ __ .
 72
    65
 73
     6
 40
44.45
 49
12.7
 74
     0
 49
-6.35
 74
     0
 49
12.7
 74
     0
 49
-6.35
 74
     0
 49
0.0
 74
     0
 49
-6.35
 74
     0
  0
LTYPE
  5
5E6
330
53A
100
AcDbSymbolTableRecord
100
AcDbLinetypeTableRecord
  2
BATTING
 70
     0
  3
Batting SSSSSSSSSSSSSSSSSSSSSSSSSSSSSSSSSSSSSSSSSSSSSSS
 72
    65
 73
     4
 40
10.16254
 49
0.00254
 74
     0
 49
-2.54
 74
     2
 75
     0
340
5E4
 46
2.54
 50
0.0
 44
-2.54
 45
0.0
  9
BAT
 49
-5.08
 74
     2
 75
     0
340
5E5
 46
2.54
 50
180.0
 44
2.54
 45
0.0
  9
BAT
 49
-2.54
 74
     0
  0
LTYPE
  5
5E7
330
53A
100
AcDbSymbolTableRecord
100
AcDbLinetypeTableRecord
  2
ACAD_ISO11W100
 70
     0
  3
ISO double-dash dot __ __ . __ __ . __ __ . __ _
 72
    65
 73
     6
 40
33.0
 49
12.0
 74
     0
 49
-3.0
 74
     0
 49
12.0
 74
     0
 49
-3.0
 74
     0
 49
0.0
 74
     0
 49
-3.0
 74
     0
  0
LTYPE
  5
5E8
330
53A
100
AcDbSymbolTableRecord
100
AcDbLinetypeTableRecord
  2
ACAD_ISO10W100
 70
     0
  3
ISO dash dot __ . __ . __ . __ . __ . __ . __ . 
 72
    65
 73
     4
 40
18.0
 49
12.0
 74
     0
 49
-3.0
 74
     0
 49
0.0
 74
     0
 49
-3.0
 74
     0
  0
LTYPE
  5
5E9
330
53A
100
AcDbSymbolTableRecord
100
AcDbLinetypeTableRecord
  2
ACAD_ISO13W100
 70
     0
  3
ISO double-dash double-dot __ __ . . __ __ . . _
 72
    65
 73
     8
 40
36.0
 49
12.0
 74
     0
 49
-3.0
 74
     0
 49
12.0
 74
     0
 49
-3.0
 74
     0
 49
0.0
 74
     0
 49
-3.0
 74
     0
 49
0.0
 74
     0
 49
-3.0
 74
     0
  0
LTYPE
  5
5EA
330
53A
100
AcDbSymbolTableRecord
100
AcDbLinetypeTableRecord
  2
ACAD_ISO12W100
 70
     0
  3
ISO dash double-dot __ . . __ . . __ . . __ . . 
 72
    65
 73
     6
 40
21.0
 49
12.0
 74
     0
 49
-3.0
 74
     0
 49
0.0
 74
     0
 49
-3.0
 74
     0
 49
0.0
 74
     0
 49
-3.0
 74
     0
  0
LTYPE
  5
5EC
330
53A
100
AcDbSymbolTableRecord
100
AcDbLinetypeTableRecord
  2
CUTLEFT
 70
     0
  3
G41 ----\----\----\----
 72
    65
 73
     2
 40
10.16
 49
5.08
 74
     2
 75
     0
340
5EB
 46
2.54
 50
180.0
 44
0.0
 45
0.0
  9
LRIGHT_ARROW
 49
5.08
 74
     0
  0
LTYPE
  5
5ED
330
53A
100
AcDbSymbolTableRecord
100
AcDbLinetypeTableRecord
  2
CENTERX2
 70
     0
  3
Center (2x) ________  __  ________  __  _____
 72
    65
 73
     4
 40
101.6
 49
63.5
 74
     0
 49
-12.7
 74
     0
 49
12.7
 74
     0
 49
-12.7
 74
     0
  0
LTYPE
  5
5EF
330
53A
100
AcDbSymbolTableRecord
100
AcDbLinetypeTableRecord
  2
CUTRIGHT
 70
     0
  3
G42 ----/----/-----/---
 72
    65
 73
     2
 40
10.16
 49
5.08
 74
     2
 75
     0
340
5EE
 46
2.54
 50
180.0
 44
0.0
 45
0.0
  9
HRIGHT_ARROW
 49
5.08
 74
     0
  0
LTYPE
  5
5F1
330
53A
100
AcDbSymbolTableRecord
100
AcDbLinetypeTableRecord
  2
CUTLEFT2
 70
     0
  3
G41 reversed----/----/----/----
 72
    65
 73
     2
 40
10.16
 49
5.08
 74
     2
 75
     0
340
5F0
 46
2.54
 50
0.0
 44
0.0
 45
0.0
  9
LRIGHT_ARROW
 49
5.08
 74
     0
  0
LTYPE
  5
5F2
330
53A
100
AcDbSymbolTableRecord
100
AcDbLinetypeTableRecord
  2
BORDERX2
 70
     0
  3
Border (2x) ____  ____  .  ____  ____  .  ___
 72
    65
 73
     6
 40
88.89999999999999
 49
25.4
 74
     0
 49
-12.7
 74
     0
 49
25.4
 74
     0
 49
-12.7
 74
     0
 49
0.0
 74
     0
 49
-12.7
 74
     0
  0
LTYPE
  5
5F3
330
53A
100
AcDbSymbolTableRecord
100
AcDbLinetypeTableRecord
  2
BORDER2
 70
     0
  3
Border (.5x) __.__.__.__.__.__.__.__.__.__.__.
 72
    65
 73
     6
 40
22.225
 49
6.35
 74
     0
 49
-3.175
 74
     0
 49
6.35
 74
     0
 49
-3.175
 74
     0
 49
0.0
 74
     0
 49
-3.175
 74
     0
  0
LTYPE
  5
5F4
330
53A
100
AcDbSymbolTableRecord
100
AcDbLinetypeTableRecord
  2
CENTER2
 70
     0
  3
Center (.5x) ___ _ ___ _ ___ _ ___ _ ___ _ ___
 72
    65
 73
     4
 40
28.575
 49
19.05
 74
     0
 49
-3.175
 74
     0
 49
3.175
 74
     0
 49
-3.175
 74
     0
  0
LTYPE
  5
5F5
330
53A
100
AcDbSymbolTableRecord
100
AcDbLinetypeTableRecord
  2
CENTER
 70
     0
  3
Center ____ _ ____ _ ____ _ ____ _ ____ _ ____
 72
    65
 73
     4
 40
50.8
 49
31.75
 74
     0
 49
-6.35
 74
     0
 49
6.35
 74
     0
 49
-6.35
 74
     0
  0
LTYPE
  5
5F6
330
53A
100
AcDbSymbolTableRecord
100
AcDbLinetypeTableRecord
  2
DASHED2
 70
     0
  3
Dashed (.5x) _ _ _ _ _ _ _ _ _ _ _ _ _ _ _ _ _ 
 72
    65
 73
     2
 40
9.524999999999999
 49
6.35
 74
     0
 49
-3.175
 74
     0
  0
LTYPE
  5
5F7
330
53A
100
AcDbSymbolTableRecord
100
AcDbLinetypeTableRecord
  2
DASHED
 70
     0
  3
Dashed __ __ __ __ __ __ __ __ __ __ __ __ __ _
 72
    65
 73
     2
 40
19.05
 49
12.7
 74
     0
 49
-6.35
 74
     0
  0
LTYPE
  5
5F8
330
53A
100
AcDbSymbolTableRecord
100
AcDbLinetypeTableRecord
  2
DIVIDE
 70
     0
  3
Divide ____ . . ____ . . ____ . . ____ . . ____
 72
    65
 73
     6
 40
31.75
 49
12.7
 74
     0
 49
-6.35
 74
     0
 49
0.0
 74
     0
 49
-6.35
 74
     0
 49
0.0
 74
     0
 49
-6.35
 74
     0
  0
LTYPE
  5
5F9
330
53A
100
AcDbSymbolTableRecord
100
AcDbLinetypeTableRecord
  2
DASHEDX2
 70
     0
  3
Dashed (2x) ____  ____  ____  ____  ____  ___
 72
    65
 73
     2
 40
38.09999999999999
 49
25.4
 74
     0
 49
-12.7
 74
     0
  0
LTYPE
  5
5FA
330
53A
100
AcDbSymbolTableRecord
100
AcDbLinetypeTableRecord
  2
DASHDOT
 70
     0
  3
Dash dot __ . __ . __ . __ . __ . __ . __ . __
 72
    65
 73
     4
 40
25.4
 49
12.7
 74
     0
 49
-6.35
 74
     0
 49
0.0
 74
     0
 49
-6.35
 74
     0
  0
LTYPE
  5
5FC
330
53A
100
AcDbSymbolTableRecord
100
AcDbLinetypeTableRecord
  2
CUTRIGHT2
 70
     0
  3
G42 reversed----\----\----\----
 72
    65
 73
     2
 40
10.16
 49
5.08
 74
     2
 75
     0
340
5FB
 46
2.54
 50
0.0
 44
0.0
 45
0.0
  9
HRIGHT_ARROW
 49
5.08
 74
     0
  0
LTYPE
  5
5FD
330
53A
100
AcDbSymbolTableRecord
100
AcDbLinetypeTableRecord
  2
DASHDOTX2
 70
     0
  3
Dash dot (2x) ____  .  ____  .  ____  .  ___
 72
    65
 73
     4
 40
50.8
 49
25.4
 74
     0
 49
-12.7
 74
     0
 49
0.0
 74
     0
 49
-12.7
 74
     0
  0
LTYPE
  5
5FE
330
53A
100
AcDbSymbolTableRecord
100
AcDbLinetypeTableRecord
  2
DASHDOT2
 70
     0
  3
Dash dot (.5x) _._._._._._._._._._._._._._._.
 72
    65
 73
     4
 40
12.7
 49
6.35
 74
     0
 49
-3.175
 74
     0
 49
0.0
 74
     0
 49
-3.175
 74
     0
  0
LTYPE
  5
600
330
53A
100
AcDbSymbolTableRecord
100
AcDbLinetypeTableRecord
  2
DRAINAGE
 70
     0
  3
Drainage ---->---->---->----
 72
    65
 73
     2
 40
10.16
 49
5.08
 74
     2
 75
     0
340
5FF
 46
2.54
 50
180.0
 44
0.0
 45
0.0
  9
RIGHT_ARROW
 49
5.08
 74
     0
  0
LTYPE
  5
601
330
53A
100
AcDbSymbolTableRecord
100
AcDbLinetypeTableRecord
  2
DOTX2
 70
     0
  3
Dot (2x) .  .  .  .  .  .  .  .  .  .  .  .  .  .
 72
    65
 73
     2
 40
12.7
 49
0.0
 74
     0
 49
-12.7
 74
     0
  0
LTYPE
  5
603
330
53A
100
AcDbSymbolTableRecord
100
AcDbLinetypeTableRecord
  2
FENCELINE1
 70
     0
  3
Fenceline circle ----0-----0----0-----0----0-----0--
 72
    65
 73
     4
 40
36.83
 49
6.35
 74
     0
 49
-2.54
 74
     2
 75
     0
340
602
 46
2.54
 50
0.0
 44
-2.54
 45
0.0
  9
CIRC1
 49
-2.54
 74
     0
 49
25.4
 74
     0
  0
LTYPE
  5
605
330
53A
100
AcDbSymbolTableRecord
100
AcDbLinetypeTableRecord
  2
DRAINAGE2
 70
     0
  3
Drainage reversed----<----<----<----
 72
    65
 73
     2
 40
10.16
 49
5.08
 74
     2
 75
     0
340
604
 46
2.54
 50
0.0
 44
0.0
 45
0.0
  9
RIGHT_ARROW
 49
5.08
 74
     0
  0
LTYPE
  5
606
330
53A
100
AcDbSymbolTableRecord
100
AcDbLinetypeTableRecord
  2
DIVIDEX2
 70
     0
  3
Divide (2x) ________  .  .  ________  .  .  _
 72
    65
 73
     6
 40
63.5
 49
25.4
 74
     0
 49
-12.7
 74
     0
 49
0.0
 74
     0
 49
-12.7
 74
     0
 49
0.0
 74
     0
 49
-12.7
 74
     0
  0
LTYPE
  5
607
330
53A
100
AcDbSymbolTableRecord
100
AcDbLinetypeTableRecord
  2
DIVIDE2
 70
     0
  3
Divide (.5x) __..__..__..__..__..__..__..__.._
 72
    65
 73
     6
 40
15.875
 49
6.35
 74
     0
 49
-3.175
 74
     0
 49
0.0
 74
     0
 49
-3.175
 74
     0
 49
0.0
 74
     0
 49
-3.175
 74
     0
  0
LTYPE
  5
608
330
53A
100
AcDbSymbolTableRecord
100
AcDbLinetypeTableRecord
  2
DOT2
 70
     0
  3
Dot (.5x) ........................................
 72
    65
 73
     2
 40
3.175
 49
0.0
 74
     0
 49
-3.175
 74
     0
  0
LTYPE
  5
609
330
53A
100
AcDbSymbolTableRecord
100
AcDbLinetypeTableRecord
  2
DOT
 70
     0
  3
Dot . . . . . . . . . . . . . . . . . . . . . . . .
 72
    65
 73
     2
 40
6.35
 49
0.0
 74
     0
 49
-6.35
 74
     0
  0
LTYPE
  5
60B
330
53A
100
AcDbSymbolTableRecord
100
AcDbLinetypeTableRecord
  2
HOT_WATER_SUPPLY
 70
     0
  3
Hot water supply ---- HW ---- HW ---- HW ----
 72
    65
 73
     3
 40
22.86
 49
12.7
 74
     0
 49
-5.08
 74
     2
 75
     0
340
60A
 46
2.54
 50
0.0
 44
-2.54
 45
-1.27
  9
HW
 49
-5.08
 74
     0
  0
LTYPE
  5
60C
330
53A
100
AcDbSymbolTableRecord
100
AcDbLinetypeTableRecord
  2
HIDDENX2
 70
     0
  3
Hidden (2x) ____ ____ ____ ____ ____ ____ ____ 
 72
    65
 73
     2
 40
19.05
 49
12.7
 74
     0
 49
-6.35
 74
     0
  0
LTYPE
  5
60D
330
53A
100
AcDbSymbolTableRecord
100
AcDbLinetypeTableRecord
  2
PHANTOM2
 70
     0
  3
Phantom (.5x) ___ _ _ ___ _ _ ___ _ _ ___ _ _
 72
    65
 73
     6
 40
31.75
 49
15.875
 74
     0
 49
-3.175
 74
     0
 49
3.175
 74
     0
 49
-3.175
 74
     0
 49
3.175
 74
     0
 49
-3.175
 74
     0
  0
LTYPE
  5
60E
330
53A
100
AcDbSymbolTableRecord
100
AcDbLinetypeTableRecord
  2
PHANTOM
 70
     0
  3
Phantom ______  __  __  ______  __  __  ______ 
 72
    65
 73
     6
 40
63.50000000000001
 49
31.75
 74
     0
 49
-6.35
 74
     0
 49
6.35
 74
     0
 49
-6.35
 74
     0
 49
6.35
 74
     0
 49
-6.35
 74
     0
  0
LTYPE
  5
610
330
53A
100
AcDbSymbolTableRecord
100
AcDbLinetypeTableRecord
  2
GAS_LINE
 70
     0
  3
Gas line ----GAS----GAS----GAS----GAS----GAS----GAS--
 72
    65
 73
     3
 40
24.13
 49
12.7
 74
     0
 49
-5.08
 74
     2
 75
     0
340
60F
 46
2.54
 50
0.0
 44
-2.54
 45
-1.27
  9
GAS
 49
-6.35
 74
     0
  0
LTYPE
  5
612
330
53A
100
AcDbSymbolTableRecord
100
AcDbLinetypeTableRecord
  2
FENCELINE2
 70
     0
  3
Fenceline square ----[]-----[]----[]-----[]----[]---
 72
    65
 73
     4
 40
36.83
 49
6.35
 74
     0
 49
-2.54
 74
     2
 75
     0
340
611
 46
2.54
 50
0.0
 44
-2.54
 45
0.0
  9
BOX
 49
-2.54
 74
     0
 49
25.4
 74
     0
  0
LTYPE
  5
613
330
53A
100
AcDbSymbolTableRecord
100
AcDbLinetypeTableRecord
  2
HIDDEN2
 70
     0
  3
Hidden (.5x) _ _ _ _ _ _ _ _ _ _ _ _ _ _ _ _ _ 
 72
    65
 73
     2
 40
4.762499999999999
 49
3.175
 74
     0
 49
-1.5875
 74
     0
  0
LTYPE
  5
614
330
53A
100
AcDbSymbolTableRecord
100
AcDbLinetypeTableRecord
  2
HIDDEN
 70
     0
  3
Hidden __ __ __ __ __ __ __ __ __ __ __ __ __ __
 72
    65
 73
     2
 40
9.524999999999999
 49
6.35
 74
     0
 49
-3.175
 74
     0
  0
LTYPE
  5
616
330
53A
100
AcDbSymbolTableRecord
100
AcDbLinetypeTableRecord
  2
TRACKS
 70
     0
  3
Tracks -|-|-|-|-|-|-|-|-|-|-|-|-|-|-|-|-|-|-|-|-|-|-|-|-
 72
    65
 73
     2
 40
7.62
 49
3.81
 74
     2
 75
     0
340
615
 46
6.35
 50
0.0
 44
0.0
 45
0.0
  9
TRACK1
 49
3.81
 74
     0
  0
LTYPE
  5
617
330
53A
100
AcDbSymbolTableRecord
100
AcDbLinetypeTableRecord
  2
PHANTOMX2
 70
     0
  3
Phantom (2x) ____________    ____    ____   _
 72
    65
 73
     6
 40
127.0
 49
63.5
 74
     0
 49
-12.7
 74
     0
 49
12.7
 74
     0
 49
-12.7
 74
     0
 49
12.7
 74
     0
 49
-12.7
 74
     0
  0
LTYPE
  5
61A
330
53A
100
AcDbSymbolTableRecord
100
AcDbLinetypeTableRecord
  2
ZIGZAG
 70
     0
  3
Zig zag /\/\/\/\/\/\/\/\/\/\/\/\/\/\/\/\/\/\/\/\/\/\/\/
 72
    65
 73
     4
 40
20.32254
 49
0.00254
 74
     0
 49
-5.08
 74
     2
 75
     0
340
618
 46
5.08
 50
0.0
 44
-5.08
 45
0.0
  9
ZIG
 49
-10.16
 74
     2
 75
     0
340
619
 46
5.08
 50
180.0
 44
5.08
 45
0.0
  9
ZIG
 49
-5.08
 74
     0
  0
LTYPE
  5
61B
330
53A
100
AcDbSymbolTableRecord
100
AcDbLinetypeTableRecord
  2
ACAD_ISO07W100
 70
     0
  3
ISO dot . . . . . . . . . . . . . . . . . . . . 
 72
    65
 73
     2
 40
3.0
 49
0.0
 74
     0
 49
-3.0
 74
     0
  0
LTYPE
  5
61C
330
53A
100
AcDbSymbolTableRecord
100
AcDbLinetypeTableRecord
  2
ACAD_ISO06W100
 70
     0
  3
ISO long-dash triple-dot ____ ... ____ ... ____
 72
    65
 73
     8
 40
36.0
 49
24.0
 74
     0
 49
-3.0
 74
     0
 49
0.0
 74
     0
 49
-3.0
 74
     0
 49
0.0
 74
     0
 49
-3.0
 74
     0
 49
0.0
 74
     0
 49
-3.0
 74
     0
  0
LTYPE
  5
61D
330
53A
100
AcDbSymbolTableRecord
100
AcDbLinetypeTableRecord
  2
ACAD_ISO09W100
 70
     0
  3
ISO long-dash double-short-dash ____ __ __ ____
 72
    65
 73
     6
 40
45.0
 49
24.0
 74
     0
 49
-3.0
 74
     0
 49
6.0
 74
     0
 49
-3.0
 74
     0
 49
6.0
 74
     0
 49
-3.0
 74
     0
  0
LTYPE
  5
61E
330
53A
100
AcDbSymbolTableRecord
100
AcDbLinetypeTableRecord
  2
ACAD_ISO08W100
 70
     0
  3
ISO long-dash short-dash ____ __ ____ __ ____ _
 72
    65
 73
     4
 40
36.0
 49
24.0
 74
     0
 49
-3.0
 74
     0
 49
6.0
 74
     0
 49
-3.0
 74
     0
  0
LTYPE
  5
61F
330
53A
100
AcDbSymbolTableRecord
100
AcDbLinetypeTableRecord
  2
ACAD_ISO03W100
 70
     0
  3
ISO dash space __    __    __    __    __    __
 72
    65
 73
     2
 40
30.0
 49
12.0
 74
     0
 49
-18.0
 74
     0
  0
LTYPE
  5
620
330
53A
100
AcDbSymbolTableRecord
100
AcDbLinetypeTableRecord
  2
ACAD_ISO02W100
 70
     0
  3
ISO dash __ __ __ __ __ __ __ __ __ __ __ __ __
 72
    65
 73
     2
 40
15.0
 49
12.0
 74
     0
 49
-3.0
 74
     0
  0
LTYPE
  5
621
330
53A
100
AcDbSymbolTableRecord
100
AcDbLinetypeTableRecord
  2
ACAD_ISO05W100
 70
     0
  3
ISO long-dash double-dot ____ .. ____ .. ____ . 
 72
    65
 73
     6
 40
33.0
 49
24.0
 74
     0
 49
-3.0
 74
     0
 49
0.0
 74
     0
 49
-3.0
 74
     0
 49
0.0
 74
     0
 49
-3.0
 74
     0
  0
ENDTAB
  0
TABLE
  2
LAYER
  5
538
330
0
100
AcDbSymbolTable
 70
    10
  0
LAYER
  5
545
330
538
100
AcDbSymbolTableRecord
100
AcDbLayerTableRecord
  2
0
 70
     0
 62
     6
420
 16711935
  6
Continuous
370
    25
390
544
347
57A
348
0
  0
LAYER
  5
622
330
538
100
AcDbSymbolTableRecord
100
AcDbLayerTableRecord
  2
1. Printing Layers ... 1.3 Raster
 70
     0
 62
    18
420
        0
  6
Continuous
370
     5
390
544
347
57A
348
0
  0
LAYER
  5
623
330
538
100
AcDbSymbolTableRecord
100
AcDbLayerTableRecord
  2
Defpoints
 70
     0
 62
     7
  6
Continuous
290
     0
370
    -3
390
544
347
57A
348
0
  0
LAYER
  5
624
330
538
100
AcDbSymbolTableRecord
100
AcDbLayerTableRecord
  2
1. Printing Layers ... 1.2 Mark
 70
     0
 62
     5
420
      255
  6
Continuous
370
     5
390
544
347
57A
348
0
  0
LAYER
  5
625
330
538
100
AcDbSymbolTableRecord
100
AcDbLayerTableRecord
  2
2. Non-Printing Layers ... 2.2 NP Dimensions
 70
     0
 62
     4
420
    65535
  6
Continuous
290
     0
370
    13
390
544
347
57A
348
0
  0
LAYER
  5
626
330
538
100
AcDbSymbolTableRecord
100
AcDbLayerTableRecord
  2
1. Printing Layers
 70
     0
 62
     6
420
 16711935
  6
Continuous
370
    13
390
544
347
57A
348
0
  0
LAYER
  5
627
330
538
100
AcDbSymbolTableRecord
100
AcDbLayerTableRecord
  2
2. Non-Printing Layers ... 2.3 NP Text
 70
     0
 62
     2
420
 16776960
  6
Continuous
290
     0
370
    13
390
544
347
57A
348
0
  0
LAYER
  5
628
330
538
100
AcDbSymbolTableRecord
100
AcDbLayerTableRecord
  2
2. Non-Printing Layers ... 2.1 NP Layout
 70
     0
 62
     3
420
    65280
  6
Continuous
290
     0
370
    13
390
544
347
57A
348
0
  0
LAYER
  5
629
330
538
100
AcDbSymbolTableRecord
100
AcDbLayerTableRecord
  2
2. Non-Printing Layers
 70
     0
 62
     3
420
    65280
  6
Continuous
290
     0
370
    13
390
544
347
57A
348
0
  0
LAYER
  5
62A
330
538
100
AcDbSymbolTableRecord
100
AcDbLayerTableRecord
  2
1. Printing Layers ... 1.1 Cut
 70
     0
 62
     1
420
 16711680
  6
Continuous
370
     5
390
544
347
57A
348
0
  0
ENDTAB
  0
TABLE
  2
STYLE
  5
539
330
0
100
AcDbSymbolTable
 70
    26
  0
STYLE
  5
546
330
539
100
AcDbSymbolTableRecord
100
AcDbTextStyleTableRecord
  2
Standard
 70
     0
 40
0.0
 41
1.0
 50
0.0
 71
     0
 42
0.2
  3
txt
  4

  0
STYLE
  5
5DE
330
539
100
AcDbSymbolTableRecord
100
AcDbTextStyleTableRecord
  2
QCADDimTextStyle
 70
     0
 40
0.0
 41
1.0
 50
0.0
 71
     0
 42
0.2
  3
SansNS
  4

  0
STYLE
  5
5E4
330
539
100
AcDbSymbolTableRecord
100
AcDbTextStyleTableRecord
  2
textstyle0
 70
     0
 40
0.0
 41
1.0
 50
0.0
 71
     0
 42
0.2
  3
ltypeshp.shx
  4

  0
STYLE
  5
5E5
330
539
100
AcDbSymbolTableRecord
100
AcDbTextStyleTableRecord
  2
textstyle1
 70
     0
 40
0.0
 41
1.0
 50
0.0
 71
     0
 42
0.2
  3
ltypeshp.shx
  4

  0
STYLE
  5
5EB
330
539
100
AcDbSymbolTableRecord
100
AcDbTextStyleTableRecord
  2
textstyle2
 70
     0
 40
0.0
 41
1.0
 50
0.0
 71
     0
 42
0.2
  3
qcadshp.shx
  4

  0
STYLE
  5
5EE
330
539
100
AcDbSymbolTableRecord
100
AcDbTextStyleTableRecord
  2
textstyle3
 70
     0
 40
0.0
 41
1.0
 50
0.0
 71
     0
 42
0.2
  3
qcadshp.shx
  4

  0
STYLE
  5
5F0
330
539
100
AcDbSymbolTableRecord
100
AcDbTextStyleTableRecord
  2
textstyle4
 70
     0
 40
0.0
 41
1.0
 50
0.0
 71
     0
 42
0.2
  3
qcadshp.shx
  4

  0
STYLE
  5
5FB
330
539
100
AcDbSymbolTableRecord
100
AcDbTextStyleTableRecord
  2
textstyle5
 70
     0
 40
0.0
 41
1.0
 50
0.0
 71
     0
 42
0.2
  3
qcadshp.shx
  4

  0
STYLE
  5
5FF
330
539
100
AcDbSymbolTableRecord
100
AcDbTextStyleTableRecord
  2
textstyle6
 70
     0
 40
0.0
 41
1.0
 50
0.0
 71
     0
 42
0.2
  3
qcadshp.shx
  4

  0
STYLE
  5
602
330
539
100
AcDbSymbolTableRecord
100
AcDbTextStyleTableRecord
  2
textstyle7
 70
     0
 40
0.0
 41
1.0
 50
0.0
 71
     0
 42
0.2
  3
ltypeshp.shx
  4

  0
STYLE
  5
604
330
539
100
AcDbSymbolTableRecord
100
AcDbTextStyleTableRecord
  2
textstyle8
 70
     0
 40
0.0
 41
1.0
 50
0.0
 71
     0
 42
0.2
  3
qcadshp.shx
  4

  0
STYLE
  5
60A
330
539
100
AcDbSymbolTableRecord
100
AcDbTextStyleTableRecord
  2
textstyle9
 70
     0
 40
0.0
 41
1.0
 50
0.0
 71
     0
 42
0.2
  3
STANDARD
  4

  0
STYLE
  5
60F
330
539
100
AcDbSymbolTableRecord
100
AcDbTextStyleTableRecord
  2
textstyle10
 70
     0
 40
0.0
 41
1.0
 50
0.0
 71
     0
 42
0.2
  3
STANDARD
  4

  0
STYLE
  5
611
330
539
100
AcDbSymbolTableRecord
100
AcDbTextStyleTableRecord
  2
textstyle11
 70
     0
 40
0.0
 41
1.0
 50
0.0
 71
     0
 42
0.2
  3
ltypeshp.shx
  4

  0
STYLE
  5
615
330
539
100
AcDbSymbolTableRecord
100
AcDbTextStyleTableRecord
  2
textstyle12
 70
     0
 40
0.0
 41
1.0
 50
0.0
 71
     0
 42
0.2
  3
ltypeshp.shx
  4

  0
STYLE
  5
618
330
539
100
AcDbSymbolTableRecord
100
AcDbTextStyleTableRecord
  2
textstyle13
 70
     0
 40
0.0
 41
1.0
 50
0.0
 71
     0
 42
0.2
  3
ltypeshp.shx
  4

  0
STYLE
  5
619
330
539
100
AcDbSymbolTableRecord
100
AcDbTextStyleTableRecord
  2
textstyle14
 70
     0
 40
0.0
 41
1.0
 50
0.0
 71
     0
 42
0.2
  3
ltypeshp.shx
  4

  0
STYLE
  5
630
330
539
100
AcDbSymbolTableRecord
100
AcDbTextStyleTableRecord
  2
textstyle15
 70
     0
 40
0.0
 41
1.0
 50
0.0
 71
     0
 42
0.2
  3
Standard
  4

  0
STYLE
  5
631
330
539
100
AcDbSymbolTableRecord
100
AcDbTextStyleTableRecord
  2
textstyle16
 70
     0
 40
0.0
 41
1.0
 50
0.0
 71
     0
 42
0.2
  3
Standard
  4

  0
STYLE
  5
632
330
539
100
AcDbSymbolTableRecord
100
AcDbTextStyleTableRecord
  2
textstyle17
 70
     0
 40
0.0
 41
1.0
 50
0.0
 71
     0
 42
0.2
  3
Standard
  4

  0
STYLE
  5
633
330
539
100
AcDbSymbolTableRecord
100
AcDbTextStyleTableRecord
  2
textstyle18
 70
     0
 40
0.0
 41
1.0
 50
0.0
 71
     0
 42
0.2
  3
Standard
  4

  0
STYLE
  5
634
330
539
100
AcDbSymbolTableRecord
100
AcDbTextStyleTableRecord
  2
textstyle19
 70
     0
 40
0.0
 41
1.0
 50
0.0
 71
     0
 42
0.2
  3
Standard
  4

  0
STYLE
  5
635
330
539
100
AcDbSymbolTableRecord
100
AcDbTextStyleTableRecord
  2
textstyle20
 70
     0
 40
0.0
 41
1.0
 50
0.0
 71
     0
 42
0.2
  3
Standard
  4

  0
STYLE
  5
636
330
539
100
AcDbSymbolTableRecord
100
AcDbTextStyleTableRecord
  2
textstyle21
 70
     0
 40
0.0
 41
1.0
 50
0.0
 71
     0
 42
0.2
  3
Standard
  4

  0
STYLE
  5
637
330
539
100
AcDbSymbolTableRecord
100
AcDbTextStyleTableRecord
  2
textstyle22
 70
     0
 40
0.0
 41
1.0
 50
0.0
 71
     0
 42
0.2
  3
Standard
  4

  0
STYLE
  5
638
330
539
100
AcDbSymbolTableRecord
100
AcDbTextStyleTableRecord
  2
textstyle23
 70
     0
 40
0.0
 41
1.0
 50
0.0
 71
     0
 42
0.2
  3
Standard
  4

  0
ENDTAB
  0
TABLE
  2
VIEW
  5
53B
330
0
100
AcDbSymbolTable
 70
     0
  0
ENDTAB
  0
TABLE
  2
UCS
  5
53C
330
0
100
AcDbSymbolTable
 70
     0
  0
ENDTAB
  0
TABLE
  2
APPID
  5
53E
330
0
100
AcDbSymbolTable
 70
     2
  0
APPID
  5
547
330
53E
100
AcDbSymbolTableRecord
100
AcDbRegAppTableRecord
  2
ACAD
 70
     0
  0
APPID
  5
5A2
330
53E
100
AcDbSymbolTableRecord
100
AcDbRegAppTableRecord
  2
QCAD
 70
     0
  0
ENDTAB
  0
TABLE
  2
DIMSTYLE
  5
53F
330
0
100
AcDbSymbolTable
 70
     2
100
AcDbDimStyleTable
  0
DIMSTYLE
105
55B
330
53F
100
AcDbSymbolTableRecord
100
AcDbDimStyleTableRecord
  2
Standard
 70
     0
178
     0
340
546
  0
DIMSTYLE
105
5DF
102
{ACAD_REACTORS
330
6A
330
6B
102
}
330
53F
100
AcDbSymbolTableRecord
100
AcDbDimStyleTableRecord
  2
QCADDimStyle
 70
     0
 41
1.5
 42
0.375
 44
0.75
 73
     0
 77
     1
140
1.5
147
0.375
178
     0
340
5DE
  0
ENDTAB
  0
TABLE
  2
BLOCK_RECORD
  5
537
330
0
100
AcDbSymbolTable
 70
     1
  0
BLOCK_RECORD
  5
553
330
537
100
AcDbSymbolTableRecord
100
AcDbBlockTableRecord
  2
*Model_Space
340
556
 70
     0
280
     1
281
     0
  0
BLOCK_RECORD
  5
54F
330
537
100
AcDbSymbolTableRecord
100
AcDbBlockTableRecord
  2
*Paper_Space
340
552
 70
     0
280
     1
281
     0
  0
BLOCK_RECORD
  5
62D
330
537
100
AcDbSymbolTableRecord
100
AcDbBlockTableRecord
  2
laser-cutter-layers-r3
340
0
102
{BLKREFS
331
6C
102
}
 70
     0
280
     1
281
     0
  0
ENDTAB
  0
ENDSEC
  0
SECTION
  2
BLOCKS
  0
BLOCK
  5
554
330
553
100
AcDbEntity
  8
0
100
AcDbBlockBegin
  2
*Model_Space
 70
     0
 10
0.0
 20
0.0
 30
0.0
  3
*Model_Space
  1

  0
ENDBLK
  5
555
330
553
100
AcDbEntity
  8
0
100
AcDbBlockEnd
  0
BLOCK
  5
550
330
54F
100
AcDbEntity
 67
     1
  8
0
100
AcDbBlockBegin
  2
*Paper_Space
 70
     0
 10
0.0
 20
0.0
 30
0.0
  3
*Paper_Space
  1

  0
ENDBLK
  5
551
330
54F
100
AcDbEntity
 67
     1
  8
0
100
AcDbBlockEnd
  0
BLOCK
  5
62E
330
62D
100
AcDbEntity
  8
0
100
AcDbBlockBegin
  2
laser-cutter-layers-r3
 70
     0
 10
0.0
 20
0.0
 30
0.0
  3
laser-cutter-layers-r3
  1

  0
LINE
  5
3F
330
62D
100
AcDbEntity
  8
1. Printing Layers ... 1.3 Raster
100
AcDbLine
 10
5.0
 20
5.0
 30
0.0
 11
25.0
 21
5.0
 31
0.0
  0
LINE
  5
40
330
62D
100
AcDbEntity
  8
1. Printing Layers ... 1.3 Raster
100
AcDbLine
 10
25.0
 20
5.0
 30
0.0
 11
25.0
 21
15.0
 31
0.0
  0
LINE
  5
41
330
62D
100
AcDbEntity
  8
1. Printing Layers ... 1.3 Raster
100
AcDbLine
 10
25.0
 20
15.0
 30
0.0
 11
5.0
 21
15.0
 31
0.0
  0
LINE
  5
42
330
62D
100
AcDbEntity
  8
1. Printing Layers ... 1.3 Raster
100
AcDbLine
 10
5.0
 20
15.0
 30
0.0
 11
5.0
 21
5.0
 31
0.0
  0
LINE
  5
45
330
62D
100
AcDbEntity
  8
2. Non-Printing Layers ... 2.1 NP Layout
100
AcDbLine
 10
35.0
 20
5.0
 30
0.0
 11
55.0
 21
5.0
 31
0.0
  0
LINE
  5
46
330
62D
100
AcDbEntity
  8
2. Non-Printing Layers ... 2.1 NP Layout
100
AcDbLine
 10
55.0
 20
5.0
 30
0.0
 11
55.0
 21
15.0
 31
0.0
  0
LINE
  5
47
330
62D
100
AcDbEntity
  8
2. Non-Printing Layers ... 2.1 NP Layout
100
AcDbLine
 10
55.0
 20
15.0
 30
0.0
 11
35.0
 21
15.0
 31
0.0
  0
LINE
  5
48
330
62D
100
AcDbEntity
  8
2. Non-Printing Layers ... 2.1 NP Layout
100
AcDbLine
 10
35.0
 20
15.0
 30
0.0
 11
35.0
 21
5.0
 31
0.0
  0
TEXT
  5
4A
330
62D
100
AcDbEntity
  8
1. Printing Layers ... 1.2 Mark
100
AcDbText
 10
15.97142857142857
 20
16.60000000000001
 30
0.0
 40
0.8
  1
Printing Layers
  7
textstyle15
 72
     2
 11
25.0
 21
17.00000000000001
 31
0.0
100
AcDbText
 73
     2
  0
TEXT
  5
4C
330
62D
100
AcDbEntity
  8
2. Non-Printing Layers ... 2.3 NP Text
100
AcDbText
 10
42.6952380952381
 20
16.6
 30
0.0
 40
0.8
  1
Non-Printing Layers
  7
textstyle16
 72
     2
 11
55.0
 21
17.0
 31
0.0
100
AcDbText
 73
     2
  0
LINE
  5
4D
330
62D
100
AcDbEntity
  8
1. Printing Layers ... 1.2 Mark
100
AcDbLine
 10
6.0
 20
10.0
 30
0.0
 11
14.0
 21
10.0
 31
0.0
  0
LINE
  5
4F
330
62D
100
AcDbEntity
  8
2. Non-Printing Layers ... 2.2 NP Dimensions
100
AcDbLine
 10
36.0
 20
10.0
 30
0.0
 11
44.0
 21
10.0
 31
0.0
  0
LINE
  5
51
330
62D
100
AcDbEntity
  8
1. Printing Layers ... 1.1 Cut
100
AcDbLine
 10
6.0
 20
12.5
 30
0.0
 11
14.0
 21
12.5
 31
0.0
  0
LINE
  5
52
330
62D
100
AcDbEntity
  8
2. Non-Printing Layers
100
AcDbLine
 10
36.0
 20
12.5
 30
0.0
 11
44.0
 21
12.5
 31
0.0
  0
LINE
  5
53
330
62D
100
AcDbEntity
  8
1. Printing Layers ... 1.3 Raster
100
AcDbLine
 10
6.0
 20
7.5
 30
0.0
 11
14.0
 21
7.5
 31
0.0
  0
LINE
  5
54
330
62D
100
AcDbEntity
  8
2. Non-Printing Layers ... 2.3 NP Text
100
AcDbLine
 10
36.0
 20
7.5
 30
0.0
 11
44.0
 21
7.5
 31
0.0
  0
TEXT
  5
55
330
62D
100
AcDbEntity
  8
1. Printing Layers ... 1.3 Raster
100
AcDbText
 10
15.0
 20
12.1
 30
0.0
 40
0.8
  1
1.1 Cut
  7
textstyle17
 11
15.0
 21
12.5
 31
0.0
100
AcDbText
 73
     2
  0
TEXT
  5
56
330
62D
100
AcDbEntity
  8
1. Printing Layers ... 1.3 Raster
100
AcDbText
 10
15.0
 20
9.599999999999998
 30
0.0
 40
0.8
  1
1.2 Mark
  7
textstyle18
 11
15.0
 21
9.999999999999998
 31
0.0
100
AcDbText
 73
     2
  0
TEXT
  5
57
330
62D
100
AcDbEntity
  8
1. Printing Layers ... 1.3 Raster
100
AcDbText
 10
15.0
 20
7.099999999999995
 30
0.0
 40
0.8
  1
1.3 Raster
  7
textstyle19
 11
15.0
 21
7.499999999999996
 31
0.0
100
AcDbText
 73
     2
  0
TEXT
  5
58
330
62D
100
AcDbEntity
  8
2. Non-Printing Layers ... 2.3 NP Text
100
AcDbText
 10
45.0
 20
12.09999999999995
 30
0.0
 40
0.8
  1
2.1 NP Layout
  7
textstyle20
 11
45.0
 21
12.49999999999995
 31
0.0
100
AcDbText
 73
     2
  0
TEXT
  5
59
330
62D
100
AcDbEntity
  8
2. Non-Printing Layers ... 2.3 NP Text
100
AcDbText
 10
45.0
 20
9.60000000000003
 30
0.0
 40
0.8
  1
2.2 NP Dimensions
  7
textstyle21
 11
45.0
 21
10.00000000000003
 31
0.0
100
AcDbText
 73
     2
  0
TEXT
  5
5A
330
62D
100
AcDbEntity
  8
2. Non-Printing Layers ... 2.3 NP Text
100
AcDbText
 10
45.0
 20
7.099999999999931
 30
0.0
 40
0.8
  1
2.3 NP Text
  7
textstyle22
 11
45.0
 21
7.499999999999932
 31
0.0
100
AcDbText
 73
     2
  0
LINE
  5
5B
330
62D
100
AcDbEntity
  8
1. Printing Layers ... 1.1 Cut
100
AcDbLine
 10
1.0
 20
0.0
 30
0.0
 11
29.0
 21
0.0
 31
0.0
  0
LINE
  5
5C
330
62D
100
AcDbEntity
  8
1. Printing Layers ... 1.1 Cut
100
AcDbLine
 10
31.0
 20
0.0
 30
0.0
 11
59.0
 21
0.0
 31
0.0
  0
LINE
  5
5D
330
62D
100
AcDbEntity
  8
1. Printing Layers ... 1.1 Cut
100
AcDbLine
 10
60.0
 20
1.0
 30
0.0
 11
60.0
 21
19.0
 31
0.0
  0
LINE
  5
5E
330
62D
100
AcDbEntity
  8
1. Printing Layers ... 1.1 Cut
100
AcDbLine
 10
59.0
 20
20.0
 30
0.0
 11
31.0
 21
20.0
 31
0.0
  0
LINE
  5
5F
330
62D
100
AcDbEntity
  8
1. Printing Layers ... 1.1 Cut
100
AcDbLine
 10
29.0
 20
20.0
 30
0.0
 11
1.0
 21
20.0
 31
0.0
  0
LINE
  5
60
330
62D
100
AcDbEntity
  8
1. Printing Layers ... 1.1 Cut
100
AcDbLine
 10
0.0
 20
19.0
 30
0.0
 11
0.0
 21
1.0
 31
0.0
  0
LINE
  5
61
330
62D
100
AcDbEntity
  8
1. Printing Layers ... 1.2 Mark
100
AcDbLine
 10
30.0
 20
19.0
 30
0.0
 11
30.0
 21
1.0
 31
0.0
  0
ARC
  5
62
330
62D
100
AcDbEntity
  8
1. Printing Layers ... 1.1 Cut
100
AcDbCircle
 10
1.0
 20
19.0
 30
0.0
 40
1.0
100
AcDbArc
 50
90.0
 51
180.0
1001
QCAD
1000
reversed:1
  0
ARC
  5
63
330
62D
100
AcDbEntity
  8
1. Printing Layers ... 1.1 Cut
100
AcDbCircle
 10
59.0
 20
19.0
 30
0.0
 40
1.0
100
AcDbArc
 50
0.0
 51
90.0
1001
QCAD
1000
reversed:1
  0
ARC
  5
64
330
62D
100
AcDbEntity
  8
1. Printing Layers ... 1.1 Cut
100
AcDbCircle
 10
59.0
 20
1.0
 30
0.0
 40
1.0
100
AcDbArc
 50
270.0
 51
0.0
1001
QCAD
1000
reversed:1
  0
ARC
  5
65
330
62D
100
AcDbEntity
  8
1. Printing Layers ... 1.1 Cut
100
AcDbCircle
 10
1.0
 20
1.0
 30
0.0
 40
1.0
100
AcDbArc
 50
180.0
 51
270.0
1001
QCAD
1000
reversed:1
  0
ARC
  5
66
330
62D
100
AcDbEntity
  8
1. Printing Layers ... 1.1 Cut
100
AcDbCircle
 10
29.0
 20
19.0
 30
0.0
 40
1.0
100
AcDbArc
 50
0.0
 51
90.0
1001
QCAD
1000
reversed:1
  0
ARC
  5
67
330
62D
100
AcDbEntity
  8
1. Printing Layers ... 1.1 Cut
100
AcDbCircle
 10
31.0
 20
19.0
 30
0.0
 40
1.0
100
AcDbArc
 50
90.0
 51
180.0
  0
ARC
  5
68
330
62D
100
AcDbEntity
  8
1. Printing Layers ... 1.1 Cut
100
AcDbCircle
 10
29.0
 20
1.0
 30
0.0
 40
1.0
100
AcDbArc
 50
270.0
 51
0.0
  0
ARC
  5
69
330
62D
100
AcDbEntity
  8
1. Printing Layers ... 1.1 Cut
100
AcDbCircle
 10
31.0
 20
1.0
 30
0.0
 40
1.0
100
AcDbArc
 50
180.0
 51
270.0
1001
QCAD
1000
reversed:1
  0
DIMENSION
  5
6A
330
62D
100
AcDbEntity
  8
2. Non-Printing Layers ... 2.2 NP Dimensions
100
AcDbDimension
280
     0
 10
33.0
 20
14.99999999999999
 30
0.0
 11
31.875
 21
10.0
 31
0.0
 70
    32
 71
     5
 42
-1.0
 73
     0
 74
     0
 75
     0
  3
QCADDimStyle
100
AcDbAlignedDimension
 13
35.0
 23
14.99999999999999
 33
0.0
 14
35.0
 24
5.000000000000016
 34
0.0
 50
90.0
100
AcDbRotatedDimension
1001
ACAD
1000
DSTYLE
1002
{
1070
    49
1040
0.0
1070
   290
1070
     0
1070
   279
1070
     2
1070
   179
1070
     1
1070
    41
1040
1.5
1070
    79
1070
     2
1070
   176
1070
     0
1070
   177
1070
     0
1070
   178
1070
     0
1070
   271
1070
     3
1070
    43
1040
3.0
1070
    44
1040
0.75
1070
    42
1040
0.375
1070
   147
1040
0.375
1070
   140
1040
1.5
1070
    78
1070
     8
1002
}
  0
DIMENSION
  5
6B
330
62D
100
AcDbEntity
  8
2. Non-Printing Layers ... 2.2 NP Dimensions
100
AcDbDimension
280
     0
 10
35.0
 20
2.000000000000004
 30
0.0
 11
45.0
 21
3.125000000000004
 31
0.0
 70
    32
 71
     5
 42
-1.0
 73
     0
 74
     0
 75
     0
  3
QCADDimStyle
100
AcDbAlignedDimension
 13
35.0
 23
5.000000000000016
 33
0.0
 14
55.0
 24
4.999999999999994
 34
0.0
100
AcDbRotatedDimension
1001
ACAD
1000
DSTYLE
1002
{
1070
    49
1040
0.0
1070
   290
1070
     0
1070
   279
1070
     2
1070
   179
1070
     1
1070
    41
1040
1.5
1070
    79
1070
     2
1070
   176
1070
     0
1070
   177
1070
     0
1070
   178
1070
     0
1070
   271
1070
     3
1070
    43
1040
3.0
1070
    44
1040
0.75
1070
    42
1040
0.375
1070
   147
1040
0.375
1070
   140
1040
1.5
1070
    78
1070
     8
1002
}
  0
ENDBLK
  5
62F
330
62D
100
AcDbEntity
  8
0
100
AcDbBlockEnd
  0
ENDSEC
  0
SECTION
  2
ENTITIES
  0
INSERT
  5
6C
330
553
100
AcDbEntity
  8
0
100
AcDbBlockReference
  2
laser-cutter-layers-r3
 10
4.0
 20
195.0
 30
0.0
  0
CIRCLE
  5
6D
330
553
100
AcDbEntity
  8
1. Printing Layers ... 1.2 Mark
100
AcDbCircle
 10
80.0
 20
100.0
 30
0.0
 40
75.0
  0
LINE
  5
7A
330
553
100
AcDbEntity
  8
1. Printing Layers ... 1.2 Mark
100
AcDbLine
 10
207.7179676972449
 20
29.99999999999997
 30
0.0
 11
207.7179676972449
 21
49.99999999999997
 31
0.0
  0
LINE
  5
98
330
553
100
AcDbEntity
  8
1. Printing Layers ... 1.2 Mark
100
AcDbLine
 10
190.3974596215562
 20
59.99999999999999
 30
0.0
 11
190.3974596215562
 21
79.99999999999999
 31
0.0
  0
LINE
  5
99
330
553
100
AcDbEntity
  8
1. Printing Layers ... 1.2 Mark
100
AcDbLine
 10
225.0384757729338
 20
59.99999999999996
 30
0.0
 11
225.0384757729338
 21
79.99999999999996
 31
0.0
  0
LINE
  5
9A
330
553
100
AcDbEntity
  8
1. Printing Layers ... 1.2 Mark
100
AcDbLine
 10
259.6794919243113
 20
59.99999999999996
 30
0.0
 11
259.6794919243114
 21
79.99999999999996
 31
0.0
  0
LINE
  5
B6
330
553
100
AcDbEntity
  8
1. Printing Layers ... 1.2 Mark
100
AcDbLine
 10
173.0769515458675
 20
89.99999999999999
 30
0.0
 11
173.0769515458675
 21
109.9999999999999
 31
0.0
  0
LINE
  5
B7
330
553
100
AcDbEntity
  8
1. Printing Layers ... 1.2 Mark
100
AcDbLine
 10
207.717967697245
 20
89.99999999999997
 30
0.0
 11
207.7179676972451
 21
109.9999999999999
 31
0.0
  0
LINE
  5
B8
330
553
100
AcDbEntity
  8
1. Printing Layers ... 1.2 Mark
100
AcDbLine
 10
242.3589838486226
 20
89.99999999999996
 30
0.0
 11
242.3589838486226
 21
109.9999999999999
 31
0.0
  0
LINE
  5
B9
330
553
100
AcDbEntity
  8
1. Printing Layers ... 1.2 Mark
100
AcDbLine
 10
277.0000000000001
 20
89.99999999999994
 30
0.0
 11
277.0000000000002
 21
109.9999999999999
 31
0.0
  0
LINE
  5
D5
330
553
100
AcDbEntity
  8
1. Printing Layers ... 1.2 Mark
100
AcDbLine
 10
190.3974596215563
 20
119.9999999999999
 30
0.0
 11
190.3974596215563
 21
139.9999999999999
 31
0.0
  0
LINE
  5
D6
330
553
100
AcDbEntity
  8
1. Printing Layers ... 1.2 Mark
100
AcDbLine
 10
225.0384757729339
 20
119.9999999999999
 30
0.0
 11
225.0384757729339
 21
139.9999999999999
 31
0.0
  0
LINE
  5
D7
330
553
100
AcDbEntity
  8
1. Printing Layers ... 1.2 Mark
100
AcDbLine
 10
259.6794919243114
 20
119.9999999999999
 30
0.0
 11
259.6794919243114
 21
139.9999999999999
 31
0.0
  0
LINE
  5
F4
330
553
100
AcDbEntity
  8
1. Printing Layers ... 1.2 Mark
100
AcDbLine
 10
207.7179676972451
 20
149.9999999999999
 30
0.0
 11
207.7179676972452
 21
169.9999999999999
 31
0.0
  0
LINE
  5
F5
330
553
100
AcDbEntity
  8
1. Printing Layers ... 1.2 Mark
100
AcDbLine
 10
242.3589838486227
 20
149.9999999999999
 30
0.0
 11
242.3589838486227
 21
169.9999999999999
 31
0.0
  0
LINE
  5
F6
330
553
100
AcDbEntity
  8
1. Printing Layers ... 1.2 Mark
100
AcDbLine
 10
277.0000000000003
 20
149.9999999999999
 30
0.0
 11
277.0000000000003
 21
169.9999999999999
 31
0.0
  0
LINE
  5
113
330
553
100
AcDbEntity
  8
1. Printing Layers ... 1.2 Mark
100
AcDbLine
 10
225.038475772934
 20
179.9999999999999
 30
0.0
 11
225.038475772934
 21
199.9999999999999
 31
0.0
  0
LINE
  5
114
330
553
100
AcDbEntity
  8
1. Printing Layers ... 1.2 Mark
100
AcDbLine
 10
259.6794919243115
 20
179.9999999999999
 30
0.0
 11
259.6794919243115
 21
199.9999999999999
 31
0.0
  0
LINE
  5
132
330
553
100
AcDbEntity
  8
1. Printing Layers ... 1.2 Mark
100
AcDbLine
 10
45.35898384862236
 20
60.0
 30
0.0
 11
45.35898384862239
 21
80.0
 31
0.0
  0
LINE
  5
133
330
553
100
AcDbEntity
  8
1. Printing Layers ... 1.2 Mark
100
AcDbLine
 10
79.99999999999991
 20
60.0
 30
0.0
 11
79.99999999999994
 21
80.0
 31
0.0
  0
LINE
  5
134
330
553
100
AcDbEntity
  8
1. Printing Layers ... 1.2 Mark
100
AcDbLine
 10
114.6410161513775
 20
60.0
 30
0.0
 11
114.6410161513775
 21
80.0
 31
0.0
  0
LINE
  5
135
330
553
100
AcDbEntity
  8
1. Printing Layers ... 1.2 Mark
100
AcDbLine
 10
62.67949192431121
 20
90.0
 30
0.0
 11
62.67949192431121
 21
110.0
 31
0.0
  0
LINE
  5
136
330
553
100
AcDbEntity
  8
1. Printing Layers ... 1.2 Mark
100
AcDbLine
 10
97.32050807568874
 20
90.0
 30
0.0
 11
97.32050807568879
 21
110.0
 31
0.0
  0
LINE
  5
137
330
553
100
AcDbEntity
  8
1. Printing Layers ... 1.2 Mark
100
AcDbLine
 10
131.9615242270664
 20
89.99999999999994
 30
0.0
 11
131.9615242270664
 21
109.9999999999998
 31
0.0
  0
LINE
  5
138
330
553
100
AcDbEntity
  8
1. Printing Layers ... 1.2 Mark
100
AcDbLine
 10
80.00000000000003
 20
120.0
 30
0.0
 11
80.00000000000006
 21
140.0
 31
0.0
  0
LINE
  5
139
330
553
100
AcDbEntity
  8
1. Printing Layers ... 1.2 Mark
100
AcDbLine
 10
114.6410161513776
 20
120.0
 30
0.0
 11
114.6410161513776
 21
140.0
 31
0.0
  0
LINE
  5
75
330
553
100
AcDbEntity
  8
1. Printing Layers ... 1.2 Mark
100
AcDbLine
 10
173.0769515458674
 20
49.99999999999999
 30
0.0
 11
155.7564434701786
 21
60.0
 31
0.0
  0
LINE
  5
7B
330
553
100
AcDbEntity
  8
1. Printing Layers ... 1.2 Mark
100
AcDbLine
 10
207.7179676972449
 20
49.99999999999997
 30
0.0
 11
190.3974596215562
 21
59.99999999999999
 31
0.0
  0
LINE
  5
81
330
553
100
AcDbEntity
  8
1. Printing Layers ... 1.2 Mark
100
AcDbLine
 10
242.3589838486225
 20
49.99999999999996
 30
0.0
 11
225.0384757729337
 21
59.99999999999997
 31
0.0
  0
LINE
  5
BB
330
553
100
AcDbEntity
  8
1. Printing Layers ... 1.2 Mark
100
AcDbLine
 10
173.0769515458675
 20
109.9999999999999
 30
0.0
 11
155.7564434701787
 21
120.0
 31
0.0
  0
LINE
  5
BC
330
553
100
AcDbEntity
  8
1. Printing Layers ... 1.2 Mark
100
AcDbLine
 10
207.7179676972451
 20
109.9999999999999
 30
0.0
 11
190.3974596215563
 21
119.9999999999999
 31
0.0
  0
LINE
  5
BD
330
553
100
AcDbEntity
  8
1. Printing Layers ... 1.2 Mark
100
AcDbLine
 10
242.3589838486226
 20
109.9999999999999
 30
0.0
 11
225.0384757729338
 21
119.9999999999999
 31
0.0
  0
LINE
  5
BE
330
553
100
AcDbEntity
  8
1. Printing Layers ... 1.2 Mark
100
AcDbLine
 10
277.0000000000002
 20
109.9999999999999
 30
0.0
 11
259.6794919243114
 21
119.9999999999999
 31
0.0
  0
LINE
  5
DA
330
553
100
AcDbEntity
  8
1. Printing Layers ... 1.2 Mark
100
AcDbLine
 10
190.3974596215563
 20
139.9999999999999
 30
0.0
 11
173.0769515458675
 21
149.9999999999999
 31
0.0
  0
LINE
  5
DB
330
553
100
AcDbEntity
  8
1. Printing Layers ... 1.2 Mark
100
AcDbLine
 10
225.0384757729339
 20
139.9999999999999
 30
0.0
 11
207.7179676972451
 21
149.9999999999999
 31
0.0
  0
LINE
  5
DC
330
553
100
AcDbEntity
  8
1. Printing Layers ... 1.2 Mark
100
AcDbLine
 10
259.6794919243114
 20
139.9999999999999
 30
0.0
 11
242.3589838486226
 21
149.9999999999999
 31
0.0
  0
LINE
  5
F9
330
553
100
AcDbEntity
  8
1. Printing Layers ... 1.2 Mark
100
AcDbLine
 10
207.7179676972452
 20
169.9999999999999
 30
0.0
 11
190.3974596215564
 21
179.9999999999999
 31
0.0
  0
LINE
  5
292
330
553
100
AcDbEntity
  8
1. Printing Layers ... 1.2 Mark
100
AcDbLine
 10
225.038475772934
 20
199.9999999999999
 30
0.0
 11
207.7179676972452
 21
209.9999999999999
 31
0.0
  0
LINE
  5
29C
330
553
100
AcDbEntity
  8
1. Printing Layers ... 1.2 Mark
100
AcDbLine
 10
173.0769515458676
 20
169.9999999999999
 30
0.0
 11
155.7564434701788
 21
179.9999999999999
 31
0.0
  0
LINE
  5
29D
330
553
100
AcDbEntity
  8
1. Printing Layers ... 1.2 Mark
100
AcDbLine
 10
190.3974596215564
 20
200.0000000000001
 30
0.0
 11
173.0769515458676
 21
210.0000000000001
 31
0.0
  0
LINE
  5
FA
330
553
100
AcDbEntity
  8
1. Printing Layers ... 1.2 Mark
100
AcDbLine
 10
242.3589838486227
 20
169.9999999999999
 30
0.0
 11
225.0384757729339
 21
179.9999999999999
 31
0.0
  0
LINE
  5
293
330
553
100
AcDbEntity
  8
1. Printing Layers ... 1.2 Mark
100
AcDbLine
 10
259.6794919243115
 20
199.9999999999999
 30
0.0
 11
242.3589838486227
 21
209.9999999999999
 31
0.0
  0
LINE
  5
FB
330
553
100
AcDbEntity
  8
1. Printing Layers ... 1.2 Mark
100
AcDbLine
 10
277.0000000000003
 20
169.9999999999999
 30
0.0
 11
259.6794919243115
 21
179.9999999999999
 31
0.0
  0
LINE
  5
13B
330
553
100
AcDbEntity
  8
1. Printing Layers ... 1.2 Mark
100
AcDbLine
 10
62.67949192431109
 20
50.0
 30
0.0
 11
45.3589838486223
 21
60.0
 31
0.0
  0
LINE
  5
13C
330
553
100
AcDbEntity
  8
1. Printing Layers ... 1.2 Mark
100
AcDbLine
 10
97.32050807568868
 20
50.0
 30
0.0
 11
79.99999999999989
 21
60.0
 31
0.0
  0
LINE
  5
13E
330
553
100
AcDbEntity
  8
1. Printing Layers ... 1.2 Mark
100
AcDbLine
 10
45.35898384862239
 20
80.0
 30
0.0
 11
28.03847577293359
 21
90.0
 31
0.0
  0
LINE
  5
13F
330
553
100
AcDbEntity
  8
1. Printing Layers ... 1.2 Mark
100
AcDbLine
 10
79.99999999999994
 20
80.0
 30
0.0
 11
62.67949192431115
 21
90.0
 31
0.0
  0
LINE
  5
140
330
553
100
AcDbEntity
  8
1. Printing Layers ... 1.2 Mark
100
AcDbLine
 10
114.6410161513775
 20
80.0
 30
0.0
 11
97.3205080756887
 21
90.0
 31
0.0
  0
LINE
  5
141
330
553
100
AcDbEntity
  8
1. Printing Layers ... 1.2 Mark
100
AcDbLine
 10
62.67949192431121
 20
110.0
 30
0.0
 11
45.35898384862242
 21
120.0
 31
0.0
  0
LINE
  5
142
330
553
100
AcDbEntity
  8
1. Printing Layers ... 1.2 Mark
100
AcDbLine
 10
97.32050807568879
 20
110.0
 30
0.0
 11
80.0
 21
120.0
 31
0.0
  0
LINE
  5
143
330
553
100
AcDbEntity
  8
1. Printing Layers ... 1.2 Mark
100
AcDbLine
 10
131.9615242270663
 20
109.9999999999999
 30
0.0
 11
114.6410161513775
 21
120.0
 31
0.0
  0
LINE
  5
144
330
553
100
AcDbEntity
  8
1. Printing Layers ... 1.2 Mark
100
AcDbLine
 10
80.00000000000006
 20
140.0
 30
0.0
 11
62.67949192431126
 21
150.0
 31
0.0
  0
LINE
  5
145
330
553
100
AcDbEntity
  8
1. Printing Layers ... 1.2 Mark
100
AcDbLine
 10
114.6410161513776
 20
140.0
 30
0.0
 11
97.32050807568882
 21
150.0
 31
0.0
  0
LINE
  5
A2
330
553
100
AcDbEntity
  8
1. Printing Layers ... 1.2 Mark
100
AcDbLine
 10
173.0769515458674
 20
89.99999999999999
 30
0.0
 11
155.7564434701786
 21
79.99999999999999
 31
0.0
  0
LINE
  5
A3
330
553
100
AcDbEntity
  8
1. Printing Layers ... 1.2 Mark
100
AcDbLine
 10
207.717967697245
 20
89.99999999999999
 30
0.0
 11
190.3974596215562
 21
79.99999999999999
 31
0.0
  0
LINE
  5
A4
330
553
100
AcDbEntity
  8
1. Printing Layers ... 1.2 Mark
100
AcDbLine
 10
242.3589838486225
 20
89.99999999999996
 30
0.0
 11
225.0384757729338
 21
79.99999999999996
 31
0.0
  0
LINE
  5
A5
330
553
100
AcDbEntity
  8
1. Printing Layers ... 1.2 Mark
100
AcDbLine
 10
277.0000000000001
 20
89.99999999999996
 30
0.0
 11
259.6794919243113
 21
79.99999999999996
 31
0.0
  0
LINE
  5
C1
330
553
100
AcDbEntity
  8
1. Printing Layers ... 1.2 Mark
100
AcDbLine
 10
190.3974596215563
 20
119.9999999999999
 30
0.0
 11
173.0769515458675
 21
109.9999999999999
 31
0.0
  0
LINE
  5
C2
330
553
100
AcDbEntity
  8
1. Printing Layers ... 1.2 Mark
100
AcDbLine
 10
225.0384757729338
 20
119.9999999999999
 30
0.0
 11
207.717967697245
 21
109.9999999999999
 31
0.0
  0
LINE
  5
C3
330
553
100
AcDbEntity
  8
1. Printing Layers ... 1.2 Mark
100
AcDbLine
 10
259.6794919243114
 20
119.9999999999999
 30
0.0
 11
242.3589838486226
 21
109.9999999999999
 31
0.0
  0
LINE
  5
DF
330
553
100
AcDbEntity
  8
1. Printing Layers ... 1.2 Mark
100
AcDbLine
 10
173.0769515458675
 20
149.9999999999999
 30
0.0
 11
155.7564434701787
 21
139.9999999999999
 31
0.0
  0
LINE
  5
E0
330
553
100
AcDbEntity
  8
1. Printing Layers ... 1.2 Mark
100
AcDbLine
 10
207.7179676972451
 20
149.9999999999999
 30
0.0
 11
190.3974596215563
 21
139.9999999999999
 31
0.0
  0
LINE
  5
E1
330
553
100
AcDbEntity
  8
1. Printing Layers ... 1.2 Mark
100
AcDbLine
 10
242.3589838486226
 20
149.9999999999999
 30
0.0
 11
225.0384757729339
 21
139.9999999999999
 31
0.0
  0
LINE
  5
E2
330
553
100
AcDbEntity
  8
1. Printing Layers ... 1.2 Mark
100
AcDbLine
 10
277.0000000000002
 20
149.9999999999999
 30
0.0
 11
259.6794919243114
 21
139.9999999999999
 31
0.0
  0
LINE
  5
FE
330
553
100
AcDbEntity
  8
1. Printing Layers ... 1.2 Mark
100
AcDbLine
 10
190.3974596215564
 20
179.9999999999999
 30
0.0
 11
173.0769515458676
 21
169.9999999999999
 31
0.0
  0
LINE
  5
FF
330
553
100
AcDbEntity
  8
1. Printing Layers ... 1.2 Mark
100
AcDbLine
 10
225.0384757729339
 20
179.9999999999999
 30
0.0
 11
207.7179676972451
 21
169.9999999999999
 31
0.0
  0
LINE
  5
100
330
553
100
AcDbEntity
  8
1. Printing Layers ... 1.2 Mark
100
AcDbLine
 10
259.6794919243115
 20
179.9999999999999
 30
0.0
 11
242.3589838486227
 21
169.9999999999999
 31
0.0
  0
LINE
  5
11D
330
553
100
AcDbEntity
  8
1. Printing Layers ... 1.2 Mark
100
AcDbLine
 10
207.7179676972452
 20
209.9999999999999
 30
0.0
 11
190.3974596215564
 21
199.9999999999999
 31
0.0
  0
LINE
  5
29F
330
553
100
AcDbEntity
  8
1. Printing Layers ... 1.2 Mark
100
AcDbLine
 10
173.0769515458676
 20
209.9999999999999
 30
0.0
 11
155.7564434701788
 21
199.9999999999999
 31
0.0
  0
LINE
  5
11E
330
553
100
AcDbEntity
  8
1. Printing Layers ... 1.2 Mark
100
AcDbLine
 10
242.3589838486228
 20
209.9999999999999
 30
0.0
 11
225.038475772934
 21
199.9999999999999
 31
0.0
  0
LINE
  5
147
330
553
100
AcDbEntity
  8
1. Printing Layers ... 1.2 Mark
100
AcDbLine
 10
79.99999999999989
 20
60.0
 30
0.0
 11
62.67949192431109
 21
50.0
 31
0.0
  0
LINE
  5
148
330
553
100
AcDbEntity
  8
1. Printing Layers ... 1.2 Mark
100
AcDbLine
 10
114.6410161513774
 20
60.0
 30
0.0
 11
97.32050807568868
 21
50.0
 31
0.0
  0
LINE
  5
14A
330
553
100
AcDbEntity
  8
1. Printing Layers ... 1.2 Mark
100
AcDbLine
 10
62.67949192431115
 20
90.0
 30
0.0
 11
45.35898384862236
 21
80.0
 31
0.0
  0
LINE
  5
14B
330
553
100
AcDbEntity
  8
1. Printing Layers ... 1.2 Mark
100
AcDbLine
 10
97.3205080756887
 20
90.0
 30
0.0
 11
79.99999999999991
 21
80.0
 31
0.0
  0
LINE
  5
14C
330
553
100
AcDbEntity
  8
1. Printing Layers ... 1.2 Mark
100
AcDbLine
 10
131.9615242270663
 20
90.0
 30
0.0
 11
114.6410161513775
 21
80.0
 31
0.0
  0
LINE
  5
14D
330
553
100
AcDbEntity
  8
1. Printing Layers ... 1.2 Mark
100
AcDbLine
 10
45.35898384862242
 20
120.0
 30
0.0
 11
28.03847577293362
 21
110.0
 31
0.0
  0
LINE
  5
14E
330
553
100
AcDbEntity
  8
1. Printing Layers ... 1.2 Mark
100
AcDbLine
 10
80.0
 20
120.0
 30
0.0
 11
62.67949192431121
 21
110.0
 31
0.0
  0
LINE
  5
14F
330
553
100
AcDbEntity
  8
1. Printing Layers ... 1.2 Mark
100
AcDbLine
 10
114.6410161513775
 20
120.0
 30
0.0
 11
97.32050807568874
 21
110.0
 31
0.0
  0
LINE
  5
150
330
553
100
AcDbEntity
  8
1. Printing Layers ... 1.2 Mark
100
AcDbLine
 10
62.67949192431126
 20
150.0
 30
0.0
 11
45.35898384862247
 21
140.0
 31
0.0
  0
LINE
  5
151
330
553
100
AcDbEntity
  8
1. Printing Layers ... 1.2 Mark
100
AcDbLine
 10
97.32050807568882
 20
150.0
 30
0.0
 11
80.00000000000003
 21
140.0
 31
0.0
  0
LINE
  5
7D
330
553
100
AcDbEntity
  8
1. Printing Layers ... 1.2 Mark
100
AcDbLine
 10
173.0769515458674
 20
49.99999999999999
 30
0.0
 11
173.0769515458674
 21
30.0
 31
0.0
  0
LINE
  5
89
330
553
100
AcDbEntity
  8
1. Printing Layers ... 1.2 Mark
100
AcDbLine
 10
242.3589838486225
 20
49.99999999999996
 30
0.0
 11
242.3589838486225
 21
29.99999999999997
 31
0.0
  0
LINE
  5
8F
330
553
100
AcDbEntity
  8
1. Printing Layers ... 1.2 Mark
100
AcDbLine
 10
277.0
 20
49.99999999999994
 30
0.0
 11
277.0
 21
29.99999999999996
 31
0.0
  0
LINE
  5
A7
330
553
100
AcDbEntity
  8
1. Printing Layers ... 1.2 Mark
100
AcDbLine
 10
155.7564434701786
 20
79.99999999999999
 30
0.0
 11
155.7564434701786
 21
60.00000000000001
 31
0.0
  0
LINE
  5
E4
330
553
100
AcDbEntity
  8
1. Printing Layers ... 1.2 Mark
100
AcDbLine
 10
155.7564434701787
 20
139.9999999999999
 30
0.0
 11
155.7564434701787
 21
120.0
 31
0.0
  0
LINE
  5
103
330
553
100
AcDbEntity
  8
1. Printing Layers ... 1.2 Mark
100
AcDbLine
 10
173.0769515458676
 20
169.9999999999999
 30
0.0
 11
173.0769515458676
 21
149.9999999999999
 31
0.0
  0
LINE
  5
122
330
553
100
AcDbEntity
  8
1. Printing Layers ... 1.2 Mark
100
AcDbLine
 10
190.3974596215564
 20
199.9999999999999
 30
0.0
 11
190.3974596215564
 21
179.9999999999999
 31
0.0
  0
LINE
  5
2A0
330
553
100
AcDbEntity
  8
1. Printing Layers ... 1.2 Mark
100
AcDbLine
 10
155.7564434701788
 20
199.9999999999999
 30
0.0
 11
155.7564434701788
 21
179.9999999999999
 31
0.0
  0
LINE
  5
157
330
553
100
AcDbEntity
  8
1. Printing Layers ... 1.2 Mark
100
AcDbLine
 10
28.03847577293362
 20
110.0
 30
0.0
 11
28.03847577293362
 21
90.0
 31
0.0
  0
LINE
  5
15B
330
553
100
AcDbEntity
  8
1. Printing Layers ... 1.2 Mark
100
AcDbLine
 10
45.35898384862247
 20
140.0
 30
0.0
 11
45.35898384862247
 21
120.0
 31
0.0
  0
LINE
  5
7E
330
553
100
AcDbEntity
  8
1. Printing Layers ... 1.2 Mark
100
AcDbLine
 10
173.0769515458674
 20
30.0
 30
0.0
 11
190.3974596215562
 21
19.99999999999999
 31
0.0
  0
LINE
  5
84
330
553
100
AcDbEntity
  8
1. Printing Layers ... 1.2 Mark
100
AcDbLine
 10
207.7179676972449
 20
29.99999999999999
 30
0.0
 11
225.0384757729337
 21
19.99999999999997
 31
0.0
  0
LINE
  5
8A
330
553
100
AcDbEntity
  8
1. Printing Layers ... 1.2 Mark
100
AcDbLine
 10
242.3589838486225
 20
29.99999999999997
 30
0.0
 11
259.6794919243113
 21
19.99999999999996
 31
0.0
  0
LINE
  5
B0
330
553
100
AcDbEntity
  8
1. Printing Layers ... 1.2 Mark
100
AcDbLine
 10
259.6794919243113
 20
59.99999999999996
 30
0.0
 11
277.0000000000001
 21
49.99999999999995
 31
0.0
  0
LINE
  5
CC
330
553
100
AcDbEntity
  8
1. Printing Layers ... 1.2 Mark
100
AcDbLine
 10
173.0769515458675
 20
90.0
 30
0.0
 11
190.3974596215563
 21
79.99999999999999
 31
0.0
  0
LINE
  5
CD
330
553
100
AcDbEntity
  8
1. Printing Layers ... 1.2 Mark
100
AcDbLine
 10
207.717967697245
 20
89.99999999999999
 30
0.0
 11
225.0384757729338
 21
79.99999999999997
 31
0.0
  0
LINE
  5
CE
330
553
100
AcDbEntity
  8
1. Printing Layers ... 1.2 Mark
100
AcDbLine
 10
242.3589838486226
 20
89.99999999999997
 30
0.0
 11
259.6794919243114
 21
79.99999999999996
 31
0.0
  0
LINE
  5
7F
330
553
100
AcDbEntity
  8
1. Printing Layers ... 1.2 Mark
100
AcDbLine
 10
190.3974596215562
 20
19.99999999999999
 30
0.0
 11
207.7179676972449
 21
29.99999999999997
 31
0.0
  0
LINE
  5
85
330
553
100
AcDbEntity
  8
1. Printing Layers ... 1.2 Mark
100
AcDbLine
 10
225.0384757729337
 20
19.99999999999997
 30
0.0
 11
242.3589838486225
 21
29.99999999999996
 31
0.0
  0
LINE
  5
8B
330
553
100
AcDbEntity
  8
1. Printing Layers ... 1.2 Mark
100
AcDbLine
 10
259.6794919243113
 20
19.99999999999996
 30
0.0
 11
277.0
 21
29.99999999999994
 31
0.0
  0
LINE
  5
B2
330
553
100
AcDbEntity
  8
1. Printing Layers ... 1.2 Mark
100
AcDbLine
 10
173.0769515458674
 20
49.99999999999999
 30
0.0
 11
190.3974596215562
 21
59.99999999999999
 31
0.0
  0
LINE
  5
B3
330
553
100
AcDbEntity
  8
1. Printing Layers ... 1.2 Mark
100
AcDbLine
 10
207.717967697245
 20
49.99999999999998
 30
0.0
 11
225.0384757729338
 21
59.99999999999996
 31
0.0
  0
LINE
  5
B4
330
553
100
AcDbEntity
  8
1. Printing Layers ... 1.2 Mark
100
AcDbLine
 10
242.3589838486225
 20
49.99999999999996
 30
0.0
 11
259.6794919243113
 21
59.99999999999996
 31
0.0
  0
LINE
  5
92
330
553
100
AcDbEntity
  8
1. Printing Layers ... 1.1 Cut
100
AcDbLine
 10
0.0
 20
0.0
 30
0.0
 11
280.0
 21
0.0
 31
0.0
  0
LINE
  5
94
330
553
100
AcDbEntity
  8
1. Printing Layers ... 1.1 Cut
100
AcDbLine
 10
280.0
 20
220.0
 30
0.0
 11
0.0
 21
220.0
 31
0.0
  0
LINE
  5
3D3
330
553
100
AcDbEntity
  8
1. Printing Layers ... 1.1 Cut
100
AcDbLine
 10
0.0
 20
220.0
 30
0.0
 11
0.0
 21
0.0
 31
0.0
  0
LINE
  5
3D4
330
553
100
AcDbEntity
  8
1. Printing Layers ... 1.1 Cut
100
AcDbLine
 10
280.0
 20
220.0
 30
0.0
 11
280.0
 21
0.0
 31
0.0
  0
HATCH
  5
494
330
553
100
AcDbEntity
  8
1. Printing Layers ... 1.3 Raster
100
AcDbHatch
 10
0.0
 20
0.0
 30
0.0
210
0.0
220
0.0
230
1.0
  2
SOLID
 70
     1
 71
     0
 91
        1
 92
        0
 93
        6
 72
     1
 10
62.67949192431113
 20
90.0
 11
45.35898384862234
 21
80.0
 72
     1
 10
45.35898384862234
 20
80.0
 11
45.35898384862234
 21
60.0
 72
     1
 10
45.35898384862234
 20
60.0
 11
62.67949192431107
 21
50.0
 72
     1
 10
62.67949192431107
 20
50.0
 11
79.99999999999986
 21
60.0
 72
     1
 10
79.99999999999986
 20
60.0
 11
79.99999999999991
 21
80.0
 72
     1
 10
79.99999999999991
 20
80.0
 11
62.67949192431113
 21
90.0
 97
        0
 75
     0
 76
     1
 98
        0
  0
HATCH
  5
535
330
553
100
AcDbEntity
  8
1. Printing Layers ... 1.3 Raster
 62
   253
420
 10526880
100
AcDbHatch
 10
0.0
 20
0.0
 30
0.0
210
0.0
220
0.0
230
1.0
  2
SOLID
 70
     1
 71
     0
 91
        1
 92
        0
 93
        6
 72
     1
 10
97.32050807568874
 20
90.0
 11
79.99999999999994
 21
80.0
 72
     1
 10
79.99999999999994
 20
80.0
 11
79.99999999999994
 21
60.0
 72
     1
 10
79.99999999999994
 20
60.0
 11
97.32050807568868
 21
50.0
 72
     1
 10
97.32050807568868
 20
50.0
 11
114.6410161513775
 21
60.0
 72
     1
 10
114.6410161513775
 20
60.0
 11
114.6410161513775
 21
80.0
 72
     1
 10
114.6410161513775
 20
80.0
 11
97.32050807568874
 21
90.0
 97
        0
 75
     0
 76
     1
 98
        0
  0
HATCH
  5
527
330
553
100
AcDbEntity
  8
1. Printing Layers ... 1.3 Raster
 62
   250
420
  4210752
100
AcDbHatch
 10
0.0
 20
0.0
 30
0.0
210
0.0
220
0.0
230
1.0
  2
SOLID
 70
     1
 71
     0
 91
        1
 92
        0
 93
        6
 72
     1
 10
62.67949192431126
 20
150.0
 11
45.35898384862247
 21
140.0
 72
     1
 10
45.35898384862247
 20
140.0
 11
45.35898384862247
 21
120.0
 72
     1
 10
45.35898384862247
 20
120.0
 11
62.67949192431121
 21
110.0
 72
     1
 10
62.67949192431121
 20
110.0
 11
80.0
 21
120.0
 72
     1
 10
80.0
 20
120.0
 11
80.00000000000006
 21
140.0
 72
     1
 10
80.00000000000006
 20
140.0
 11
62.67949192431126
 21
150.0
 97
        0
 75
     0
 76
     1
 98
        0
  0
HATCH
  5
529
330
553
100
AcDbEntity
  8
1. Printing Layers ... 1.3 Raster
 62
     8
420
  8421504
100
AcDbHatch
 10
0.0
 20
0.0
 30
0.0
210
0.0
220
0.0
230
1.0
  2
SOLID
 70
     1
 71
     0
 91
        1
 92
        0
 93
        6
 72
     1
 10
114.6410161513776
 20
120.0
 11
97.32050807568878
 21
110.0
 72
     1
 10
97.32050807568878
 20
110.0
 11
97.32050807568878
 21
90.0
 72
     1
 10
97.32050807568878
 20
90.0
 11
114.6410161513775
 21
80.0
 72
     1
 10
114.6410161513775
 20
80.0
 11
131.9615242270663
 21
90.0
 72
     1
 10
131.9615242270663
 20
90.0
 11
131.9615242270664
 21
110.0
 72
     1
 10
131.9615242270664
 20
110.0
 11
114.6410161513776
 21
120.0
 97
        0
 75
     0
 76
     1
 98
        0
  0
HATCH
  5
526
330
553
100
AcDbEntity
  8
1. Printing Layers ... 1.3 Raster
 62
   250
420
  2105376
100
AcDbHatch
 10
0.0
 20
0.0
 30
0.0
210
0.0
220
0.0
230
1.0
  2
SOLID
 70
     1
 71
     0
 91
        1
 92
        0
 93
        6
 72
     1
 10
45.35898384862244
 20
120.0
 11
28.03847577293365
 21
110.0
 72
     1
 10
28.03847577293365
 20
110.0
 11
28.03847577293365
 21
90.0
 72
     1
 10
28.03847577293365
 20
90.0
 11
45.35898384862239
 21
80.0
 72
     1
 10
45.35898384862239
 20
80.0
 11
62.67949192431118
 21
90.0
 72
     1
 10
62.67949192431118
 20
90.0
 11
62.67949192431124
 21
110.0
 72
     1
 10
62.67949192431124
 20
110.0
 11
45.35898384862244
 21
120.0
 97
        0
 75
     0
 76
     1
 98
        0
  0
HATCH
  5
528
330
553
100
AcDbEntity
  8
1. Printing Layers ... 1.3 Raster
 62
   251
420
  6316128
100
AcDbHatch
 10
0.0
 20
0.0
 30
0.0
210
0.0
220
0.0
230
1.0
  2
SOLID
 70
     1
 71
     0
 91
        1
 92
        0
 93
        6
 72
     1
 10
97.32050807568883
 20
150.0000000000001
 11
80.00000000000004
 21
140.0000000000001
 72
     1
 10
80.00000000000004
 20
140.0000000000001
 11
80.00000000000004
 21
120.0000000000001
 72
     1
 10
80.00000000000004
 20
120.0000000000001
 11
97.32050807568878
 21
110.0000000000001
 72
     1
 10
97.32050807568878
 20
110.0000000000001
 11
114.6410161513776
 21
120.0000000000001
 72
     1
 10
114.6410161513776
 20
120.0000000000001
 11
114.6410161513776
 21
140.0000000000001
 72
     1
 10
114.6410161513776
 20
140.0000000000001
 11
97.32050807568883
 21
150.0000000000001
 97
        0
 75
     0
 76
     1
 98
        0
  0
HATCH
  5
534
330
553
100
AcDbEntity
  8
1. Printing Layers ... 1.3 Raster
 62
     9
420
 12632256
100
AcDbHatch
 10
0.0
 20
0.0
 30
0.0
210
0.0
220
0.0
230
1.0
  2
SOLID
 70
     1
 71
     0
 91
        1
 92
        0
 93
        6
 72
     1
 10
97.32050807568874
 20
90.0
 11
97.32050807568879
 21
110.0
 72
     1
 10
97.32050807568879
 20
110.0
 11
80.0
 21
120.0
 72
     1
 10
80.0
 20
120.0
 11
62.67949192431121
 21
110.0
 72
     1
 10
62.67949192431121
 20
110.0
 11
62.67949192431121
 21
90.0
 72
     1
 10
62.67949192431121
 20
90.0
 11
79.99999999999994
 21
80.0
 72
     1
 10
79.99999999999994
 20
80.0
 11
97.32050807568874
 21
90.0
 97
        0
 75
     0
 76
     1
 98
        0
  0
LINE
  5
2D9
330
553
100
AcDbEntity
  8
2. Non-Printing Layers ... 2.1 NP Layout
100
AcDbLine
 10
259.6794919243114
 20
59.99999999999996
 30
0.0
 11
259.6794919243113
 21
19.99999999999996
 31
0.0
  0
TEXT
  5
2DA
330
553
100
AcDbEntity
  8
1. Printing Layers ... 1.3 Raster
100
AcDbText
 10
251.5842538290732
 20
29.99999999999993
 30
0.0
 40
20.0
  1
1
  7
textstyle23
 72
     1
 11
259.6794919243113
 21
39.99999999999993
 31
0.0
100
AcDbText
 73
     2
  0
LINE
  5
492
330
553
100
AcDbEntity
  8
2. Non-Printing Layers ... 2.1 NP Layout
100
AcDbLine
 10
242.3589838486225
 20
39.99999999999996
 30
0.0
 11
277.0
 21
39.99999999999995
 31
0.0
  0
LINE
  5
4B1
330
553
100
AcDbEntity
  8
1. Printing Layers ... 1.2 Mark
100
AcDbLine
 10
173.0769515458677
 20
207.1132486540519
 30
0.0
 11
158.2564434701788
 21
198.5566243270259
 31
0.0
  0
LINE
  5
4E0
330
553
100
AcDbEntity
  8
1. Printing Layers ... 1.2 Mark
100
AcDbLine
 10
242.3589838486228
 20
207.1132486540518
 30
0.0
 11
227.5384757729339
 21
198.5566243270258
 31
0.0
  0
LINE
  5
4F9
330
553
100
AcDbEntity
  8
1. Printing Layers ... 1.2 Mark
100
AcDbLine
 10
173.0769515458675
 20
87.11324865405186
 30
0.0
 11
158.2564434701787
 21
78.5566243270259
 31
0.0
  0
LINE
  5
50B
330
553
100
AcDbEntity
  8
1. Printing Layers ... 1.2 Mark
100
AcDbLine
 10
242.3589838486226
 20
87.11324865405186
 30
0.0
 11
227.5384757729337
 21
78.5566243270259
 31
0.0
  0
LINE
  5
4C2
330
553
100
AcDbEntity
  8
1. Printing Layers ... 1.2 Mark
100
AcDbLine
 10
173.0769515458677
 20
204.2264973081037
 30
0.0
 11
160.7564434701788
 21
197.1132486540518
 31
0.0
  0
LINE
  5
4E1
330
553
100
AcDbEntity
  8
1. Printing Layers ... 1.2 Mark
100
AcDbLine
 10
242.3589838486228
 20
204.2264973081037
 30
0.0
 11
230.0384757729339
 21
197.1132486540517
 31
0.0
  0
LINE
  5
4FA
330
553
100
AcDbEntity
  8
1. Printing Layers ... 1.2 Mark
100
AcDbLine
 10
173.0769515458675
 20
84.22649730810375
 30
0.0
 11
160.7564434701787
 21
77.11324865405183
 31
0.0
  0
LINE
  5
50C
330
553
100
AcDbEntity
  8
1. Printing Layers ... 1.2 Mark
100
AcDbLine
 10
242.3589838486226
 20
84.22649730810375
 30
0.0
 11
230.0384757729337
 21
77.11324865405183
 31
0.0
  0
LINE
  5
4DA
330
553
100
AcDbEntity
  8
1. Printing Layers ... 1.2 Mark
100
AcDbLine
 10
173.0769515458676
 20
201.3397459621556
 30
0.0
 11
163.2564434701788
 21
195.6698729810777
 31
0.0
  0
LINE
  5
4E2
330
553
100
AcDbEntity
  8
1. Printing Layers ... 1.2 Mark
100
AcDbLine
 10
242.3589838486227
 20
201.3397459621555
 30
0.0
 11
232.5384757729339
 21
195.6698729810776
 31
0.0
  0
LINE
  5
4FB
330
553
100
AcDbEntity
  8
1. Printing Layers ... 1.2 Mark
100
AcDbLine
 10
173.0769515458675
 20
81.33974596215558
 30
0.0
 11
163.2564434701787
 21
75.66987298107773
 31
0.0
  0
LINE
  5
50D
330
553
100
AcDbEntity
  8
1. Printing Layers ... 1.2 Mark
100
AcDbLine
 10
242.3589838486226
 20
81.33974596215558
 30
0.0
 11
232.5384757729337
 21
75.66987298107773
 31
0.0
  0
LINE
  5
4B7
330
553
100
AcDbEntity
  8
1. Printing Layers ... 1.2 Mark
100
AcDbLine
 10
187.8974596215564
 20
198.556624327026
 30
0.0
 11
173.0769515458677
 21
207.1132486540518
 31
0.0
  0
LINE
  5
4E3
330
553
100
AcDbEntity
  8
1. Printing Layers ... 1.2 Mark
100
AcDbLine
 10
257.1794919243115
 20
198.5566243270259
 30
0.0
 11
242.3589838486228
 21
207.1132486540517
 31
0.0
  0
LINE
  5
4FC
330
553
100
AcDbEntity
  8
1. Printing Layers ... 1.2 Mark
100
AcDbLine
 10
187.8974596215563
 20
78.55662432702599
 30
0.0
 11
173.0769515458676
 21
87.11324865405183
 31
0.0
  0
LINE
  5
50E
330
553
100
AcDbEntity
  8
1. Printing Layers ... 1.2 Mark
100
AcDbLine
 10
257.1794919243113
 20
78.55662432702599
 30
0.0
 11
242.3589838486226
 21
87.11324865405183
 31
0.0
  0
LINE
  5
4BC
330
553
100
AcDbEntity
  8
1. Printing Layers ... 1.2 Mark
100
AcDbLine
 10
185.3974596215564
 20
197.1132486540519
 30
0.0
 11
173.0769515458677
 21
204.2264973081037
 31
0.0
  0
LINE
  5
4E4
330
553
100
AcDbEntity
  8
1. Printing Layers ... 1.2 Mark
100
AcDbLine
 10
254.6794919243115
 20
197.1132486540518
 30
0.0
 11
242.3589838486228
 21
204.2264973081037
 31
0.0
  0
LINE
  5
4FD
330
553
100
AcDbEntity
  8
1. Printing Layers ... 1.2 Mark
100
AcDbLine
 10
185.3974596215563
 20
77.11324865405192
 30
0.0
 11
173.0769515458676
 21
84.22649730810375
 31
0.0
  0
LINE
  5
50F
330
553
100
AcDbEntity
  8
1. Printing Layers ... 1.2 Mark
100
AcDbLine
 10
254.6794919243113
 20
77.11324865405192
 30
0.0
 11
242.3589838486226
 21
84.22649730810375
 31
0.0
  0
LINE
  5
4D8
330
553
100
AcDbEntity
  8
1. Printing Layers ... 1.2 Mark
100
AcDbLine
 10
182.8974596215564
 20
195.6698729810778
 30
0.0
 11
173.0769515458677
 21
201.3397459621556
 31
0.0
  0
LINE
  5
4E5
330
553
100
AcDbEntity
  8
1. Printing Layers ... 1.2 Mark
100
AcDbLine
 10
252.1794919243115
 20
195.6698729810778
 30
0.0
 11
242.3589838486228
 21
201.3397459621555
 31
0.0
  0
LINE
  5
4FE
330
553
100
AcDbEntity
  8
1. Printing Layers ... 1.2 Mark
100
AcDbLine
 10
182.8974596215563
 20
75.66987298107784
 30
0.0
 11
173.0769515458675
 21
81.3397459621556
 31
0.0
  0
LINE
  5
510
330
553
100
AcDbEntity
  8
1. Printing Layers ... 1.2 Mark
100
AcDbLine
 10
252.1794919243113
 20
75.66987298107784
 30
0.0
 11
242.3589838486226
 21
81.3397459621556
 31
0.0
  0
LINE
  5
4B5
330
553
100
AcDbEntity
  8
1. Printing Layers ... 1.2 Mark
100
AcDbLine
 10
187.8974596215564
 20
198.556624327026
 30
0.0
 11
187.8974596215564
 21
181.443375672974
 31
0.0
  0
LINE
  5
4E6
330
553
100
AcDbEntity
  8
1. Printing Layers ... 1.2 Mark
100
AcDbLine
 10
257.1794919243115
 20
198.5566243270259
 30
0.0
 11
257.1794919243115
 21
181.4433756729739
 31
0.0
  0
LINE
  5
4FF
330
553
100
AcDbEntity
  8
1. Printing Layers ... 1.2 Mark
100
AcDbLine
 10
187.8974596215563
 20
78.55662432702596
 30
0.0
 11
187.8974596215563
 21
61.44337567297399
 31
0.0
  0
LINE
  5
511
330
553
100
AcDbEntity
  8
1. Printing Layers ... 1.2 Mark
100
AcDbLine
 10
257.1794919243113
 20
78.55662432702596
 30
0.0
 11
257.1794919243113
 21
61.44337567297399
 31
0.0
  0
LINE
  5
4CE
330
553
100
AcDbEntity
  8
1. Printing Layers ... 1.2 Mark
100
AcDbLine
 10
185.3974596215564
 20
197.1132486540519
 30
0.0
 11
185.3974596215564
 21
182.886751345948
 31
0.0
  0
LINE
  5
4E7
330
553
100
AcDbEntity
  8
1. Printing Layers ... 1.2 Mark
100
AcDbLine
 10
254.6794919243115
 20
197.1132486540518
 30
0.0
 11
254.6794919243115
 21
182.8867513459479
 31
0.0
  0
LINE
  5
500
330
553
100
AcDbEntity
  8
1. Printing Layers ... 1.2 Mark
100
AcDbLine
 10
185.3974596215563
 20
77.11324865405192
 30
0.0
 11
185.3974596215563
 21
62.88675134594803
 31
0.0
  0
LINE
  5
512
330
553
100
AcDbEntity
  8
1. Printing Layers ... 1.2 Mark
100
AcDbLine
 10
254.6794919243113
 20
77.11324865405192
 30
0.0
 11
254.6794919243113
 21
62.88675134594803
 31
0.0
  0
LINE
  5
4D6
330
553
100
AcDbEntity
  8
1. Printing Layers ... 1.2 Mark
100
AcDbLine
 10
182.8974596215564
 20
195.6698729810779
 30
0.0
 11
182.8974596215564
 21
184.3301270189222
 31
0.0
  0
LINE
  5
4E8
330
553
100
AcDbEntity
  8
1. Printing Layers ... 1.2 Mark
100
AcDbLine
 10
252.1794919243115
 20
195.6698729810778
 30
0.0
 11
252.1794919243115
 21
184.3301270189221
 31
0.0
  0
LINE
  5
501
330
553
100
AcDbEntity
  8
1. Printing Layers ... 1.2 Mark
100
AcDbLine
 10
182.8974596215563
 20
75.66987298107787
 30
0.0
 11
182.8974596215563
 21
64.33012701892216
 31
0.0
  0
LINE
  5
513
330
553
100
AcDbEntity
  8
1. Printing Layers ... 1.2 Mark
100
AcDbLine
 10
252.1794919243113
 20
75.66987298107787
 30
0.0
 11
252.1794919243113
 21
64.33012701892216
 31
0.0
  0
LINE
  5
4B6
330
553
100
AcDbEntity
  8
1. Printing Layers ... 1.2 Mark
100
AcDbLine
 10
187.8974596215564
 20
181.443375672974
 30
0.0
 11
173.0769515458675
 21
172.886751345948
 31
0.0
  0
LINE
  5
4E9
330
553
100
AcDbEntity
  8
1. Printing Layers ... 1.2 Mark
100
AcDbLine
 10
257.1794919243115
 20
181.4433756729739
 30
0.0
 11
242.3589838486226
 21
172.8867513459479
 31
0.0
  0
LINE
  5
502
330
553
100
AcDbEntity
  8
1. Printing Layers ... 1.2 Mark
100
AcDbLine
 10
187.8974596215563
 20
61.44337567297401
 30
0.0
 11
173.0769515458674
 21
52.88675134594803
 31
0.0
  0
LINE
  5
514
330
553
100
AcDbEntity
  8
1. Printing Layers ... 1.2 Mark
100
AcDbLine
 10
257.1794919243113
 20
61.44337567297401
 30
0.0
 11
242.3589838486224
 21
52.88675134594803
 31
0.0
  0
LINE
  5
4CF
330
553
100
AcDbEntity
  8
1. Printing Layers ... 1.2 Mark
100
AcDbLine
 10
185.3974596215564
 20
182.8867513459481
 30
0.0
 11
173.0769515458675
 21
175.7735026918962
 31
0.0
  0
LINE
  5
4EA
330
553
100
AcDbEntity
  8
1. Printing Layers ... 1.2 Mark
100
AcDbLine
 10
254.6794919243115
 20
182.886751345948
 30
0.0
 11
242.3589838486226
 21
175.7735026918961
 31
0.0
  0
LINE
  5
503
330
553
100
AcDbEntity
  8
1. Printing Layers ... 1.2 Mark
100
AcDbLine
 10
185.3974596215563
 20
62.88675134594808
 30
0.0
 11
173.0769515458674
 21
55.77350269189617
 31
0.0
  0
LINE
  5
515
330
553
100
AcDbEntity
  8
1. Printing Layers ... 1.2 Mark
100
AcDbLine
 10
254.6794919243113
 20
62.88675134594808
 30
0.0
 11
242.3589838486224
 21
55.77350269189617
 31
0.0
  0
LINE
  5
4D4
330
553
100
AcDbEntity
  8
1. Printing Layers ... 1.2 Mark
100
AcDbLine
 10
182.8974596215564
 20
184.3301270189222
 30
0.0
 11
173.0769515458676
 21
178.6602540378443
 31
0.0
  0
LINE
  5
4EB
330
553
100
AcDbEntity
  8
1. Printing Layers ... 1.2 Mark
100
AcDbLine
 10
252.1794919243115
 20
184.3301270189221
 30
0.0
 11
242.3589838486226
 21
178.6602540378442
 31
0.0
  0
LINE
  5
504
330
553
100
AcDbEntity
  8
1. Printing Layers ... 1.2 Mark
100
AcDbLine
 10
182.8974596215563
 20
64.33012701892216
 30
0.0
 11
173.0769515458674
 21
58.66025403784431
 31
0.0
  0
LINE
  5
516
330
553
100
AcDbEntity
  8
1. Printing Layers ... 1.2 Mark
100
AcDbLine
 10
252.1794919243113
 20
64.33012701892216
 30
0.0
 11
242.3589838486225
 21
58.66025403784431
 31
0.0
  0
LINE
  5
4B4
330
553
100
AcDbEntity
  8
1. Printing Layers ... 1.2 Mark
100
AcDbLine
 10
173.0769515458676
 20
172.8867513459481
 30
0.0
 11
158.2564434701788
 21
181.443375672974
 31
0.0
  0
LINE
  5
4EC
330
553
100
AcDbEntity
  8
1. Printing Layers ... 1.2 Mark
100
AcDbLine
 10
242.3589838486226
 20
172.886751345948
 30
0.0
 11
227.5384757729339
 21
181.4433756729739
 31
0.0
  0
LINE
  5
505
330
553
100
AcDbEntity
  8
1. Printing Layers ... 1.2 Mark
100
AcDbLine
 10
173.0769515458674
 20
52.88675134594811
 30
0.0
 11
158.2564434701787
 21
61.44337567297401
 31
0.0
  0
LINE
  5
517
330
553
100
AcDbEntity
  8
1. Printing Layers ... 1.2 Mark
100
AcDbLine
 10
242.3589838486225
 20
52.88675134594811
 30
0.0
 11
227.5384757729337
 21
61.44337567297401
 31
0.0
  0
LINE
  5
4CB
330
553
100
AcDbEntity
  8
1. Printing Layers ... 1.2 Mark
100
AcDbLine
 10
173.0769515458676
 20
175.7735026918962
 30
0.0
 11
160.7564434701788
 21
182.8867513459481
 31
0.0
  0
LINE
  5
4ED
330
553
100
AcDbEntity
  8
1. Printing Layers ... 1.2 Mark
100
AcDbLine
 10
242.3589838486227
 20
175.7735026918961
 30
0.0
 11
230.0384757729339
 21
182.886751345948
 31
0.0
  0
LINE
  5
506
330
553
100
AcDbEntity
  8
1. Printing Layers ... 1.2 Mark
100
AcDbLine
 10
173.0769515458674
 20
55.7735026918962
 30
0.0
 11
160.7564434701787
 21
62.88675134594806
 31
0.0
  0
LINE
  5
518
330
553
100
AcDbEntity
  8
1. Printing Layers ... 1.2 Mark
100
AcDbLine
 10
242.3589838486225
 20
55.7735026918962
 30
0.0
 11
230.0384757729337
 21
62.88675134594806
 31
0.0
  0
LINE
  5
4DB
330
553
100
AcDbEntity
  8
1. Printing Layers ... 1.2 Mark
100
AcDbLine
 10
173.0769515458676
 20
178.6602540378443
 30
0.0
 11
163.2564434701788
 21
184.3301270189221
 31
0.0
  0
LINE
  5
4EE
330
553
100
AcDbEntity
  8
1. Printing Layers ... 1.2 Mark
100
AcDbLine
 10
242.3589838486227
 20
178.6602540378442
 30
0.0
 11
232.5384757729339
 21
184.330127018922
 31
0.0
  0
LINE
  5
507
330
553
100
AcDbEntity
  8
1. Printing Layers ... 1.2 Mark
100
AcDbLine
 10
173.0769515458674
 20
58.66025403784431
 30
0.0
 11
163.2564434701787
 21
64.33012701892213
 31
0.0
  0
LINE
  5
519
330
553
100
AcDbEntity
  8
1. Printing Layers ... 1.2 Mark
100
AcDbLine
 10
242.3589838486225
 20
58.66025403784431
 30
0.0
 11
232.5384757729337
 21
64.33012701892213
 31
0.0
  0
LINE
  5
4C6
330
553
100
AcDbEntity
  8
1. Printing Layers ... 1.2 Mark
100
AcDbLine
 10
158.2564434701788
 20
198.5566243270258
 30
0.0
 11
158.2564434701788
 21
181.443375672974
 31
0.0
  0
LINE
  5
4EF
330
553
100
AcDbEntity
  8
1. Printing Layers ... 1.2 Mark
100
AcDbLine
 10
227.5384757729339
 20
198.5566243270258
 30
0.0
 11
227.5384757729339
 21
181.4433756729739
 31
0.0
  0
LINE
  5
508
330
553
100
AcDbEntity
  8
1. Printing Layers ... 1.2 Mark
100
AcDbLine
 10
158.2564434701787
 20
78.55662432702584
 30
0.0
 11
158.2564434701787
 21
61.44337567297399
 31
0.0
  0
LINE
  5
51A
330
553
100
AcDbEntity
  8
1. Printing Layers ... 1.2 Mark
100
AcDbLine
 10
227.5384757729337
 20
78.55662432702584
 30
0.0
 11
227.5384757729337
 21
61.44337567297399
 31
0.0
  0
LINE
  5
4C7
330
553
100
AcDbEntity
  8
1. Printing Layers ... 1.2 Mark
100
AcDbLine
 10
160.7564434701788
 20
197.1132486540518
 30
0.0
 11
160.7564434701788
 21
182.886751345948
 31
0.0
  0
LINE
  5
4F0
330
553
100
AcDbEntity
  8
1. Printing Layers ... 1.2 Mark
100
AcDbLine
 10
230.0384757729339
 20
197.1132486540517
 30
0.0
 11
230.0384757729339
 21
182.8867513459479
 31
0.0
  0
LINE
  5
509
330
553
100
AcDbEntity
  8
1. Printing Layers ... 1.2 Mark
100
AcDbLine
 10
160.7564434701787
 20
77.1132486540518
 30
0.0
 11
160.7564434701787
 21
62.88675134594803
 31
0.0
  0
LINE
  5
51B
330
553
100
AcDbEntity
  8
1. Printing Layers ... 1.2 Mark
100
AcDbLine
 10
230.0384757729337
 20
77.1132486540518
 30
0.0
 11
230.0384757729337
 21
62.88675134594803
 31
0.0
  0
LINE
  5
4DC
330
553
100
AcDbEntity
  8
1. Printing Layers ... 1.2 Mark
100
AcDbLine
 10
163.2564434701788
 20
195.6698729810778
 30
0.0
 11
163.2564434701788
 21
184.3301270189221
 31
0.0
  0
LINE
  5
4F1
330
553
100
AcDbEntity
  8
1. Printing Layers ... 1.2 Mark
100
AcDbLine
 10
232.5384757729339
 20
195.6698729810777
 30
0.0
 11
232.5384757729339
 21
184.330127018922
 31
0.0
  0
LINE
  5
50A
330
553
100
AcDbEntity
  8
1. Printing Layers ... 1.2 Mark
100
AcDbLine
 10
163.2564434701787
 20
75.66987298107776
 30
0.0
 11
163.2564434701787
 21
64.33012701892213
 31
0.0
  0
LINE
  5
51C
330
553
100
AcDbEntity
  8
1. Printing Layers ... 1.2 Mark
100
AcDbLine
 10
232.5384757729337
 20
75.66987298107776
 30
0.0
 11
232.5384757729337
 21
64.33012701892213
 31
0.0
  0
CIRCLE
  5
4DD
330
553
100
AcDbEntity
  8
1. Printing Layers ... 1.2 Mark
100
AcDbCircle
 10
207.7179676972452
 20
189.9999999999999
 30
0.0
 40
15.0
  0
HATCH
  5
4DF
330
553
100
AcDbEntity
  8
1. Printing Layers ... 1.3 Raster
100
AcDbHatch
 10
0.0
 20
0.0
 30
0.0
210
0.0
220
0.0
230
1.0
  2
SOLID
 70
     1
 71
     0
 91
        2
 92
        0
 93
        6
 72
     1
 10
207.7179676972452
 20
209.9999999999999
 11
190.3974596215564
 21
199.9999999999999
 72
     1
 10
190.3974596215564
 20
199.9999999999999
 11
190.3974596215564
 21
179.9999999999999
 72
     1
 10
190.3974596215564
 20
179.9999999999999
 11
207.7179676972452
 21
169.9999999999999
 72
     1
 10
207.7179676972452
 20
169.9999999999999
 11
225.0384757729339
 21
179.9999999999999
 72
     1
 10
225.0384757729339
 20
179.9999999999999
 11
225.038475772934
 21
199.9999999999999
 72
     1
 10
225.038475772934
 20
199.9999999999999
 11
207.7179676972452
 21
209.9999999999999
 97
        0
 92
        0
 93
        1
 72
     2
 10
207.7179676972452
 20
189.9999999999999
 40
15.0
 50
0.0
 51
360.0
 73
     1
 97
        0
 75
     0
 76
     1
 98
        0
  0
SPLINE
  5
4F2
330
553
100
AcDbEntity
  8
1. Printing Layers ... 1.3 Raster
100
AcDbSpline
210
0.0
220
0.0
230
1.0
 70
     8
 71
     3
 72
    11
 73
     7
 74
     0
 42
0.000000001
 43
0.001
 40
0.0
 40
0.0
 40
0.0
 40
0.0
 40
1.0
 40
2.0
 40
3.0
 40
4.0
 40
4.0
 40
4.0
 40
4.0
 10
173.0769515458676
 20
159.9999999999999
 30
0.0
 10
190.3974596215564
 20
180.0
 30
0.0
 10
207.7179676972451
 20
159.9999999999999
 30
0.0
 10
225.038475772934
 20
140.0
 30
0.0
 10
242.3589838486227
 20
159.9999999999999
 30
0.0
 10
259.6794919243115
 20
179.9999999999999
 30
0.0
 10
277.0000000000003
 20
159.9999999999999
 30
0.0
  0
HATCH
  5
4F6
330
553
100
AcDbEntity
  8
1. Printing Layers ... 1.3 Raster
100
AcDbHatch
 10
0.0
 20
0.0
 30
0.0
210
0.0
220
0.0
230
1.0
  2
DOTS
 70
     0
 71
     0
 91
        1
 92
        0
 93
        6
 72
     1
 10
190.3974596215563
 20
119.9999999999999
 11
190.3974596215563
 21
139.9999999999999
 72
     1
 10
190.3974596215563
 20
139.9999999999999
 11
173.0769515458675
 21
149.9999999999999
 72
     1
 10
173.0769515458675
 20
149.9999999999999
 11
155.7564434701787
 21
139.9999999999999
 72
     1
 10
155.7564434701787
 20
139.9999999999999
 11
155.7564434701787
 21
120.0
 72
     1
 10
155.7564434701787
 20
120.0
 11
173.0769515458675
 21
109.9999999999999
 72
     1
 10
173.0769515458675
 20
109.9999999999999
 11
190.3974596215563
 21
119.9999999999999
 97
        0
 75
     0
 76
     1
 52
0.0
 41
1.0
 77
     0
 78
     1
 53
0.0
 43
0.0
 44
0.0
 45
0.79375
 46
1.5875
 79
     2
 49
0.0
 49
-1.5875
 98
        0
1001
ACAD
1010
0.0
1020
0.0
1030
0.0
  0
HATCH
  5
4F5
330
553
100
AcDbEntity
  8
1. Printing Layers ... 1.3 Raster
100
AcDbHatch
 10
0.0
 20
0.0
 30
0.0
210
0.0
220
0.0
230
1.0
  2
BLOCKS-02
 70
     0
 71
     0
 91
        1
 92
        0
 93
        6
 72
     1
 10
259.6794919243114
 20
119.9999999999999
 11
259.6794919243114
 21
139.9999999999999
 72
     1
 10
259.6794919243114
 20
139.9999999999999
 11
242.3589838486226
 21
149.9999999999999
 72
     1
 10
242.3589838486226
 20
149.9999999999999
 11
225.0384757729339
 21
139.9999999999999
 72
     1
 10
225.0384757729339
 20
139.9999999999999
 11
225.0384757729339
 21
119.9999999999999
 72
     1
 10
225.0384757729339
 20
119.9999999999999
 11
242.3589838486226
 21
109.9999999999999
 72
     1
 10
242.3589838486226
 20
109.9999999999999
 11
259.6794919243114
 21
119.9999999999999
 97
        0
 75
     0
 76
     0
 52
0.0
 41
0.3
 77
     0
 78
    32
 53
180.0
 43
2.4384
 44
1.371599999999999
 45
-0.0000000000000009
 46
-7.619999999999999
 79
     2
 49
3.7338
 49
-3.8862
 53
270.0
 43
2.438399999999999
 44
4.191000000000001
 45
7.619999999999998
 46
-7.62
 79
     2
 49
2.8194
 49
-4.800599999999999
 53
0.0
 43
2.8194
 44
7.315200000000001
 45
0.0
 46
7.619999999999999
 79
     2
 49
3.2004
 49
-4.4196
 53
0.0
 43
1.2954
 44
7.467599999999999
 45
0.0
 46
7.619999999999999
 79
     2
 49
1.2954
 49
-6.3246
 53
90.0
 43
6.248399999999999
 44
0.0
 45
-7.619999999999999
 46
7.619999999999999
 79
     2
 49
1.143
 49
-6.476999999999999
 53
180.0
 43
7.0104
 44
0.0
 45
-0.0000000000000009
 46
-7.619999999999999
 79
     2
 49
0.762
 49
-6.858
 53
180.0
 43
2.438399999999999
 44
4.191000000000001
 45
-0.0000000000000009
 46
-7.619999999999999
 79
     2
 49
3.7338
 49
-3.8862
 53
270.0
 43
6.3246
 44
4.191
 45
7.619999999999998
 46
-7.62
 79
     2
 49
2.8194
 49
-4.800599999999999
 53
180.0
 43
0.9906000000000004
 44
6.096
 45
-0.0000000000000009
 46
-7.619999999999999
 79
     2
 49
1.3716
 49
-6.248399999999999
 53
90.0
 43
1.0668
 44
4.4958
 45
-7.619999999999999
 46
7.619999999999999
 79
     2
 49
1.2954
 49
-6.3246
 53
270.0
 43
0.9905999999999999
 44
1.143
 45
7.619999999999998
 46
-7.62
 79
     2
 49
2.667
 49
-4.953
 53
180.0
 43
5.4102
 44
4.495800000000001
 45
-0.0000000000000009
 46
-7.619999999999999
 79
     2
 49
4.3434
 49
-3.2766
 53
270.0
 43
7.0104
 44
1.143000000000004
 45
7.619999999999998
 46
-7.62
 79
     2
 49
1.143
 49
-6.476999999999999
 53
0.0
 43
6.248399999999999
 44
1.142999999999994
 45
0.0
 46
7.619999999999999
 79
     2
 49
0.762
 49
-6.858
 53
270.0
 43
5.4102
 44
5.791199999999999
 45
7.619999999999998
 46
-7.62
 79
     2
 49
1.2954
 49
-6.3246
 53
0.0
 43
1.0668
 44
5.791199999999998
 45
0.0
 46
7.619999999999999
 79
     2
 49
4.3434
 49
-3.2766
 53
180.0
 43
0.6096000000000003
 44
4.495799999999998
 45
-0.0000000000000009
 46
-7.619999999999999
 79
     2
 49
2.4384
 49
-5.1816
 53
270.0
 43
0.6096000000000007
 44
5.791199999999999
 45
7.619999999999998
 46
-7.62
 79
     2
 49
1.2954
 49
-6.3246
 53
180.0
 43
0.9905999999999999
 44
1.143
 45
-0.0000000000000009
 46
-7.619999999999999
 79
     2
 49
1.3716
 49
-6.248399999999999
 53
270.0
 43
7.238999999999999
 44
1.143
 45
7.619999999999998
 46
-7.62
 79
     2
 49
2.667
 49
-4.953
 53
90.0
 43
1.3716
 44
6.096
 45
-7.619999999999999
 46
7.619999999999999
 79
     2
 49
0.9905999999999999
 49
-6.6294
 53
180.0
 43
6.9342
 44
6.096
 45
-0.0000000000000009
 46
-7.619999999999999
 79
     2
 49
5.562600000000001
 49
-2.0574
 53
180.0
 43
0.6096000000000007
 44
5.791199999999999
 45
-0.0000000000000009
 46
-7.619999999999999
 79
     2
 49
2.4384
 49
-5.1816
 53
270.0
 43
5.791199999999999
 44
5.791199999999999
 45
7.619999999999998
 46
-7.62
 79
     2
 49
1.2954
 49
-6.3246
 53
270.0
 43
2.5908
 44
1.143
 45
7.619999999999998
 46
-7.62
 79
     2
 49
1.2954
 49
-6.3246
 53
0.0
 43
1.2954
 44
1.143
 45
0.0
 46
7.619999999999999
 79
     2
 49
1.2954
 49
-6.3246
 53
270.0
 43
6.9342
 44
7.086599999999999
 45
7.619999999999998
 46
-7.62
 79
     2
 49
0.9905999999999999
 49
-6.6294
 53
0.0
 43
1.371600000000001
 44
7.0866
 45
0.0
 46
7.619999999999999
 79
     2
 49
5.562600000000001
 49
-2.0574
 53
0.0
 43
2.8194
 44
4.191
 45
0.0
 46
7.619999999999999
 79
     2
 49
3.2004
 49
-4.4196
 53
270.0
 43
2.8194
 44
4.191
 45
7.619999999999998
 46
-7.62
 79
     2
 49
4.4958
 49
-3.1242
 53
270.0
 43
1.2954
 44
1.143
 45
7.619999999999998
 46
-7.62
 79
     2
 49
1.2954
 49
-6.3246
 53
270.0
 43
6.019799999999999
 44
4.191000000000001
 45
7.619999999999998
 46
-7.62
 79
     2
 49
4.4958
 49
-3.1242
 98
        0
1001
ACAD
1010
0.0
1020
0.0
1030
0.0
  0
HATCH
  5
51D
330
553
100
AcDbEntity
  8
1. Printing Layers ... 1.3 Raster
100
AcDbHatch
 10
0.0
 20
0.0
 30
0.0
210
0.0
220
0.0
230
1.0
  2
SOLID
 70
     1
 71
     0
 91
        2
 92
        0
 93
        6
 72
     1
 10
187.8974596215563
 20
61.44337567297401
 11
173.0769515458674
 21
52.88675134594803
 72
     1
 10
173.0769515458674
 20
52.88675134594803
 11
158.2564434701787
 21
61.44337567297401
 72
     1
 10
158.2564434701787
 20
61.44337567297401
 11
158.2564434701787
 21
78.55662432702584
 72
     1
 10
158.2564434701787
 20
78.55662432702584
 11
173.0769515458675
 21
87.11324865405186
 72
     1
 10
173.0769515458675
 20
87.11324865405186
 11
187.8974596215563
 21
78.55662432702599
 72
     1
 10
187.8974596215563
 20
78.55662432702599
 11
187.8974596215563
 21
61.44337567297401
 97
        0
 92
        0
 93
        6
 72
     1
 10
185.3974596215563
 20
62.88675134594808
 11
173.0769515458674
 21
55.77350269189617
 72
     1
 10
173.0769515458674
 20
55.77350269189617
 11
160.7564434701787
 21
62.88675134594806
 72
     1
 10
160.7564434701787
 20
62.88675134594806
 11
160.7564434701787
 21
77.1132486540518
 72
     1
 10
160.7564434701787
 20
77.1132486540518
 11
173.0769515458675
 21
84.22649730810375
 72
     1
 10
173.0769515458675
 20
84.22649730810375
 11
185.3974596215563
 21
77.11324865405192
 72
     1
 10
185.3974596215563
 20
77.11324865405192
 11
185.3974596215563
 21
62.88675134594808
 97
        0
 75
     0
 76
     1
 98
        0
  0
HATCH
  5
522
330
553
100
AcDbEntity
  8
1. Printing Layers ... 1.3 Raster
100
AcDbHatch
 10
0.0
 20
0.0
 30
0.0
210
0.0
220
0.0
230
1.0
  2
SOLID
 70
     1
 71
     0
 91
        2
 92
        0
 93
        6
 72
     1
 10
257.1794919243113
 20
61.443375672974
 11
242.3589838486224
 21
52.88675134594801
 72
     1
 10
242.3589838486224
 20
52.88675134594801
 11
227.5384757729337
 21
61.443375672974
 72
     1
 10
227.5384757729337
 20
61.443375672974
 11
227.5384757729337
 21
78.55662432702583
 72
     1
 10
227.5384757729337
 20
78.55662432702583
 11
242.3589838486226
 21
87.11324865405184
 72
     1
 10
242.3589838486226
 20
87.11324865405184
 11
257.1794919243113
 21
78.55662432702597
 72
     1
 10
257.1794919243113
 20
78.55662432702597
 11
257.1794919243113
 21
61.443375672974
 97
        0
 92
        0
 93
        6
 72
     1
 10
254.6794919243113
 20
62.88675134594807
 11
242.3589838486224
 21
55.77350269189616
 72
     1
 10
242.3589838486224
 20
55.77350269189616
 11
230.0384757729337
 21
62.88675134594804
 72
     1
 10
230.0384757729337
 20
62.88675134594804
 11
230.0384757729337
 21
77.11324865405179
 72
     1
 10
230.0384757729337
 20
77.11324865405179
 11
242.3589838486226
 21
84.22649730810373
 72
     1
 10
242.3589838486226
 20
84.22649730810373
 11
254.6794919243113
 21
77.1132486540519
 72
     1
 10
254.6794919243113
 20
77.1132486540519
 11
254.6794919243113
 21
62.88675134594807
 97
        0
 75
     0
 76
     1
 98
        0
  0
HATCH
  5
521
330
553
100
AcDbEntity
  8
1. Printing Layers ... 1.2 Mark
100
AcDbHatch
 10
0.0
 20
0.0
 30
0.0
210
0.0
220
0.0
230
1.0
  2
HONEY
 70
     0
 71
     0
 91
        1
 92
        0
 93
        6
 72
     1
 10
252.1794919243113
 20
75.66987298107787
 11
252.1794919243113
 21
64.33012701892216
 72
     1
 10
252.1794919243113
 20
64.33012701892216
 11
242.3589838486225
 21
58.66025403784431
 72
     1
 10
242.3589838486225
 20
58.66025403784431
 11
232.5384757729337
 21
64.33012701892213
 72
     1
 10
232.5384757729337
 20
64.33012701892213
 11
232.5384757729337
 21
75.66987298107776
 72
     1
 10
232.5384757729337
 20
75.66987298107776
 11
242.3589838486226
 21
81.33974596215558
 72
     1
 10
242.3589838486226
 20
81.33974596215558
 11
252.1794919243113
 21
75.66987298107787
 97
        0
 75
     0
 76
     1
 52
30.0
 41
1.0
 77
     0
 78
     3
 53
30.0
 43
0.0
 44
0.0
 45
2.74963098552339
 46
4.762499431007805
 79
     2
 49
3.175
 49
-6.35
 53
150.0
 43
0.0
 44
0.0
 45
-5.49926098552339
 46
0.0000005689921965
 79
     2
 49
3.175
 49
-6.35
 53
90.0
 43
0.0
 44
0.0
 45
-2.749629999999999
 46
4.7625
 79
     2
 49
-6.35
 49
3.175
 98
        0
1001
ACAD
1010
0.0
1020
0.0
1030
0.0
  0
HATCH
  5
524
330
553
100
AcDbEntity
  8
1. Printing Layers ... 1.3 Raster
100
AcDbHatch
 10
0.0
 20
0.0
 30
0.0
210
0.0
220
0.0
230
1.0
  2
HONEY
 70
     0
 71
     0
 91
        1
 92
        0
 93
        6
 72
     1
 10
182.8974596215563
 20
75.66987298107792
 11
182.8974596215563
 21
64.3301270189222
 72
     1
 10
182.8974596215563
 20
64.3301270189222
 11
173.0769515458674
 21
58.66025403784435
 72
     1
 10
173.0769515458674
 20
58.66025403784435
 11
163.2564434701787
 21
64.33012701892217
 72
     1
 10
163.2564434701787
 20
64.33012701892217
 11
163.2564434701787
 21
75.6698729810778
 72
     1
 10
163.2564434701787
 20
75.6698729810778
 11
173.0769515458675
 21
81.33974596215562
 72
     1
 10
173.0769515458675
 20
81.33974596215562
 11
182.8974596215563
 21
75.66987298107792
 97
        0
 75
     0
 76
     1
 52
30.0
 41
1.0
 77
     0
 78
     3
 53
30.0
 43
0.0
 44
0.0
 45
2.74963098552339
 46
4.762499431007805
 79
     2
 49
3.175
 49
-6.35
 53
150.0
 43
0.0
 44
0.0
 45
-5.49926098552339
 46
0.0000005689921965
 79
     2
 49
3.175
 49
-6.35
 53
90.0
 43
0.0
 44
0.0
 45
-2.749629999999999
 46
4.7625
 79
     2
 49
-6.35
 49
3.175
 98
        0
1001
ACAD
1010
0.0
1020
0.0
1030
0.0
  0
HATCH
  5
533
330
553
100
AcDbEntity
  8
1. Printing Layers ... 1.3 Raster
 62
   254
420
 14737632
100
AcDbHatch
 10
0.0
 20
0.0
 30
0.0
210
0.0
220
0.0
230
1.0
  2
SOLID
 70
     1
 71
     0
 91
        2
 92
        0
 93
       18
 72
     1
 10
97.32050807568882
 20
150.0
 11
80.00000000000003
 21
140.0
 72
     1
 10
80.00000000000003
 20
140.0
 11
62.67949192431126
 21
150.0
 72
     1
 10
62.67949192431126
 20
150.0
 11
45.35898384862247
 21
140.0
 72
     1
 10
45.35898384862247
 20
140.0
 11
45.35898384862247
 21
120.0
 72
     1
 10
45.35898384862247
 20
120.0
 11
28.03847577293362
 21
110.0
 72
     1
 10
28.03847577293362
 20
110.0
 11
28.03847577293362
 21
90.0
 72
     1
 10
28.03847577293362
 20
90.0
 11
45.35898384862239
 21
80.0
 72
     1
 10
45.35898384862239
 20
80.0
 11
45.35898384862236
 21
60.0
 72
     1
 10
45.35898384862236
 20
60.0
 11
62.67949192431109
 21
50.0
 72
     1
 10
62.67949192431109
 20
50.0
 11
79.99999999999989
 21
60.0
 72
     1
 10
79.99999999999989
 20
60.0
 11
97.32050807568868
 21
50.0
 72
     1
 10
97.32050807568868
 20
50.0
 11
114.6410161513774
 21
60.0
 72
     1
 10
114.6410161513774
 20
60.0
 11
114.6410161513775
 21
80.0
 72
     1
 10
114.6410161513775
 20
80.0
 11
131.9615242270663
 21
90.0
 72
     1
 10
131.9615242270663
 20
90.0
 11
131.9615242270664
 21
109.9999999999998
 72
     1
 10
131.9615242270664
 20
109.9999999999998
 11
114.6410161513775
 21
120.0
 72
     1
 10
114.6410161513775
 20
120.0
 11
114.6410161513776
 21
140.0
 72
     1
 10
114.6410161513776
 20
140.0
 11
97.32050807568882
 21
150.0
 97
        0
 92
        0
 93
        1
 72
     2
 10
80.0
 20
100.0
 40
75.0
 50
0.0
 51
360.0
 73
     1
 97
        0
 75
     0
 76
     1
 98
        0
  0
VIEWPORT
  5
62B
330
54F
100
AcDbEntity
 67
     1
  8
0
100
AcDbViewport
 10
128.5
 20
97.5
 30
0.0
 40
314.226
 41
222.18
 68
     1
 69
     1
 12
128.5
 22
97.5
 13
0.0
 23
0.0
 14
10.0
 24
10.0
 15
10.0
 25
10.0
 16
0.0
 26
0.0
 36
1.0
 17
0.0
 27
0.0
 37
0.0
 42
50.0
 43
0.0
 44
0.0
 45
222.18
 50
0.0
 51
0.0
 72
   100
 90
   557152
  1

281
     0
 71
     1
 74
     0
110
0.0
120
0.0
130
0.0
111
1.0
121
0.0
131
0.0
112
0.0
122
1.0
132
0.0
 79
     0
146
0.0
170
     0
 61
     5
348
563
292
     1
282
     1
141
0.0
142
0.0
 63
   256
361
62C
  0
ENDSEC
  0
SECTION
  2
OBJECTS
  0
DICTIONARY
  5
541
330
0
100
AcDbDictionary
281
     1
  3
ACAD_DETAILVIEWSTYLE
350
640
  3
ACAD_GROUP
350
542
  3
ACAD_LAYOUT
350
54E
  3
ACAD_MATERIAL
350
577
  3
ACAD_MLEADERSTYLE
350
59F
  3
ACAD_MLINESTYLE
350
54B
  3
ACAD_PLOTSETTINGS
350
54D
  3
ACAD_PLOTSTYLENAME
350
543
  3
ACAD_SCALELIST
350
57B
  3
ACAD_SECTIONVIEWSTYLE
350
641
  3
ACAD_TABLESTYLE
350
59D
  3
ACAD_VISUALSTYLE
350
55E
  3
ACDB_RECOMPOSE_DATA
350
63D
  3
AcDbVariableDictionary
350
639
  3
QCAD_OBJECTS
350
5A3
  0
SUN
  5
5A1
330
55D
100
AcDbSun
 90
        1
290
     0
 63
     7
421
 16777215
 40
1.0
291
     1
 91
  2455826
 92
 54000000
292
     0
 70
     2
 71
   256
280
     1
  0
SUN
  5
62C
330
62B
100
AcDbSun
 90
        1
290
     0
 63
     7
421
 16777215
 40
1.0
291
     1
 91
  2455826
 92
 54000000
292
     0
 70
     2
 71
   256
280
     1
  0
DICTIONARY
  5
640
102
{ACAD_REACTORS
330
541
102
}
330
541
100
AcDbDictionary
281
     1
  0
DICTIONARY
  5
542
102
{ACAD_REACTORS
330
541
102
}
330
541
100
AcDbDictionary
281
     1
  0
DICTIONARY
  5
54E
102
{ACAD_REACTORS
330
541
102
}
330
541
100
AcDbDictionary
281
     1
  3
Layout1
350
552
  3
Model
350
556
  0
DICTIONARY
  5
577
102
{ACAD_REACTORS
330
541
102
}
330
541
100
AcDbDictionary
281
     1
  3
ByBlock
350
579
  3
ByLayer
350
578
  3
Global
350
57A
  0
DICTIONARY
  5
59F
102
{ACAD_REACTORS
330
541
102
}
330
541
100
AcDbDictionary
281
     1
  3
Standard
350
5A0
  0
DICTIONARY
  5
54B
102
{ACAD_REACTORS
330
541
102
}
330
541
100
AcDbDictionary
281
     1
  3
Standard
350
54C
  0
DICTIONARY
  5
54D
102
{ACAD_REACTORS
330
541
102
}
330
541
100
AcDbDictionary
281
     1
  0
ACDBDICTIONARYWDFLT
  5
543
102
{ACAD_REACTORS
330
541
102
}
330
541
100
AcDbDictionary
281
     1
  3
Normal
350
544
100
AcDbDictionaryWithDefault
340
544
  0
DICTIONARY
  5
57B
102
{ACAD_REACTORS
330
541
102
}
330
541
100
AcDbDictionary
281
     1
  3
A0
350
57C
  3
A1
350
57D
  3
A2
350
57E
  3
A3
350
57F
  3
A4
350
580
  3
A5
350
581
  3
A6
350
582
  3
A7
350
583
  3
A8
350
584
  3
A9
350
585
  3
B0
350
586
  3
B1
350
587
  3
B2
350
588
  3
B3
350
589
  3
B4
350
58A
  3
B5
350
58B
  3
B6
350
58C
  3
B7
350
58D
  3
B8
350
58E
  3
B9
350
58F
  3
C0
350
590
  3
C1
350
591
  3
C2
350
592
  3
C3
350
593
  3
C4
350
594
  3
C5
350
595
  3
C6
350
596
  3
C7
350
597
  3
C8
350
598
  3
C9
350
599
  3
D0
350
59A
  3
D1
350
59B
  3
D2
350
59C
  0
DICTIONARY
  5
641
102
{ACAD_REACTORS
330
541
102
}
330
541
100
AcDbDictionary
281
     1
  0
DICTIONARY
  5
59D
102
{ACAD_REACTORS
330
541
102
}
330
541
100
AcDbDictionary
281
     1
  3
Standard
350
59E
  0
DICTIONARY
  5
55E
102
{ACAD_REACTORS
330
541
102
}
330
541
100
AcDbDictionary
281
     1
  3
2dWireframe
350
563
  3
Basic
350
566
  3
Brighten
350
56A
  3
ColorChange
350
56E
  3
Conceptual
350
568
  3
Dim
350
569
  3
EdgeColorOff
350
571
  3
Facepattern
350
56D
  3
Flat
350
55F
  3
FlatWithEdges
350
560
  3
Gouraud
350
561
  3
GouraudWithEdges
350
562
  3
Hidden
350
565
  3
JitterOff
350
56F
  3
Linepattern
350
56C
  3
OverhangOff
350
570
  3
Realistic
350
567
  3
Shaded
350
576
  3
Shaded with edges
350
575
  3
Shades of Gray
350
572
  3
Sketchy
350
573
  3
Thicken
350
56B
  3
Wireframe
350
564
  3
X-Ray
350
574
  0
XRECORD
  5
63D
102
{ACAD_REACTORS
330
541
102
}
330
541
100
AcDbXrecord
280
     1
 90
        1
330
59E
  0
DICTIONARY
  5
639
102
{ACAD_REACTORS
330
541
102
}
330
541
100
AcDbDictionary
281
     1
  3
CANNOSCALE
350
63A
  3
CMLEADERSTYLE
350
63F
  3
CTABLESTYLE
350
63E
  0
DICTIONARY
  5
5A3
102
{ACAD_REACTORS
330
541
102
}
330
541
100
AcDbDictionary
281
     1
  3
CamExport/ConfigV2
350
5A5
  3
ColorSettings/BackgroundColor
350
5A6
  3
ColorSettings/ColorMode
350
5A7
  3
Grid/DisplayGrid00
350
5A8
  3
Grid/DisplayGrid01
350
5A9
  3
Grid/DisplayGrid02
350
5AA
  3
Grid/DisplayGrid03
350
5AB
  3
Grid/GridSpacingX00
350
5AC
  3
Grid/GridSpacingX01
350
5AD
  3
Grid/GridSpacingX02
350
5AE
  3
Grid/GridSpacingX03
350
5AF
  3
Grid/GridSpacingY00
350
5B0
  3
Grid/GridSpacingY01
350
5B1
  3
Grid/GridSpacingY02
350
5B2
  3
Grid/GridSpacingY03
350
5B3
  3
Grid/IsometricGrid00
350
5B4
  3
Grid/IsometricGrid01
350
5B5
  3
Grid/IsometricGrid02
350
5B6
  3
Grid/IsometricGrid03
350
5B7
  3
Grid/IsometricProjection00
350
5B8
  3
Grid/IsometricProjection01
350
5B9
  3
Grid/IsometricProjection02
350
5BA
  3
Grid/IsometricProjection03
350
5BB
  3
Grid/MetaGridSpacingX00
350
5BC
  3
Grid/MetaGridSpacingX01
350
5BD
  3
Grid/MetaGridSpacingX02
350
5BE
  3
Grid/MetaGridSpacingX03
350
5BF
  3
Grid/MetaGridSpacingY00
350
5C0
  3
Grid/MetaGridSpacingY01
350
5C1
  3
Grid/MetaGridSpacingY02
350
5C2
  3
Grid/MetaGridSpacingY03
350
5C3
  3
MultiPageSettings/Columns
350
5C4
  3
MultiPageSettings/GlueMarginsBottom
350
5C5
  3
MultiPageSettings/GlueMarginsLeft
350
5C6
  3
MultiPageSettings/GlueMarginsRight
350
5C7
  3
MultiPageSettings/GlueMarginsTop
350
5C8
  3
MultiPageSettings/PrintCropMarks
350
5C9
  3
MultiPageSettings/Rows
350
5CA
  3
PageSettings/OffsetX
350
5CB
  3
PageSettings/OffsetY
350
5CC
  3
PageSettings/PageOrientation
350
5CD
  3
PageSettings/PaperHeight
350
5CE
  3
PageSettings/PaperSizeName
350
5CF
  3
PageSettings/PaperWidth
350
5D0
  3
PageSettings/PointSize
350
5D1
  3
PageSettings/Scale
350
5D2
  3
PageSettings/ShowPaperBorders
350
5D3
  3
PageTagSettings/EnablePageTags
350
5D4
  3
PageTagSettings/TagAlignment
350
5D5
  3
PageTagSettings/TagFont
350
5D6
  3
PageTagSettings/TagPosition
350
5D7
  3
QCADVersion
350
5D8
  3
UnitSettings/Measurement
350
5D9
  3
UnitSettings/PaperUnit
350
5DA
  3
ViewportCenter
350
5DB
  3
ViewportHeight
350
5DC
  3
ViewportWidth
350
5DD
  0
LAYOUT
  5
552
102
{ACAD_REACTORS
330
54E
102
}
330
54E
100
AcDbPlotSettings
  1

  2
none_device
  4
ISO_A4_(210.00_x_297.00_MM)
  6

 40
7.5
 41
20.0
 42
7.5
 43
20.0
 44
210.0
 45
297.0
 46
0.0
 47
0.0
 48
0.0
 49
0.0
140
0.0
141
0.0
142
1.0
143
1.0
 70
   688
 72
     1
 73
     1
 74
     5
  7

 75
     0
 76
     0
 77
     2
 78
   300
147
1.0
148
0.0
149
0.0
100
AcDbLayout
  1
Layout1
 70
     1
 71
     0
 10
-20.0
 20
-7.5
 11
277.0
 21
202.5
 12
0.0
 22
0.0
 32
0.0
 14
0.0
 24
0.0
 34
0.0
 15
0.0
 25
0.0
 35
0.0
146
0.0
 13
0.0
 23
0.0
 33
0.0
 16
1.0
 26
0.0
 36
0.0
 17
0.0
 27
1.0
 37
0.0
 76
     0
330
54F
331
62B
  0
LAYOUT
  5
556
102
{ACAD_REACTORS
330
54E
102
}
330
54E
100
AcDbPlotSettings
  1

  2
none_device
  4
Letter_(8.50_x_11.00_Inches)
  6

 40
6.35
 41
6.35
 42
6.35000508
 43
6.35000508
 44
215.9
 45
279.4
 46
0.0
 47
0.0
 48
0.0
 49
0.0
140
0.0
141
0.0
142
1.0
143
1.0
 70
  1712
 72
     0
 73
     0
 74
     0
  7

 75
     0
 76
     0
 77
     2
 78
   300
147
1.0
148
0.0
149
0.0
100
AcDbLayout
  1
Model
 70
     1
 71
     0
 10
0.0
 20
0.0
 11
12.0
 21
9.0
 12
0.0
 22
0.0
 32
0.0
 14
0.0
 24
0.0
 34
0.0
 15
280.0
 25
220.0
 35
0.0
146
0.0
 13
0.0
 23
0.0
 33
0.0
 16
1.0
 26
0.0
 36
0.0
 17
0.0
 27
1.0
 37
0.0
 76
     0
330
553
331
55D
  0
MATERIAL
  5
579
102
{ACAD_REACTORS
330
577
102
}
330
577
100
AcDbMaterial
  1
ByBlock
 72
     1
 94
      127
  0
MATERIAL
  5
578
102
{ACAD_REACTORS
330
577
102
}
330
577
100
AcDbMaterial
  1
ByLayer
 72
     1
 94
      127
  0
MATERIAL
  5
57A
102
{ACAD_REACTORS
330
577
102
}
330
577
100
AcDbMaterial
  1
Global
 72
     1
 94
      127
  0
MLEADERSTYLE
  5
5A0
102
{ACAD_REACTORS
330
59F
102
}
330
59F
100
AcDbMLeaderStyle
179
     2
170
     2
171
     1
172
     0
 90
        2
 40
0.0
 41
0.0
173
     1
 91
-1056964608
340
548
 92
       -2
290
     1
 42
0.09
291
     1
 43
0.36
  3
Standard
341
0
 44
0.18
300

342
546
174
     1
178
     6
175
     1
176
     0
 93
-1056964608
 45
0.18
292
     0
297
     0
 46
0.18
343
0
 94
-1056964608
 47
1.0
 49
1.0
140
1.0
293
     1
141
0.0
294
     1
177
     0
142
1.0
295
     0
296
     0
143
0.125
271
     0
272
     9
273
     9
298
     0
  0
MLINESTYLE
  5
54C
102
{ACAD_REACTORS
330
54B
102
}
330
54B
100
AcDbMlineStyle
  2
Standard
 70
     0
  3

 62
   256
 51
90.0
 52
90.0
 71
     2
 49
0.5
 62
   256
  6
BYLAYER
 49
-0.5
 62
   256
  6
BYLAYER
  0
ACDBPLACEHOLDER
  5
544
102
{ACAD_REACTORS
330
543
102
}
330
543
  0
SCALE
  5
57C
102
{ACAD_REACTORS
330
57B
102
}
330
57B
100
AcDbScale
 70
     0
300
1:1
140
1.0
141
1.0
290
     1
  0
SCALE
  5
57D
102
{ACAD_REACTORS
330
57B
102
}
330
57B
100
AcDbScale
 70
     0
300
1:2
140
1.0
141
2.0
290
     0
  0
SCALE
  5
57E
102
{ACAD_REACTORS
330
57B
102
}
330
57B
100
AcDbScale
 70
     0
300
1:4
140
1.0
141
4.0
290
     0
  0
SCALE
  5
57F
102
{ACAD_REACTORS
330
57B
102
}
330
57B
100
AcDbScale
 70
     0
300
1:5
140
1.0
141
5.0
290
     0
  0
SCALE
  5
580
102
{ACAD_REACTORS
330
57B
102
}
330
57B
100
AcDbScale
 70
     0
300
1:8
140
1.0
141
8.0
290
     0
  0
SCALE
  5
581
102
{ACAD_REACTORS
330
57B
102
}
330
57B
100
AcDbScale
 70
     0
300
1:10
140
1.0
141
10.0
290
     0
  0
SCALE
  5
582
102
{ACAD_REACTORS
330
57B
102
}
330
57B
100
AcDbScale
 70
     0
300
1:16
140
1.0
141
16.0
290
     0
  0
SCALE
  5
583
102
{ACAD_REACTORS
330
57B
102
}
330
57B
100
AcDbScale
 70
     0
300
1:20
140
1.0
141
20.0
290
     0
  0
SCALE
  5
584
102
{ACAD_REACTORS
330
57B
102
}
330
57B
100
AcDbScale
 70
     0
300
1:30
140
1.0
141
30.0
290
     0
  0
SCALE
  5
585
102
{ACAD_REACTORS
330
57B
102
}
330
57B
100
AcDbScale
 70
     0
300
1:40
140
1.0
141
40.0
290
     0
  0
SCALE
  5
586
102
{ACAD_REACTORS
330
57B
102
}
330
57B
100
AcDbScale
 70
     0
300
1:50
140
1.0
141
50.0
290
     0
  0
SCALE
  5
587
102
{ACAD_REACTORS
330
57B
102
}
330
57B
100
AcDbScale
 70
     0
300
1:100
140
1.0
141
100.0
290
     0
  0
SCALE
  5
588
102
{ACAD_REACTORS
330
57B
102
}
330
57B
100
AcDbScale
 70
     0
300
2:1
140
2.0
141
1.0
290
     0
  0
SCALE
  5
589
102
{ACAD_REACTORS
330
57B
102
}
330
57B
100
AcDbScale
 70
     0
300
4:1
140
4.0
141
1.0
290
     0
  0
SCALE
  5
58A
102
{ACAD_REACTORS
330
57B
102
}
330
57B
100
AcDbScale
 70
     0
300
8:1
140
8.0
141
1.0
290
     0
  0
SCALE
  5
58B
102
{ACAD_REACTORS
330
57B
102
}
330
57B
100
AcDbScale
 70
     0
300
10:1
140
10.0
141
1.0
290
     0
  0
SCALE
  5
58C
102
{ACAD_REACTORS
330
57B
102
}
330
57B
100
AcDbScale
 70
     0
300
100:1
140
100.0
141
1.0
290
     0
  0
SCALE
  5
58D
102
{ACAD_REACTORS
330
57B
102
}
330
57B
100
AcDbScale
 70
     0
300
1/128" = 1'-0"
140
0.0078125
141
12.0
290
     0
  0
SCALE
  5
58E
102
{ACAD_REACTORS
330
57B
102
}
330
57B
100
AcDbScale
 70
     0
300
1/64" = 1'-0"
140
0.015625
141
12.0
290
     0
  0
SCALE
  5
58F
102
{ACAD_REACTORS
330
57B
102
}
330
57B
100
AcDbScale
 70
     0
300
1/32" = 1'-0"
140
0.03125
141
12.0
290
     0
  0
SCALE
  5
590
102
{ACAD_REACTORS
330
57B
102
}
330
57B
100
AcDbScale
 70
     0
300
1/16" = 1'-0"
140
0.0625
141
12.0
290
     0
  0
SCALE
  5
591
102
{ACAD_REACTORS
330
57B
102
}
330
57B
100
AcDbScale
 70
     0
300
3/32" = 1'-0"
140
0.09375
141
12.0
290
     0
  0
SCALE
  5
592
102
{ACAD_REACTORS
330
57B
102
}
330
57B
100
AcDbScale
 70
     0
300
1/8" = 1'-0"
140
0.125
141
12.0
290
     0
  0
SCALE
  5
593
102
{ACAD_REACTORS
330
57B
102
}
330
57B
100
AcDbScale
 70
     0
300
3/16" = 1'-0"
140
0.1875
141
12.0
290
     0
  0
SCALE
  5
594
102
{ACAD_REACTORS
330
57B
102
}
330
57B
100
AcDbScale
 70
     0
300
1/4" = 1'-0"
140
0.25
141
12.0
290
     0
  0
SCALE
  5
595
102
{ACAD_REACTORS
330
57B
102
}
330
57B
100
AcDbScale
 70
     0
300
3/8" = 1'-0"
140
0.375
141
12.0
290
     0
  0
SCALE
  5
596
102
{ACAD_REACTORS
330
57B
102
}
330
57B
100
AcDbScale
 70
     0
300
1/2" = 1'-0"
140
0.5
141
12.0
290
     0
  0
SCALE
  5
597
102
{ACAD_REACTORS
330
57B
102
}
330
57B
100
AcDbScale
 70
     0
300
3/4" = 1'-0"
140
0.75
141
12.0
290
     0
  0
SCALE
  5
598
102
{ACAD_REACTORS
330
57B
102
}
330
57B
100
AcDbScale
 70
     0
300
1" = 1'-0"
140
1.0
141
12.0
290
     0
  0
SCALE
  5
599
102
{ACAD_REACTORS
330
57B
102
}
330
57B
100
AcDbScale
 70
     0
300
1-1/2" = 1'-0"
140
1.5
141
12.0
290
     0
  0
SCALE
  5
59A
102
{ACAD_REACTORS
330
57B
102
}
330
57B
100
AcDbScale
 70
     0
300
3" = 1'-0"
140
3.0
141
12.0
290
     0
  0
SCALE
  5
59B
102
{ACAD_REACTORS
330
57B
102
}
330
57B
100
AcDbScale
 70
     0
300
6" = 1'-0"
140
6.0
141
12.0
290
     0
  0
SCALE
  5
59C
102
{ACAD_REACTORS
330
57B
102
}
330
57B
100
AcDbScale
 70
     0
300
1'-0" = 1'-0"
140
12.0
141
12.0
290
     0
  0
TABLESTYLE
  5
59E
102
{ACAD_REACTORS
330
59D
102
}
102
{ACAD_XDICTIONARY
360
63B
102
}
330
59D
100
AcDbTableStyle
  3
Standard
 70
     0
 71
     0
 40
0.06
 41
0.06
280
     0
281
     0
  7
Standard
140
0.18
170
     2
 62
     0
 63
   257
283
     0
 90
        4
 91
        0
  1

274
    -2
284
     1
 64
     0
275
    -2
285
     1
 65
     0
276
    -2
286
     1
 66
     0
277
    -2
287
     1
 67
     0
278
    -2
288
     1
 68
     0
279
    -2
289
     1
 69
     0
  7
Standard
140
0.25
170
     5
 62
     0
 63
   257
283
     0
 90
        4
 91
        0
  1

274
    -2
284
     1
 64
     0
275
    -2
285
     1
 65
     0
276
    -2
286
     1
 66
     0
277
    -2
287
     1
 67
     0
278
    -2
288
     1
 68
     0
279
    -2
289
     1
 69
     0
  7
Standard
140
0.18
170
     5
 62
     0
 63
   257
283
     0
 90
        4
 91
        0
  1

274
    -2
284
     1
 64
     0
275
    -2
285
     1
 65
     0
276
    -2
286
     1
 66
     0
277
    -2
287
     1
 67
     0
278
    -2
288
     1
 68
     0
279
    -2
289
     1
 69
     0
  0
VISUALSTYLE
  5
563
102
{ACAD_REACTORS
330
55E
102
}
330
55E
100
AcDbVisualStyle
  2
2dWireframe
 70
     4
177
     3
291
     0
 70
    58
 90
        0
176
     1
 90
        2
176
     1
 90
        0
176
     1
 90
        0
176
     1
 40
0.6
176
     1
 40
30.0
176
     1
 62
     7
420
 16777215
176
     1
 90
        1
176
     1
 90
        4
176
     1
 62
     7
176
     1
 62
   257
176
     1
 90
        1
176
     1
 90
        1
176
     1
 40
1.0
176
     1
 90
        0
176
     1
 62
   257
176
     1
 40
1.0
176
     1
 90
        1
176
     1
 90
        6
176
     1
 90
        2
176
     1
 62
     7
176
     1
 90
        5
176
     1
 90
        0
176
     1
 90
        0
176
     1
290
     0
176
     1
 90
        1
176
     1
 40
0.0
176
     1
 90
        0
176
     1
290
     1
176
     1
290
     1
176
     1
290
     0
176
     1
290
     0
176
     1
290
     0
176
     1
290
     0
176
     1
290
     0
176
     1
290
     0
176
     1
290
     0
176
     1
 90
       50
176
     1
 40
0.0
176
     1
 40
1.0
176
     1
 90
        0
176
     1
 62
    18
420
        0
176
     1
 90
       50
176
     1
 90
        3
176
     1
 62
     5
420
      255
176
     1
290
     0
176
     1
 90
       50
176
     1
 90
       50
176
     1
 90
       50
176
     1
290
     0
176
     1
 90
       50
176
     1
 62
   256
176
     0
 40
1.0
176
     0
 90
        2
176
     1
  1
strokes_ogs.tif
176
     1
290
     0
176
     1
 40
1.0
176
     1
 40
1.0
176
     1
  0
VISUALSTYLE
  5
566
102
{ACAD_REACTORS
330
55E
102
}
330
55E
100
AcDbVisualStyle
  2
Basic
 70
     7
177
     3
291
     1
 70
    58
 90
        1
176
     1
 90
        0
176
     1
 90
        1
176
     1
 90
        0
176
     1
 40
0.6
176
     1
 40
30.0
176
     1
 62
     7
420
 16777215
176
     1
 90
        0
176
     1
 90
        4
176
     1
 62
     7
176
     1
 62
   257
176
     1
 90
        1
176
     1
 90
        1
176
     1
 40
1.0
176
     1
 90
        8
176
     1
 62
     7
176
     1
 40
1.0
176
     1
 90
        1
176
     1
 90
        6
176
     1
 90
        2
176
     1
 62
     7
176
     1
 90
        5
176
     1
 90
        0
176
     1
 90
        0
176
     1
290
     0
176
     1
 90
        1
176
     1
 40
0.0
176
     1
 90
        0
176
     1
290
     0
176
     1
290
     1
176
     1
290
     1
176
     1
290
     0
176
     1
290
     0
176
     1
290
     0
176
     1
290
     0
176
     1
290
     0
176
     1
290
     0
176
     1
 90
       50
176
     1
 40
0.0
176
     1
 40
1.0
176
     1
 90
        0
176
     1
 62
    18
420
        0
176
     1
 90
       50
176
     1
 90
        3
176
     1
 62
     5
420
      255
176
     1
290
     0
176
     1
 90
       50
176
     1
 90
       50
176
     1
 90
       50
176
     1
290
     0
176
     1
 90
       50
176
     1
 62
   256
176
     0
 40
1.0
176
     0
 90
        2
176
     1
  1
strokes_ogs.tif
176
     1
290
     0
176
     1
 40
1.0
176
     1
 40
1.0
176
     1
  0
VISUALSTYLE
  5
56A
102
{ACAD_REACTORS
330
55E
102
}
330
55E
100
AcDbVisualStyle
  2
Brighten
 70
    12
177
     3
291
     1
 70
    58
 90
        2
176
     1
 90
        2
176
     1
 90
        0
176
     1
 90
        0
176
     1
 40
0.6
176
     1
 40
30.0
176
     1
 62
     7
420
 16777215
176
     1
 90
        1
176
     1
 90
        4
176
     1
 62
     7
176
     1
 62
   257
176
     1
 90
        1
176
     1
 90
        1
176
     1
 40
1.0
176
     1
 90
        8
176
     1
 62
     7
176
     1
 40
1.0
176
     1
 90
        1
176
     1
 90
        6
176
     1
 90
        2
176
     1
 62
     7
176
     1
 90
        5
176
     1
 90
        0
176
     1
 90
        0
176
     1
290
     0
176
     1
 90
        1
176
     1
 40
50.0
176
     1
 90
        0
176
     1
290
     0
176
     1
290
     1
176
     1
290
     1
176
     1
290
     0
176
     1
290
     0
176
     1
290
     0
176
     1
290
     0
176
     1
290
     0
176
     1
290
     0
176
     1
 90
       50
176
     1
 40
0.0
176
     1
 40
1.0
176
     1
 90
        0
176
     1
 62
    18
420
        0
176
     1
 90
       50
176
     1
 90
        3
176
     1
 62
     5
420
      255
176
     1
290
     0
176
     1
 90
       50
176
     1
 90
       50
176
     1
 90
       50
176
     1
290
     0
176
     1
 90
       50
176
     1
 62
   256
176
     0
 40
1.0
176
     0
 90
        2
176
     1
  1
strokes_ogs.tif
176
     1
290
     0
176
     1
 40
1.0
176
     1
 40
1.0
176
     1
  0
VISUALSTYLE
  5
56E
102
{ACAD_REACTORS
330
55E
102
}
330
55E
100
AcDbVisualStyle
  2
ColorChange
 70
    16
177
     3
291
     1
 70
    58
 90
        2
176
     1
 90
        2
176
     1
 90
        3
176
     1
 90
        0
176
     1
 40
0.6
176
     1
 40
30.0
176
     1
 62
     8
420
  8421504
176
     1
 90
        1
176
     1
 90
        4
176
     1
 62
     7
176
     1
 62
   257
176
     1
 90
        1
176
     1
 90
        1
176
     1
 40
1.0
176
     1
 90
        8
176
     1
 62
     8
420
  8421504
176
     1
 40
1.0
176
     1
 90
        1
176
     1
 90
        6
176
     1
 90
        2
176
     1
 62
     7
176
     1
 90
        5
176
     1
 90
        0
176
     1
 90
        0
176
     1
290
     0
176
     1
 90
        1
176
     1
 40
0.0
176
     1
 90
        0
176
     1
290
     0
176
     1
290
     1
176
     1
290
     1
176
     1
290
     0
176
     1
290
     0
176
     1
290
     0
176
     1
290
     0
176
     1
290
     0
176
     1
290
     0
176
     1
 90
       50
176
     1
 40
0.0
176
     1
 40
1.0
176
     1
 90
        0
176
     1
 62
    18
420
        0
176
     1
 90
       50
176
     1
 90
        3
176
     1
 62
     5
420
      255
176
     1
290
     0
176
     1
 90
       50
176
     1
 90
       50
176
     1
 90
       50
176
     1
290
     0
176
     1
 90
       50
176
     1
 62
   256
176
     0
 40
1.0
176
     0
 90
        2
176
     1
  1
strokes_ogs.tif
176
     1
290
     0
176
     1
 40
1.0
176
     1
 40
1.0
176
     1
  0
VISUALSTYLE
  5
568
102
{ACAD_REACTORS
330
55E
102
}
330
55E
100
AcDbVisualStyle
  2
Conceptual
 70
     9
177
     3
291
     0
 70
    58
 90
        3
176
     1
 90
        2
176
     1
 90
        0
176
     1
 90
        0
176
     1
 40
0.6
176
     1
 40
30.0
176
     1
 62
     7
420
 16777215
176
     1
 90
        2
176
     1
 90
        2
176
     1
 62
     7
176
     1
 62
   257
176
     1
 90
        1
176
     1
 90
        1
176
     1
 40
179.0
176
     1
 90
        8
176
     1
 62
     7
176
     1
 40
1.0
176
     1
 90
        1
176
     1
 90
        6
176
     1
 90
        2
176
     1
 62
     7
176
     1
 90
        3
176
     1
 90
        0
176
     1
 90
        0
176
     1
290
     0
176
     1
 90
        1
176
     1
 40
0.0
176
     1
 90
        0
176
     1
290
     0
176
     1
290
     1
176
     1
290
     1
176
     1
290
     0
176
     1
290
     0
176
     1
290
     0
176
     1
290
     0
176
     1
290
     0
176
     1
290
     0
176
     1
 90
       50
176
     1
 40
0.0
176
     1
 40
1.0
176
     1
 90
        0
176
     1
 62
    18
420
        0
176
     1
 90
       50
176
     1
 90
        3
176
     1
 62
     5
420
      255
176
     1
290
     0
176
     1
 90
       50
176
     1
 90
       50
176
     1
 90
       50
176
     1
290
     0
176
     1
 90
       50
176
     1
 62
   256
176
     0
 40
1.0
176
     0
 90
        2
176
     1
  1
strokes_ogs.tif
176
     1
290
     0
176
     1
 40
1.0
176
     1
 40
1.0
176
     1
  0
VISUALSTYLE
  5
569
102
{ACAD_REACTORS
330
55E
102
}
330
55E
100
AcDbVisualStyle
  2
Dim
 70
    11
177
     3
291
     1
 70
    58
 90
        2
176
     1
 90
        2
176
     1
 90
        0
176
     1
 90
        0
176
     1
 40
0.6
176
     1
 40
30.0
176
     1
 62
     7
420
 16777215
176
     1
 90
        1
176
     1
 90
        4
176
     1
 62
     7
176
     1
 62
   257
176
     1
 90
        1
176
     1
 90
        1
176
     1
 40
1.0
176
     1
 90
        8
176
     1
 62
     7
176
     1
 40
1.0
176
     1
 90
        1
176
     1
 90
        6
176
     1
 90
        2
176
     1
 62
     7
176
     1
 90
        5
176
     1
 90
        0
176
     1
 90
        0
176
     1
290
     0
176
     1
 90
        1
176
     1
 40
-50.0
176
     1
 90
        0
176
     1
290
     0
176
     1
290
     1
176
     1
290
     1
176
     1
290
     0
176
     1
290
     0
176
     1
290
     0
176
     1
290
     0
176
     1
290
     0
176
     1
290
     0
176
     1
 90
       50
176
     1
 40
0.0
176
     1
 40
1.0
176
     1
 90
        0
176
     1
 62
    18
420
        0
176
     1
 90
       50
176
     1
 90
        3
176
     1
 62
     5
420
      255
176
     1
290
     0
176
     1
 90
       50
176
     1
 90
       50
176
     1
 90
       50
176
     1
290
     0
176
     1
 90
       50
176
     1
 62
   256
176
     0
 40
1.0
176
     0
 90
        2
176
     1
  1
strokes_ogs.tif
176
     1
290
     0
176
     1
 40
1.0
176
     1
 40
1.0
176
     1
  0
VISUALSTYLE
  5
571
102
{ACAD_REACTORS
330
55E
102
}
330
55E
100
AcDbVisualStyle
  2
EdgeColorOff
 70
    22
177
     3
291
     1
 70
    58
 90
        2
176
     0
 90
        2
176
     0
 90
        0
176
     0
 90
        0
176
     0
 40
0.6
176
     0
 40
30.0
176
     0
 62
     7
420
 16777215
176
     0
 90
        1
176
     0
 90
        4
176
     0
 62
     7
176
     0
 62
   257
176
     0
 90
        1
176
     0
 90
        1
176
     0
 40
1.0
176
     0
 90
        8
176
     2
 62
     7
176
     0
 40
1.0
176
     0
 90
        1
176
     0
 90
        6
176
     0
 90
        2
176
     0
 62
     7
176
     0
 90
        5
176
     0
 90
        0
176
     0
 90
        0
176
     0
290
     0
176
     0
 90
        1
176
     0
 40
0.0
176
     0
 90
        0
176
     0
290
     0
176
     0
290
     1
176
     0
290
     1
176
     0
290
     0
176
     0
290
     0
176
     0
290
     0
176
     0
290
     0
176
     0
290
     0
176
     0
290
     0
176
     0
 90
       50
176
     0
 40
0.0
176
     0
 40
1.0
176
     0
 90
        0
176
     0
 62
    18
420
        0
176
     0
 90
       50
176
     0
 90
        3
176
     0
 62
     5
420
      255
176
     0
290
     0
176
     0
 90
       50
176
     0
 90
       50
176
     0
 90
       50
176
     0
290
     0
176
     0
 90
       50
176
     0
 62
   256
176
     0
 40
1.0
176
     0
 90
        2
176
     0
  1
strokes_ogs.tif
176
     0
290
     0
176
     0
 40
1.0
176
     0
 40
1.0
176
     0
  0
VISUALSTYLE
  5
56D
102
{ACAD_REACTORS
330
55E
102
}
330
55E
100
AcDbVisualStyle
  2
Facepattern
 70
    15
177
     3
291
     1
 70
    58
 90
        2
176
     1
 90
        2
176
     1
 90
        0
176
     1
 90
        0
176
     1
 40
0.6
176
     1
 40
30.0
176
     1
 62
     7
420
 16777215
176
     1
 90
        1
176
     1
 90
        4
176
     1
 62
     7
176
     1
 62
   257
176
     1
 90
        1
176
     1
 90
        1
176
     1
 40
1.0
176
     1
 90
        8
176
     1
 62
     7
176
     1
 40
1.0
176
     1
 90
        1
176
     1
 90
        6
176
     1
 90
        2
176
     1
 62
     7
176
     1
 90
        5
176
     1
 90
        0
176
     1
 90
        0
176
     1
290
     0
176
     1
 90
        1
176
     1
 40
0.0
176
     1
 90
        0
176
     1
290
     0
176
     1
290
     1
176
     1
290
     1
176
     1
290
     0
176
     1
290
     0
176
     1
290
     0
176
     1
290
     0
176
     1
290
     0
176
     1
290
     0
176
     1
 90
       50
176
     1
 40
0.0
176
     1
 40
1.0
176
     1
 90
        0
176
     1
 62
    18
420
        0
176
     1
 90
       50
176
     1
 90
        3
176
     1
 62
     5
420
      255
176
     1
290
     0
176
     1
 90
       50
176
     1
 90
       50
176
     1
 90
       50
176
     1
290
     0
176
     1
 90
       50
176
     1
 62
   256
176
     0
 40
1.0
176
     0
 90
        2
176
     1
  1
strokes_ogs.tif
176
     1
290
     0
176
     1
 40
1.0
176
     1
 40
1.0
176
     1
  0
VISUALSTYLE
  5
55F
102
{ACAD_REACTORS
330
55E
102
}
330
55E
100
AcDbVisualStyle
  2
Flat
 70
     0
177
     3
291
     1
 70
    58
 90
        2
176
     1
 90
        1
176
     1
 90
        1
176
     1
 90
        2
176
     1
 40
0.6
176
     1
 40
30.0
176
     1
 62
     7
420
 16777215
176
     1
 90
        0
176
     1
 90
        0
176
     1
 62
     7
176
     1
 62
   257
176
     1
 90
        1
176
     1
 90
        1
176
     1
 40
1.0
176
     1
 90
        8
176
     1
 62
     7
176
     1
 40
1.0
176
     1
 90
        1
176
     1
 90
        6
176
     1
 90
        2
176
     1
 62
     7
176
     1
 90
        5
176
     1
 90
        0
176
     1
 90
        0
176
     1
290
     0
176
     1
 90
       13
176
     1
 40
0.0
176
     1
 90
        0
176
     1
290
     0
176
     1
290
     1
176
     1
290
     1
176
     1
290
     0
176
     1
290
     0
176
     1
290
     0
176
     1
290
     0
176
     1
290
     0
176
     1
290
     0
176
     1
 90
       50
176
     1
 40
0.0
176
     1
 40
1.0
176
     1
 90
        0
176
     1
 62
    18
420
        0
176
     1
 90
       50
176
     1
 90
        3
176
     1
 62
     5
420
      255
176
     1
290
     0
176
     1
 90
       50
176
     1
 90
       50
176
     1
 90
       50
176
     1
290
     0
176
     1
 90
       50
176
     1
 62
   256
176
     0
 40
1.0
176
     0
 90
        2
176
     1
  1
strokes_ogs.tif
176
     1
290
     0
176
     1
 40
1.0
176
     1
 40
1.0
176
     1
  0
VISUALSTYLE
  5
560
102
{ACAD_REACTORS
330
55E
102
}
330
55E
100
AcDbVisualStyle
  2
FlatWithEdges
 70
     1
177
     3
291
     1
 70
    58
 90
        2
176
     1
 90
        1
176
     1
 90
        1
176
     1
 90
        2
176
     1
 40
0.6
176
     1
 40
30.0
176
     1
 62
     7
420
 16777215
176
     1
 90
        1
176
     1
 90
        0
176
     1
 62
     7
176
     1
 62
   257
176
     1
 90
        1
176
     1
 90
        1
176
     1
 40
1.0
176
     1
 90
        0
176
     1
 62
   257
176
     1
 40
1.0
176
     1
 90
        1
176
     1
 90
        6
176
     1
 90
        2
176
     1
 62
     7
176
     1
 90
        5
176
     1
 90
        0
176
     1
 90
        0
176
     1
290
     0
176
     1
 90
       13
176
     1
 40
0.0
176
     1
 90
        0
176
     1
290
     0
176
     1
290
     1
176
     1
290
     1
176
     1
290
     0
176
     1
290
     0
176
     1
290
     0
176
     1
290
     0
176
     1
290
     0
176
     1
290
     0
176
     1
 90
       50
176
     1
 40
0.0
176
     1
 40
1.0
176
     1
 90
        0
176
     1
 62
    18
420
        0
176
     1
 90
       50
176
     1
 90
        3
176
     1
 62
     5
420
      255
176
     1
290
     0
176
     1
 90
       50
176
     1
 90
       50
176
     1
 90
       50
176
     1
290
     0
176
     1
 90
       50
176
     1
 62
   256
176
     0
 40
1.0
176
     0
 90
        2
176
     1
  1
strokes_ogs.tif
176
     1
290
     0
176
     1
 40
1.0
176
     1
 40
1.0
176
     1
  0
VISUALSTYLE
  5
561
102
{ACAD_REACTORS
330
55E
102
}
330
55E
100
AcDbVisualStyle
  2
Gouraud
 70
     2
177
     3
291
     1
 70
    58
 90
        2
176
     1
 90
        2
176
     1
 90
        1
176
     1
 90
        2
176
     1
 40
0.6
176
     1
 40
30.0
176
     1
 62
     7
420
 16777215
176
     1
 90
        0
176
     1
 90
        0
176
     1
 62
     7
176
     1
 62
   257
176
     1
 90
        1
176
     1
 90
        1
176
     1
 40
1.0
176
     1
 90
        0
176
     1
 62
     7
176
     1
 40
1.0
176
     1
 90
        1
176
     1
 90
        6
176
     1
 90
        2
176
     1
 62
     7
176
     1
 90
        5
176
     1
 90
        0
176
     1
 90
        0
176
     1
290
     0
176
     1
 90
       13
176
     1
 40
0.0
176
     1
 90
        0
176
     1
290
     0
176
     1
290
     1
176
     1
290
     1
176
     1
290
     0
176
     1
290
     0
176
     1
290
     0
176
     1
290
     0
176
     1
290
     0
176
     1
290
     0
176
     1
 90
       50
176
     1
 40
0.0
176
     1
 40
1.0
176
     1
 90
        0
176
     1
 62
    18
420
        0
176
     1
 90
       50
176
     1
 90
        3
176
     1
 62
     5
420
      255
176
     1
290
     0
176
     1
 90
       50
176
     1
 90
       50
176
     1
 90
       50
176
     1
290
     0
176
     1
 90
       50
176
     1
 62
   256
176
     0
 40
1.0
176
     0
 90
        2
176
     1
  1
strokes_ogs.tif
176
     1
290
     0
176
     1
 40
1.0
176
     1
 40
1.0
176
     1
  0
VISUALSTYLE
  5
562
102
{ACAD_REACTORS
330
55E
102
}
330
55E
100
AcDbVisualStyle
  2
GouraudWithEdges
 70
     3
177
     3
291
     1
 70
    58
 90
        2
176
     1
 90
        2
176
     1
 90
        1
176
     1
 90
        2
176
     1
 40
0.6
176
     1
 40
30.0
176
     1
 62
     7
420
 16777215
176
     1
 90
        1
176
     1
 90
        0
176
     1
 62
     7
176
     1
 62
   257
176
     1
 90
        1
176
     1
 90
        1
176
     1
 40
1.0
176
     1
 90
        0
176
     1
 62
   257
176
     1
 40
1.0
176
     1
 90
        1
176
     1
 90
        6
176
     1
 90
        2
176
     1
 62
     7
176
     1
 90
        5
176
     1
 90
        0
176
     1
 90
        0
176
     1
290
     0
176
     1
 90
       13
176
     1
 40
0.0
176
     1
 90
        0
176
     1
290
     0
176
     1
290
     1
176
     1
290
     1
176
     1
290
     0
176
     1
290
     0
176
     1
290
     0
176
     1
290
     0
176
     1
290
     0
176
     1
290
     0
176
     1
 90
       50
176
     1
 40
0.0
176
     1
 40
1.0
176
     1
 90
        0
176
     1
 62
    18
420
        0
176
     1
 90
       50
176
     1
 90
        3
176
     1
 62
     5
420
      255
176
     1
290
     0
176
     1
 90
       50
176
     1
 90
       50
176
     1
 90
       50
176
     1
290
     0
176
     1
 90
       50
176
     1
 62
   256
176
     0
 40
1.0
176
     0
 90
        2
176
     1
  1
strokes_ogs.tif
176
     1
290
     0
176
     1
 40
1.0
176
     1
 40
1.0
176
     1
  0
VISUALSTYLE
  5
565
102
{ACAD_REACTORS
330
55E
102
}
330
55E
100
AcDbVisualStyle
  2
Hidden
 70
     6
177
     3
291
     0
 70
    58
 90
        1
176
     1
 90
        2
176
     1
 90
        2
176
     1
 90
        0
176
     1
 40
0.6
176
     1
 40
30.0
176
     1
 62
     7
420
 16777215
176
     1
 90
        2
176
     1
 90
        2
176
     1
 62
     7
176
     1
 62
   257
176
     1
 90
        2
176
     1
 90
        1
176
     1
 40
40.0
176
     1
 90
        0
176
     1
 62
   257
176
     1
 40
1.0
176
     1
 90
        1
176
     1
 90
        6
176
     1
 90
        2
176
     1
 62
     7
176
     1
 90
        3
176
     1
 90
        0
176
     1
 90
        0
176
     1
290
     0
176
     1
 90
        1
176
     1
 40
0.0
176
     1
 90
        0
176
     1
290
     0
176
     1
290
     1
176
     1
290
     1
176
     1
290
     0
176
     1
290
     0
176
     1
290
     0
176
     1
290
     0
176
     1
290
     0
176
     1
290
     0
176
     1
 90
       50
176
     1
 40
0.0
176
     1
 40
1.0
176
     1
 90
        0
176
     1
 62
    18
420
        0
176
     1
 90
       50
176
     1
 90
        3
176
     1
 62
     5
420
      255
176
     1
290
     0
176
     1
 90
       50
176
     1
 90
       50
176
     1
 90
       50
176
     1
290
     0
176
     1
 90
       50
176
     1
 62
   256
176
     0
 40
1.0
176
     0
 90
        2
176
     1
  1
strokes_ogs.tif
176
     1
290
     0
176
     1
 40
1.0
176
     1
 40
1.0
176
     1
  0
VISUALSTYLE
  5
56F
102
{ACAD_REACTORS
330
55E
102
}
330
55E
100
AcDbVisualStyle
  2
JitterOff
 70
    20
177
     3
291
     1
 70
    58
 90
        2
176
     0
 90
        2
176
     0
 90
        0
176
     0
 90
        0
176
     0
 40
0.6
176
     0
 40
30.0
176
     0
 62
     7
420
 16777215
176
     0
 90
        1
176
     0
 90
        4
176
     0
 62
     7
176
     0
 62
   257
176
     0
 90
        1
176
     0
 90
        1
176
     0
 40
1.0
176
     0
 90
       10
176
     2
 62
     7
176
     0
 40
1.0
176
     0
 90
        1
176
     0
 90
        6
176
     0
 90
        2
176
     0
 62
     7
176
     0
 90
        5
176
     0
 90
        0
176
     0
 90
        0
176
     0
290
     0
176
     0
 90
        1
176
     0
 40
0.0
176
     0
 90
        0
176
     0
290
     0
176
     0
290
     1
176
     0
290
     1
176
     0
290
     0
176
     0
290
     0
176
     0
290
     0
176
     0
290
     0
176
     0
290
     0
176
     0
290
     0
176
     0
 90
       50
176
     0
 40
0.0
176
     0
 40
1.0
176
     0
 90
        0
176
     0
 62
    18
420
        0
176
     0
 90
       50
176
     0
 90
        3
176
     0
 62
     5
420
      255
176
     0
290
     0
176
     0
 90
       50
176
     0
 90
       50
176
     0
 90
       50
176
     0
290
     0
176
     0
 90
       50
176
     0
 62
   256
176
     0
 40
1.0
176
     0
 90
        2
176
     0
  1
strokes_ogs.tif
176
     0
290
     0
176
     0
 40
1.0
176
     0
 40
1.0
176
     0
  0
VISUALSTYLE
  5
56C
102
{ACAD_REACTORS
330
55E
102
}
330
55E
100
AcDbVisualStyle
  2
Linepattern
 70
    14
177
     3
291
     1
 70
    58
 90
        2
176
     1
 90
        2
176
     1
 90
        0
176
     1
 90
        0
176
     1
 40
0.6
176
     1
 40
30.0
176
     1
 62
     7
420
 16777215
176
     1
 90
        1
176
     1
 90
        4
176
     1
 62
     7
176
     1
 62
   257
176
     1
 90
        7
176
     1
 90
        7
176
     1
 40
1.0
176
     1
 90
        8
176
     1
 62
     7
176
     1
 40
1.0
176
     1
 90
        1
176
     1
 90
        6
176
     1
 90
        2
176
     1
 62
     7
176
     1
 90
        5
176
     1
 90
        0
176
     1
 90
        0
176
     1
290
     0
176
     1
 90
        1
176
     1
 40
0.0
176
     1
 90
        0
176
     1
290
     0
176
     1
290
     1
176
     1
290
     1
176
     1
290
     0
176
     1
290
     0
176
     1
290
     0
176
     1
290
     0
176
     1
290
     0
176
     1
290
     0
176
     1
 90
       50
176
     1
 40
0.0
176
     1
 40
1.0
176
     1
 90
        0
176
     1
 62
    18
420
        0
176
     1
 90
       50
176
     1
 90
        3
176
     1
 62
     5
420
      255
176
     1
290
     0
176
     1
 90
       50
176
     1
 90
       50
176
     1
 90
       50
176
     1
290
     0
176
     1
 90
       50
176
     1
 62
   256
176
     0
 40
1.0
176
     0
 90
        2
176
     1
  1
strokes_ogs.tif
176
     1
290
     0
176
     1
 40
1.0
176
     1
 40
1.0
176
     1
  0
VISUALSTYLE
  5
570
102
{ACAD_REACTORS
330
55E
102
}
330
55E
100
AcDbVisualStyle
  2
OverhangOff
 70
    21
177
     3
291
     1
 70
    58
 90
        2
176
     0
 90
        2
176
     0
 90
        0
176
     0
 90
        0
176
     0
 40
0.6
176
     0
 40
30.0
176
     0
 62
     7
420
 16777215
176
     0
 90
        1
176
     0
 90
        4
176
     0
 62
     7
176
     0
 62
   257
176
     0
 90
        1
176
     0
 90
        1
176
     0
 40
1.0
176
     0
 90
        9
176
     2
 62
     7
176
     0
 40
1.0
176
     0
 90
        1
176
     0
 90
        6
176
     0
 90
        2
176
     0
 62
     7
176
     0
 90
        5
176
     0
 90
        0
176
     0
 90
        0
176
     0
290
     0
176
     0
 90
        1
176
     0
 40
0.0
176
     0
 90
        0
176
     0
290
     0
176
     0
290
     1
176
     0
290
     1
176
     0
290
     0
176
     0
290
     0
176
     0
290
     0
176
     0
290
     0
176
     0
290
     0
176
     0
290
     0
176
     0
 90
       50
176
     0
 40
0.0
176
     0
 40
1.0
176
     0
 90
        0
176
     0
 62
    18
420
        0
176
     0
 90
       50
176
     0
 90
        3
176
     0
 62
     5
420
      255
176
     0
290
     0
176
     0
 90
       50
176
     0
 90
       50
176
     0
 90
       50
176
     0
290
     0
176
     0
 90
       50
176
     0
 62
   256
176
     0
 40
1.0
176
     0
 90
        2
176
     0
  1
strokes_ogs.tif
176
     0
290
     0
176
     0
 40
1.0
176
     0
 40
1.0
176
     0
  0
VISUALSTYLE
  5
567
102
{ACAD_REACTORS
330
55E
102
}
330
55E
100
AcDbVisualStyle
  2
Realistic
 70
     8
177
     3
291
     0
 70
    58
 90
        2
176
     1
 90
        3
176
     1
 90
        0
176
     1
 90
        2
176
     1
 40
0.6
176
     1
 40
30.0
176
     1
 62
     7
420
 16777215
176
     1
 90
        0
176
     1
 90
        0
176
     1
 62
     7
176
     1
 62
   257
176
     1
 90
        1
176
     1
 90
        1
176
     1
 40
1.0
176
     1
 90
        8
176
     1
 62
   257
176
     1
 40
1.0
176
     1
 90
        1
176
     1
 90
        6
176
     1
 90
        2
176
     1
 62
     7
176
     1
 90
        3
176
     1
 90
        0
176
     1
 90
        0
176
     1
290
     0
176
     1
 90
       13
176
     1
 40
0.0
176
     1
 90
        0
176
     1
290
     0
176
     1
290
     1
176
     1
290
     1
176
     1
290
     0
176
     1
290
     0
176
     1
290
     0
176
     1
290
     0
176
     1
290
     0
176
     1
290
     0
176
     1
 90
       50
176
     1
 40
0.0
176
     1
 40
1.0
176
     1
 90
        0
176
     1
 62
    18
420
        0
176
     1
 90
       50
176
     1
 90
        3
176
     1
 62
     5
420
      255
176
     1
290
     0
176
     1
 90
       50
176
     1
 90
       50
176
     1
 90
       50
176
     1
290
     0
176
     1
 90
       50
176
     1
 62
   256
176
     0
 40
1.0
176
     0
 90
        2
176
     1
  1
strokes_ogs.tif
176
     1
290
     0
176
     1
 40
1.0
176
     1
 40
1.0
176
     1
  0
VISUALSTYLE
  5
576
102
{ACAD_REACTORS
330
55E
102
}
330
55E
100
AcDbVisualStyle
  2
Shaded
 70
    27
177
     3
291
     0
 70
    58
 90
        2
176
     1
 90
        2
176
     1
 90
        1
176
     1
 90
        2
176
     1
 40
0.6
176
     1
 40
30.0
176
     1
 62
     7
420
 16777215
176
     1
 90
        0
176
     1
 90
        4
176
     1
 62
     7
176
     1
 62
   257
176
     1
 90
        1
176
     1
 90
        1
176
     1
 40
1.0
176
     1
 90
        8
176
     1
 62
   257
176
     1
 40
1.0
176
     1
 90
        1
176
     1
 90
        6
176
     1
 90
        2
176
     1
 62
     8
420
  7895160
176
     1
 90
        3
176
     1
 90
        0
176
     1
 90
        0
176
     1
290
     0
176
     1
 90
        5
176
     1
 40
0.0
176
     1
 90
        0
176
     1
290
     0
176
     1
290
     1
176
     1
290
     1
176
     1
290
     0
176
     1
290
     0
176
     1
290
     0
176
     1
290
     0
176
     1
290
     0
176
     1
290
     0
176
     1
 90
       50
176
     1
 40
0.0
176
     1
 40
1.0
176
     1
 90
        0
176
     1
 62
    18
420
        0
176
     1
 90
       50
176
     1
 90
        3
176
     1
 62
     5
420
      255
176
     1
290
     0
176
     1
 90
       50
176
     1
 90
       50
176
     1
 90
       50
176
     1
290
     0
176
     1
 90
       50
176
     1
 62
   256
176
     0
 40
1.0
176
     0
 90
        2
176
     1
  1
strokes_ogs.tif
176
     1
290
     0
176
     1
 40
1.0
176
     1
 40
1.0
176
     1
  0
VISUALSTYLE
  5
575
102
{ACAD_REACTORS
330
55E
102
}
330
55E
100
AcDbVisualStyle
  2
Shaded with edges
 70
    26
177
     3
291
     0
 70
    58
 90
        2
176
     1
 90
        2
176
     1
 90
        1
176
     1
 90
        2
176
     1
 40
0.6
176
     1
 40
30.0
176
     1
 62
     7
420
 16777215
176
     1
 90
        1
176
     1
 90
       10
176
     1
 62
     7
176
     1
 62
   257
176
     1
 90
        2
176
     1
 90
        1
176
     1
 40
1.0
176
     1
 90
        8
176
     1
 62
   257
176
     1
 40
1.0
176
     1
 90
        1
176
     1
 90
        6
176
     1
 90
        2
176
     1
 62
     7
176
     1
 90
        3
176
     1
 90
        0
176
     1
 90
        0
176
     1
290
     0
176
     1
 90
        5
176
     1
 40
0.0
176
     1
 90
        0
176
     1
290
     0
176
     1
290
     1
176
     1
290
     1
176
     1
290
     0
176
     1
290
     0
176
     1
290
     0
176
     1
290
     0
176
     1
290
     0
176
     1
290
     0
176
     1
 90
       50
176
     1
 40
0.0
176
     1
 40
1.0
176
     1
 90
        0
176
     1
 62
    18
420
        0
176
     1
 90
       50
176
     1
 90
        3
176
     1
 62
     5
420
      255
176
     1
290
     0
176
     1
 90
       50
176
     1
 90
       50
176
     1
 90
       50
176
     1
290
     0
176
     1
 90
       50
176
     1
 62
   256
176
     0
 40
1.0
176
     0
 90
        2
176
     1
  1
strokes_ogs.tif
176
     1
290
     0
176
     1
 40
1.0
176
     1
 40
1.0
176
     1
  0
VISUALSTYLE
  5
572
102
{ACAD_REACTORS
330
55E
102
}
330
55E
100
AcDbVisualStyle
  2
Shades of Gray
 70
    23
177
     3
291
     0
 70
    58
 90
        2
176
     1
 90
        2
176
     1
 90
        3
176
     1
 90
        0
176
     1
 40
0.6
176
     1
 40
30.0
176
     1
 62
     7
420
 16777215
176
     1
 90
        2
176
     1
 90
        2
176
     1
 62
     7
176
     1
 62
     7
176
     1
 90
        1
176
     1
 90
        1
176
     1
 40
40.0
176
     1
 90
        8
176
     1
 62
     7
176
     1
 40
1.0
176
     1
 90
        1
176
     1
 90
        6
176
     1
 90
        2
176
     1
 62
     7
176
     1
 90
        3
176
     1
 90
        0
176
     1
 90
        0
176
     1
290
     0
176
     1
 90
        1
176
     1
 40
0.0
176
     1
 90
        0
176
     1
290
     0
176
     1
290
     1
176
     1
290
     1
176
     1
290
     0
176
     1
290
     0
176
     1
290
     0
176
     1
290
     0
176
     1
290
     0
176
     1
290
     0
176
     1
 90
       50
176
     1
 40
0.0
176
     1
 40
1.0
176
     1
 90
        0
176
     1
 62
    18
420
        0
176
     1
 90
       50
176
     1
 90
        3
176
     1
 62
     5
420
      255
176
     1
290
     0
176
     1
 90
       50
176
     1
 90
       50
176
     1
 90
       50
176
     1
290
     0
176
     1
 90
       50
176
     1
 62
   256
176
     0
 40
1.0
176
     0
 90
        2
176
     1
  1
strokes_ogs.tif
176
     1
290
     0
176
     1
 40
1.0
176
     1
 40
1.0
176
     1
  0
VISUALSTYLE
  5
573
102
{ACAD_REACTORS
330
55E
102
}
330
55E
100
AcDbVisualStyle
  2
Sketchy
 70
    24
177
     3
291
     0
 70
    58
 90
        1
176
     1
 90
        2
176
     1
 90
        2
176
     1
 90
        0
176
     1
 40
0.6
176
     1
 40
30.0
176
     1
 62
     7
420
 16777215
176
     1
 90
        2
176
     1
 90
        2
176
     1
 62
     7
176
     1
 62
     7
176
     1
 90
        1
176
     1
 90
        1
176
     1
 40
40.0
176
     1
 90
       11
176
     1
 62
     7
176
     1
 40
1.0
176
     1
 90
        1
176
     1
 90
        6
176
     1
 90
        2
176
     1
 62
     7
176
     1
 90
        6
176
     1
 90
        0
176
     1
 90
        0
176
     1
290
     0
176
     1
 90
        1
176
     1
 40
0.0
176
     1
 90
        0
176
     1
290
     0
176
     1
290
     1
176
     1
290
     1
176
     1
290
     0
176
     1
290
     0
176
     1
290
     0
176
     1
290
     0
176
     1
290
     0
176
     1
290
     0
176
     1
 90
       50
176
     1
 40
0.0
176
     1
 40
1.0
176
     1
 90
        0
176
     1
 62
    18
420
        0
176
     1
 90
       50
176
     1
 90
        3
176
     1
 62
     5
420
      255
176
     1
290
     0
176
     1
 90
       50
176
     1
 90
       50
176
     1
 90
       50
176
     1
290
     0
176
     1
 90
       50
176
     1
 62
   256
176
     0
 40
1.0
176
     0
 90
        2
176
     1
  1
strokes_ogs.tif
176
     1
290
     0
176
     1
 40
1.0
176
     1
 40
1.0
176
     1
  0
VISUALSTYLE
  5
56B
102
{ACAD_REACTORS
330
55E
102
}
330
55E
100
AcDbVisualStyle
  2
Thicken
 70
    13
177
     3
291
     1
 70
    58
 90
        2
176
     1
 90
        2
176
     1
 90
        0
176
     1
 90
        0
176
     1
 40
0.6
176
     1
 40
30.0
176
     1
 62
     7
420
 16777215
176
     1
 90
        1
176
     1
 90
        4
176
     1
 62
     7
176
     1
 62
   257
176
     1
 90
        1
176
     1
 90
        1
176
     1
 40
1.0
176
     1
 90
       12
176
     1
 62
     7
176
     1
 40
1.0
176
     1
 90
        1
176
     1
 90
        6
176
     1
 90
        2
176
     1
 62
     7
176
     1
 90
        5
176
     1
 90
        0
176
     1
 90
        0
176
     1
290
     0
176
     1
 90
        1
176
     1
 40
0.0
176
     1
 90
        0
176
     1
290
     0
176
     1
290
     1
176
     1
290
     1
176
     1
290
     0
176
     1
290
     0
176
     1
290
     0
176
     1
290
     0
176
     1
290
     0
176
     1
290
     0
176
     1
 90
       50
176
     1
 40
0.0
176
     1
 40
1.0
176
     1
 90
        0
176
     1
 62
    18
420
        0
176
     1
 90
       50
176
     1
 90
        3
176
     1
 62
     5
420
      255
176
     1
290
     0
176
     1
 90
       50
176
     1
 90
       50
176
     1
 90
       50
176
     1
290
     0
176
     1
 90
       50
176
     1
 62
   256
176
     0
 40
1.0
176
     0
 90
        2
176
     1
  1
strokes_ogs.tif
176
     1
290
     0
176
     1
 40
1.0
176
     1
 40
1.0
176
     1
  0
VISUALSTYLE
  5
564
102
{ACAD_REACTORS
330
55E
102
}
330
55E
100
AcDbVisualStyle
  2
Wireframe
 70
     5
177
     3
291
     0
 70
    58
 90
        0
176
     1
 90
        2
176
     1
 90
        0
176
     1
 90
        0
176
     1
 40
0.6
176
     1
 40
30.0
176
     1
 62
     7
420
 16777215
176
     1
 90
        1
176
     1
 90
        4
176
     1
 62
     7
176
     1
 62
   257
176
     1
 90
        1
176
     1
 90
        1
176
     1
 40
1.0
176
     1
 90
        0
176
     1
 62
   257
176
     1
 40
1.0
176
     1
 90
        1
176
     1
 90
        6
176
     1
 90
        2
176
     1
 62
     7
176
     1
 90
        3
176
     1
 90
        0
176
     1
 90
        0
176
     1
290
     0
176
     1
 90
        1
176
     1
 40
0.0
176
     1
 90
        0
176
     1
290
     0
176
     1
290
     1
176
     1
290
     1
176
     1
290
     0
176
     1
290
     0
176
     1
290
     0
176
     1
290
     0
176
     1
290
     0
176
     1
290
     0
176
     1
 90
       50
176
     1
 40
0.0
176
     1
 40
1.0
176
     1
 90
        0
176
     1
 62
    18
420
        0
176
     1
 90
       50
176
     1
 90
        3
176
     1
 62
     5
420
      255
176
     1
290
     0
176
     1
 90
       50
176
     1
 90
       50
176
     1
 90
       50
176
     1
290
     0
176
     1
 90
       50
176
     1
 62
   256
176
     0
 40
1.0
176
     0
 90
        2
176
     1
  1
strokes_ogs.tif
176
     1
290
     0
176
     1
 40
1.0
176
     1
 40
1.0
176
     1
  0
VISUALSTYLE
  5
574
102
{ACAD_REACTORS
330
55E
102
}
330
55E
100
AcDbVisualStyle
  2
X-Ray
 70
    25
177
     3
291
     0
 70
    58
 90
        2
176
     1
 90
        2
176
     1
 90
        1
176
     1
 90
        1
176
     1
 40
0.5
176
     1
 40
30.0
176
     1
 62
     7
420
 16777215
176
     1
 90
        1
176
     1
 90
        0
176
     1
 62
     7
176
     1
 62
   257
176
     1
 90
        1
176
     1
 90
        1
176
     1
 40
1.0
176
     1
 90
        8
176
     1
 62
     7
176
     1
 40
1.0
176
     1
 90
        1
176
     1
 90
        6
176
     1
 90
        2
176
     1
 62
     7
176
     1
 90
        3
176
     1
 90
        0
176
     1
 90
        0
176
     1
290
     0
176
     1
 90
       13
176
     1
 40
0.0
176
     1
 90
        0
176
     1
290
     0
176
     1
290
     1
176
     1
290
     1
176
     1
290
     0
176
     1
290
     0
176
     1
290
     0
176
     1
290
     0
176
     1
290
     0
176
     1
290
     0
176
     1
 90
       50
176
     1
 40
0.0
176
     1
 40
1.0
176
     1
 90
        0
176
     1
 62
    18
420
        0
176
     1
 90
       50
176
     1
 90
        3
176
     1
 62
     5
420
      255
176
     1
290
     0
176
     1
 90
       50
176
     1
 90
       50
176
     1
 90
       50
176
     1
290
     0
176
     1
 90
       50
176
     1
 62
   256
176
     0
 40
1.0
176
     0
 90
        2
176
     1
  1
strokes_ogs.tif
176
     1
290
     0
176
     1
 40
1.0
176
     1
 40
1.0
176
     1
  0
DICTIONARYVAR
  5
63A
102
{ACAD_REACTORS
330
639
102
}
330
639
100
DictionaryVariables
280
     0
  1
1:1
  0
DICTIONARYVAR
  5
63F
102
{ACAD_REACTORS
330
639
102
}
330
639
100
DictionaryVariables
280
     0
  1
Standard
  0
DICTIONARYVAR
  5
63E
102
{ACAD_REACTORS
330
639
102
}
330
639
100
DictionaryVariables
280
     0
  1
Standard
  0
XRECORD
  5
5A5
102
{ACAD_REACTORS
330
5A3
102
}
330
5A3
100
AcDbXrecord
280
     1
1000
GCodeMM
  0
XRECORD
  5
5A6
102
{ACAD_REACTORS
330
5A3
102
}
330
5A3
100
AcDbXrecord
280
     1
1000
#ffffff
  0
XRECORD
  5
5A7
102
{ACAD_REACTORS
330
5A3
102
}
330
5A3
100
AcDbXrecord
280
     1
1000
FullColor
  0
XRECORD
  5
5A8
102
{ACAD_REACTORS
330
5A3
102
}
330
5A3
100
AcDbXrecord
280
     1
290
     1
  0
XRECORD
  5
5A9
102
{ACAD_REACTORS
330
5A3
102
}
330
5A3
100
AcDbXrecord
280
     1
290
     1
  0
XRECORD
  5
5AA
102
{ACAD_REACTORS
330
5A3
102
}
330
5A3
100
AcDbXrecord
280
     1
290
     1
  0
XRECORD
  5
5AB
102
{ACAD_REACTORS
330
5A3
102
}
330
5A3
100
AcDbXrecord
280
     1
290
     1
  0
XRECORD
  5
5AC
102
{ACAD_REACTORS
330
5A3
102
}
330
5A3
100
AcDbXrecord
280
     1
1000
auto
  0
XRECORD
  5
5AD
102
{ACAD_REACTORS
330
5A3
102
}
330
5A3
100
AcDbXrecord
280
     1
1000
auto
  0
XRECORD
  5
5AE
102
{ACAD_REACTORS
330
5A3
102
}
330
5A3
100
AcDbXrecord
280
     1
1000
auto
  0
XRECORD
  5
5AF
102
{ACAD_REACTORS
330
5A3
102
}
330
5A3
100
AcDbXrecord
280
     1
1000
auto
  0
XRECORD
  5
5B0
102
{ACAD_REACTORS
330
5A3
102
}
330
5A3
100
AcDbXrecord
280
     1
1000
auto
  0
XRECORD
  5
5B1
102
{ACAD_REACTORS
330
5A3
102
}
330
5A3
100
AcDbXrecord
280
     1
1000
auto
  0
XRECORD
  5
5B2
102
{ACAD_REACTORS
330
5A3
102
}
330
5A3
100
AcDbXrecord
280
     1
1000
auto
  0
XRECORD
  5
5B3
102
{ACAD_REACTORS
330
5A3
102
}
330
5A3
100
AcDbXrecord
280
     1
1000
auto
  0
XRECORD
  5
5B4
102
{ACAD_REACTORS
330
5A3
102
}
330
5A3
100
AcDbXrecord
280
     1
290
     0
  0
XRECORD
  5
5B5
102
{ACAD_REACTORS
330
5A3
102
}
330
5A3
100
AcDbXrecord
280
     1
290
     0
  0
XRECORD
  5
5B6
102
{ACAD_REACTORS
330
5A3
102
}
330
5A3
100
AcDbXrecord
280
     1
290
     0
  0
XRECORD
  5
5B7
102
{ACAD_REACTORS
330
5A3
102
}
330
5A3
100
AcDbXrecord
280
     1
290
     0
  0
XRECORD
  5
5B8
102
{ACAD_REACTORS
330
5A3
102
}
330
5A3
100
AcDbXrecord
280
     1
 90
    65537
  0
XRECORD
  5
5B9
102
{ACAD_REACTORS
330
5A3
102
}
330
5A3
100
AcDbXrecord
280
     1
 90
    65537
  0
XRECORD
  5
5BA
102
{ACAD_REACTORS
330
5A3
102
}
330
5A3
100
AcDbXrecord
280
     1
 90
    65537
  0
XRECORD
  5
5BB
102
{ACAD_REACTORS
330
5A3
102
}
330
5A3
100
AcDbXrecord
280
     1
 90
    65537
  0
XRECORD
  5
5BC
102
{ACAD_REACTORS
330
5A3
102
}
330
5A3
100
AcDbXrecord
280
     1
1000
auto
  0
XRECORD
  5
5BD
102
{ACAD_REACTORS
330
5A3
102
}
330
5A3
100
AcDbXrecord
280
     1
1000
auto
  0
XRECORD
  5
5BE
102
{ACAD_REACTORS
330
5A3
102
}
330
5A3
100
AcDbXrecord
280
     1
1000
auto
  0
XRECORD
  5
5BF
102
{ACAD_REACTORS
330
5A3
102
}
330
5A3
100
AcDbXrecord
280
     1
1000
auto
  0
XRECORD
  5
5C0
102
{ACAD_REACTORS
330
5A3
102
}
330
5A3
100
AcDbXrecord
280
     1
1000
auto
  0
XRECORD
  5
5C1
102
{ACAD_REACTORS
330
5A3
102
}
330
5A3
100
AcDbXrecord
280
     1
1000
auto
  0
XRECORD
  5
5C2
102
{ACAD_REACTORS
330
5A3
102
}
330
5A3
100
AcDbXrecord
280
     1
1000
auto
  0
XRECORD
  5
5C3
102
{ACAD_REACTORS
330
5A3
102
}
330
5A3
100
AcDbXrecord
280
     1
1000
auto
  0
XRECORD
  5
5C4
102
{ACAD_REACTORS
330
5A3
102
}
330
5A3
100
AcDbXrecord
280
     1
 90
        1
  0
XRECORD
  5
5C5
102
{ACAD_REACTORS
330
5A3
102
}
330
5A3
100
AcDbXrecord
280
     1
 40
0.5
  0
XRECORD
  5
5C6
102
{ACAD_REACTORS
330
5A3
102
}
330
5A3
100
AcDbXrecord
280
     1
 40
0.5
  0
XRECORD
  5
5C7
102
{ACAD_REACTORS
330
5A3
102
}
330
5A3
100
AcDbXrecord
280
     1
 40
0.5
  0
XRECORD
  5
5C8
102
{ACAD_REACTORS
330
5A3
102
}
330
5A3
100
AcDbXrecord
280
     1
 40
0.5
  0
XRECORD
  5
5C9
102
{ACAD_REACTORS
330
5A3
102
}
330
5A3
100
AcDbXrecord
280
     1
290
     0
  0
XRECORD
  5
5CA
102
{ACAD_REACTORS
330
5A3
102
}
330
5A3
100
AcDbXrecord
280
     1
 90
        1
  0
XRECORD
  5
5CB
102
{ACAD_REACTORS
330
5A3
102
}
330
5A3
100
AcDbXrecord
280
     1
 40
0.0
  0
XRECORD
  5
5CC
102
{ACAD_REACTORS
330
5A3
102
}
330
5A3
100
AcDbXrecord
280
     1
 40
0.0
  0
XRECORD
  5
5CD
102
{ACAD_REACTORS
330
5A3
102
}
330
5A3
100
AcDbXrecord
280
     1
1000
Landscape
  0
XRECORD
  5
5CE
102
{ACAD_REACTORS
330
5A3
102
}
330
5A3
100
AcDbXrecord
280
     1
1000
280
  0
XRECORD
  5
5CF
102
{ACAD_REACTORS
330
5A3
102
}
330
5A3
100
AcDbXrecord
280
     1
1000
Custom
  0
XRECORD
  5
5D0
102
{ACAD_REACTORS
330
5A3
102
}
330
5A3
100
AcDbXrecord
280
     1
1000
240
  0
XRECORD
  5
5D1
102
{ACAD_REACTORS
330
5A3
102
}
330
5A3
100
AcDbXrecord
280
     1
1000
0.5
  0
XRECORD
  5
5D2
102
{ACAD_REACTORS
330
5A3
102
}
330
5A3
100
AcDbXrecord
280
     1
1000
1:1
  0
XRECORD
  5
5D3
102
{ACAD_REACTORS
330
5A3
102
}
330
5A3
100
AcDbXrecord
280
     1
290
     1
  0
XRECORD
  5
5D4
102
{ACAD_REACTORS
330
5A3
102
}
330
5A3
100
AcDbXrecord
280
     1
290
     0
  0
XRECORD
  5
5D5
102
{ACAD_REACTORS
330
5A3
102
}
330
5A3
100
AcDbXrecord
280
     1
1000
Inside
  0
XRECORD
  5
5D6
102
{ACAD_REACTORS
330
5A3
102
}
330
5A3
100
AcDbXrecord
280
     1
1000
MS Shell Dlg 2,8,-1,5,50,0,0,0,0,0
  0
XRECORD
  5
5D7
102
{ACAD_REACTORS
330
5A3
102
}
330
5A3
100
AcDbXrecord
280
     1
1000
BottomRight
  0
XRECORD
  5
5D8
102
{ACAD_REACTORS
330
5A3
102
}
330
5A3
100
AcDbXrecord
280
     1
1000
3.24.2
  0
XRECORD
  5
5D9
102
{ACAD_REACTORS
330
5A3
102
}
330
5A3
100
AcDbXrecord
280
     1
 90
        1
  0
XRECORD
  5
5DA
102
{ACAD_REACTORS
330
5A3
102
}
330
5A3
100
AcDbXrecord
280
     1
 90
        4
  0
XRECORD
  5
5DB
102
{ACAD_REACTORS
330
5A3
102
}
330
5A3
100
AcDbXrecord
280
     1
  0
XRECORD
  5
5DC
102
{ACAD_REACTORS
330
5A3
102
}
330
5A3
100
AcDbXrecord
280
     1
 40
238.0984602917342
  0
XRECORD
  5
5DD
102
{ACAD_REACTORS
330
5A3
102
}
330
5A3
100
AcDbXrecord
280
     1
 40
506.5393030794165
  0
DICTIONARY
  5
63B
330
59E
100
AcDbDictionary
280
     1
281
     1
  3
ACAD_ROUNDTRIP_2008_TABLESTYLE_CELLSTYLEMAP
360
63C
  0
CELLSTYLEMAP
  5
63C
102
{ACAD_REACTORS
330
63B
102
}
330
63B
100
AcDbCellStyleMap
 90
        3
300
CELLSTYLE
  1
TABLEFORMAT_BEGIN
 90
        5
170
     1
 91
        0
 92
    32768
 62
   257
 93
        1
300
CONTENTFORMAT
  1
CONTENTFORMAT_BEGIN
 90
        0
 91
        0
 92
        4
 93
        0
300

 40
0.0
140
1.0
 94
        5
 62
     0
340
546
144
0.25
309
CONTENTFORMAT_END
171
     1
301
MARGIN
  1
CELLMARGIN_BEGIN
 40
0.06
 40
0.06
 40
0.06
 40
0.06
 40
0.06
 40
0.06
309
CELLMARGIN_END
 94
        6
 95
        1
302
GRIDFORMAT
  1
GRIDFORMAT_BEGIN
 90
        0
 91
        1
 62
     0
 92
       -2
340
548
 93
        0
 40
0.045
309
GRIDFORMAT_END
 95
        2
302
GRIDFORMAT
  1
GRIDFORMAT_BEGIN
 90
        0
 91
        1
 62
     0
 92
       -2
340
548
 93
        0
 40
0.045
309
GRIDFORMAT_END
 95
        4
302
GRIDFORMAT
  1
GRIDFORMAT_BEGIN
 90
        0
 91
        1
 62
     0
 92
       -2
340
548
 93
        0
 40
0.045
309
GRIDFORMAT_END
 95
        8
302
GRIDFORMAT
  1
GRIDFORMAT_BEGIN
 90
        0
 91
        1
 62
     0
 92
       -2
340
548
 93
        0
 40
0.045
309
GRIDFORMAT_END
 95
       16
302
GRIDFORMAT
  1
GRIDFORMAT_BEGIN
 90
        0
 91
        1
 62
     0
 92
       -2
340
548
 93
        0
 40
0.045
309
GRIDFORMAT_END
 95
       32
302
GRIDFORMAT
  1
GRIDFORMAT_BEGIN
 90
        0
 91
        1
 62
     0
 92
       -2
340
548
 93
        0
 40
0.045
309
GRIDFORMAT_END
309
TABLEFORMAT_END
  1
CELLSTYLE_BEGIN
 90
        1
 91
        1
300
_TITLE
309
CELLSTYLE_END
300
CELLSTYLE
  1
TABLEFORMAT_BEGIN
 90
        5
170
     1
 91
        0
 92
        0
 62
   257
 93
        1
300
CONTENTFORMAT
  1
CONTENTFORMAT_BEGIN
 90
        0
 91
        0
 92
        4
 93
        0
300

 40
0.0
140
1.0
 94
        5
 62
     0
340
546
144
0.18
309
CONTENTFORMAT_END
171
     1
301
MARGIN
  1
CELLMARGIN_BEGIN
 40
0.06
 40
0.06
 40
0.06
 40
0.06
 40
0.06
 40
0.06
309
CELLMARGIN_END
 94
        6
 95
        1
302
GRIDFORMAT
  1
GRIDFORMAT_BEGIN
 90
        0
 91
        1
 62
     0
 92
       -2
340
548
 93
        0
 40
0.045
309
GRIDFORMAT_END
 95
        2
302
GRIDFORMAT
  1
GRIDFORMAT_BEGIN
 90
        0
 91
        1
 62
     0
 92
       -2
340
548
 93
        0
 40
0.045
309
GRIDFORMAT_END
 95
        4
302
GRIDFORMAT
  1
GRIDFORMAT_BEGIN
 90
        0
 91
        1
 62
     0
 92
       -2
340
548
 93
        0
 40
0.045
309
GRIDFORMAT_END
 95
        8
302
GRIDFORMAT
  1
GRIDFORMAT_BEGIN
 90
        0
 91
        1
 62
     0
 92
       -2
340
548
 93
        0
 40
0.045
309
GRIDFORMAT_END
 95
       16
302
GRIDFORMAT
  1
GRIDFORMAT_BEGIN
 90
        0
 91
        1
 62
     0
 92
       -2
340
548
 93
        0
 40
0.045
309
GRIDFORMAT_END
 95
       32
302
GRIDFORMAT
  1
GRIDFORMAT_BEGIN
 90
        0
 91
        1
 62
     0
 92
       -2
340
548
 93
        0
 40
0.045
309
GRIDFORMAT_END
309
TABLEFORMAT_END
  1
CELLSTYLE_BEGIN
 90
        2
 91
        1
300
_HEADER
309
CELLSTYLE_END
300
CELLSTYLE
  1
TABLEFORMAT_BEGIN
 90
        5
170
     1
 91
        0
 92
        0
 62
   257
 93
        1
300
CONTENTFORMAT
  1
CONTENTFORMAT_BEGIN
 90
        0
 91
        0
 92
        4
 93
        0
300

 40
0.0
140
1.0
 94
        2
 62
     0
340
546
144
0.18
309
CONTENTFORMAT_END
171
     1
301
MARGIN
  1
CELLMARGIN_BEGIN
 40
0.06
 40
0.06
 40
0.06
 40
0.06
 40
0.06
 40
0.06
309
CELLMARGIN_END
 94
        6
 95
        1
302
GRIDFORMAT
  1
GRIDFORMAT_BEGIN
 90
        0
 91
        1
 62
     0
 92
       -2
340
548
 93
        0
 40
0.045
309
GRIDFORMAT_END
 95
        2
302
GRIDFORMAT
  1
GRIDFORMAT_BEGIN
 90
        0
 91
        1
 62
     0
 92
       -2
340
548
 93
        0
 40
0.045
309
GRIDFORMAT_END
 95
        4
302
GRIDFORMAT
  1
GRIDFORMAT_BEGIN
 90
        0
 91
        1
 62
     0
 92
       -2
340
548
 93
        0
 40
0.045
309
GRIDFORMAT_END
 95
        8
302
GRIDFORMAT
  1
GRIDFORMAT_BEGIN
 90
        0
 91
        1
 62
     0
 92
       -2
340
548
 93
        0
 40
0.045
309
GRIDFORMAT_END
 95
       16
302
GRIDFORMAT
  1
GRIDFORMAT_BEGIN
 90
        0
 91
        1
 62
     0
 92
       -2
340
548
 93
        0
 40
0.045
309
GRIDFORMAT_END
 95
       32
302
GRIDFORMAT
  1
GRIDFORMAT_BEGIN
 90
        0
 91
        1
 62
     0
 92
       -2
340
548
 93
        0
 40
0.045
309
GRIDFORMAT_END
309
TABLEFORMAT_END
  1
CELLSTYLE_BEGIN
 90
        3
 91
        2
300
_DATA
309
CELLSTYLE_END
  0
ENDSEC
  0
EOF
