  0
SECTION
  2
HEADER
  9
$ACADVER
  1
AC1009
  9
$DWGCODEPAGE
  3
ansi_1252
  9
$INSBASE
 10
0.0
 20
0.0
 30
0.0
  9
$EXTMIN
 10
0.0
 20
0.0
 30
0.0
  9
$EXTMAX
 10
60.0
 20
20.0
 30
0.0
  9
$LIMMIN
 10
0.0
 20
0.0
  9
$LIMMAX
 10
12.0
 20
9.0
  9
$ORTHOMODE
 70
     0
  9
$REGENMODE
 70
     1
  9
$FILLMODE
 70
     1
  9
$QTEXTMODE
 70
     0
  9
$MIRRTEXT
 70
     1
  9
$DRAGMODE
 70
     2
  9
$LTSCALE
 40
1.0
  9
$OSMODE
 70
    37
  9
$ATTMODE
 70
     1
  9
$TEXTSIZE
 40
0.2
  9
$TRACEWID
 40
0.05
  9
$TEXTSTYLE
  7
STANDARD
  9
$CLAYER
  8
0
  9
$CELTYPE
  6
BYLAYER
  9
$CECOLOR
 62
   256
  9
$DIMSCALE
 40
1.0
  9
$DIMASZ
 40
0.18
  9
$DIMEXO
 40
0.0625
  9
$DIMDLI
 40
0.38
  9
$DIMRND
 40
0.0
  9
$DIMDLE
 40
0.0
  9
$DIMEXE
 40
0.18
  9
$DIMTP
 40
0.0
  9
$DIMTM
 40
0.0
  9
$DIMTXT
 40
0.18
  9
$DIMCEN
 40
0.09
  9
$DIMTSZ
 40
0.0
  9
$DIMTOL
 70
     0
  9
$DIMLIM
 70
     0
  9
$DIMTIH
 70
     1
  9
$DIMTOH
 70
     1
  9
$DIMSE1
 70
     0
  9
$DIMSE2
 70
     0
  9
$DIMTAD
 70
     0
  9
$DIMZIN
 70
     0
  9
$DIMBLK
  1

  9
$DIMASO
 70
     1
  9
$DIMSHO
 70
     1
  9
$DIMPOST
  1

  9
$DIMAPOST
  1

  9
$DIMALT
 70
     0
  9
$DIMALTD
 70
     2
  9
$DIMALTF
 40
25.4
  9
$DIMLFAC
 40
1.0
  9
$DIMTOFL
 70
     0
  9
$DIMTVP
 40
0.0
  9
$DIMTIX
 70
     0
  9
$DIMSOXD
 70
     0
  9
$DIMSAH
 70
     0
  9
$DIMBLK1
  1

  9
$DIMBLK2
  1

  9
$DIMSTYLE
  2
STANDARD
  9
$DIMCLRD
 70
     0
  9
$DIMCLRE
 70
     0
  9
$DIMCLRT
 70
     0
  9
$DIMTFAC
 40
1.0
  9
$DIMGAP
 40
0.09
  9
$LUNITS
 70
     2
  9
$LUPREC
 70
     3
  9
$SKETCHINC
 40
0.1
  9
$FILLETRAD
 40
0.5
  9
$AUNITS
 70
     0
  9
$AUPREC
 70
     0
  9
$MENU
  1
.
  9
$ELEVATION
 40
0.0
  9
$PELEVATION
 40
0.0
  9
$THICKNESS
 40
0.0
  9
$LIMCHECK
 70
     0
  9
$CHAMFERA
 40
0.0
  9
$CHAMFERB
 40
0.0
  9
$SKPOLY
 70
     0
  9
$TDCREATE
 40
2458878.790678241
  9
$TDUPDATE
 40
2458878.790840428
  9
$TDINDWG
 40
0.0000000116
  9
$TDUSRTIMER
 40
0.0000000116
  9
$USRTIMER
 70
     1
  9
$ANGBASE
 50
0.0
  9
$ANGDIR
 70
     0
  9
$PDMODE
 70
     0
  9
$PDSIZE
 40
0.0
  9
$PLINEWID
 40
0.0
  9
$COORDS
 70
     1
  9
$SPLFRAME
 70
     0
  9
$SPLINETYPE
 70
     6
  9
$SPLINESEGS
 70
     8
  9
$ATTDIA
 70
     0
  9
$ATTREQ
 70
     1
  9
$HANDLING
 70
     1
  9
$HANDSEED
  5
C2
  9
$SURFTAB1
 70
     6
  9
$SURFTAB2
 70
     6
  9
$SURFTYPE
 70
     6
  9
$SURFU
 70
     6
  9
$SURFV
 70
     6
  9
$UCSNAME
  2

  9
$UCSORG
 10
0.0
 20
0.0
 30
0.0
  9
$UCSXDIR
 10
1.0
 20
0.0
 30
0.0
  9
$UCSYDIR
 10
0.0
 20
1.0
 30
0.0
  9
$PUCSNAME
  2

  9
$PUCSORG
 10
0.0
 20
0.0
 30
0.0
  9
$PUCSXDIR
 10
1.0
 20
0.0
 30
0.0
  9
$PUCSYDIR
 10
0.0
 20
1.0
 30
0.0
  9
$USERI1
 70
     0
  9
$USERI2
 70
     0
  9
$USERI3
 70
     0
  9
$USERI4
 70
     0
  9
$USERI5
 70
     0
  9
$USERR1
 40
0.0
  9
$USERR2
 40
0.0
  9
$USERR3
 40
0.0
  9
$USERR4
 40
0.0
  9
$USERR5
 40
0.0
  9
$WORLDVIEW
 70
     1
  9
$SHADEDGE
 70
     3
  9
$SHADEDIF
 70
    70
  9
$TILEMODE
 70
     1
  9
$MAXACTVP
 70
    64
  9
$PLIMCHECK
 70
     0
  9
$PEXTMIN
 10
1.000000000000000E+20
 20
1.000000000000000E+20
 30
1.000000000000000E+20
  9
$PEXTMAX
 10
-1.000000000000000E+20
 20
-1.000000000000000E+20
 30
-1.000000000000000E+20
  9
$PLIMMIN
 10
0.0
 20
0.0
  9
$PLIMMAX
 10
12.0
 20
9.0
  9
$UNITMODE
 70
     0
  9
$VISRETAIN
 70
     1
  9
$PLINEGEN
 70
     0
  9
$PSLTSCALE
 70
     1
  0
ENDSEC
  0
SECTION
  2
TABLES
  0
TABLE
  2
VPORT
 70
     1
  0
VPORT
  2
*ACTIVE
 70
     0
 10
0.0
 20
0.0
 11
1.0
 21
1.0
 12
30.0
 22
10.0
 13
0.0
 23
0.0
 14
0.5
 24
0.5
 15
0.5
 25
0.5
 16
0.0
 26
0.0
 36
1.0
 17
0.0
 27
0.0
 37
0.0
 40
20.4
 41
3.0
 42
50.0
 43
0.0
 44
0.0
 50
0.0
 51
0.0
 71
     0
 72
   100
 73
     1
 74
     3
 75
     0
 76
     0
 77
     0
 78
     0
  0
ENDTAB
  0
TABLE
  2
LTYPE
 70
     1
  0
LTYPE
  2
CONTINUOUS
 70
     0
  3
Solid line
 72
    65
 73
     0
 40
0.0
  0
ENDTAB
  0
TABLE
  2
LAYER
 70
     9
  0
LAYER
  2
0
 70
     0
 62
     7
  6
CONTINUOUS
  0
LAYER
  2
1__PRINTING_LAYERS_____1_3
 70
     0
 62
     7
  6
CONTINUOUS
  0
LAYER
  2
2__NON-PRINTING_LAYERS____
 70
     0
 62
     3
  6
CONTINUOUS
  0
LAYER
  2
1__PRINTING_LAYERS_____1_2
 70
     0
 62
     5
  6
CONTINUOUS
  0
LAYER
  2
2__NON-PRINTING_LAYERS___0
 70
     0
 62
     2
  6
CONTINUOUS
  0
LAYER
  2
2__NON-PRINTING_LAYERS___1
 70
     0
 62
     4
  6
CONTINUOUS
  0
LAYER
  2
1__PRINTING_LAYERS_____1_1
 70
     0
 62
     1
  6
CONTINUOUS
  0
LAYER
  2
2__NON-PRINTING_LAYERS
 70
     0
 62
     3
  6
CONTINUOUS
  0
LAYER
  2
DEFPOINTS
 70
     0
 62
     7
  6
CONTINUOUS
  0
ENDTAB
  0
TABLE
  2
STYLE
 70
     2
  0
STYLE
  2
STANDARD
 70
     0
 40
0.0
 41
1.0
 50
0.0
 71
     0
 42
0.2
  3
txt
  4

  0
STYLE
  2
FONT_01
 70
     0
 40
0.0
 41
1.0
 50
0.0
 71
     0
 42
0.2
  3
arial.ttf
  4

  0
ENDTAB
  0
TABLE
  2
VIEW
 70
     0
  0
ENDTAB
  0
TABLE
  2
UCS
 70
     0
  0
ENDTAB
  0
TABLE
  2
APPID
 70
     1
  0
APPID
  2
ACAD
 70
     0
  0
ENDTAB
  0
TABLE
  2
DIMSTYLE
 70
     2
  0
DIMSTYLE
  2
STANDARD
 70
     0
  3

  4

  5

  6

  7

 40
1.0
 41
0.18
 42
0.0625
 43
0.38
 44
0.18
 45
0.0
 46
0.0
 47
0.0
 48
0.0
140
0.18
141
0.09
142
0.0
143
25.4
144
1.0
145
0.0
146
1.0
147
0.09
 71
     0
 72
     0
 73
     1
 74
     1
 75
     0
 76
     0
 77
     0
 78
     0
170
     0
171
     2
172
     0
173
     0
174
     0
175
     0
176
     0
177
     0
178
     0
  0
DIMSTYLE
  2
QCADDIMSTYLE
 70
     0
  3

  4

  5

  6

  7

 40
1.0
 41
1.5
 42
0.375
 43
0.38
 44
0.75
 45
0.0
 46
0.0
 47
0.0
 48
0.0
140
1.5
141
0.09
142
0.0
143
25.4
144
1.0
145
0.0
146
1.0
147
0.375
 71
     0
 72
     0
 73
     0
 74
     1
 75
     0
 76
     0
 77
     1
 78
     1
170
     0
171
     2
172
     1
173
     0
174
     1
175
     0
176
     0
177
     0
178
     0
  0
ENDTAB
  0
ENDSEC
  0
SECTION
  2
BLOCKS
  0
BLOCK
  8
0
  2
$MODEL_SPACE
 70
     0
 10
0.0
 20
0.0
 30
0.0
  3
$MODEL_SPACE
  1

  0
ENDBLK
  5
21
  8
0
  0
BLOCK
 67
     1
  8
0
  2
$PAPER_SPACE
 70
     0
 10
0.0
 20
0.0
 30
0.0
  3
$PAPER_SPACE
  1

  0
ENDBLK
  5
1D
 67
     1
  8
0
  0
BLOCK
  8
0
  2
LASER-CUTTER-LAYERS-R3
 70
     0
 10
0.0
 20
0.0
 30
0.0
  3
LASER-CUTTER-LAYERS-R3
  1

  0
LINE
  5
70
  8
1__PRINTING_LAYERS_____1_3
 10
5.0
 20
5.0
 30
0.0
 11
25.0
 21
5.0
 31
0.0
  0
LINE
  5
71
  8
1__PRINTING_LAYERS_____1_3
 10
25.0
 20
5.0
 30
0.0
 11
25.0
 21
15.0
 31
0.0
  0
LINE
  5
72
  8
1__PRINTING_LAYERS_____1_3
 10
25.0
 20
15.0
 30
0.0
 11
5.0
 21
15.0
 31
0.0
  0
LINE
  5
73
  8
1__PRINTING_LAYERS_____1_3
 10
5.0
 20
15.0
 30
0.0
 11
5.0
 21
5.0
 31
0.0
  0
LINE
  5
75
  8
2__NON-PRINTING_LAYERS____
 10
35.0
 20
5.0
 30
0.0
 11
55.0
 21
5.0
 31
0.0
  0
LINE
  5
76
  8
2__NON-PRINTING_LAYERS____
 10
55.0
 20
5.0
 30
0.0
 11
55.0
 21
15.0
 31
0.0
  0
LINE
  5
77
  8
2__NON-PRINTING_LAYERS____
 10
55.0
 20
15.0
 30
0.0
 11
35.0
 21
15.0
 31
0.0
  0
LINE
  5
78
  8
2__NON-PRINTING_LAYERS____
 10
35.0
 20
15.0
 30
0.0
 11
35.0
 21
5.0
 31
0.0
  0
TEXT
  5
7A
  8
1__PRINTING_LAYERS_____1_2
  6
CONTINUOUS
 10
17.596
 20
16.61333333333334
 30
0.0
 40
0.8
  1
Printing Layers
  0
TEXT
  5
7C
  8
2__NON-PRINTING_LAYERS___0
  6
CONTINUOUS
 10
45.176
 20
16.61333333333333
 30
0.0
 40
0.8
  1
Non-Printing Layers
  0
LINE
  5
7D
  8
1__PRINTING_LAYERS_____1_2
 10
6.0
 20
10.0
 30
0.0
 11
14.0
 21
10.0
 31
0.0
  0
LINE
  5
7F
  8
2__NON-PRINTING_LAYERS___1
 10
36.0
 20
10.0
 30
0.0
 11
44.0
 21
10.0
 31
0.0
  0
LINE
  5
81
  8
1__PRINTING_LAYERS_____1_1
 10
6.0
 20
12.5
 30
0.0
 11
14.0
 21
12.5
 31
0.0
  0
LINE
  5
83
  8
2__NON-PRINTING_LAYERS
 10
36.0
 20
12.5
 30
0.0
 11
44.0
 21
12.5
 31
0.0
  0
LINE
  5
84
  8
1__PRINTING_LAYERS_____1_3
 10
6.0
 20
7.5
 30
0.0
 11
14.0
 21
7.5
 31
0.0
  0
LINE
  5
85
  8
2__NON-PRINTING_LAYERS___0
 10
36.0
 20
7.5
 30
0.0
 11
44.0
 21
7.5
 31
0.0
  0
TEXT
  5
86
  8
1__PRINTING_LAYERS_____1_3
  6
CONTINUOUS
 10
14.8784
 20
12.11333333333333
 30
0.0
 40
0.8
  1
1.1 Cut
  0
TEXT
  5
87
  8
1__PRINTING_LAYERS_____1_3
  6
CONTINUOUS
 10
14.8784
 20
9.613333333333332
 30
0.0
 40
0.8
  1
1.2 Mark
  0
TEXT
  5
88
  8
1__PRINTING_LAYERS_____1_3
  6
CONTINUOUS
 10
14.8784
 20
7.113333333333329
 30
0.0
 40
0.8
  1
1.3 Raster
  0
TEXT
  5
89
  8
2__NON-PRINTING_LAYERS___0
  6
CONTINUOUS
 10
44.9672
 20
12.11333333333328
 30
0.0
 40
0.8
  1
2.1 NP Layout
  0
TEXT
  5
8A
  8
2__NON-PRINTING_LAYERS___0
  6
CONTINUOUS
 10
44.9672
 20
9.613333333333363
 30
0.0
 40
0.8
  1
2.2 NP Dimensions
  0
TEXT
  5
8B
  8
2__NON-PRINTING_LAYERS___0
  6
CONTINUOUS
 10
44.9672
 20
7.113333333333265
 30
0.0
 40
0.8
  1
2.3 NP Text
  0
LINE
  5
8C
  8
1__PRINTING_LAYERS_____1_1
 10
1.0
 20
0.0
 30
0.0
 11
29.0
 21
0.0
 31
0.0
  0
LINE
  5
8D
  8
1__PRINTING_LAYERS_____1_1
 10
31.0
 20
0.0
 30
0.0
 11
59.0
 21
0.0
 31
0.0
  0
LINE
  5
8E
  8
1__PRINTING_LAYERS_____1_1
 10
60.0
 20
1.0
 30
0.0
 11
60.0
 21
19.0
 31
0.0
  0
LINE
  5
8F
  8
1__PRINTING_LAYERS_____1_1
 10
59.0
 20
20.0
 30
0.0
 11
31.0
 21
20.0
 31
0.0
  0
LINE
  5
90
  8
1__PRINTING_LAYERS_____1_1
 10
29.0
 20
20.0
 30
0.0
 11
1.0
 21
20.0
 31
0.0
  0
LINE
  5
91
  8
1__PRINTING_LAYERS_____1_1
 10
0.0
 20
19.0
 30
0.0
 11
0.0
 21
1.0
 31
0.0
  0
LINE
  5
92
  8
1__PRINTING_LAYERS_____1_2
 10
30.0
 20
19.0
 30
0.0
 11
30.0
 21
1.0
 31
0.0
  0
ARC
  5
93
  8
1__PRINTING_LAYERS_____1_1
 10
1.0
 20
19.0
 30
0.0
 40
1.0
 50
90.0
 51
180.0
  0
ARC
  5
94
  8
1__PRINTING_LAYERS_____1_1
 10
59.0
 20
19.0
 30
0.0
 40
1.0
 50
0.0
 51
90.0
  0
ARC
  5
95
  8
1__PRINTING_LAYERS_____1_1
 10
59.0
 20
1.0
 30
0.0
 40
1.0
 50
270.0
 51
0.0
  0
ARC
  5
96
  8
1__PRINTING_LAYERS_____1_1
 10
1.0
 20
1.0
 30
0.0
 40
1.0
 50
180.0
 51
270.0
  0
ARC
  5
97
  8
1__PRINTING_LAYERS_____1_1
 10
29.0
 20
19.0
 30
0.0
 40
1.0
 50
0.0
 51
90.0
  0
ARC
  5
98
  8
1__PRINTING_LAYERS_____1_1
 10
31.0
 20
19.0
 30
0.0
 40
1.0
 50
90.0
 51
180.0
  0
ARC
  5
99
  8
1__PRINTING_LAYERS_____1_1
 10
29.0
 20
1.0
 30
0.0
 40
1.0
 50
270.0
 51
0.0
  0
ARC
  5
9A
  8
1__PRINTING_LAYERS_____1_1
 10
31.0
 20
1.0
 30
0.0
 40
1.0
 50
180.0
 51
270.0
  0
DIMENSION
  5
9D
  8
2__NON-PRINTING_LAYERS___1
  2
*D2
 10
33.0
 20
5.000000000000016
 30
0.0
 11
31.85925
 21
10.0
 31
0.0
 70
    32
  1
<>
  3
QCADDIMSTYLE
 13
35.0
 23
14.99999999999999
 33
0.0
 14
35.0
 24
5.000000000000016
 34
0.0
 50
90.0
  0
DIMENSION
  5
AB
  8
2__NON-PRINTING_LAYERS___1
  2
*D3
 10
55.0
 20
2.000000000000004
 30
0.0
 11
45.0
 21
3.140750000000004
 31
0.0
 70
    32
  1
<>
  3
QCADDIMSTYLE
 13
35.0
 23
5.000000000000016
 33
0.0
 14
55.0
 24
4.999999999999994
 34
0.0
  0
ENDBLK
  5
B9
  8
0
  0
BLOCK
  8
0
  2
*D2
 70
     1
 10
0.0
 20
0.0
 30
0.0
  3
*D2
  1

  0
LINE
  5
A2
  8
2__NON-PRINTING_LAYERS___1
 62
     0
 10
34.625
 20
14.99999999999999
 30
0.0
 11
32.25
 21
14.99999999999999
 31
0.0
  0
LINE
  5
A3
  8
2__NON-PRINTING_LAYERS___1
 62
     0
 10
34.625
 20
5.000000000000016
 30
0.0
 11
32.25
 21
5.000000000000016
 31
0.0
  0
LINE
  5
A4
  8
2__NON-PRINTING_LAYERS___1
 62
     0
 10
33.0
 20
13.49999999999999
 30
0.0
 11
33.0
 21
6.500000000000016
 31
0.0
  0
SOLID
  5
A5
  8
2__NON-PRINTING_LAYERS___1
 62
     0
 10
33.25
 20
13.49999999999999
 30
0.0
 11
32.75
 21
13.49999999999999
 31
0.0
 12
33.0
 22
14.99999999999999
 32
0.0
 13
33.0
 23
14.99999999999999
 33
0.0
  0
SOLID
  5
A6
  8
2__NON-PRINTING_LAYERS___1
 62
     0
 10
32.75
 20
6.500000000000016
 30
0.0
 11
33.25
 21
6.500000000000016
 31
0.0
 12
33.0
 22
5.000000000000016
 32
0.0
 13
33.0
 23
5.000000000000016
 33
0.0
  0
TEXT
  5
A7
  8
2__NON-PRINTING_LAYERS___1
  6
CONTINUOUS
 62
     0
 10
32.5965
 20
6.153250000000003
 30
0.0
 40
1.5
  1
10.0000
 50
90.0
  7
FONT_01
  0
POINT
  5
A8
  8
DEFPOINTS
 62
     0
 10
35.0
 20
14.99999999999999
 30
0.0
  0
POINT
  5
A9
  8
DEFPOINTS
 62
     0
 10
35.0
 20
5.000000000000016
 30
0.0
  0
POINT
  5
AA
  8
DEFPOINTS
 62
     0
 10
33.0
 20
5.000000000000016
 30
0.0
  0
ENDBLK
  5
A1
  8
0
  0
BLOCK
  8
0
  2
*D3
 70
     1
 10
0.0
 20
0.0
 30
0.0
  3
*D3
  1

  0
LINE
  5
AF
  8
2__NON-PRINTING_LAYERS___1
 62
     0
 10
35.0
 20
4.625000000000016
 30
0.0
 11
35.0
 21
1.250000000000004
 31
0.0
  0
LINE
  5
B0
  8
2__NON-PRINTING_LAYERS___1
 62
     0
 10
55.0
 20
4.624999999999994
 30
0.0
 11
55.0
 21
1.250000000000004
 31
0.0
  0
LINE
  5
B1
  8
2__NON-PRINTING_LAYERS___1
 62
     0
 10
36.5
 20
2.000000000000004
 30
0.0
 11
53.5
 21
2.000000000000004
 31
0.0
  0
SOLID
  5
B2
  8
2__NON-PRINTING_LAYERS___1
 62
     0
 10
36.5
 20
2.250000000000004
 30
0.0
 11
36.5
 21
1.750000000000004
 31
0.0
 12
35.0
 22
2.000000000000004
 32
0.0
 13
35.0
 23
2.000000000000004
 33
0.0
  0
SOLID
  5
B3
  8
2__NON-PRINTING_LAYERS___1
 62
     0
 10
53.5
 20
1.750000000000004
 30
0.0
 11
53.5
 21
2.250000000000004
 31
0.0
 12
55.0
 22
2.000000000000004
 32
0.0
 13
55.0
 23
2.000000000000004
 33
0.0
  0
TEXT
  5
B4
  8
2__NON-PRINTING_LAYERS___1
  6
CONTINUOUS
 62
     0
 10
41.2365
 20
2.403500000000005
 30
0.0
 40
1.5
  1
20.0000
  7
FONT_01
  0
POINT
  5
B5
  8
DEFPOINTS
 62
     0
 10
35.0
 20
5.000000000000016
 30
0.0
  0
POINT
  5
B6
  8
DEFPOINTS
 62
     0
 10
55.0
 20
4.999999999999994
 30
0.0
  0
POINT
  5
B7
  8
DEFPOINTS
 62
     0
 10
55.0
 20
2.000000000000004
 30
0.0
  0
ENDBLK
  5
AE
  8
0
  0
ENDSEC
  0
SECTION
  2
ENTITIES
  0
INSERT
  5
BA
  8
0
  2
LASER-CUTTER-LAYERS-R3
 10
0.0
 20
0.0
 30
0.0
  0
ENDSEC
  0
EOF
