  0
SECTION
  2
HEADER
  9
$ACADVER
  1
AC1009
  9
$DWGCODEPAGE
  3
ansi_1252
  9
$INSBASE
 10
0.0
 20
0.0
 30
0.0
  9
$EXTMIN
 10
0.0
 20
0.0
 30
0.0
  9
$EXTMAX
 10
280.0
 20
220.0
 30
0.0
  9
$LIMMIN
 10
0.0
 20
0.0
  9
$LIMMAX
 10
12.0
 20
9.0
  9
$ORTHOMODE
 70
     0
  9
$REGENMODE
 70
     1
  9
$FILLMODE
 70
     1
  9
$QTEXTMODE
 70
     0
  9
$MIRRTEXT
 70
     1
  9
$DRAGMODE
 70
     2
  9
$LTSCALE
 40
1.0
  9
$OSMODE
 70
    37
  9
$ATTMODE
 70
     1
  9
$TEXTSIZE
 40
0.2
  9
$TRACEWID
 40
0.05
  9
$TEXTSTYLE
  7
STANDARD
  9
$CLAYER
  8
0
  9
$CELTYPE
  6
BYLAYER
  9
$CECOLOR
 62
   256
  9
$DIMSCALE
 40
1.0
  9
$DIMASZ
 40
0.18
  9
$DIMEXO
 40
0.0625
  9
$DIMDLI
 40
0.38
  9
$DIMRND
 40
0.0
  9
$DIMDLE
 40
0.0
  9
$DIMEXE
 40
0.18
  9
$DIMTP
 40
0.0
  9
$DIMTM
 40
0.0
  9
$DIMTXT
 40
0.18
  9
$DIMCEN
 40
0.09
  9
$DIMTSZ
 40
0.0
  9
$DIMTOL
 70
     0
  9
$DIMLIM
 70
     0
  9
$DIMTIH
 70
     1
  9
$DIMTOH
 70
     1
  9
$DIMSE1
 70
     0
  9
$DIMSE2
 70
     0
  9
$DIMTAD
 70
     0
  9
$DIMZIN
 70
     0
  9
$DIMBLK
  1

  9
$DIMASO
 70
     1
  9
$DIMSHO
 70
     1
  9
$DIMPOST
  1

  9
$DIMAPOST
  1

  9
$DIMALT
 70
     0
  9
$DIMALTD
 70
     2
  9
$DIMALTF
 40
25.4
  9
$DIMLFAC
 40
1.0
  9
$DIMTOFL
 70
     0
  9
$DIMTVP
 40
0.0
  9
$DIMTIX
 70
     0
  9
$DIMSOXD
 70
     0
  9
$DIMSAH
 70
     0
  9
$DIMBLK1
  1

  9
$DIMBLK2
  1

  9
$DIMSTYLE
  2
STANDARD
  9
$DIMCLRD
 70
     0
  9
$DIMCLRE
 70
     0
  9
$DIMCLRT
 70
     0
  9
$DIMTFAC
 40
1.0
  9
$DIMGAP
 40
0.09
  9
$LUNITS
 70
     2
  9
$LUPREC
 70
     4
  9
$SKETCHINC
 40
0.1
  9
$FILLETRAD
 40
0.5
  9
$AUNITS
 70
     0
  9
$AUPREC
 70
     0
  9
$MENU
  1
.
  9
$ELEVATION
 40
0.0
  9
$PELEVATION
 40
0.0
  9
$THICKNESS
 40
0.0
  9
$LIMCHECK
 70
     0
  9
$CHAMFERA
 40
0.0
  9
$CHAMFERB
 40
0.0
  9
$SKPOLY
 70
     0
  9
$TDCREATE
 40
2458878.792223762
  9
$TDUPDATE
 40
2458878.792238889
  9
$TDINDWG
 40
0.0000000116
  9
$TDUSRTIMER
 40
0.0000000116
  9
$USRTIMER
 70
     1
  9
$ANGBASE
 50
0.0
  9
$ANGDIR
 70
     0
  9
$PDMODE
 70
     0
  9
$PDSIZE
 40
0.0
  9
$PLINEWID
 40
0.0
  9
$COORDS
 70
     1
  9
$SPLFRAME
 70
     0
  9
$SPLINETYPE
 70
     6
  9
$SPLINESEGS
 70
     8
  9
$ATTDIA
 70
     0
  9
$ATTREQ
 70
     1
  9
$HANDLING
 70
     1
  9
$HANDSEED
  5
269
  9
$SURFTAB1
 70
     6
  9
$SURFTAB2
 70
     6
  9
$SURFTYPE
 70
     6
  9
$SURFU
 70
     6
  9
$SURFV
 70
     6
  9
$UCSNAME
  2

  9
$UCSORG
 10
0.0
 20
0.0
 30
0.0
  9
$UCSXDIR
 10
1.0
 20
0.0
 30
0.0
  9
$UCSYDIR
 10
0.0
 20
1.0
 30
0.0
  9
$PUCSNAME
  2

  9
$PUCSORG
 10
0.0
 20
0.0
 30
0.0
  9
$PUCSXDIR
 10
1.0
 20
0.0
 30
0.0
  9
$PUCSYDIR
 10
0.0
 20
1.0
 30
0.0
  9
$USERI1
 70
     0
  9
$USERI2
 70
     0
  9
$USERI3
 70
     0
  9
$USERI4
 70
     0
  9
$USERI5
 70
     0
  9
$USERR1
 40
0.0
  9
$USERR2
 40
0.0
  9
$USERR3
 40
0.0
  9
$USERR4
 40
0.0
  9
$USERR5
 40
0.0
  9
$WORLDVIEW
 70
     1
  9
$SHADEDGE
 70
     3
  9
$SHADEDIF
 70
    70
  9
$TILEMODE
 70
     1
  9
$MAXACTVP
 70
    64
  9
$PLIMCHECK
 70
     0
  9
$PEXTMIN
 10
1.000000000000000E+20
 20
1.000000000000000E+20
 30
1.000000000000000E+20
  9
$PEXTMAX
 10
-1.000000000000000E+20
 20
-1.000000000000000E+20
 30
-1.000000000000000E+20
  9
$PLIMMIN
 10
0.0
 20
0.0
  9
$PLIMMAX
 10
12.0
 20
9.0
  9
$UNITMODE
 70
     0
  9
$VISRETAIN
 70
     1
  9
$PLINEGEN
 70
     0
  9
$PSLTSCALE
 70
     1
  0
ENDSEC
  0
SECTION
  2
TABLES
  0
TABLE
  2
VPORT
 70
     1
  0
VPORT
  2
*ACTIVE
 70
     0
 10
0.0
 20
0.0
 11
1.0
 21
1.0
 12
140.0
 22
110.0
 13
0.0
 23
0.0
 14
0.5
 24
0.5
 15
0.5
 25
0.5
 16
0.0
 26
0.0
 36
1.0
 17
0.0
 27
0.0
 37
0.0
 40
224.4
 41
1.272727272727273
 42
50.0
 43
0.0
 44
0.0
 50
0.0
 51
0.0
 71
     0
 72
   100
 73
     1
 74
     3
 75
     0
 76
     0
 77
     0
 78
     0
  0
ENDTAB
  0
TABLE
  2
LTYPE
 70
     1
  0
LTYPE
  2
CONTINUOUS
 70
     0
  3
Solid line
 72
    65
 73
     0
 40
0.0
  0
ENDTAB
  0
TABLE
  2
LAYER
 70
     4
  0
LAYER
  2
0
 70
     0
 62
     7
  6
CONTINUOUS
  0
LAYER
  2
1__PRINTING_LAYERS_____1_3
 70
     0
 62
     7
  6
CONTINUOUS
  0
LAYER
  2
2__NON-PRINTING_LAYERS____
 70
     0
 62
     3
  6
CONTINUOUS
  0
LAYER
  2
1__PRINTING_LAYERS_____1_2
 70
     0
 62
     5
  6
CONTINUOUS
  0
ENDTAB
  0
TABLE
  2
STYLE
 70
     1
  0
STYLE
  2
STANDARD
 70
     0
 40
0.0
 41
1.0
 50
0.0
 71
     0
 42
0.2
  3
txt
  4

  0
ENDTAB
  0
TABLE
  2
VIEW
 70
     0
  0
ENDTAB
  0
TABLE
  2
UCS
 70
     0
  0
ENDTAB
  0
TABLE
  2
APPID
 70
     1
  0
APPID
  2
ACAD
 70
     0
  0
ENDTAB
  0
TABLE
  2
DIMSTYLE
 70
     1
  0
DIMSTYLE
  2
STANDARD
 70
     0
  3

  4

  5

  6

  7

 40
1.0
 41
0.18
 42
0.0625
 43
0.38
 44
0.18
 45
0.0
 46
0.0
 47
0.0
 48
0.0
140
0.18
141
0.09
142
0.0
143
25.4
144
1.0
145
0.0
146
1.0
147
0.09
 71
     0
 72
     0
 73
     1
 74
     1
 75
     0
 76
     0
 77
     0
 78
     0
170
     0
171
     2
172
     0
173
     0
174
     0
175
     0
176
     0
177
     0
178
     0
  0
ENDTAB
  0
ENDSEC
  0
SECTION
  2
BLOCKS
  0
BLOCK
  8
0
  2
$MODEL_SPACE
 70
     0
 10
0.0
 20
0.0
 30
0.0
  3
$MODEL_SPACE
  1

  0
ENDBLK
  5
21
  8
0
  0
BLOCK
 67
     1
  8
0
  2
$PAPER_SPACE
 70
     0
 10
0.0
 20
0.0
 30
0.0
  3
$PAPER_SPACE
  1

  0
ENDBLK
  5
1D
 67
     1
  8
0
  0
BLOCK
  8
0
  2
*U1
 70
     1
 10
0.0
 20
0.0
 30
0.0
  3
*U1
  1

  0
SOLID
  5
A4
  8
1__PRINTING_LAYERS_____1_3
 62
   254
 10
5.018477022982585
 20
138.3353042178796
 30
0.0
 11
5.0
 21
140.0
 31
0.0
 12
5.018477022982585
 22
141.6646957821203
 32
0.0
 13
5.018477022982585
 23
141.6646957821203
 33
0.0
  0
SOLID
  5
A5
  8
1__PRINTING_LAYERS_____1_3
 62
   254
 10
5.018477022982585
 20
138.3353042178796
 30
0.0
 11
5.018477022982585
 21
141.6646957821204
 31
0.0
 12
5.074564497074766
 22
136.6564816888506
 32
0.0
 13
5.074564497074766
 23
136.6564816888506
 33
0.0
  0
SOLID
  5
A6
  8
1__PRINTING_LAYERS_____1_3
 62
   254
 10
5.074564497074766
 20
136.6564816888506
 30
0.0
 11
5.018477022982585
 21
141.6646957821204
 31
0.0
 12
5.074564497074766
 22
143.3435183111493
 32
0.0
 13
5.074564497074766
 23
143.3435183111493
 33
0.0
  0
SOLID
  5
A7
  8
1__PRINTING_LAYERS_____1_3
 62
   254
 10
5.074564497074767
 20
136.6564816888506
 30
0.0
 11
5.074564497074767
 21
143.3435183111493
 31
0.0
 12
5.169223780814875
 22
134.9646320457946
 32
0.0
 13
5.169223780814875
 23
134.9646320457946
 33
0.0
  0
SOLID
  5
A8
  8
1__PRINTING_LAYERS_____1_3
 62
   254
 10
5.169223780814875
 20
134.9646320457946
 30
0.0
 11
5.074564497074767
 21
143.3435183111493
 31
0.0
 12
5.169223780814875
 22
145.0353679542053
 32
0.0
 13
5.169223780814875
 23
145.0353679542053
 33
0.0
  0
SOLID
  5
A9
  8
1__PRINTING_LAYERS_____1_3
 62
   254
 10
5.169223780814876
 20
134.9646320457946
 30
0.0
 11
5.169223780814876
 21
145.0353679542054
 31
0.0
 12
5.303381854034097
 22
133.2609171576721
 32
0.0
 13
5.303381854034097
 23
133.2609171576721
 33
0.0
  0
SOLID
  5
AA
  8
1__PRINTING_LAYERS_____1_3
 62
   254
 10
5.303381854034097
 20
133.2609171576721
 30
0.0
 11
5.169223780814876
 21
145.0353679542054
 31
0.0
 12
5.303381854034097
 22
146.7390828423278
 32
0.0
 13
5.303381854034097
 23
146.7390828423278
 33
0.0
  0
SOLID
  5
AB
  8
1__PRINTING_LAYERS_____1_3
 62
   254
 10
5.303381854034098
 20
133.2609171576721
 30
0.0
 11
5.303381854034098
 21
146.7390828423278
 31
0.0
 12
5.477927035343361
 22
131.5465604012099
 32
0.0
 13
5.477927035343361
 23
131.5465604012099
 33
0.0
  0
SOLID
  5
AC
  8
1__PRINTING_LAYERS_____1_3
 62
   254
 10
5.477927035343361
 20
131.5465604012099
 30
0.0
 11
5.303381854034098
 21
146.7390828423278
 31
0.0
 12
5.477927035343361
 22
148.4534395987901
 32
0.0
 13
5.477927035343361
 23
148.4534395987901
 33
0.0
  0
SOLID
  5
AD
  8
1__PRINTING_LAYERS_____1_3
 62
   254
 10
5.477927035343365
 20
131.5465604012099
 30
0.0
 11
5.477927035343365
 21
148.4534395987901
 31
0.0
 12
5.693704649881727
 22
129.8228456167261
 32
0.0
 13
5.693704649881727
 23
129.8228456167261
 33
0.0
  0
SOLID
  5
AE
  8
1__PRINTING_LAYERS_____1_3
 62
   254
 10
5.693704649881727
 20
129.8228456167261
 30
0.0
 11
5.477927035343365
 21
148.4534395987901
 31
0.0
 12
5.693704649881727
 22
150.1771543832739
 32
0.0
 13
5.693704649881727
 23
150.1771543832739
 33
0.0
  0
SOLID
  5
AF
  8
1__PRINTING_LAYERS_____1_3
 62
   254
 10
5.693704649881731
 20
129.822845616726
 30
0.0
 11
5.693704649881731
 21
150.1771543832739
 31
0.0
 12
5.951512671913159
 22
128.0911157356298
 32
0.0
 13
5.951512671913159
 23
128.0911157356298
 33
0.0
  0
SOLID
  5
B0
  8
1__PRINTING_LAYERS_____1_3
 62
   254
 10
5.951512671913159
 20
128.0911157356298
 30
0.0
 11
5.693704649881731
 21
150.1771543832739
 31
0.0
 12
5.951512671913159
 22
151.9088842643701
 32
0.0
 13
5.951512671913159
 23
151.9088842643701
 33
0.0
  0
SOLID
  5
B1
  8
1__PRINTING_LAYERS_____1_3
 62
   254
 10
5.951512671913162
 20
128.0911157356298
 30
0.0
 11
5.951512671913162
 21
151.9088842643701
 31
0.0
 12
6.252097368756919
 22
126.3527710690892
 32
0.0
 13
6.252097368756919
 23
126.3527710690892
 33
0.0
  0
SOLID
  5
B2
  8
1__PRINTING_LAYERS_____1_3
 62
   254
 10
6.252097368756919
 20
126.3527710690892
 30
0.0
 11
5.951512671913162
 21
151.9088842643701
 31
0.0
 12
6.252097368756919
 22
153.6472289309108
 32
0.0
 13
6.252097368756919
 23
153.6472289309108
 33
0.0
  0
SOLID
  5
B3
  8
1__PRINTING_LAYERS_____1_3
 62
   254
 10
6.252097368756923
 20
126.3527710690891
 30
0.0
 11
6.252097368756923
 21
153.6472289309108
 31
0.0
 12
6.596148974286291
 22
124.6092672495807
 32
0.0
 13
6.596148974286291
 23
124.6092672495807
 33
0.0
  0
SOLID
  5
B4
  8
1__PRINTING_LAYERS_____1_3
 62
   254
 10
6.596148974286291
 20
124.6092672495807
 30
0.0
 11
6.252097368756923
 21
153.6472289309108
 31
0.0
 12
6.596148974286291
 22
155.3907327504192
 32
0.0
 13
6.596148974286291
 23
155.3907327504192
 33
0.0
  0
SOLID
  5
B5
  8
1__PRINTING_LAYERS_____1_3
 62
   254
 10
6.596148974286295
 20
124.6092672495807
 30
0.0
 11
6.596148974286295
 21
155.3907327504193
 31
0.0
 12
6.984297421794118
 22
122.8621128195166
 32
0.0
 13
6.984297421794118
 23
122.8621128195166
 33
0.0
  0
SOLID
  5
B6
  8
1__PRINTING_LAYERS_____1_3
 62
   254
 10
6.984297421794118
 20
122.8621128195166
 30
0.0
 11
6.596148974286295
 21
155.3907327504193
 31
0.0
 12
6.984297421794118
 22
157.1378871804835
 32
0.0
 13
6.984297421794118
 23
157.1378871804835
 33
0.0
  0
SOLID
  5
B7
  8
1__PRINTING_LAYERS_____1_3
 62
   254
 10
6.984297421794122
 20
122.8621128195166
 30
0.0
 11
6.984297421794122
 21
157.1378871804835
 31
0.0
 12
7.417108167364602
 22
121.112866463861
 32
0.0
 13
7.417108167364602
 23
121.112866463861
 33
0.0
  0
SOLID
  5
B8
  8
1__PRINTING_LAYERS_____1_3
 62
   254
 10
7.417108167364602
 20
121.112866463861
 30
0.0
 11
6.984297421794122
 21
157.1378871804835
 31
0.0
 12
7.417108167364602
 22
158.8871335361391
 32
0.0
 13
7.417108167364602
 23
158.8871335361391
 33
0.0
  0
SOLID
  5
B9
  8
1__PRINTING_LAYERS_____1_3
 62
   254
 10
7.417108167364607
 20
121.1128664638609
 30
0.0
 11
7.417108167364607
 21
158.8871335361391
 31
0.0
 12
7.895078135972634
 22
119.3631338865973
 32
0.0
 13
7.895078135972634
 23
119.3631338865973
 33
0.0
  0
SOLID
  5
BA
  8
1__PRINTING_LAYERS_____1_3
 62
   254
 10
7.895078135972634
 20
119.3631338865973
 30
0.0
 11
7.417108167364607
 21
158.8871335361391
 31
0.0
 12
7.895078135972634
 22
160.6368661134027
 32
0.0
 13
7.895078135972634
 23
160.6368661134027
 33
0.0
  0
SOLID
  5
BB
  8
1__PRINTING_LAYERS_____1_3
 62
   254
 10
7.89507813597264
 20
119.3631338865973
 30
0.0
 11
7.89507813597264
 21
160.6368661134027
 31
0.0
 12
8.418631823319483
 22
117.6145643340472
 32
0.0
 13
8.418631823319483
 23
117.6145643340472
 33
0.0
  0
SOLID
  5
BC
  8
1__PRINTING_LAYERS_____1_3
 62
   254
 10
8.418631823319483
 20
117.6145643340472
 30
0.0
 11
7.89507813597264
 21
160.6368661134027
 31
0.0
 12
8.418631823319483
 22
162.3854356659527
 32
0.0
 13
8.418631823319483
 23
162.3854356659527
 33
0.0
  0
SOLID
  5
BD
  8
1__PRINTING_LAYERS_____1_3
 62
   254
 10
8.418631823319489
 20
117.6145643340472
 30
0.0
 11
8.418631823319489
 21
162.3854356659528
 31
0.0
 12
8.988117586874157
 22
115.8688467713541
 32
0.0
 13
8.988117586874157
 23
115.8688467713541
 33
0.0
  0
SOLID
  5
BE
  8
1__PRINTING_LAYERS_____1_3
 62
   254
 10
8.988117586874157
 20
115.8688467713541
 30
0.0
 11
8.418631823319489
 21
162.3854356659528
 31
0.0
 12
8.988117586874157
 22
164.1311532286459
 32
0.0
 13
8.988117586874157
 23
164.1311532286459
 33
0.0
  0
SOLID
  5
BF
  8
1__PRINTING_LAYERS_____1_3
 62
   254
 10
8.98811758687416
 20
115.8688467713541
 30
0.0
 11
8.98811758687416
 21
164.1311532286459
 31
0.0
 12
9.603804159693752
 22
114.1277057218876
 32
0.0
 13
9.603804159693752
 23
114.1277057218876
 33
0.0
  0
SOLID
  5
C0
  8
1__PRINTING_LAYERS_____1_3
 62
   254
 10
9.603804159693752
 20
114.1277057218876
 30
0.0
 11
8.98811758687416
 21
164.1311532286459
 31
0.0
 12
9.603804159693752
 22
165.8722942781124
 32
0.0
 13
9.603804159693752
 23
165.8722942781124
 33
0.0
  0
SOLID
  5
C1
  8
1__PRINTING_LAYERS_____1_3
 62
   254
 10
9.603804159693757
 20
114.1277057218876
 30
0.0
 11
9.603804159693757
 21
165.8722942781124
 31
0.0
 12
10.26587742031773
 22
112.3928967828596
 32
0.0
 13
10.26587742031773
 23
112.3928967828596
 33
0.0
  0
SOLID
  5
C2
  8
1__PRINTING_LAYERS_____1_3
 62
   254
 10
10.26587742031773
 20
112.3928967828596
 30
0.0
 11
9.603804159693757
 21
165.8722942781124
 31
0.0
 12
10.26587742031773
 22
167.6071032171405
 32
0.0
 13
10.26587742031773
 23
167.6071032171405
 33
0.0
  0
SOLID
  5
C3
  8
1__PRINTING_LAYERS_____1_3
 62
   254
 10
10.26587742031773
 20
112.3928967828596
 30
0.0
 11
10.26587742031773
 21
167.6071032171405
 31
0.0
 12
10.97443745134994
 22
110.6662018340209
 32
0.0
 13
10.97443745134994
 23
110.6662018340209
 33
0.0
  0
SOLID
  5
C4
  8
1__PRINTING_LAYERS_____1_3
 62
   254
 10
10.97443745134994
 20
110.6662018340209
 30
0.0
 11
10.26587742031773
 21
167.6071032171405
 31
0.0
 12
10.97443745134994
 22
169.3337981659791
 32
0.0
 13
10.97443745134994
 23
169.3337981659791
 33
0.0
  0
SOLID
  5
C5
  8
1__PRINTING_LAYERS_____1_3
 62
   254
 10
10.97443745134995
 20
110.6662018340209
 30
0.0
 11
10.97443745134995
 21
169.3337981659791
 31
0.0
 12
11.72949591824349
 22
108.9494239598866
 32
0.0
 13
11.72949591824349
 23
108.9494239598866
 33
0.0
  0
SOLID
  5
C6
  8
1__PRINTING_LAYERS_____1_3
 62
   254
 10
11.72949591824349
 20
108.9494239598866
 30
0.0
 11
10.97443745134995
 21
169.3337981659791
 31
0.0
 12
11.72949591824349
 22
171.0505760401134
 32
0.0
 13
11.72949591824349
 23
171.0505760401134
 33
0.0
  0
SOLID
  5
C7
  8
1__PRINTING_LAYERS_____1_3
 62
   254
 10
11.7294959182435
 20
108.9494239598865
 30
0.0
 11
11.7294959182435
 21
171.0505760401135
 31
0.0
 12
12.53097379827819
 22
107.2443821094553
 32
0.0
 13
12.53097379827819
 23
107.2443821094553
 33
0.0
  0
SOLID
  5
C8
  8
1__PRINTING_LAYERS_____1_3
 62
   254
 10
12.53097379827819
 20
107.2443821094553
 30
0.0
 11
11.7294959182435
 21
171.0505760401135
 31
0.0
 12
12.53097379827819
 22
172.7556178905447
 32
0.0
 13
12.53097379827819
 23
172.7556178905447
 33
0.0
  0
SOLID
  5
C9
  8
1__PRINTING_LAYERS_____1_3
 62
   254
 10
12.5309737982782
 20
107.2443821094552
 30
0.0
 11
12.5309737982782
 21
172.7556178905448
 31
0.0
 12
13.37869948776854
 22
105.5529055207998
 32
0.0
 13
13.37869948776854
 23
105.5529055207998
 33
0.0
  0
SOLID
  5
CA
  8
1__PRINTING_LAYERS_____1_3
 62
   254
 10
13.37869948776854
 20
105.5529055207998
 30
0.0
 11
12.5309737982782
 21
172.7556178905448
 31
0.0
 12
13.37869948776854
 22
174.4470944792002
 32
0.0
 13
13.37869948776854
 23
174.4470944792002
 33
0.0
  0
SOLID
  5
CB
  8
1__PRINTING_LAYERS_____1_3
 62
   254
 10
13.37869948776854
 20
105.5529055207998
 30
0.0
 11
13.37869948776854
 21
174.4470944792003
 31
0.0
 12
14.27240731316637
 22
103.8768279411443
 32
0.0
 13
14.27240731316637
 23
103.8768279411443
 33
0.0
  0
SOLID
  5
CC
  8
1__PRINTING_LAYERS_____1_3
 62
   254
 10
14.27240731316637
 20
103.8768279411443
 30
0.0
 11
13.37869948776854
 21
174.4470944792003
 31
0.0
 12
14.27240731316637
 22
176.1231720588557
 32
0.0
 13
14.27240731316637
 23
176.1231720588557
 33
0.0
  0
SOLID
  5
CD
  8
1__PRINTING_LAYERS_____1_3
 62
   254
 10
14.27240731316638
 20
103.8768279411443
 30
0.0
 11
14.27240731316638
 21
176.1231720588557
 31
0.0
 12
15.21173646894263
 22
102.2179816760637
 32
0.0
 13
15.21173646894263
 23
102.2179816760637
 33
0.0
  0
SOLID
  5
CE
  8
1__PRINTING_LAYERS_____1_3
 62
   254
 10
15.21173646894263
 20
102.2179816760637
 30
0.0
 11
14.27240731316638
 21
176.1231720588557
 31
0.0
 12
15.21173646894263
 22
177.7820183239364
 32
0.0
 13
15.21173646894263
 23
177.7820183239364
 33
0.0
  0
SOLID
  5
CF
  8
1__PRINTING_LAYERS_____1_3
 62
   254
 10
15.21173646894264
 20
102.2179816760637
 30
0.0
 11
15.21173646894264
 21
177.7820183239364
 31
0.0
 12
16.19623040196881
 22
100.5781915041769
 32
0.0
 13
16.19623040196881
 23
100.5781915041769
 33
0.0
  0
SOLID
  5
D0
  8
1__PRINTING_LAYERS_____1_3
 62
   254
 10
16.19623040196881
 20
100.5781915041769
 30
0.0
 11
15.21173646894264
 21
177.7820183239364
 31
0.0
 12
16.19623040196881
 22
179.4218084958231
 32
0.0
 13
16.19623040196881
 23
179.4218084958231
 33
0.0
  0
SOLID
  5
D1
  8
1__PRINTING_LAYERS_____1_3
 62
   254
 10
16.19623040196882
 20
100.5781915041769
 30
0.0
 11
16.19623040196882
 21
179.4218084958231
 31
0.0
 12
17.22533665860114
 22
98.9592684961143
 32
0.0
 13
17.22533665860114
 23
98.9592684961143
 33
0.0
  0
SOLID
  5
D2
  8
1__PRINTING_LAYERS_____1_3
 62
   254
 10
17.22533665860114
 20
98.9592684961143
 30
0.0
 11
16.19623040196882
 21
179.4218084958231
 31
0.0
 12
17.22533665860114
 22
181.0407315038857
 32
0.0
 13
17.22533665860114
 23
181.0407315038857
 33
0.0
  0
SOLID
  5
D3
  8
1__PRINTING_LAYERS_____1_3
 62
   254
 10
17.22533665860115
 20
98.95926849611429
 30
0.0
 11
17.22533665860115
 21
181.0407315038857
 31
0.0
 12
18.29840720683856
 22
97.36300377856233
 32
0.0
 13
18.29840720683856
 23
97.36300377856233
 33
0.0
  0
SOLID
  5
D4
  8
1__PRINTING_LAYERS_____1_3
 62
   254
 10
18.29840720683856
 20
97.36300377856233
 30
0.0
 11
17.22533665860115
 21
181.0407315038857
 31
0.0
 12
18.29840720683856
 22
182.6369962214376
 32
0.0
 13
18.29840720683856
 23
182.6369962214376
 33
0.0
  0
SOLID
  5
D5
  8
1__PRINTING_LAYERS_____1_3
 62
   254
 10
18.29840720683857
 20
97.36300377856232
 30
0.0
 11
18.29840720683857
 21
182.6369962214376
 31
0.0
 12
19.41469924182406
 22
95.79116228578988
 32
0.0
 13
19.41469924182406
 23
95.79116228578988
 33
0.0
  0
SOLID
  5
D6
  8
1__PRINTING_LAYERS_____1_3
 62
   254
 10
19.41469924182406
 20
95.79116228578988
 30
0.0
 11
18.29840720683857
 21
182.6369962214376
 31
0.0
 12
19.41469924182406
 22
184.2088377142101
 32
0.0
 13
19.41469924182406
 23
184.2088377142101
 33
0.0
  0
SOLID
  5
D7
  8
1__PRINTING_LAYERS_____1_3
 62
   254
 10
19.41469924182407
 20
95.79116228578987
 30
0.0
 11
19.41469924182407
 21
184.2088377142101
 31
0.0
 12
20.57337647864184
 22
94.24547654219573
 32
0.0
 13
20.57337647864184
 23
94.24547654219573
 33
0.0
  0
SOLID
  5
D8
  8
1__PRINTING_LAYERS_____1_3
 62
   254
 10
20.57337647864184
 20
94.24547654219573
 30
0.0
 11
19.41469924182407
 21
184.2088377142101
 31
0.0
 12
20.57337647864184
 22
185.7545234578043
 32
0.0
 13
20.57337647864184
 23
185.7545234578043
 33
0.0
  0
SOLID
  5
D9
  8
1__PRINTING_LAYERS_____1_3
 62
   254
 10
20.57337647864185
 20
94.24547654219572
 30
0.0
 11
20.57337647864185
 21
185.7545234578043
 31
0.0
 12
21.77351093188676
 22
92.72764052005772
 32
0.0
 13
21.77351093188676
 23
92.72764052005772
 33
0.0
  0
SOLID
  5
DA
  8
1__PRINTING_LAYERS_____1_3
 62
   254
 10
21.77351093188676
 20
92.72764052005772
 30
0.0
 11
20.57337647864185
 21
185.7545234578043
 31
0.0
 12
21.77351093188676
 22
187.2723594799423
 32
0.0
 13
21.77351093188676
 23
187.2723594799423
 33
0.0
  0
SOLID
  5
DB
  8
1__PRINTING_LAYERS_____1_3
 62
   254
 10
21.77351093188677
 20
92.7276405200577
 30
0.0
 11
21.77351093188677
 21
187.2723594799423
 31
0.0
 12
23.01408517691278
 22
91.23930361678734
 32
0.0
 13
23.01408517691278
 23
91.23930361678734
 33
0.0
  0
SOLID
  5
DC
  8
1__PRINTING_LAYERS_____1_3
 62
   254
 10
23.01408517691278
 20
91.23930361678734
 30
0.0
 11
21.77351093188677
 21
187.2723594799423
 31
0.0
 12
23.01408517691278
 22
188.7606963832127
 32
0.0
 13
23.01408517691278
 23
188.7606963832127
 33
0.0
  0
SOLID
  5
DD
  8
1__PRINTING_LAYERS_____1_3
 62
   254
 10
23.01408517691279
 20
91.23930361678732
 30
0.0
 11
23.01408517691279
 21
188.7606963832127
 31
0.0
 12
24.29399508306826
 22
89.78206479558546
 32
0.0
 13
24.29399508306826
 23
89.78206479558546
 33
0.0
  0
SOLID
  5
DE
  8
1__PRINTING_LAYERS_____1_3
 62
   254
 10
24.29399508306826
 20
89.78206479558546
 30
0.0
 11
23.01408517691279
 21
188.7606963832127
 31
0.0
 12
24.29399508306826
 22
190.2179352044145
 32
0.0
 13
24.29399508306826
 23
190.2179352044145
 33
0.0
  0
SOLID
  5
DF
  8
1__PRINTING_LAYERS_____1_3
 62
   254
 10
24.29399508306827
 20
89.78206479558544
 30
0.0
 11
24.29399508306827
 21
190.2179352044145
 31
0.0
 12
25.61205300466864
 22
88.35746693244971
 32
0.0
 13
25.61205300466864
 23
88.35746693244971
 33
0.0
  0
SOLID
  5
E0
  8
1__PRINTING_LAYERS_____1_3
 62
   254
 10
25.61205300466864
 20
88.35746693244971
 30
0.0
 11
24.29399508306827
 21
190.2179352044145
 31
0.0
 12
25.61205300466864
 22
191.6425330675503
 32
0.0
 13
25.61205300466864
 23
191.6425330675503
 33
0.0
  0
SOLID
  5
E1
  8
1__PRINTING_LAYERS_____1_3
 62
   254
 10
25.61205300466865
 20
88.3574669324497
 30
0.0
 11
25.61205300466865
 21
191.6425330675503
 31
0.0
 12
26.96699141100893
 22
86.96699141100893
 32
0.0
 13
26.96699141100893
 23
86.96699141100893
 33
0.0
  0
SOLID
  5
E2
  8
1__PRINTING_LAYERS_____1_3
 62
   254
 10
26.96699141100893
 20
86.96699141100893
 30
0.0
 11
25.61205300466865
 21
191.6425330675503
 31
0.0
 12
26.96699141100893
 22
193.0330085889911
 32
0.0
 13
26.96699141100893
 23
193.0330085889911
 33
0.0
  0
SOLID
  5
E3
  8
1__PRINTING_LAYERS_____1_3
 62
   254
 10
26.96699141100894
 20
86.96699141100892
 30
0.0
 11
26.96699141100894
 21
193.0330085889911
 31
0.0
 12
28.03847577293362
 22
85.92289153914605
 32
0.0
 13
28.03847577293362
 23
85.92289153914605
 33
0.0
  0
SOLID
  5
E4
  8
1__PRINTING_LAYERS_____1_3
 62
   254
 10
28.03847577293362
 20
85.92289153914605
 30
0.0
 11
26.96699141100894
 21
193.0330085889911
 31
0.0
 12
28.03847577293362
 22
194.0771084608539
 32
0.0
 13
28.03847577293362
 23
194.0771084608539
 33
0.0
  0
SOLID
  5
E5
  8
1__PRINTING_LAYERS_____1_3
 62
   254
 10
28.03847577293362
 20
85.92289153914605
 30
0.0
 11
28.03847577293362
 21
130.0
 31
0.0
 12
28.35746693244969
 22
85.61205300466865
 32
0.0
 13
28.35746693244969
 23
85.61205300466865
 33
0.0
  0
SOLID
  5
E6
  8
1__PRINTING_LAYERS_____1_3
 62
   254
 10
28.35746693244969
 20
85.61205300466865
 30
0.0
 11
28.03847577293362
 21
130.0
 31
0.0
 12
28.35746693244969
 22
129.8158303681843
 32
0.0
 13
28.35746693244969
 23
129.8158303681843
 33
0.0
  0
SOLID
  5
E7
  8
1__PRINTING_LAYERS_____1_3
 62
   254
 10
28.03847577293362
 20
150.0
 30
0.0
 11
28.03847577293362
 21
194.0771084608539
 31
0.0
 12
28.35746693244969
 22
150.1841696318157
 32
0.0
 13
28.35746693244969
 23
150.1841696318157
 33
0.0
  0
SOLID
  5
E8
  8
1__PRINTING_LAYERS_____1_3
 62
   254
 10
28.35746693244969
 20
150.1841696318157
 30
0.0
 11
28.03847577293362
 21
194.0771084608539
 31
0.0
 12
28.35746693244969
 22
194.3879469953313
 32
0.0
 13
28.35746693244969
 23
194.3879469953313
 33
0.0
  0
SOLID
  5
E9
  8
1__PRINTING_LAYERS_____1_3
 62
   254
 10
28.35746693244969
 20
85.61205300466865
 30
0.0
 11
28.35746693244969
 21
129.8158303681843
 31
0.0
 12
29.78206479558546
 22
84.29399508306827
 32
0.0
 13
29.78206479558546
 23
84.29399508306827
 33
0.0
  0
SOLID
  5
EA
  8
1__PRINTING_LAYERS_____1_3
 62
   254
 10
29.78206479558546
 20
84.29399508306827
 30
0.0
 11
28.35746693244969
 21
129.8158303681843
 31
0.0
 12
29.78206479558546
 22
128.9933384084159
 32
0.0
 13
29.78206479558546
 23
128.9933384084159
 33
0.0
  0
SOLID
  5
EB
  8
1__PRINTING_LAYERS_____1_3
 62
   254
 10
28.35746693244969
 20
150.1841696318157
 30
0.0
 11
28.35746693244969
 21
194.3879469953313
 31
0.0
 12
29.78206479558546
 22
151.0066615915841
 32
0.0
 13
29.78206479558546
 23
151.0066615915841
 33
0.0
  0
SOLID
  5
EC
  8
1__PRINTING_LAYERS_____1_3
 62
   254
 10
29.78206479558546
 20
151.0066615915841
 30
0.0
 11
28.35746693244969
 21
194.3879469953313
 31
0.0
 12
29.78206479558546
 22
195.7060049169317
 32
0.0
 13
29.78206479558546
 23
195.7060049169317
 33
0.0
  0
SOLID
  5
ED
  8
1__PRINTING_LAYERS_____1_3
 62
   254
 10
29.78206479558546
 20
84.29399508306827
 30
0.0
 11
29.78206479558546
 21
128.9933384084159
 31
0.0
 12
31.23930361678734
 22
83.01408517691277
 32
0.0
 13
31.23930361678734
 23
83.01408517691277
 33
0.0
  0
SOLID
  5
EE
  8
1__PRINTING_LAYERS_____1_3
 62
   254
 10
31.23930361678734
 20
83.01408517691277
 30
0.0
 11
29.78206479558546
 21
128.9933384084159
 31
0.0
 12
31.23930361678734
 22
128.1520011827214
 32
0.0
 13
31.23930361678734
 23
128.1520011827214
 33
0.0
  0
SOLID
  5
EF
  8
1__PRINTING_LAYERS_____1_3
 62
   254
 10
29.78206479558546
 20
151.0066615915841
 30
0.0
 11
29.78206479558546
 21
195.7060049169317
 31
0.0
 12
31.23930361678734
 22
151.8479988172786
 32
0.0
 13
31.23930361678734
 23
151.8479988172786
 33
0.0
  0
SOLID
  5
F0
  8
1__PRINTING_LAYERS_____1_3
 62
   254
 10
31.23930361678734
 20
151.8479988172786
 30
0.0
 11
29.78206479558546
 21
195.7060049169317
 31
0.0
 12
31.23930361678734
 22
196.9859148230873
 32
0.0
 13
31.23930361678734
 23
196.9859148230873
 33
0.0
  0
SOLID
  5
F1
  8
1__PRINTING_LAYERS_____1_3
 62
   254
 10
31.23930361678734
 20
83.01408517691277
 30
0.0
 11
31.23930361678734
 21
128.1520011827214
 31
0.0
 12
32.7276405200577
 22
81.77351093188678
 32
0.0
 13
32.7276405200577
 23
81.77351093188678
 33
0.0
  0
SOLID
  5
F2
  8
1__PRINTING_LAYERS_____1_3
 62
   254
 10
32.7276405200577
 20
81.77351093188678
 30
0.0
 11
31.23930361678734
 21
128.1520011827214
 31
0.0
 12
32.7276405200577
 22
127.2927094709734
 32
0.0
 13
32.7276405200577
 23
127.2927094709734
 33
0.0
  0
SOLID
  5
F3
  8
1__PRINTING_LAYERS_____1_3
 62
   254
 10
31.23930361678734
 20
151.8479988172786
 30
0.0
 11
31.23930361678734
 21
196.9859148230873
 31
0.0
 12
32.7276405200577
 22
152.7072905290266
 32
0.0
 13
32.7276405200577
 23
152.7072905290266
 33
0.0
  0
SOLID
  5
F4
  8
1__PRINTING_LAYERS_____1_3
 62
   254
 10
32.7276405200577
 20
152.7072905290266
 30
0.0
 11
31.23930361678734
 21
196.9859148230873
 31
0.0
 12
32.7276405200577
 22
198.2264890681133
 32
0.0
 13
32.7276405200577
 23
198.2264890681133
 33
0.0
  0
SOLID
  5
F5
  8
1__PRINTING_LAYERS_____1_3
 62
   254
 10
32.72764052005771
 20
81.77351093188678
 30
0.0
 11
32.72764052005771
 21
127.2927094709734
 31
0.0
 12
34.24547654219572
 22
80.57337647864185
 32
0.0
 13
34.24547654219572
 23
80.57337647864185
 33
0.0
  0
SOLID
  5
F6
  8
1__PRINTING_LAYERS_____1_3
 62
   254
 10
34.24547654219572
 20
80.57337647864185
 30
0.0
 11
32.72764052005771
 21
127.2927094709734
 31
0.0
 12
34.24547654219572
 22
126.4163864350063
 32
0.0
 13
34.24547654219572
 23
126.4163864350063
 33
0.0
  0
SOLID
  5
F7
  8
1__PRINTING_LAYERS_____1_3
 62
   254
 10
32.72764052005771
 20
152.7072905290266
 30
0.0
 11
32.72764052005771
 21
198.2264890681133
 31
0.0
 12
34.24547654219572
 22
153.5836135649937
 32
0.0
 13
34.24547654219572
 23
153.5836135649937
 33
0.0
  0
SOLID
  5
F8
  8
1__PRINTING_LAYERS_____1_3
 62
   254
 10
34.24547654219572
 20
153.5836135649937
 30
0.0
 11
32.72764052005771
 21
198.2264890681133
 31
0.0
 12
34.24547654219572
 22
199.4266235213582
 32
0.0
 13
34.24547654219572
 23
199.4266235213582
 33
0.0
  0
SOLID
  5
F9
  8
1__PRINTING_LAYERS_____1_3
 62
   254
 10
34.24547654219573
 20
80.57337647864183
 30
0.0
 11
34.24547654219573
 21
126.4163864350063
 31
0.0
 12
35.79116228578987
 22
79.41469924182408
 32
0.0
 13
35.79116228578987
 23
79.41469924182408
 33
0.0
  0
SOLID
  5
FA
  8
1__PRINTING_LAYERS_____1_3
 62
   254
 10
35.79116228578987
 20
79.41469924182408
 30
0.0
 11
34.24547654219573
 21
126.4163864350063
 31
0.0
 12
35.79116228578987
 22
125.5239843548597
 32
0.0
 13
35.79116228578987
 23
125.5239843548597
 33
0.0
  0
SOLID
  5
FB
  8
1__PRINTING_LAYERS_____1_3
 62
   254
 10
34.24547654219573
 20
153.5836135649937
 30
0.0
 11
34.24547654219573
 21
199.4266235213582
 31
0.0
 12
35.79116228578987
 22
154.4760156451403
 32
0.0
 13
35.79116228578987
 23
154.4760156451403
 33
0.0
  0
SOLID
  5
FC
  8
1__PRINTING_LAYERS_____1_3
 62
   254
 10
35.79116228578987
 20
154.4760156451403
 30
0.0
 11
34.24547654219573
 21
199.4266235213582
 31
0.0
 12
35.79116228578987
 22
200.5853007581759
 32
0.0
 13
35.79116228578987
 23
200.5853007581759
 33
0.0
  0
SOLID
  5
FD
  8
1__PRINTING_LAYERS_____1_3
 62
   254
 10
35.79116228578988
 20
79.41469924182407
 30
0.0
 11
35.79116228578988
 21
125.5239843548596
 31
0.0
 12
37.36300377856232
 22
78.29840720683856
 32
0.0
 13
37.36300377856232
 23
78.29840720683856
 33
0.0
  0
SOLID
  5
FE
  8
1__PRINTING_LAYERS_____1_3
 62
   254
 10
37.36300377856232
 20
78.29840720683856
 30
0.0
 11
35.79116228578988
 21
125.5239843548596
 31
0.0
 12
37.36300377856232
 22
124.6164812458841
 32
0.0
 13
37.36300377856232
 23
124.6164812458841
 33
0.0
  0
SOLID
  5
FF
  8
1__PRINTING_LAYERS_____1_3
 62
   254
 10
35.79116228578988
 20
154.4760156451403
 30
0.0
 11
35.79116228578988
 21
200.5853007581759
 31
0.0
 12
37.36300377856232
 22
155.3835187541159
 32
0.0
 13
37.36300377856232
 23
155.3835187541159
 33
0.0
  0
SOLID
  5
100
  8
1__PRINTING_LAYERS_____1_3
 62
   254
 10
37.36300377856232
 20
155.3835187541159
 30
0.0
 11
35.79116228578988
 21
200.5853007581759
 31
0.0
 12
37.36300377856232
 22
201.7015927931614
 32
0.0
 13
37.36300377856232
 23
201.7015927931614
 33
0.0
  0
SOLID
  5
101
  8
1__PRINTING_LAYERS_____1_3
 62
   254
 10
37.36300377856234
 20
78.29840720683855
 30
0.0
 11
37.36300377856234
 21
124.6164812458841
 31
0.0
 12
38.95926849611429
 22
77.22533665860115
 32
0.0
 13
38.95926849611429
 23
77.22533665860115
 33
0.0
  0
SOLID
  5
102
  8
1__PRINTING_LAYERS_____1_3
 62
   254
 10
38.95926849611429
 20
77.22533665860115
 30
0.0
 11
37.36300377856234
 21
124.6164812458841
 31
0.0
 12
38.95926849611429
 22
123.6948773815075
 32
0.0
 13
38.95926849611429
 23
123.6948773815075
 33
0.0
  0
SOLID
  5
103
  8
1__PRINTING_LAYERS_____1_3
 62
   254
 10
37.36300377856234
 20
155.3835187541159
 30
0.0
 11
37.36300377856234
 21
201.7015927931614
 31
0.0
 12
38.95926849611429
 22
156.3051226184924
 32
0.0
 13
38.95926849611429
 23
156.3051226184924
 33
0.0
  0
SOLID
  5
104
  8
1__PRINTING_LAYERS_____1_3
 62
   254
 10
38.95926849611429
 20
156.3051226184924
 30
0.0
 11
37.36300377856234
 21
201.7015927931614
 31
0.0
 12
38.95926849611429
 22
202.7746633413988
 32
0.0
 13
38.95926849611429
 23
202.7746633413988
 33
0.0
  0
SOLID
  5
105
  8
1__PRINTING_LAYERS_____1_3
 62
   254
 10
38.9592684961143
 20
77.22533665860115
 30
0.0
 11
38.9592684961143
 21
123.6948773815075
 31
0.0
 12
40.57819150417689
 22
76.19623040196883
 32
0.0
 13
40.57819150417689
 23
76.19623040196883
 33
0.0
  0
SOLID
  5
106
  8
1__PRINTING_LAYERS_____1_3
 62
   254
 10
40.57819150417689
 20
76.19623040196883
 30
0.0
 11
38.9592684961143
 21
123.6948773815075
 31
0.0
 12
40.57819150417689
 22
122.7601917470053
 32
0.0
 13
40.57819150417689
 23
122.7601917470053
 33
0.0
  0
SOLID
  5
107
  8
1__PRINTING_LAYERS_____1_3
 62
   254
 10
38.9592684961143
 20
156.3051226184924
 30
0.0
 11
38.9592684961143
 21
202.7746633413988
 31
0.0
 12
40.57819150417689
 22
157.2398082529947
 32
0.0
 13
40.57819150417689
 23
157.2398082529947
 33
0.0
  0
SOLID
  5
108
  8
1__PRINTING_LAYERS_____1_3
 62
   254
 10
40.57819150417689
 20
157.2398082529947
 30
0.0
 11
38.9592684961143
 21
202.7746633413988
 31
0.0
 12
40.57819150417689
 22
203.8037695980312
 32
0.0
 13
40.57819150417689
 23
203.8037695980312
 33
0.0
  0
SOLID
  5
109
  8
1__PRINTING_LAYERS_____1_3
 62
   254
 10
40.57819150417689
 20
76.19623040196883
 30
0.0
 11
40.57819150417689
 21
122.7601917470053
 31
0.0
 12
42.21798167606364
 22
75.21173646894263
 32
0.0
 13
42.21798167606364
 23
75.21173646894263
 33
0.0
  0
SOLID
  5
10A
  8
1__PRINTING_LAYERS_____1_3
 62
   254
 10
42.21798167606364
 20
75.21173646894263
 30
0.0
 11
40.57819150417689
 21
122.7601917470053
 31
0.0
 12
42.21798167606364
 22
121.813458449852
 32
0.0
 13
42.21798167606364
 23
121.813458449852
 33
0.0
  0
SOLID
  5
10B
  8
1__PRINTING_LAYERS_____1_3
 62
   254
 10
40.57819150417689
 20
157.2398082529947
 30
0.0
 11
40.57819150417689
 21
203.8037695980312
 31
0.0
 12
42.21798167606364
 22
158.186541550148
 32
0.0
 13
42.21798167606364
 23
158.186541550148
 33
0.0
  0
SOLID
  5
10C
  8
1__PRINTING_LAYERS_____1_3
 62
   254
 10
42.21798167606364
 20
158.186541550148
 30
0.0
 11
40.57819150417689
 21
203.8037695980312
 31
0.0
 12
42.21798167606364
 22
204.7882635310574
 32
0.0
 13
42.21798167606364
 23
204.7882635310574
 33
0.0
  0
SOLID
  5
10D
  8
1__PRINTING_LAYERS_____1_3
 62
   254
 10
42.21798167606366
 20
75.21173646894262
 30
0.0
 11
42.21798167606366
 21
121.813458449852
 31
0.0
 12
43.87682794114427
 22
74.27240731316638
 32
0.0
 13
43.87682794114427
 23
74.27240731316638
 33
0.0
  0
SOLID
  5
10E
  8
1__PRINTING_LAYERS_____1_3
 62
   254
 10
43.87682794114427
 20
74.27240731316638
 30
0.0
 11
42.21798167606366
 21
121.813458449852
 31
0.0
 12
43.87682794114427
 22
120.8557231121635
 32
0.0
 13
43.87682794114427
 23
120.8557231121635
 33
0.0
  0
SOLID
  5
10F
  8
1__PRINTING_LAYERS_____1_3
 62
   254
 10
42.21798167606366
 20
158.186541550148
 30
0.0
 11
42.21798167606366
 21
204.7882635310574
 31
0.0
 12
43.87682794114427
 22
159.1442768878365
 32
0.0
 13
43.87682794114427
 23
159.1442768878365
 33
0.0
  0
SOLID
  5
110
  8
1__PRINTING_LAYERS_____1_3
 62
   254
 10
43.87682794114427
 20
159.1442768878365
 30
0.0
 11
42.21798167606366
 21
204.7882635310574
 31
0.0
 12
43.87682794114427
 22
205.7275926868336
 32
0.0
 13
43.87682794114427
 23
205.7275926868336
 33
0.0
  0
SOLID
  5
111
  8
1__PRINTING_LAYERS_____1_3
 62
   254
 10
43.87682794114429
 20
74.27240731316637
 30
0.0
 11
43.87682794114429
 21
120.8557231121635
 31
0.0
 12
45.35898384862236
 22
73.48210121453992
 32
0.0
 13
45.35898384862236
 23
73.48210121453992
 33
0.0
  0
SOLID
  5
112
  8
1__PRINTING_LAYERS_____1_3
 62
   254
 10
45.35898384862236
 20
73.48210121453992
 30
0.0
 11
43.87682794114429
 21
120.8557231121635
 31
0.0
 12
45.35898384862236
 22
120.0
 32
0.0
 13
45.35898384862236
 23
120.0
 33
0.0
  0
SOLID
  5
113
  8
1__PRINTING_LAYERS_____1_3
 62
   254
 10
43.87682794114429
 20
159.1442768878365
 30
0.0
 11
43.87682794114429
 21
205.7275926868336
 31
0.0
 12
45.35898384862236
 22
159.9999999999999
 32
0.0
 13
45.35898384862236
 23
159.9999999999999
 33
0.0
  0
SOLID
  5
114
  8
1__PRINTING_LAYERS_____1_3
 62
   254
 10
45.35898384862236
 20
159.9999999999999
 30
0.0
 11
43.87682794114429
 21
205.7275926868336
 31
0.0
 12
45.35898384862236
 22
206.5178987854601
 32
0.0
 13
45.35898384862236
 23
206.5178987854601
 33
0.0
  0
SOLID
  5
115
  8
1__PRINTING_LAYERS_____1_3
 62
   254
 10
45.35898384862247
 20
73.48210121453985
 30
0.0
 11
45.35898384862247
 21
99.99999999999993
 31
0.0
 12
45.55290552079974
 22
73.37869948776854
 32
0.0
 13
45.55290552079974
 23
73.37869948776854
 33
0.0
  0
SOLID
  5
116
  8
1__PRINTING_LAYERS_____1_3
 62
   254
 10
45.55290552079974
 20
73.37869948776854
 30
0.0
 11
45.35898384862247
 21
99.99999999999993
 31
0.0
 12
45.55290552079974
 22
99.88803927036669
 32
0.0
 13
45.55290552079974
 23
99.88803927036669
 33
0.0
  0
SOLID
  5
117
  8
1__PRINTING_LAYERS_____1_3
 62
   254
 10
45.35898384862247
 20
180.0
 30
0.0
 11
45.35898384862247
 21
206.5178987854601
 31
0.0
 12
45.55290552079974
 22
180.1119607296332
 32
0.0
 13
45.55290552079974
 23
180.1119607296332
 33
0.0
  0
SOLID
  5
118
  8
1__PRINTING_LAYERS_____1_3
 62
   254
 10
45.55290552079974
 20
180.1119607296332
 30
0.0
 11
45.35898384862247
 21
206.5178987854601
 31
0.0
 12
45.55290552079974
 22
206.6213005122315
 32
0.0
 13
45.55290552079974
 23
206.6213005122315
 33
0.0
  0
SOLID
  5
119
  8
1__PRINTING_LAYERS_____1_3
 62
   254
 10
45.55290552079975
 20
73.37869948776853
 30
0.0
 11
45.55290552079975
 21
99.88803927036668
 31
0.0
 12
47.24438210945523
 22
72.5309737982782
 32
0.0
 13
47.24438210945523
 23
72.5309737982782
 33
0.0
  0
SOLID
  5
11A
  8
1__PRINTING_LAYERS_____1_3
 62
   254
 10
47.24438210945523
 20
72.5309737982782
 30
0.0
 11
45.55290552079975
 21
99.88803927036668
 31
0.0
 12
47.24438210945523
 22
98.9114648065785
 32
0.0
 13
47.24438210945523
 23
98.9114648065785
 33
0.0
  0
SOLID
  5
11B
  8
1__PRINTING_LAYERS_____1_3
 62
   254
 10
45.55290552079975
 20
180.1119607296333
 30
0.0
 11
45.55290552079975
 21
206.6213005122315
 31
0.0
 12
47.24438210945523
 22
181.0885351934214
 32
0.0
 13
47.24438210945523
 23
181.0885351934214
 33
0.0
  0
SOLID
  5
11C
  8
1__PRINTING_LAYERS_____1_3
 62
   254
 10
47.24438210945523
 20
181.0885351934214
 30
0.0
 11
45.55290552079975
 21
206.6213005122315
 31
0.0
 12
47.24438210945523
 22
207.4690262017218
 32
0.0
 13
47.24438210945523
 23
207.4690262017218
 33
0.0
  0
SOLID
  5
11D
  8
1__PRINTING_LAYERS_____1_3
 62
   254
 10
47.24438210945524
 20
72.5309737982782
 30
0.0
 11
47.24438210945524
 21
98.91146480657848
 31
0.0
 12
48.94942395988652
 22
71.7294959182435
 32
0.0
 13
48.94942395988652
 23
71.7294959182435
 33
0.0
  0
SOLID
  5
11E
  8
1__PRINTING_LAYERS_____1_3
 62
   254
 10
48.94942395988652
 20
71.7294959182435
 30
0.0
 11
47.24438210945524
 21
98.91146480657848
 31
0.0
 12
48.94942395988652
 22
97.9270584352524
 32
0.0
 13
48.94942395988652
 23
97.9270584352524
 33
0.0
  0
SOLID
  5
11F
  8
1__PRINTING_LAYERS_____1_3
 62
   254
 10
47.24438210945524
 20
181.0885351934214
 30
0.0
 11
47.24438210945524
 21
207.4690262017218
 31
0.0
 12
48.94942395988652
 22
182.0729415647475
 32
0.0
 13
48.94942395988652
 23
182.0729415647475
 33
0.0
  0
SOLID
  5
120
  8
1__PRINTING_LAYERS_____1_3
 62
   254
 10
48.94942395988652
 20
182.0729415647475
 30
0.0
 11
47.24438210945524
 21
207.4690262017218
 31
0.0
 12
48.94942395988652
 22
208.2705040817565
 32
0.0
 13
48.94942395988652
 23
208.2705040817565
 33
0.0
  0
SOLID
  5
121
  8
1__PRINTING_LAYERS_____1_3
 62
   254
 10
48.94942395988654
 20
71.72949591824349
 30
0.0
 11
48.94942395988654
 21
97.92705843525239
 31
0.0
 12
50.66620183402087
 22
70.97443745134994
 32
0.0
 13
50.66620183402087
 23
70.97443745134994
 33
0.0
  0
SOLID
  5
122
  8
1__PRINTING_LAYERS_____1_3
 62
   254
 10
50.66620183402087
 20
70.97443745134994
 30
0.0
 11
48.94942395988654
 21
97.92705843525239
 31
0.0
 12
50.66620183402087
 22
96.93587626748213
 32
0.0
 13
50.66620183402087
 23
96.93587626748213
 33
0.0
  0
SOLID
  5
123
  8
1__PRINTING_LAYERS_____1_3
 62
   254
 10
48.94942395988654
 20
182.0729415647475
 30
0.0
 11
48.94942395988654
 21
208.2705040817565
 31
0.0
 12
50.66620183402087
 22
183.0641237325178
 32
0.0
 13
50.66620183402087
 23
183.0641237325178
 33
0.0
  0
SOLID
  5
124
  8
1__PRINTING_LAYERS_____1_3
 62
   254
 10
50.66620183402087
 20
183.0641237325178
 30
0.0
 11
48.94942395988654
 21
208.2705040817565
 31
0.0
 12
50.66620183402087
 22
209.0255625486501
 32
0.0
 13
50.66620183402087
 23
209.0255625486501
 33
0.0
  0
SOLID
  5
125
  8
1__PRINTING_LAYERS_____1_3
 62
   254
 10
50.66620183402089
 20
70.97443745134994
 30
0.0
 11
50.66620183402089
 21
96.93587626748213
 31
0.0
 12
52.39289678285953
 22
70.26587742031774
 32
0.0
 13
52.39289678285953
 23
70.26587742031774
 33
0.0
  0
SOLID
  5
126
  8
1__PRINTING_LAYERS_____1_3
 62
   254
 10
52.39289678285953
 20
70.26587742031774
 30
0.0
 11
50.66620183402089
 21
96.93587626748213
 31
0.0
 12
52.39289678285953
 22
95.93896847396176
 32
0.0
 13
52.39289678285953
 23
95.93896847396176
 33
0.0
  0
SOLID
  5
127
  8
1__PRINTING_LAYERS_____1_3
 62
   254
 10
50.66620183402089
 20
183.0641237325178
 30
0.0
 11
50.66620183402089
 21
209.0255625486501
 31
0.0
 12
52.39289678285953
 22
184.0610315260382
 32
0.0
 13
52.39289678285953
 23
184.0610315260382
 33
0.0
  0
SOLID
  5
128
  8
1__PRINTING_LAYERS_____1_3
 62
   254
 10
52.39289678285953
 20
184.0610315260382
 30
0.0
 11
50.66620183402089
 21
209.0255625486501
 31
0.0
 12
52.39289678285953
 22
209.7341225796823
 32
0.0
 13
52.39289678285953
 23
209.7341225796823
 33
0.0
  0
SOLID
  5
129
  8
1__PRINTING_LAYERS_____1_3
 62
   254
 10
52.39289678285954
 20
70.26587742031774
 30
0.0
 11
52.39289678285954
 21
95.93896847396176
 31
0.0
 12
54.12770572188755
 22
69.60380415969375
 32
0.0
 13
54.12770572188755
 23
69.60380415969375
 33
0.0
  0
SOLID
  5
12A
  8
1__PRINTING_LAYERS_____1_3
 62
   254
 10
54.12770572188755
 20
69.60380415969375
 30
0.0
 11
52.39289678285954
 21
95.93896847396176
 31
0.0
 12
54.12770572188755
 22
94.93737606602137
 32
0.0
 13
54.12770572188755
 23
94.93737606602137
 33
0.0
  0
SOLID
  5
12B
  8
1__PRINTING_LAYERS_____1_3
 62
   254
 10
52.39289678285954
 20
184.0610315260382
 30
0.0
 11
52.39289678285954
 21
209.7341225796823
 31
0.0
 12
54.12770572188755
 22
185.0626239339786
 32
0.0
 13
54.12770572188755
 23
185.0626239339786
 33
0.0
  0
SOLID
  5
12C
  8
1__PRINTING_LAYERS_____1_3
 62
   254
 10
54.12770572188755
 20
185.0626239339786
 30
0.0
 11
52.39289678285954
 21
209.7341225796823
 31
0.0
 12
54.12770572188755
 22
210.3961958403062
 32
0.0
 13
54.12770572188755
 23
210.3961958403062
 33
0.0
  0
SOLID
  5
12D
  8
1__PRINTING_LAYERS_____1_3
 62
   254
 10
54.12770572188757
 20
69.60380415969374
 30
0.0
 11
54.12770572188757
 21
94.93737606602136
 31
0.0
 12
55.86884677135406
 22
68.98811758687415
 32
0.0
 13
55.86884677135406
 23
68.98811758687415
 33
0.0
  0
SOLID
  5
12E
  8
1__PRINTING_LAYERS_____1_3
 62
   254
 10
55.86884677135406
 20
68.98811758687415
 30
0.0
 11
54.12770572188757
 21
94.93737606602136
 31
0.0
 12
55.86884677135406
 22
93.93212781241478
 32
0.0
 13
55.86884677135406
 23
93.93212781241478
 33
0.0
  0
SOLID
  5
12F
  8
1__PRINTING_LAYERS_____1_3
 62
   254
 10
54.12770572188757
 20
185.0626239339786
 30
0.0
 11
54.12770572188757
 21
210.3961958403062
 31
0.0
 12
55.86884677135406
 22
186.0678721875852
 32
0.0
 13
55.86884677135406
 23
186.0678721875852
 33
0.0
  0
SOLID
  5
130
  8
1__PRINTING_LAYERS_____1_3
 62
   254
 10
55.86884677135406
 20
186.0678721875852
 30
0.0
 11
54.12770572188757
 21
210.3961958403062
 31
0.0
 12
55.86884677135406
 22
211.0118824131258
 32
0.0
 13
55.86884677135406
 23
211.0118824131258
 33
0.0
  0
SOLID
  5
131
  8
1__PRINTING_LAYERS_____1_3
 62
   254
 10
55.86884677135407
 20
68.98811758687415
 30
0.0
 11
55.86884677135407
 21
93.93212781241476
 31
0.0
 12
57.61456433404722
 22
68.41863182331947
 32
0.0
 13
57.61456433404722
 23
68.41863182331947
 33
0.0
  0
SOLID
  5
132
  8
1__PRINTING_LAYERS_____1_3
 62
   254
 10
57.61456433404722
 20
68.41863182331947
 30
0.0
 11
55.86884677135407
 21
93.93212781241476
 31
0.0
 12
57.61456433404722
 22
92.92423730766481
 32
0.0
 13
57.61456433404722
 23
92.92423730766481
 33
0.0
  0
SOLID
  5
133
  8
1__PRINTING_LAYERS_____1_3
 62
   254
 10
55.86884677135407
 20
186.0678721875852
 30
0.0
 11
55.86884677135407
 21
211.0118824131258
 31
0.0
 12
57.61456433404722
 22
187.0757626923351
 32
0.0
 13
57.61456433404722
 23
187.0757626923351
 33
0.0
  0
SOLID
  5
134
  8
1__PRINTING_LAYERS_____1_3
 62
   254
 10
57.61456433404722
 20
187.0757626923351
 30
0.0
 11
55.86884677135407
 21
211.0118824131258
 31
0.0
 12
57.61456433404722
 22
211.5813681766805
 32
0.0
 13
57.61456433404722
 23
211.5813681766805
 33
0.0
  0
SOLID
  5
135
  8
1__PRINTING_LAYERS_____1_3
 62
   254
 10
57.61456433404724
 20
68.41863182331947
 30
0.0
 11
57.61456433404724
 21
92.9242373076648
 31
0.0
 12
59.36313388659728
 22
67.89507813597264
 32
0.0
 13
59.36313388659728
 23
67.89507813597264
 33
0.0
  0
SOLID
  5
136
  8
1__PRINTING_LAYERS_____1_3
 62
   254
 10
59.36313388659728
 20
67.89507813597264
 30
0.0
 11
57.61456433404724
 21
92.9242373076648
 31
0.0
 12
59.36313388659728
 22
91.91470020580324
 32
0.0
 13
59.36313388659728
 23
91.91470020580324
 33
0.0
  0
SOLID
  5
137
  8
1__PRINTING_LAYERS_____1_3
 62
   254
 10
57.61456433404724
 20
187.0757626923351
 30
0.0
 11
57.61456433404724
 21
211.5813681766805
 31
0.0
 12
59.36313388659728
 22
188.0852997941967
 32
0.0
 13
59.36313388659728
 23
188.0852997941967
 33
0.0
  0
SOLID
  5
138
  8
1__PRINTING_LAYERS_____1_3
 62
   254
 10
59.36313388659728
 20
188.0852997941967
 30
0.0
 11
57.61456433404724
 21
211.5813681766805
 31
0.0
 12
59.36313388659728
 22
212.1049218640274
 32
0.0
 13
59.36313388659728
 23
212.1049218640274
 33
0.0
  0
SOLID
  5
139
  8
1__PRINTING_LAYERS_____1_3
 62
   254
 10
59.3631338865973
 20
67.89507813597264
 30
0.0
 11
59.3631338865973
 21
91.91470020580324
 31
0.0
 12
61.11286646386091
 22
67.41710816736462
 32
0.0
 13
61.11286646386091
 23
67.41710816736462
 33
0.0
  0
SOLID
  5
13A
  8
1__PRINTING_LAYERS_____1_3
 62
   254
 10
61.11286646386091
 20
67.41710816736462
 30
0.0
 11
59.3631338865973
 21
91.91470020580324
 31
0.0
 12
61.11286646386091
 22
90.90449163131024
 32
0.0
 13
61.11286646386091
 23
90.90449163131024
 33
0.0
  0
SOLID
  5
13B
  8
1__PRINTING_LAYERS_____1_3
 62
   254
 10
59.3631338865973
 20
188.0852997941967
 30
0.0
 11
59.3631338865973
 21
212.1049218640274
 31
0.0
 12
61.11286646386091
 22
189.0955083686897
 32
0.0
 13
61.11286646386091
 23
189.0955083686897
 33
0.0
  0
SOLID
  5
13C
  8
1__PRINTING_LAYERS_____1_3
 62
   254
 10
61.11286646386091
 20
189.0955083686897
 30
0.0
 11
59.3631338865973
 21
212.1049218640274
 31
0.0
 12
61.11286646386091
 22
212.5828918326355
 32
0.0
 13
61.11286646386091
 23
212.5828918326355
 33
0.0
  0
SOLID
  5
13D
  8
1__PRINTING_LAYERS_____1_3
 62
   254
 10
61.11286646386093
 20
67.41710816736462
 30
0.0
 11
61.11286646386093
 21
90.90449163131022
 31
0.0
 12
62.67949192431109
 22
67.02948275864223
 32
0.0
 13
62.67949192431109
 23
67.02948275864223
 33
0.0
  0
SOLID
  5
13E
  8
1__PRINTING_LAYERS_____1_3
 62
   254
 10
62.67949192431109
 20
67.02948275864223
 30
0.0
 11
61.11286646386093
 21
90.90449163131022
 31
0.0
 12
62.67949192431109
 22
90.0
 32
0.0
 13
62.67949192431109
 23
90.0
 33
0.0
  0
SOLID
  5
13F
  8
1__PRINTING_LAYERS_____1_3
 62
   254
 10
61.11286646386093
 20
189.0955083686897
 30
0.0
 11
61.11286646386093
 21
212.5828918326355
 31
0.0
 12
62.67949192431109
 22
189.9999999999999
 32
0.0
 13
62.67949192431109
 23
189.9999999999999
 33
0.0
  0
SOLID
  5
140
  8
1__PRINTING_LAYERS_____1_3
 62
   254
 10
62.67949192431109
 20
189.9999999999999
 30
0.0
 11
61.11286646386093
 21
212.5828918326355
 31
0.0
 12
62.67949192431109
 22
212.9705172413578
 32
0.0
 13
62.67949192431109
 23
212.9705172413578
 33
0.0
  0
SOLID
  5
141
  8
1__PRINTING_LAYERS_____1_3
 62
   254
 10
62.67949192431126
 20
67.02948275864219
 30
0.0
 11
62.67949192431126
 21
90.0000000000001
 31
0.0
 12
62.86211281951653
 22
66.98429742179412
 32
0.0
 13
62.86211281951653
 23
66.98429742179412
 33
0.0
  0
SOLID
  5
142
  8
1__PRINTING_LAYERS_____1_3
 62
   254
 10
62.86211281951653
 20
66.98429742179412
 30
0.0
 11
62.67949192431126
 21
90.0000000000001
 31
0.0
 12
62.86211281951653
 22
90.10543622300652
 32
0.0
 13
62.86211281951653
 23
90.10543622300652
 33
0.0
  0
SOLID
  5
143
  8
1__PRINTING_LAYERS_____1_3
 62
   254
 10
62.67949192431126
 20
190.0
 30
0.0
 11
62.67949192431126
 21
212.9705172413578
 31
0.0
 12
62.86211281951653
 22
189.8945637769936
 32
0.0
 13
62.86211281951653
 23
189.8945637769936
 33
0.0
  0
SOLID
  5
144
  8
1__PRINTING_LAYERS_____1_3
 62
   254
 10
62.86211281951653
 20
189.8945637769936
 30
0.0
 11
62.67949192431126
 21
212.9705172413578
 31
0.0
 12
62.86211281951653
 22
213.0157025782059
 32
0.0
 13
62.86211281951653
 23
213.0157025782059
 33
0.0
  0
SOLID
  5
145
  8
1__PRINTING_LAYERS_____1_3
 62
   254
 10
62.86211281951655
 20
66.98429742179412
 30
0.0
 11
62.86211281951655
 21
90.10543622300652
 31
0.0
 12
64.6092672495807
 22
66.5961489742863
 32
0.0
 13
64.6092672495807
 23
66.5961489742863
 33
0.0
  0
SOLID
  5
146
  8
1__PRINTING_LAYERS_____1_3
 62
   254
 10
64.6092672495807
 20
66.5961489742863
 30
0.0
 11
62.86211281951655
 21
90.10543622300652
 31
0.0
 12
64.6092672495807
 22
91.1141563035199
 32
0.0
 13
64.6092672495807
 23
91.1141563035199
 33
0.0
  0
SOLID
  5
147
  8
1__PRINTING_LAYERS_____1_3
 62
   254
 10
62.86211281951655
 20
189.8945637769936
 30
0.0
 11
62.86211281951655
 21
213.0157025782059
 31
0.0
 12
64.6092672495807
 22
188.8858436964802
 32
0.0
 13
64.6092672495807
 23
188.8858436964802
 33
0.0
  0
SOLID
  5
148
  8
1__PRINTING_LAYERS_____1_3
 62
   254
 10
64.6092672495807
 20
188.8858436964802
 30
0.0
 11
62.86211281951655
 21
213.0157025782059
 31
0.0
 12
64.6092672495807
 22
213.4038510257137
 32
0.0
 13
64.6092672495807
 23
213.4038510257137
 33
0.0
  0
SOLID
  5
149
  8
1__PRINTING_LAYERS_____1_3
 62
   254
 10
64.60926724958071
 20
66.5961489742863
 30
0.0
 11
64.60926724958071
 21
91.11415630351992
 31
0.0
 12
66.35277106908913
 22
66.25209736875692
 32
0.0
 13
66.35277106908913
 23
66.25209736875692
 33
0.0
  0
SOLID
  5
14A
  8
1__PRINTING_LAYERS_____1_3
 62
   254
 10
66.35277106908913
 20
66.25209736875692
 30
0.0
 11
64.60926724958071
 21
91.11415630351992
 31
0.0
 12
66.35277106908913
 22
92.12076870304624
 32
0.0
 13
66.35277106908913
 23
92.12076870304624
 33
0.0
  0
SOLID
  5
14B
  8
1__PRINTING_LAYERS_____1_3
 62
   254
 10
64.60926724958071
 20
188.8858436964802
 30
0.0
 11
64.60926724958071
 21
213.4038510257137
 31
0.0
 12
66.35277106908913
 22
187.8792312969539
 32
0.0
 13
66.35277106908913
 23
187.8792312969539
 33
0.0
  0
SOLID
  5
14C
  8
1__PRINTING_LAYERS_____1_3
 62
   254
 10
66.35277106908913
 20
187.8792312969539
 30
0.0
 11
64.60926724958071
 21
213.4038510257137
 31
0.0
 12
66.35277106908913
 22
213.7479026312431
 32
0.0
 13
66.35277106908913
 23
213.7479026312431
 33
0.0
  0
SOLID
  5
14D
  8
1__PRINTING_LAYERS_____1_3
 62
   254
 10
66.35277106908914
 20
66.25209736875692
 30
0.0
 11
66.35277106908914
 21
92.12076870304625
 31
0.0
 12
68.09111573562983
 22
65.95151267191315
 32
0.0
 13
68.09111573562983
 23
65.95151267191315
 33
0.0
  0
SOLID
  5
14E
  8
1__PRINTING_LAYERS_____1_3
 62
   254
 10
68.09111573562983
 20
65.95151267191315
 30
0.0
 11
66.35277106908914
 21
92.12076870304625
 31
0.0
 12
68.09111573562983
 22
93.12440246421787
 32
0.0
 13
68.09111573562983
 23
93.12440246421787
 33
0.0
  0
SOLID
  5
14F
  8
1__PRINTING_LAYERS_____1_3
 62
   254
 10
66.35277106908914
 20
187.8792312969539
 30
0.0
 11
66.35277106908914
 21
213.7479026312431
 31
0.0
 12
68.09111573562983
 22
186.8755975357822
 32
0.0
 13
68.09111573562983
 23
186.8755975357822
 33
0.0
  0
SOLID
  5
150
  8
1__PRINTING_LAYERS_____1_3
 62
   254
 10
68.09111573562983
 20
186.8755975357822
 30
0.0
 11
66.35277106908914
 21
213.7479026312431
 31
0.0
 12
68.09111573562983
 22
214.0484873280868
 32
0.0
 13
68.09111573562983
 23
214.0484873280868
 33
0.0
  0
SOLID
  5
151
  8
1__PRINTING_LAYERS_____1_3
 62
   254
 10
68.09111573562984
 20
65.95151267191315
 30
0.0
 11
68.09111573562984
 21
93.12440246421787
 31
0.0
 12
69.82284561672606
 22
65.69370464988172
 32
0.0
 13
69.82284561672606
 23
65.69370464988172
 33
0.0
  0
SOLID
  5
152
  8
1__PRINTING_LAYERS_____1_3
 62
   254
 10
69.82284561672606
 20
65.69370464988172
 30
0.0
 11
68.09111573562984
 21
93.12440246421787
 31
0.0
 12
69.82284561672606
 22
94.12421717723248
 32
0.0
 13
69.82284561672606
 23
94.12421717723248
 33
0.0
  0
SOLID
  5
153
  8
1__PRINTING_LAYERS_____1_3
 62
   254
 10
68.09111573562984
 20
186.8755975357822
 30
0.0
 11
68.09111573562984
 21
214.0484873280868
 31
0.0
 12
69.82284561672606
 22
185.8757828227676
 32
0.0
 13
69.82284561672606
 23
185.8757828227676
 33
0.0
  0
SOLID
  5
154
  8
1__PRINTING_LAYERS_____1_3
 62
   254
 10
69.82284561672606
 20
185.8757828227676
 30
0.0
 11
68.09111573562984
 21
214.0484873280868
 31
0.0
 12
69.82284561672606
 22
214.3062953501183
 32
0.0
 13
69.82284561672606
 23
214.3062953501183
 33
0.0
  0
SOLID
  5
155
  8
1__PRINTING_LAYERS_____1_3
 62
   254
 10
69.82284561672606
 20
65.69370464988172
 30
0.0
 11
69.82284561672606
 21
94.12421717723248
 31
0.0
 12
71.54656040120989
 22
65.47792703534336
 32
0.0
 13
71.54656040120989
 23
65.47792703534336
 33
0.0
  0
SOLID
  5
156
  8
1__PRINTING_LAYERS_____1_3
 62
   254
 10
71.54656040120989
 20
65.47792703534336
 30
0.0
 11
69.82284561672606
 21
94.12421717723248
 31
0.0
 12
71.54656040120989
 22
95.11940437206036
 32
0.0
 13
71.54656040120989
 23
95.11940437206036
 33
0.0
  0
SOLID
  5
157
  8
1__PRINTING_LAYERS_____1_3
 62
   254
 10
69.82284561672606
 20
185.8757828227676
 30
0.0
 11
69.82284561672606
 21
214.3062953501183
 31
0.0
 12
71.54656040120989
 22
184.8805956279397
 32
0.0
 13
71.54656040120989
 23
184.8805956279397
 33
0.0
  0
SOLID
  5
158
  8
1__PRINTING_LAYERS_____1_3
 62
   254
 10
71.54656040120989
 20
184.8805956279397
 30
0.0
 11
69.82284561672606
 21
214.3062953501183
 31
0.0
 12
71.54656040120989
 22
214.5220729646566
 32
0.0
 13
71.54656040120989
 23
214.5220729646566
 33
0.0
  0
SOLID
  5
159
  8
1__PRINTING_LAYERS_____1_3
 62
   254
 10
71.5465604012099
 20
65.47792703534336
 30
0.0
 11
71.5465604012099
 21
95.11940437206037
 31
0.0
 12
73.26091715767213
 22
65.30338185403409
 32
0.0
 13
73.26091715767213
 23
65.30338185403409
 33
0.0
  0
SOLID
  5
15A
  8
1__PRINTING_LAYERS_____1_3
 62
   254
 10
73.26091715767213
 20
65.30338185403409
 30
0.0
 11
71.5465604012099
 21
95.11940437206037
 31
0.0
 12
73.26091715767213
 22
96.10918870689089
 32
0.0
 13
73.26091715767213
 23
96.10918870689089
 33
0.0
  0
SOLID
  5
15B
  8
1__PRINTING_LAYERS_____1_3
 62
   254
 10
71.5465604012099
 20
184.8805956279397
 30
0.0
 11
71.5465604012099
 21
214.5220729646566
 31
0.0
 12
73.26091715767213
 22
183.8908112931092
 32
0.0
 13
73.26091715767213
 23
183.8908112931092
 33
0.0
  0
SOLID
  5
15C
  8
1__PRINTING_LAYERS_____1_3
 62
   254
 10
73.26091715767213
 20
183.8908112931092
 30
0.0
 11
71.5465604012099
 21
214.5220729646566
 31
0.0
 12
73.26091715767213
 22
214.6966181459659
 32
0.0
 13
73.26091715767213
 23
214.6966181459659
 33
0.0
  0
SOLID
  5
15D
  8
1__PRINTING_LAYERS_____1_3
 62
   254
 10
73.26091715767214
 20
65.30338185403409
 30
0.0
 11
73.26091715767214
 21
96.10918870689089
 31
0.0
 12
74.96463204579466
 22
65.16922378081487
 32
0.0
 13
74.96463204579466
 23
65.16922378081487
 33
0.0
  0
SOLID
  5
15E
  8
1__PRINTING_LAYERS_____1_3
 62
   254
 10
74.96463204579466
 20
65.16922378081487
 30
0.0
 11
73.26091715767214
 21
96.10918870689089
 31
0.0
 12
74.96463204579466
 22
97.0928289561708
 32
0.0
 13
74.96463204579466
 23
97.0928289561708
 33
0.0
  0
SOLID
  5
15F
  8
1__PRINTING_LAYERS_____1_3
 62
   254
 10
73.26091715767214
 20
183.8908112931092
 30
0.0
 11
73.26091715767214
 21
214.6966181459659
 31
0.0
 12
74.96463204579466
 22
182.9071710438293
 32
0.0
 13
74.96463204579466
 23
182.9071710438293
 33
0.0
  0
SOLID
  5
160
  8
1__PRINTING_LAYERS_____1_3
 62
   254
 10
74.96463204579466
 20
182.9071710438293
 30
0.0
 11
73.26091715767214
 21
214.6966181459659
 31
0.0
 12
74.96463204579466
 22
214.8307762191851
 32
0.0
 13
74.96463204579466
 23
214.8307762191851
 33
0.0
  0
SOLID
  5
161
  8
1__PRINTING_LAYERS_____1_3
 62
   254
 10
74.96463204579467
 20
65.16922378081487
 30
0.0
 11
74.96463204579467
 21
97.0928289561708
 31
0.0
 12
76.65648168885063
 22
65.07456449707476
 32
0.0
 13
76.65648168885063
 23
65.07456449707476
 33
0.0
  0
SOLID
  5
162
  8
1__PRINTING_LAYERS_____1_3
 62
   254
 10
76.65648168885063
 20
65.07456449707476
 30
0.0
 11
74.96463204579467
 21
97.0928289561708
 31
0.0
 12
76.65648168885063
 22
98.06961880301753
 32
0.0
 13
76.65648168885063
 23
98.06961880301753
 33
0.0
  0
SOLID
  5
163
  8
1__PRINTING_LAYERS_____1_3
 62
   254
 10
74.96463204579467
 20
182.9071710438293
 30
0.0
 11
74.96463204579467
 21
214.8307762191851
 31
0.0
 12
76.65648168885063
 22
181.9303811969826
 32
0.0
 13
76.65648168885063
 23
181.9303811969826
 33
0.0
  0
SOLID
  5
164
  8
1__PRINTING_LAYERS_____1_3
 62
   254
 10
76.65648168885063
 20
181.9303811969826
 30
0.0
 11
74.96463204579467
 21
214.8307762191851
 31
0.0
 12
76.65648168885063
 22
214.9254355029252
 32
0.0
 13
76.65648168885063
 23
214.9254355029252
 33
0.0
  0
SOLID
  5
165
  8
1__PRINTING_LAYERS_____1_3
 62
   254
 10
76.65648168885066
 20
65.07456449707476
 30
0.0
 11
76.65648168885066
 21
98.06961880301756
 31
0.0
 12
78.33530421787958
 22
65.0184770229826
 32
0.0
 13
78.33530421787958
 23
65.0184770229826
 33
0.0
  0
SOLID
  5
166
  8
1__PRINTING_LAYERS_____1_3
 62
   254
 10
78.33530421787958
 20
65.0184770229826
 30
0.0
 11
76.65648168885066
 21
98.06961880301756
 31
0.0
 12
78.33530421787958
 22
99.03888744207401
 32
0.0
 13
78.33530421787958
 23
99.03888744207401
 33
0.0
  0
SOLID
  5
167
  8
1__PRINTING_LAYERS_____1_3
 62
   254
 10
76.65648168885066
 20
181.9303811969825
 30
0.0
 11
76.65648168885066
 21
214.9254355029252
 31
0.0
 12
78.33530421787958
 22
180.9611125579261
 32
0.0
 13
78.33530421787958
 23
180.9611125579261
 33
0.0
  0
SOLID
  5
168
  8
1__PRINTING_LAYERS_____1_3
 62
   254
 10
78.33530421787958
 20
180.9611125579261
 30
0.0
 11
76.65648168885066
 21
214.9254355029252
 31
0.0
 12
78.33530421787958
 22
214.9815229770174
 32
0.0
 13
78.33530421787958
 23
214.9815229770174
 33
0.0
  0
SOLID
  5
169
  8
1__PRINTING_LAYERS_____1_3
 62
   254
 10
78.33530421787961
 20
65.0184770229826
 30
0.0
 11
78.33530421787961
 21
99.03888744207403
 31
0.0
 12
79.99999999999999
 22
65.0
 32
0.0
 13
79.99999999999999
 23
65.0
 33
0.0
  0
SOLID
  5
16A
  8
1__PRINTING_LAYERS_____1_3
 62
   254
 10
79.99999999999999
 20
65.0
 30
0.0
 11
78.33530421787961
 21
99.03888744207403
 31
0.0
 12
79.99999999999999
 22
100.0
 32
0.0
 13
79.99999999999999
 23
100.0
 33
0.0
  0
SOLID
  5
16B
  8
1__PRINTING_LAYERS_____1_3
 62
   254
 10
78.33530421787961
 20
180.9611125579261
 30
0.0
 11
78.33530421787961
 21
214.9815229770174
 31
0.0
 12
79.99999999999999
 22
180.0
 32
0.0
 13
79.99999999999999
 23
180.0
 33
0.0
  0
SOLID
  5
16C
  8
1__PRINTING_LAYERS_____1_3
 62
   254
 10
79.99999999999999
 20
180.0
 30
0.0
 11
78.33530421787961
 21
214.9815229770174
 31
0.0
 12
79.99999999999999
 22
215.0
 32
0.0
 13
79.99999999999999
 23
215.0
 33
0.0
  0
SOLID
  5
16D
  8
1__PRINTING_LAYERS_____1_3
 62
   254
 10
80.0
 20
65.0
 30
0.0
 11
80.0
 21
99.99999999999993
 31
0.0
 12
81.66469578212039
 22
65.0184770229826
 32
0.0
 13
81.66469578212039
 23
65.0184770229826
 33
0.0
  0
SOLID
  5
16E
  8
1__PRINTING_LAYERS_____1_3
 62
   254
 10
81.66469578212039
 20
65.0184770229826
 30
0.0
 11
80.0
 21
99.99999999999993
 31
0.0
 12
81.66469578212039
 22
99.0388874420739
 32
0.0
 13
81.66469578212039
 23
99.0388874420739
 33
0.0
  0
SOLID
  5
16F
  8
1__PRINTING_LAYERS_____1_3
 62
   254
 10
80.0
 20
180.0
 30
0.0
 11
80.0
 21
215.0
 31
0.0
 12
81.66469578212039
 22
180.961112557926
 32
0.0
 13
81.66469578212039
 23
180.961112557926
 33
0.0
  0
SOLID
  5
170
  8
1__PRINTING_LAYERS_____1_3
 62
   254
 10
81.66469578212039
 20
180.961112557926
 30
0.0
 11
80.0
 21
215.0
 31
0.0
 12
81.66469578212039
 22
214.9815229770174
 32
0.0
 13
81.66469578212039
 23
214.9815229770174
 33
0.0
  0
SOLID
  5
171
  8
1__PRINTING_LAYERS_____1_3
 62
   254
 10
81.6646957821204
 20
65.0184770229826
 30
0.0
 11
81.6646957821204
 21
99.03888744207389
 31
0.0
 12
83.34351831114931
 22
65.07456449707476
 32
0.0
 13
83.34351831114931
 23
65.07456449707476
 33
0.0
  0
SOLID
  5
172
  8
1__PRINTING_LAYERS_____1_3
 62
   254
 10
83.34351831114931
 20
65.07456449707476
 30
0.0
 11
81.6646957821204
 21
99.03888744207389
 31
0.0
 12
83.34351831114931
 22
98.06961880301743
 32
0.0
 13
83.34351831114931
 23
98.06961880301743
 33
0.0
  0
SOLID
  5
173
  8
1__PRINTING_LAYERS_____1_3
 62
   254
 10
81.6646957821204
 20
180.961112557926
 30
0.0
 11
81.6646957821204
 21
214.9815229770174
 31
0.0
 12
83.34351831114931
 22
181.9303811969825
 32
0.0
 13
83.34351831114931
 23
181.9303811969825
 33
0.0
  0
SOLID
  5
174
  8
1__PRINTING_LAYERS_____1_3
 62
   254
 10
83.34351831114931
 20
181.9303811969825
 30
0.0
 11
81.6646957821204
 21
214.9815229770174
 31
0.0
 12
83.34351831114931
 22
214.9254355029252
 32
0.0
 13
83.34351831114931
 23
214.9254355029252
 33
0.0
  0
SOLID
  5
175
  8
1__PRINTING_LAYERS_____1_3
 62
   254
 10
83.34351831114932
 20
65.07456449707476
 30
0.0
 11
83.34351831114932
 21
98.06961880301743
 31
0.0
 12
85.03536795420534
 22
65.16922378081487
 32
0.0
 13
85.03536795420534
 23
65.16922378081487
 33
0.0
  0
SOLID
  5
176
  8
1__PRINTING_LAYERS_____1_3
 62
   254
 10
85.03536795420534
 20
65.16922378081487
 30
0.0
 11
83.34351831114932
 21
98.06961880301743
 31
0.0
 12
85.03536795420534
 22
97.09282895617066
 32
0.0
 13
85.03536795420534
 23
97.09282895617066
 33
0.0
  0
SOLID
  5
177
  8
1__PRINTING_LAYERS_____1_3
 62
   254
 10
83.34351831114932
 20
181.9303811969825
 30
0.0
 11
83.34351831114932
 21
214.9254355029252
 31
0.0
 12
85.03536795420534
 22
182.9071710438292
 32
0.0
 13
85.03536795420534
 23
182.9071710438292
 33
0.0
  0
SOLID
  5
178
  8
1__PRINTING_LAYERS_____1_3
 62
   254
 10
85.03536795420534
 20
182.9071710438292
 30
0.0
 11
83.34351831114932
 21
214.9254355029252
 31
0.0
 12
85.03536795420534
 22
214.8307762191851
 32
0.0
 13
85.03536795420534
 23
214.8307762191851
 33
0.0
  0
SOLID
  5
179
  8
1__PRINTING_LAYERS_____1_3
 62
   254
 10
85.03536795420534
 20
65.16922378081487
 30
0.0
 11
85.03536795420534
 21
97.09282895617066
 31
0.0
 12
86.73908284232783
 22
65.30338185403409
 32
0.0
 13
86.73908284232783
 23
65.30338185403409
 33
0.0
  0
SOLID
  5
17A
  8
1__PRINTING_LAYERS_____1_3
 62
   254
 10
86.73908284232783
 20
65.30338185403409
 30
0.0
 11
85.03536795420534
 21
97.09282895617066
 31
0.0
 12
86.73908284232783
 22
96.10918870689078
 32
0.0
 13
86.73908284232783
 23
96.10918870689078
 33
0.0
  0
SOLID
  5
17B
  8
1__PRINTING_LAYERS_____1_3
 62
   254
 10
85.03536795420534
 20
182.9071710438292
 30
0.0
 11
85.03536795420534
 21
214.8307762191851
 31
0.0
 12
86.73908284232783
 22
183.8908112931092
 32
0.0
 13
86.73908284232783
 23
183.8908112931092
 33
0.0
  0
SOLID
  5
17C
  8
1__PRINTING_LAYERS_____1_3
 62
   254
 10
86.73908284232783
 20
183.8908112931092
 30
0.0
 11
85.03536795420534
 21
214.8307762191851
 31
0.0
 12
86.73908284232783
 22
214.6966181459659
 32
0.0
 13
86.73908284232783
 23
214.6966181459659
 33
0.0
  0
SOLID
  5
17D
  8
1__PRINTING_LAYERS_____1_3
 62
   254
 10
86.73908284232783
 20
65.30338185403409
 30
0.0
 11
86.73908284232783
 21
96.10918870689078
 31
0.0
 12
88.45343959879007
 22
65.47792703534336
 32
0.0
 13
88.45343959879007
 23
65.47792703534336
 33
0.0
  0
SOLID
  5
17E
  8
1__PRINTING_LAYERS_____1_3
 62
   254
 10
88.45343959879007
 20
65.47792703534336
 30
0.0
 11
86.73908284232783
 21
96.10918870689078
 31
0.0
 12
88.45343959879007
 22
95.11940437206025
 32
0.0
 13
88.45343959879007
 23
95.11940437206025
 33
0.0
  0
SOLID
  5
17F
  8
1__PRINTING_LAYERS_____1_3
 62
   254
 10
86.73908284232783
 20
183.8908112931092
 30
0.0
 11
86.73908284232783
 21
214.6966181459659
 31
0.0
 12
88.45343959879007
 22
184.8805956279397
 32
0.0
 13
88.45343959879007
 23
184.8805956279397
 33
0.0
  0
SOLID
  5
180
  8
1__PRINTING_LAYERS_____1_3
 62
   254
 10
88.45343959879007
 20
184.8805956279397
 30
0.0
 11
86.73908284232783
 21
214.6966181459659
 31
0.0
 12
88.45343959879007
 22
214.5220729646566
 32
0.0
 13
88.45343959879007
 23
214.5220729646566
 33
0.0
  0
SOLID
  5
181
  8
1__PRINTING_LAYERS_____1_3
 62
   254
 10
88.45343959879007
 20
65.47792703534336
 30
0.0
 11
88.45343959879007
 21
95.11940437206025
 31
0.0
 12
90.17715438327392
 22
65.69370464988172
 32
0.0
 13
90.17715438327392
 23
65.69370464988172
 33
0.0
  0
SOLID
  5
182
  8
1__PRINTING_LAYERS_____1_3
 62
   254
 10
90.17715438327392
 20
65.69370464988172
 30
0.0
 11
88.45343959879007
 21
95.11940437206025
 31
0.0
 12
90.17715438327392
 22
94.12421717723237
 32
0.0
 13
90.17715438327392
 23
94.12421717723237
 33
0.0
  0
SOLID
  5
183
  8
1__PRINTING_LAYERS_____1_3
 62
   254
 10
88.45343959879007
 20
184.8805956279397
 30
0.0
 11
88.45343959879007
 21
214.5220729646566
 31
0.0
 12
90.17715438327392
 22
185.8757828227675
 32
0.0
 13
90.17715438327392
 23
185.8757828227675
 33
0.0
  0
SOLID
  5
184
  8
1__PRINTING_LAYERS_____1_3
 62
   254
 10
90.17715438327392
 20
185.8757828227675
 30
0.0
 11
88.45343959879007
 21
214.5220729646566
 31
0.0
 12
90.17715438327392
 22
214.3062953501183
 32
0.0
 13
90.17715438327392
 23
214.3062953501183
 33
0.0
  0
SOLID
  5
185
  8
1__PRINTING_LAYERS_____1_3
 62
   254
 10
90.17715438327392
 20
65.69370464988172
 30
0.0
 11
90.17715438327392
 21
94.12421717723237
 31
0.0
 12
91.90888426437013
 22
65.95151267191315
 32
0.0
 13
91.90888426437013
 23
65.95151267191315
 33
0.0
  0
SOLID
  5
186
  8
1__PRINTING_LAYERS_____1_3
 62
   254
 10
91.90888426437013
 20
65.95151267191315
 30
0.0
 11
90.17715438327392
 21
94.12421717723237
 31
0.0
 12
91.90888426437013
 22
93.12440246421775
 32
0.0
 13
91.90888426437013
 23
93.12440246421775
 33
0.0
  0
SOLID
  5
187
  8
1__PRINTING_LAYERS_____1_3
 62
   254
 10
90.17715438327392
 20
185.8757828227675
 30
0.0
 11
90.17715438327392
 21
214.3062953501183
 31
0.0
 12
91.90888426437013
 22
186.8755975357822
 32
0.0
 13
91.90888426437013
 23
186.8755975357822
 33
0.0
  0
SOLID
  5
188
  8
1__PRINTING_LAYERS_____1_3
 62
   254
 10
91.90888426437013
 20
186.8755975357822
 30
0.0
 11
90.17715438327392
 21
214.3062953501183
 31
0.0
 12
91.90888426437013
 22
214.0484873280868
 32
0.0
 13
91.90888426437013
 23
214.0484873280868
 33
0.0
  0
SOLID
  5
189
  8
1__PRINTING_LAYERS_____1_3
 62
   254
 10
91.90888426437013
 20
65.95151267191315
 30
0.0
 11
91.90888426437013
 21
93.12440246421775
 31
0.0
 12
93.64722893091084
 22
66.25209736875692
 32
0.0
 13
93.64722893091084
 23
66.25209736875692
 33
0.0
  0
SOLID
  5
18A
  8
1__PRINTING_LAYERS_____1_3
 62
   254
 10
93.64722893091084
 20
66.25209736875692
 30
0.0
 11
91.90888426437013
 21
93.12440246421775
 31
0.0
 12
93.64722893091084
 22
92.12076870304612
 32
0.0
 13
93.64722893091084
 23
92.12076870304612
 33
0.0
  0
SOLID
  5
18B
  8
1__PRINTING_LAYERS_____1_3
 62
   254
 10
91.90888426437013
 20
186.8755975357822
 30
0.0
 11
91.90888426437013
 21
214.0484873280868
 31
0.0
 12
93.64722893091084
 22
187.8792312969538
 32
0.0
 13
93.64722893091084
 23
187.8792312969538
 33
0.0
  0
SOLID
  5
18C
  8
1__PRINTING_LAYERS_____1_3
 62
   254
 10
93.64722893091084
 20
187.8792312969538
 30
0.0
 11
91.90888426437013
 21
214.0484873280868
 31
0.0
 12
93.64722893091084
 22
213.7479026312431
 32
0.0
 13
93.64722893091084
 23
213.7479026312431
 33
0.0
  0
SOLID
  5
18D
  8
1__PRINTING_LAYERS_____1_3
 62
   254
 10
93.64722893091084
 20
66.25209736875692
 30
0.0
 11
93.64722893091084
 21
92.12076870304612
 31
0.0
 12
95.39073275041926
 22
66.5961489742863
 32
0.0
 13
95.39073275041926
 23
66.5961489742863
 33
0.0
  0
SOLID
  5
18E
  8
1__PRINTING_LAYERS_____1_3
 62
   254
 10
95.39073275041926
 20
66.5961489742863
 30
0.0
 11
93.64722893091084
 21
92.12076870304612
 31
0.0
 12
95.39073275041926
 22
91.11415630351979
 32
0.0
 13
95.39073275041926
 23
91.11415630351979
 33
0.0
  0
SOLID
  5
18F
  8
1__PRINTING_LAYERS_____1_3
 62
   254
 10
93.64722893091084
 20
187.8792312969538
 30
0.0
 11
93.64722893091084
 21
213.7479026312431
 31
0.0
 12
95.39073275041926
 22
188.8858436964801
 32
0.0
 13
95.39073275041926
 23
188.8858436964801
 33
0.0
  0
SOLID
  5
190
  8
1__PRINTING_LAYERS_____1_3
 62
   254
 10
95.39073275041926
 20
188.8858436964801
 30
0.0
 11
93.64722893091084
 21
213.7479026312431
 31
0.0
 12
95.39073275041926
 22
213.4038510257137
 32
0.0
 13
95.39073275041926
 23
213.4038510257137
 33
0.0
  0
SOLID
  5
191
  8
1__PRINTING_LAYERS_____1_3
 62
   254
 10
95.39073275041926
 20
66.5961489742863
 30
0.0
 11
95.39073275041926
 21
91.11415630351979
 31
0.0
 12
97.13788718048345
 22
66.98429742179412
 32
0.0
 13
97.13788718048345
 23
66.98429742179412
 33
0.0
  0
SOLID
  5
192
  8
1__PRINTING_LAYERS_____1_3
 62
   254
 10
97.13788718048345
 20
66.98429742179412
 30
0.0
 11
95.39073275041926
 21
91.11415630351979
 31
0.0
 12
97.13788718048345
 22
90.1054362230064
 32
0.0
 13
97.13788718048345
 23
90.1054362230064
 33
0.0
  0
SOLID
  5
193
  8
1__PRINTING_LAYERS_____1_3
 62
   254
 10
95.39073275041926
 20
188.8858436964801
 30
0.0
 11
95.39073275041926
 21
213.4038510257137
 31
0.0
 12
97.13788718048345
 22
189.8945637769935
 32
0.0
 13
97.13788718048345
 23
189.8945637769935
 33
0.0
  0
SOLID
  5
194
  8
1__PRINTING_LAYERS_____1_3
 62
   254
 10
97.13788718048345
 20
189.8945637769935
 30
0.0
 11
95.39073275041926
 21
213.4038510257137
 31
0.0
 12
97.13788718048345
 22
213.0157025782059
 32
0.0
 13
97.13788718048345
 23
213.0157025782059
 33
0.0
  0
SOLID
  5
195
  8
1__PRINTING_LAYERS_____1_3
 62
   254
 10
97.13788718048345
 20
66.98429742179412
 30
0.0
 11
97.13788718048345
 21
90.1054362230064
 31
0.0
 12
97.32050807568868
 22
67.02948275864217
 32
0.0
 13
97.32050807568868
 23
67.02948275864217
 33
0.0
  0
SOLID
  5
196
  8
1__PRINTING_LAYERS_____1_3
 62
   254
 10
97.32050807568868
 20
67.02948275864217
 30
0.0
 11
97.13788718048345
 21
90.1054362230064
 31
0.0
 12
97.32050807568868
 22
90.0
 32
0.0
 13
97.32050807568868
 23
90.0
 33
0.0
  0
SOLID
  5
197
  8
1__PRINTING_LAYERS_____1_3
 62
   254
 10
97.13788718048345
 20
189.8945637769935
 30
0.0
 11
97.13788718048345
 21
213.0157025782059
 31
0.0
 12
97.32050807568868
 22
189.9999999999999
 32
0.0
 13
97.32050807568868
 23
189.9999999999999
 33
0.0
  0
SOLID
  5
198
  8
1__PRINTING_LAYERS_____1_3
 62
   254
 10
97.32050807568868
 20
189.9999999999999
 30
0.0
 11
97.13788718048345
 21
213.0157025782059
 31
0.0
 12
97.32050807568868
 22
212.9705172413579
 32
0.0
 13
97.32050807568868
 23
212.9705172413579
 33
0.0
  0
SOLID
  5
199
  8
1__PRINTING_LAYERS_____1_3
 62
   254
 10
97.32050807568882
 20
67.02948275864222
 30
0.0
 11
97.32050807568882
 21
90.00000000000009
 31
0.0
 12
98.8871335361391
 22
67.41710816736462
 32
0.0
 13
98.8871335361391
 23
67.41710816736462
 33
0.0
  0
SOLID
  5
19A
  8
1__PRINTING_LAYERS_____1_3
 62
   254
 10
98.8871335361391
 20
67.41710816736462
 30
0.0
 11
97.32050807568882
 21
90.00000000000009
 31
0.0
 12
98.8871335361391
 22
90.90449163131038
 32
0.0
 13
98.8871335361391
 23
90.90449163131038
 33
0.0
  0
SOLID
  5
19B
  8
1__PRINTING_LAYERS_____1_3
 62
   254
 10
97.32050807568882
 20
190.0
 30
0.0
 11
97.32050807568882
 21
212.9705172413578
 31
0.0
 12
98.8871335361391
 22
189.0955083686897
 32
0.0
 13
98.8871335361391
 23
189.0955083686897
 33
0.0
  0
SOLID
  5
19C
  8
1__PRINTING_LAYERS_____1_3
 62
   254
 10
98.8871335361391
 20
189.0955083686897
 30
0.0
 11
97.32050807568882
 21
212.9705172413578
 31
0.0
 12
98.8871335361391
 22
212.5828918326355
 32
0.0
 13
98.8871335361391
 23
212.5828918326355
 33
0.0
  0
SOLID
  5
19D
  8
1__PRINTING_LAYERS_____1_3
 62
   254
 10
98.8871335361391
 20
67.41710816736462
 30
0.0
 11
98.8871335361391
 21
90.90449163131038
 31
0.0
 12
100.6368661134027
 22
67.89507813597264
 32
0.0
 13
100.6368661134027
 23
67.89507813597264
 33
0.0
  0
SOLID
  5
19E
  8
1__PRINTING_LAYERS_____1_3
 62
   254
 10
100.6368661134027
 20
67.89507813597264
 30
0.0
 11
98.8871335361391
 21
90.90449163131038
 31
0.0
 12
100.6368661134027
 22
91.91470020580337
 32
0.0
 13
100.6368661134027
 23
91.91470020580337
 33
0.0
  0
SOLID
  5
19F
  8
1__PRINTING_LAYERS_____1_3
 62
   254
 10
98.8871335361391
 20
189.0955083686897
 30
0.0
 11
98.8871335361391
 21
212.5828918326355
 31
0.0
 12
100.6368661134027
 22
188.0852997941967
 32
0.0
 13
100.6368661134027
 23
188.0852997941967
 33
0.0
  0
SOLID
  5
1A0
  8
1__PRINTING_LAYERS_____1_3
 62
   254
 10
100.6368661134027
 20
188.0852997941967
 30
0.0
 11
98.8871335361391
 21
212.5828918326355
 31
0.0
 12
100.6368661134027
 22
212.1049218640274
 32
0.0
 13
100.6368661134027
 23
212.1049218640274
 33
0.0
  0
SOLID
  5
1A1
  8
1__PRINTING_LAYERS_____1_3
 62
   254
 10
100.6368661134027
 20
67.89507813597264
 30
0.0
 11
100.6368661134027
 21
91.91470020580337
 31
0.0
 12
102.3854356659528
 22
68.41863182331947
 32
0.0
 13
102.3854356659528
 23
68.41863182331947
 33
0.0
  0
SOLID
  5
1A2
  8
1__PRINTING_LAYERS_____1_3
 62
   254
 10
102.3854356659528
 20
68.41863182331947
 30
0.0
 11
100.6368661134027
 21
91.91470020580337
 31
0.0
 12
102.3854356659528
 22
92.92423730766494
 32
0.0
 13
102.3854356659528
 23
92.92423730766494
 33
0.0
  0
SOLID
  5
1A3
  8
1__PRINTING_LAYERS_____1_3
 62
   254
 10
100.6368661134027
 20
188.0852997941967
 30
0.0
 11
100.6368661134027
 21
212.1049218640274
 31
0.0
 12
102.3854356659528
 22
187.0757626923352
 32
0.0
 13
102.3854356659528
 23
187.0757626923352
 33
0.0
  0
SOLID
  5
1A4
  8
1__PRINTING_LAYERS_____1_3
 62
   254
 10
102.3854356659528
 20
187.0757626923352
 30
0.0
 11
100.6368661134027
 21
212.1049218640274
 31
0.0
 12
102.3854356659528
 22
211.5813681766805
 32
0.0
 13
102.3854356659528
 23
211.5813681766805
 33
0.0
  0
SOLID
  5
1A5
  8
1__PRINTING_LAYERS_____1_3
 62
   254
 10
102.3854356659528
 20
68.41863182331947
 30
0.0
 11
102.3854356659528
 21
92.92423730766494
 31
0.0
 12
104.1311532286459
 22
68.98811758687415
 32
0.0
 13
104.1311532286459
 23
68.98811758687415
 33
0.0
  0
SOLID
  5
1A6
  8
1__PRINTING_LAYERS_____1_3
 62
   254
 10
104.1311532286459
 20
68.98811758687415
 30
0.0
 11
102.3854356659528
 21
92.92423730766494
 31
0.0
 12
104.1311532286459
 22
93.9321278124149
 32
0.0
 13
104.1311532286459
 23
93.9321278124149
 33
0.0
  0
SOLID
  5
1A7
  8
1__PRINTING_LAYERS_____1_3
 62
   254
 10
102.3854356659528
 20
187.0757626923352
 30
0.0
 11
102.3854356659528
 21
211.5813681766805
 31
0.0
 12
104.1311532286459
 22
186.0678721875852
 32
0.0
 13
104.1311532286459
 23
186.0678721875852
 33
0.0
  0
SOLID
  5
1A8
  8
1__PRINTING_LAYERS_____1_3
 62
   254
 10
104.1311532286459
 20
186.0678721875852
 30
0.0
 11
102.3854356659528
 21
211.5813681766805
 31
0.0
 12
104.1311532286459
 22
211.0118824131258
 32
0.0
 13
104.1311532286459
 23
211.0118824131258
 33
0.0
  0
SOLID
  5
1A9
  8
1__PRINTING_LAYERS_____1_3
 62
   254
 10
104.1311532286459
 20
68.98811758687415
 30
0.0
 11
104.1311532286459
 21
93.9321278124149
 31
0.0
 12
105.8722942781124
 22
69.60380415969375
 32
0.0
 13
105.8722942781124
 23
69.60380415969375
 33
0.0
  0
SOLID
  5
1AA
  8
1__PRINTING_LAYERS_____1_3
 62
   254
 10
105.8722942781124
 20
69.60380415969375
 30
0.0
 11
104.1311532286459
 21
93.9321278124149
 31
0.0
 12
105.8722942781124
 22
94.9373760660215
 32
0.0
 13
105.8722942781124
 23
94.9373760660215
 33
0.0
  0
SOLID
  5
1AB
  8
1__PRINTING_LAYERS_____1_3
 62
   254
 10
104.1311532286459
 20
186.0678721875852
 30
0.0
 11
104.1311532286459
 21
211.0118824131258
 31
0.0
 12
105.8722942781124
 22
185.0626239339786
 32
0.0
 13
105.8722942781124
 23
185.0626239339786
 33
0.0
  0
SOLID
  5
1AC
  8
1__PRINTING_LAYERS_____1_3
 62
   254
 10
105.8722942781124
 20
185.0626239339786
 30
0.0
 11
104.1311532286459
 21
211.0118824131258
 31
0.0
 12
105.8722942781124
 22
210.3961958403062
 32
0.0
 13
105.8722942781124
 23
210.3961958403062
 33
0.0
  0
SOLID
  5
1AD
  8
1__PRINTING_LAYERS_____1_3
 62
   254
 10
105.8722942781124
 20
69.60380415969375
 30
0.0
 11
105.8722942781124
 21
94.9373760660215
 31
0.0
 12
107.6071032171405
 22
70.26587742031774
 32
0.0
 13
107.6071032171405
 23
70.26587742031774
 33
0.0
  0
SOLID
  5
1AE
  8
1__PRINTING_LAYERS_____1_3
 62
   254
 10
107.6071032171405
 20
70.26587742031774
 30
0.0
 11
105.8722942781124
 21
94.9373760660215
 31
0.0
 12
107.6071032171405
 22
95.9389684739619
 32
0.0
 13
107.6071032171405
 23
95.9389684739619
 33
0.0
  0
SOLID
  5
1AF
  8
1__PRINTING_LAYERS_____1_3
 62
   254
 10
105.8722942781124
 20
185.0626239339786
 30
0.0
 11
105.8722942781124
 21
210.3961958403062
 31
0.0
 12
107.6071032171405
 22
184.0610315260382
 32
0.0
 13
107.6071032171405
 23
184.0610315260382
 33
0.0
  0
SOLID
  5
1B0
  8
1__PRINTING_LAYERS_____1_3
 62
   254
 10
107.6071032171405
 20
184.0610315260382
 30
0.0
 11
105.8722942781124
 21
210.3961958403062
 31
0.0
 12
107.6071032171405
 22
209.7341225796823
 32
0.0
 13
107.6071032171405
 23
209.7341225796823
 33
0.0
  0
SOLID
  5
1B1
  8
1__PRINTING_LAYERS_____1_3
 62
   254
 10
107.6071032171405
 20
70.26587742031774
 30
0.0
 11
107.6071032171405
 21
95.9389684739619
 31
0.0
 12
109.3337981659791
 22
70.97443745134994
 32
0.0
 13
109.3337981659791
 23
70.97443745134994
 33
0.0
  0
SOLID
  5
1B2
  8
1__PRINTING_LAYERS_____1_3
 62
   254
 10
109.3337981659791
 20
70.97443745134994
 30
0.0
 11
107.6071032171405
 21
95.9389684739619
 31
0.0
 12
109.3337981659791
 22
96.93587626748226
 32
0.0
 13
109.3337981659791
 23
96.93587626748226
 33
0.0
  0
SOLID
  5
1B3
  8
1__PRINTING_LAYERS_____1_3
 62
   254
 10
107.6071032171405
 20
184.0610315260382
 30
0.0
 11
107.6071032171405
 21
209.7341225796823
 31
0.0
 12
109.3337981659791
 22
183.0641237325179
 32
0.0
 13
109.3337981659791
 23
183.0641237325179
 33
0.0
  0
SOLID
  5
1B4
  8
1__PRINTING_LAYERS_____1_3
 62
   254
 10
109.3337981659791
 20
183.0641237325179
 30
0.0
 11
107.6071032171405
 21
209.7341225796823
 31
0.0
 12
109.3337981659791
 22
209.0255625486501
 32
0.0
 13
109.3337981659791
 23
209.0255625486501
 33
0.0
  0
SOLID
  5
1B5
  8
1__PRINTING_LAYERS_____1_3
 62
   254
 10
109.3337981659791
 20
70.97443745134994
 30
0.0
 11
109.3337981659791
 21
96.93587626748226
 31
0.0
 12
111.0505760401135
 22
71.7294959182435
 32
0.0
 13
111.0505760401135
 23
71.7294959182435
 33
0.0
  0
SOLID
  5
1B6
  8
1__PRINTING_LAYERS_____1_3
 62
   254
 10
111.0505760401135
 20
71.7294959182435
 30
0.0
 11
109.3337981659791
 21
96.93587626748226
 31
0.0
 12
111.0505760401135
 22
97.92705843525253
 32
0.0
 13
111.0505760401135
 23
97.92705843525253
 33
0.0
  0
SOLID
  5
1B7
  8
1__PRINTING_LAYERS_____1_3
 62
   254
 10
109.3337981659791
 20
183.0641237325179
 30
0.0
 11
109.3337981659791
 21
209.0255625486501
 31
0.0
 12
111.0505760401135
 22
182.0729415647476
 32
0.0
 13
111.0505760401135
 23
182.0729415647476
 33
0.0
  0
SOLID
  5
1B8
  8
1__PRINTING_LAYERS_____1_3
 62
   254
 10
111.0505760401135
 20
182.0729415647476
 30
0.0
 11
109.3337981659791
 21
209.0255625486501
 31
0.0
 12
111.0505760401135
 22
208.2705040817565
 32
0.0
 13
111.0505760401135
 23
208.2705040817565
 33
0.0
  0
SOLID
  5
1B9
  8
1__PRINTING_LAYERS_____1_3
 62
   254
 10
111.0505760401135
 20
71.7294959182435
 30
0.0
 11
111.0505760401135
 21
97.92705843525253
 31
0.0
 12
112.7556178905448
 22
72.5309737982782
 32
0.0
 13
112.7556178905448
 23
72.5309737982782
 33
0.0
  0
SOLID
  5
1BA
  8
1__PRINTING_LAYERS_____1_3
 62
   254
 10
112.7556178905448
 20
72.5309737982782
 30
0.0
 11
111.0505760401135
 21
97.92705843525253
 31
0.0
 12
112.7556178905448
 22
98.91146480657864
 32
0.0
 13
112.7556178905448
 23
98.91146480657864
 33
0.0
  0
SOLID
  5
1BB
  8
1__PRINTING_LAYERS_____1_3
 62
   254
 10
111.0505760401135
 20
182.0729415647476
 30
0.0
 11
111.0505760401135
 21
208.2705040817565
 31
0.0
 12
112.7556178905448
 22
181.0885351934215
 32
0.0
 13
112.7556178905448
 23
181.0885351934215
 33
0.0
  0
SOLID
  5
1BC
  8
1__PRINTING_LAYERS_____1_3
 62
   254
 10
112.7556178905448
 20
181.0885351934215
 30
0.0
 11
111.0505760401135
 21
208.2705040817565
 31
0.0
 12
112.7556178905448
 22
207.4690262017218
 32
0.0
 13
112.7556178905448
 23
207.4690262017218
 33
0.0
  0
SOLID
  5
1BD
  8
1__PRINTING_LAYERS_____1_3
 62
   254
 10
112.7556178905448
 20
72.5309737982782
 30
0.0
 11
112.7556178905448
 21
98.91146480657864
 31
0.0
 12
114.4470944792003
 22
73.37869948776854
 32
0.0
 13
114.4470944792003
 23
73.37869948776854
 33
0.0
  0
SOLID
  5
1BE
  8
1__PRINTING_LAYERS_____1_3
 62
   254
 10
114.4470944792003
 20
73.37869948776854
 30
0.0
 11
112.7556178905448
 21
98.91146480657864
 31
0.0
 12
114.4470944792003
 22
99.88803927036682
 32
0.0
 13
114.4470944792003
 23
99.88803927036682
 33
0.0
  0
SOLID
  5
1BF
  8
1__PRINTING_LAYERS_____1_3
 62
   254
 10
112.7556178905448
 20
181.0885351934215
 30
0.0
 11
112.7556178905448
 21
207.4690262017218
 31
0.0
 12
114.4470944792003
 22
180.1119607296333
 32
0.0
 13
114.4470944792003
 23
180.1119607296333
 33
0.0
  0
SOLID
  5
1C0
  8
1__PRINTING_LAYERS_____1_3
 62
   254
 10
114.4470944792003
 20
180.1119607296333
 30
0.0
 11
112.7556178905448
 21
207.4690262017218
 31
0.0
 12
114.4470944792003
 22
206.6213005122315
 32
0.0
 13
114.4470944792003
 23
206.6213005122315
 33
0.0
  0
SOLID
  5
1C1
  8
1__PRINTING_LAYERS_____1_3
 62
   254
 10
114.4470944792003
 20
73.37869948776854
 30
0.0
 11
114.4470944792003
 21
99.88803927036682
 31
0.0
 12
114.6410161513774
 22
73.48210121453978
 32
0.0
 13
114.6410161513774
 23
73.48210121453978
 33
0.0
  0
SOLID
  5
1C2
  8
1__PRINTING_LAYERS_____1_3
 62
   254
 10
114.6410161513774
 20
73.48210121453978
 30
0.0
 11
114.4470944792003
 21
99.88803927036682
 31
0.0
 12
114.6410161513774
 22
100.0
 32
0.0
 13
114.6410161513774
 23
100.0
 33
0.0
  0
SOLID
  5
1C3
  8
1__PRINTING_LAYERS_____1_3
 62
   254
 10
114.4470944792003
 20
180.1119607296333
 30
0.0
 11
114.4470944792003
 21
206.6213005122315
 31
0.0
 12
114.6410161513774
 22
180.0000000000001
 32
0.0
 13
114.6410161513774
 23
180.0000000000001
 33
0.0
  0
SOLID
  5
1C4
  8
1__PRINTING_LAYERS_____1_3
 62
   254
 10
114.6410161513774
 20
180.0000000000001
 30
0.0
 11
114.4470944792003
 21
206.6213005122315
 31
0.0
 12
114.6410161513774
 22
206.5178987854602
 32
0.0
 13
114.6410161513774
 23
206.5178987854602
 33
0.0
  0
SOLID
  5
1C5
  8
1__PRINTING_LAYERS_____1_3
 62
   254
 10
114.6410161513776
 20
73.4821012145399
 30
0.0
 11
114.6410161513776
 21
120.0000000000001
 31
0.0
 12
116.1231720588557
 22
74.27240731316638
 32
0.0
 13
116.1231720588557
 23
74.27240731316638
 33
0.0
  0
SOLID
  5
1C6
  8
1__PRINTING_LAYERS_____1_3
 62
   254
 10
116.1231720588557
 20
74.27240731316638
 30
0.0
 11
114.6410161513776
 21
120.0000000000001
 31
0.0
 12
116.1231720588557
 22
120.8557231121636
 32
0.0
 13
116.1231720588557
 23
120.8557231121636
 33
0.0
  0
SOLID
  5
1C7
  8
1__PRINTING_LAYERS_____1_3
 62
   254
 10
114.6410161513776
 20
159.9999999999999
 30
0.0
 11
114.6410161513776
 21
206.5178987854601
 31
0.0
 12
116.1231720588557
 22
159.1442768878364
 32
0.0
 13
116.1231720588557
 23
159.1442768878364
 33
0.0
  0
SOLID
  5
1C8
  8
1__PRINTING_LAYERS_____1_3
 62
   254
 10
116.1231720588557
 20
159.1442768878364
 30
0.0
 11
114.6410161513776
 21
206.5178987854601
 31
0.0
 12
116.1231720588557
 22
205.7275926868336
 32
0.0
 13
116.1231720588557
 23
205.7275926868336
 33
0.0
  0
SOLID
  5
1C9
  8
1__PRINTING_LAYERS_____1_3
 62
   254
 10
116.1231720588557
 20
74.27240731316638
 30
0.0
 11
116.1231720588557
 21
120.8557231121636
 31
0.0
 12
117.7820183239364
 22
75.21173646894263
 32
0.0
 13
117.7820183239364
 23
75.21173646894263
 33
0.0
  0
SOLID
  5
1CA
  8
1__PRINTING_LAYERS_____1_3
 62
   254
 10
117.7820183239364
 20
75.21173646894263
 30
0.0
 11
116.1231720588557
 21
120.8557231121636
 31
0.0
 12
117.7820183239364
 22
121.813458449852
 32
0.0
 13
117.7820183239364
 23
121.813458449852
 33
0.0
  0
SOLID
  5
1CB
  8
1__PRINTING_LAYERS_____1_3
 62
   254
 10
116.1231720588557
 20
159.1442768878364
 30
0.0
 11
116.1231720588557
 21
205.7275926868336
 31
0.0
 12
117.7820183239364
 22
158.1865415501479
 32
0.0
 13
117.7820183239364
 23
158.1865415501479
 33
0.0
  0
SOLID
  5
1CC
  8
1__PRINTING_LAYERS_____1_3
 62
   254
 10
117.7820183239364
 20
158.1865415501479
 30
0.0
 11
116.1231720588557
 21
205.7275926868336
 31
0.0
 12
117.7820183239364
 22
204.7882635310574
 32
0.0
 13
117.7820183239364
 23
204.7882635310574
 33
0.0
  0
SOLID
  5
1CD
  8
1__PRINTING_LAYERS_____1_3
 62
   254
 10
117.7820183239364
 20
75.21173646894263
 30
0.0
 11
117.7820183239364
 21
121.813458449852
 31
0.0
 12
119.4218084958231
 22
76.19623040196883
 32
0.0
 13
119.4218084958231
 23
76.19623040196883
 33
0.0
  0
SOLID
  5
1CE
  8
1__PRINTING_LAYERS_____1_3
 62
   254
 10
119.4218084958231
 20
76.19623040196883
 30
0.0
 11
117.7820183239364
 21
121.813458449852
 31
0.0
 12
119.4218084958231
 22
122.7601917470054
 32
0.0
 13
119.4218084958231
 23
122.7601917470054
 33
0.0
  0
SOLID
  5
1CF
  8
1__PRINTING_LAYERS_____1_3
 62
   254
 10
117.7820183239364
 20
158.1865415501479
 30
0.0
 11
117.7820183239364
 21
204.7882635310574
 31
0.0
 12
119.4218084958231
 22
157.2398082529946
 32
0.0
 13
119.4218084958231
 23
157.2398082529946
 33
0.0
  0
SOLID
  5
1D0
  8
1__PRINTING_LAYERS_____1_3
 62
   254
 10
119.4218084958231
 20
157.2398082529946
 30
0.0
 11
117.7820183239364
 21
204.7882635310574
 31
0.0
 12
119.4218084958231
 22
203.8037695980312
 32
0.0
 13
119.4218084958231
 23
203.8037695980312
 33
0.0
  0
SOLID
  5
1D1
  8
1__PRINTING_LAYERS_____1_3
 62
   254
 10
119.4218084958231
 20
76.19623040196883
 30
0.0
 11
119.4218084958231
 21
122.7601917470054
 31
0.0
 12
121.0407315038857
 22
77.22533665860115
 32
0.0
 13
121.0407315038857
 23
77.22533665860115
 33
0.0
  0
SOLID
  5
1D2
  8
1__PRINTING_LAYERS_____1_3
 62
   254
 10
121.0407315038857
 20
77.22533665860115
 30
0.0
 11
119.4218084958231
 21
122.7601917470054
 31
0.0
 12
121.0407315038857
 22
123.6948773815076
 32
0.0
 13
121.0407315038857
 23
123.6948773815076
 33
0.0
  0
SOLID
  5
1D3
  8
1__PRINTING_LAYERS_____1_3
 62
   254
 10
119.4218084958231
 20
157.2398082529946
 30
0.0
 11
119.4218084958231
 21
203.8037695980312
 31
0.0
 12
121.0407315038857
 22
156.3051226184924
 32
0.0
 13
121.0407315038857
 23
156.3051226184924
 33
0.0
  0
SOLID
  5
1D4
  8
1__PRINTING_LAYERS_____1_3
 62
   254
 10
121.0407315038857
 20
156.3051226184924
 30
0.0
 11
119.4218084958231
 21
203.8037695980312
 31
0.0
 12
121.0407315038857
 22
202.7746633413988
 32
0.0
 13
121.0407315038857
 23
202.7746633413988
 33
0.0
  0
SOLID
  5
1D5
  8
1__PRINTING_LAYERS_____1_3
 62
   254
 10
121.0407315038857
 20
77.22533665860115
 30
0.0
 11
121.0407315038857
 21
123.6948773815076
 31
0.0
 12
122.6369962214377
 22
78.29840720683856
 32
0.0
 13
122.6369962214377
 23
78.29840720683856
 33
0.0
  0
SOLID
  5
1D6
  8
1__PRINTING_LAYERS_____1_3
 62
   254
 10
122.6369962214377
 20
78.29840720683856
 30
0.0
 11
121.0407315038857
 21
123.6948773815076
 31
0.0
 12
122.6369962214377
 22
124.6164812458841
 32
0.0
 13
122.6369962214377
 23
124.6164812458841
 33
0.0
  0
SOLID
  5
1D7
  8
1__PRINTING_LAYERS_____1_3
 62
   254
 10
121.0407315038857
 20
156.3051226184924
 30
0.0
 11
121.0407315038857
 21
202.7746633413988
 31
0.0
 12
122.6369962214377
 22
155.3835187541158
 32
0.0
 13
122.6369962214377
 23
155.3835187541158
 33
0.0
  0
SOLID
  5
1D8
  8
1__PRINTING_LAYERS_____1_3
 62
   254
 10
122.6369962214377
 20
155.3835187541158
 30
0.0
 11
121.0407315038857
 21
202.7746633413988
 31
0.0
 12
122.6369962214377
 22
201.7015927931614
 32
0.0
 13
122.6369962214377
 23
201.7015927931614
 33
0.0
  0
SOLID
  5
1D9
  8
1__PRINTING_LAYERS_____1_3
 62
   254
 10
122.6369962214377
 20
78.29840720683856
 30
0.0
 11
122.6369962214377
 21
124.6164812458841
 31
0.0
 12
124.2088377142101
 22
79.41469924182408
 32
0.0
 13
124.2088377142101
 23
79.41469924182408
 33
0.0
  0
SOLID
  5
1DA
  8
1__PRINTING_LAYERS_____1_3
 62
   254
 10
124.2088377142101
 20
79.41469924182408
 30
0.0
 11
122.6369962214377
 21
124.6164812458841
 31
0.0
 12
124.2088377142101
 22
125.5239843548597
 32
0.0
 13
124.2088377142101
 23
125.5239843548597
 33
0.0
  0
SOLID
  5
1DB
  8
1__PRINTING_LAYERS_____1_3
 62
   254
 10
122.6369962214377
 20
155.3835187541158
 30
0.0
 11
122.6369962214377
 21
201.7015927931614
 31
0.0
 12
124.2088377142101
 22
154.4760156451402
 32
0.0
 13
124.2088377142101
 23
154.4760156451402
 33
0.0
  0
SOLID
  5
1DC
  8
1__PRINTING_LAYERS_____1_3
 62
   254
 10
124.2088377142101
 20
154.4760156451402
 30
0.0
 11
122.6369962214377
 21
201.7015927931614
 31
0.0
 12
124.2088377142101
 22
200.5853007581759
 32
0.0
 13
124.2088377142101
 23
200.5853007581759
 33
0.0
  0
SOLID
  5
1DD
  8
1__PRINTING_LAYERS_____1_3
 62
   254
 10
124.2088377142101
 20
79.41469924182408
 30
0.0
 11
124.2088377142101
 21
125.5239843548597
 31
0.0
 12
125.7545234578043
 22
80.57337647864185
 32
0.0
 13
125.7545234578043
 23
80.57337647864185
 33
0.0
  0
SOLID
  5
1DE
  8
1__PRINTING_LAYERS_____1_3
 62
   254
 10
125.7545234578043
 20
80.57337647864185
 30
0.0
 11
124.2088377142101
 21
125.5239843548597
 31
0.0
 12
125.7545234578043
 22
126.4163864350064
 32
0.0
 13
125.7545234578043
 23
126.4163864350064
 33
0.0
  0
SOLID
  5
1DF
  8
1__PRINTING_LAYERS_____1_3
 62
   254
 10
124.2088377142101
 20
154.4760156451402
 30
0.0
 11
124.2088377142101
 21
200.5853007581759
 31
0.0
 12
125.7545234578043
 22
153.5836135649936
 32
0.0
 13
125.7545234578043
 23
153.5836135649936
 33
0.0
  0
SOLID
  5
1E0
  8
1__PRINTING_LAYERS_____1_3
 62
   254
 10
125.7545234578043
 20
153.5836135649936
 30
0.0
 11
124.2088377142101
 21
200.5853007581759
 31
0.0
 12
125.7545234578043
 22
199.4266235213582
 32
0.0
 13
125.7545234578043
 23
199.4266235213582
 33
0.0
  0
SOLID
  5
1E1
  8
1__PRINTING_LAYERS_____1_3
 62
   254
 10
125.7545234578043
 20
80.57337647864185
 30
0.0
 11
125.7545234578043
 21
126.4163864350064
 31
0.0
 12
127.2723594799423
 22
81.77351093188678
 32
0.0
 13
127.2723594799423
 23
81.77351093188678
 33
0.0
  0
SOLID
  5
1E2
  8
1__PRINTING_LAYERS_____1_3
 62
   254
 10
127.2723594799423
 20
81.77351093188678
 30
0.0
 11
125.7545234578043
 21
126.4163864350064
 31
0.0
 12
127.2723594799423
 22
127.2927094709735
 32
0.0
 13
127.2723594799423
 23
127.2927094709735
 33
0.0
  0
SOLID
  5
1E3
  8
1__PRINTING_LAYERS_____1_3
 62
   254
 10
125.7545234578043
 20
153.5836135649936
 30
0.0
 11
125.7545234578043
 21
199.4266235213582
 31
0.0
 12
127.2723594799423
 22
152.7072905290264
 32
0.0
 13
127.2723594799423
 23
152.7072905290264
 33
0.0
  0
SOLID
  5
1E4
  8
1__PRINTING_LAYERS_____1_3
 62
   254
 10
127.2723594799423
 20
152.7072905290264
 30
0.0
 11
125.7545234578043
 21
199.4266235213582
 31
0.0
 12
127.2723594799423
 22
198.2264890681133
 32
0.0
 13
127.2723594799423
 23
198.2264890681133
 33
0.0
  0
SOLID
  5
1E5
  8
1__PRINTING_LAYERS_____1_3
 62
   254
 10
127.2723594799423
 20
81.77351093188678
 30
0.0
 11
127.2723594799423
 21
127.2927094709735
 31
0.0
 12
128.7606963832127
 22
83.01408517691277
 32
0.0
 13
128.7606963832127
 23
83.01408517691277
 33
0.0
  0
SOLID
  5
1E6
  8
1__PRINTING_LAYERS_____1_3
 62
   254
 10
128.7606963832127
 20
83.01408517691277
 30
0.0
 11
127.2723594799423
 21
127.2927094709735
 31
0.0
 12
128.7606963832127
 22
128.1520011827214
 32
0.0
 13
128.7606963832127
 23
128.1520011827214
 33
0.0
  0
SOLID
  5
1E7
  8
1__PRINTING_LAYERS_____1_3
 62
   254
 10
127.2723594799423
 20
152.7072905290264
 30
0.0
 11
127.2723594799423
 21
198.2264890681133
 31
0.0
 12
128.7606963832127
 22
151.8479988172784
 32
0.0
 13
128.7606963832127
 23
151.8479988172784
 33
0.0
  0
SOLID
  5
1E8
  8
1__PRINTING_LAYERS_____1_3
 62
   254
 10
128.7606963832127
 20
151.8479988172784
 30
0.0
 11
127.2723594799423
 21
198.2264890681133
 31
0.0
 12
128.7606963832127
 22
196.9859148230873
 32
0.0
 13
128.7606963832127
 23
196.9859148230873
 33
0.0
  0
SOLID
  5
1E9
  8
1__PRINTING_LAYERS_____1_3
 62
   254
 10
128.7606963832127
 20
83.01408517691277
 30
0.0
 11
128.7606963832127
 21
128.1520011827214
 31
0.0
 12
130.2179352044145
 22
84.29399508306827
 32
0.0
 13
130.2179352044145
 23
84.29399508306827
 33
0.0
  0
SOLID
  5
1EA
  8
1__PRINTING_LAYERS_____1_3
 62
   254
 10
130.2179352044145
 20
84.29399508306827
 30
0.0
 11
128.7606963832127
 21
128.1520011827214
 31
0.0
 12
130.2179352044145
 22
128.9933384084159
 32
0.0
 13
130.2179352044145
 23
128.9933384084159
 33
0.0
  0
SOLID
  5
1EB
  8
1__PRINTING_LAYERS_____1_3
 62
   254
 10
128.7606963832127
 20
151.8479988172784
 30
0.0
 11
128.7606963832127
 21
196.9859148230873
 31
0.0
 12
130.2179352044145
 22
151.0066615915839
 32
0.0
 13
130.2179352044145
 23
151.0066615915839
 33
0.0
  0
SOLID
  5
1EC
  8
1__PRINTING_LAYERS_____1_3
 62
   254
 10
130.2179352044145
 20
151.0066615915839
 30
0.0
 11
128.7606963832127
 21
196.9859148230873
 31
0.0
 12
130.2179352044145
 22
195.7060049169317
 32
0.0
 13
130.2179352044145
 23
195.7060049169317
 33
0.0
  0
SOLID
  5
1ED
  8
1__PRINTING_LAYERS_____1_3
 62
   254
 10
130.2179352044145
 20
84.29399508306827
 30
0.0
 11
130.2179352044145
 21
128.9933384084159
 31
0.0
 12
131.6425330675503
 22
85.61205300466865
 32
0.0
 13
131.6425330675503
 23
85.61205300466865
 33
0.0
  0
SOLID
  5
1EE
  8
1__PRINTING_LAYERS_____1_3
 62
   254
 10
131.6425330675503
 20
85.61205300466865
 30
0.0
 11
130.2179352044145
 21
128.9933384084159
 31
0.0
 12
131.6425330675503
 22
129.8158303681844
 32
0.0
 13
131.6425330675503
 23
129.8158303681844
 33
0.0
  0
SOLID
  5
1EF
  8
1__PRINTING_LAYERS_____1_3
 62
   254
 10
130.2179352044145
 20
151.0066615915839
 30
0.0
 11
130.2179352044145
 21
195.7060049169317
 31
0.0
 12
131.6425330675503
 22
150.1841696318155
 32
0.0
 13
131.6425330675503
 23
150.1841696318155
 33
0.0
  0
SOLID
  5
1F0
  8
1__PRINTING_LAYERS_____1_3
 62
   254
 10
131.6425330675503
 20
150.1841696318155
 30
0.0
 11
130.2179352044145
 21
195.7060049169317
 31
0.0
 12
131.6425330675503
 22
194.3879469953313
 32
0.0
 13
131.6425330675503
 23
194.3879469953313
 33
0.0
  0
SOLID
  5
1F1
  8
1__PRINTING_LAYERS_____1_3
 62
   254
 10
131.6425330675503
 20
85.61205300466865
 30
0.0
 11
131.6425330675503
 21
129.8158303681844
 31
0.0
 12
131.9615242270663
 22
85.92289153914597
 32
0.0
 13
131.9615242270663
 23
85.92289153914597
 33
0.0
  0
SOLID
  5
1F2
  8
1__PRINTING_LAYERS_____1_3
 62
   254
 10
131.9615242270663
 20
85.92289153914597
 30
0.0
 11
131.6425330675503
 21
129.8158303681844
 31
0.0
 12
131.9615242270663
 22
130.0
 32
0.0
 13
131.9615242270663
 23
130.0
 33
0.0
  0
SOLID
  5
1F3
  8
1__PRINTING_LAYERS_____1_3
 62
   254
 10
131.6425330675503
 20
150.1841696318155
 30
0.0
 11
131.6425330675503
 21
194.3879469953313
 31
0.0
 12
131.9615242270663
 22
149.9999999999999
 32
0.0
 13
131.9615242270663
 23
149.9999999999999
 33
0.0
  0
SOLID
  5
1F4
  8
1__PRINTING_LAYERS_____1_3
 62
   254
 10
131.9615242270663
 20
149.9999999999999
 30
0.0
 11
131.6425330675503
 21
194.3879469953313
 31
0.0
 12
131.9615242270663
 22
194.077108460854
 32
0.0
 13
131.9615242270663
 23
194.077108460854
 33
0.0
  0
SOLID
  5
1F5
  8
1__PRINTING_LAYERS_____1_3
 62
   254
 10
131.9615242270664
 20
85.92289153914606
 30
0.0
 11
131.9615242270664
 21
194.0771084608539
 31
0.0
 12
133.0330085889911
 22
86.96699141100893
 32
0.0
 13
133.0330085889911
 23
86.96699141100893
 33
0.0
  0
SOLID
  5
1F6
  8
1__PRINTING_LAYERS_____1_3
 62
   254
 10
133.0330085889911
 20
86.96699141100893
 30
0.0
 11
131.9615242270664
 21
194.0771084608539
 31
0.0
 12
133.0330085889911
 22
193.0330085889911
 32
0.0
 13
133.0330085889911
 23
193.0330085889911
 33
0.0
  0
SOLID
  5
1F7
  8
1__PRINTING_LAYERS_____1_3
 62
   254
 10
133.0330085889911
 20
86.96699141100893
 30
0.0
 11
133.0330085889911
 21
193.0330085889911
 31
0.0
 12
134.3879469953314
 22
88.35746693244971
 32
0.0
 13
134.3879469953314
 23
88.35746693244971
 33
0.0
  0
SOLID
  5
1F8
  8
1__PRINTING_LAYERS_____1_3
 62
   254
 10
134.3879469953314
 20
88.35746693244971
 30
0.0
 11
133.0330085889911
 21
193.0330085889911
 31
0.0
 12
134.3879469953314
 22
191.6425330675503
 32
0.0
 13
134.3879469953314
 23
191.6425330675503
 33
0.0
  0
SOLID
  5
1F9
  8
1__PRINTING_LAYERS_____1_3
 62
   254
 10
134.3879469953314
 20
88.35746693244971
 30
0.0
 11
134.3879469953314
 21
191.6425330675503
 31
0.0
 12
135.7060049169317
 22
89.78206479558546
 32
0.0
 13
135.7060049169317
 23
89.78206479558546
 33
0.0
  0
SOLID
  5
1FA
  8
1__PRINTING_LAYERS_____1_3
 62
   254
 10
135.7060049169317
 20
89.78206479558546
 30
0.0
 11
134.3879469953314
 21
191.6425330675503
 31
0.0
 12
135.7060049169317
 22
190.2179352044145
 32
0.0
 13
135.7060049169317
 23
190.2179352044145
 33
0.0
  0
SOLID
  5
1FB
  8
1__PRINTING_LAYERS_____1_3
 62
   254
 10
135.7060049169317
 20
89.78206479558546
 30
0.0
 11
135.7060049169317
 21
190.2179352044145
 31
0.0
 12
136.9859148230872
 22
91.23930361678734
 32
0.0
 13
136.9859148230872
 23
91.23930361678734
 33
0.0
  0
SOLID
  5
1FC
  8
1__PRINTING_LAYERS_____1_3
 62
   254
 10
136.9859148230872
 20
91.23930361678734
 30
0.0
 11
135.7060049169317
 21
190.2179352044145
 31
0.0
 12
136.9859148230872
 22
188.7606963832127
 32
0.0
 13
136.9859148230872
 23
188.7606963832127
 33
0.0
  0
SOLID
  5
1FD
  8
1__PRINTING_LAYERS_____1_3
 62
   254
 10
136.9859148230872
 20
91.23930361678734
 30
0.0
 11
136.9859148230872
 21
188.7606963832127
 31
0.0
 12
138.2264890681132
 22
92.72764052005772
 32
0.0
 13
138.2264890681132
 23
92.72764052005772
 33
0.0
  0
SOLID
  5
1FE
  8
1__PRINTING_LAYERS_____1_3
 62
   254
 10
138.2264890681132
 20
92.72764052005772
 30
0.0
 11
136.9859148230872
 21
188.7606963832127
 31
0.0
 12
138.2264890681132
 22
187.2723594799423
 32
0.0
 13
138.2264890681132
 23
187.2723594799423
 33
0.0
  0
SOLID
  5
1FF
  8
1__PRINTING_LAYERS_____1_3
 62
   254
 10
138.2264890681132
 20
92.72764052005772
 30
0.0
 11
138.2264890681132
 21
187.2723594799423
 31
0.0
 12
139.4266235213582
 22
94.24547654219573
 32
0.0
 13
139.4266235213582
 23
94.24547654219573
 33
0.0
  0
SOLID
  5
200
  8
1__PRINTING_LAYERS_____1_3
 62
   254
 10
139.4266235213582
 20
94.24547654219573
 30
0.0
 11
138.2264890681132
 21
187.2723594799423
 31
0.0
 12
139.4266235213582
 22
185.7545234578043
 32
0.0
 13
139.4266235213582
 23
185.7545234578043
 33
0.0
  0
SOLID
  5
201
  8
1__PRINTING_LAYERS_____1_3
 62
   254
 10
139.4266235213582
 20
94.24547654219573
 30
0.0
 11
139.4266235213582
 21
185.7545234578043
 31
0.0
 12
140.5853007581759
 22
95.79116228578988
 32
0.0
 13
140.5853007581759
 23
95.79116228578988
 33
0.0
  0
SOLID
  5
202
  8
1__PRINTING_LAYERS_____1_3
 62
   254
 10
140.5853007581759
 20
95.79116228578988
 30
0.0
 11
139.4266235213582
 21
185.7545234578043
 31
0.0
 12
140.5853007581759
 22
184.2088377142101
 32
0.0
 13
140.5853007581759
 23
184.2088377142101
 33
0.0
  0
SOLID
  5
203
  8
1__PRINTING_LAYERS_____1_3
 62
   254
 10
140.5853007581759
 20
95.79116228578988
 30
0.0
 11
140.5853007581759
 21
184.2088377142101
 31
0.0
 12
141.7015927931614
 22
97.36300377856233
 32
0.0
 13
141.7015927931614
 23
97.36300377856233
 33
0.0
  0
SOLID
  5
204
  8
1__PRINTING_LAYERS_____1_3
 62
   254
 10
141.7015927931614
 20
97.36300377856233
 30
0.0
 11
140.5853007581759
 21
184.2088377142101
 31
0.0
 12
141.7015927931614
 22
182.6369962214376
 32
0.0
 13
141.7015927931614
 23
182.6369962214376
 33
0.0
  0
SOLID
  5
205
  8
1__PRINTING_LAYERS_____1_3
 62
   254
 10
141.7015927931614
 20
97.36300377856233
 30
0.0
 11
141.7015927931614
 21
182.6369962214376
 31
0.0
 12
142.7746633413988
 22
98.9592684961143
 32
0.0
 13
142.7746633413988
 23
98.9592684961143
 33
0.0
  0
SOLID
  5
206
  8
1__PRINTING_LAYERS_____1_3
 62
   254
 10
142.7746633413988
 20
98.9592684961143
 30
0.0
 11
141.7015927931614
 21
182.6369962214376
 31
0.0
 12
142.7746633413988
 22
181.0407315038857
 32
0.0
 13
142.7746633413988
 23
181.0407315038857
 33
0.0
  0
SOLID
  5
207
  8
1__PRINTING_LAYERS_____1_3
 62
   254
 10
142.7746633413988
 20
98.9592684961143
 30
0.0
 11
142.7746633413988
 21
181.0407315038857
 31
0.0
 12
143.8037695980312
 22
100.5781915041769
 32
0.0
 13
143.8037695980312
 23
100.5781915041769
 33
0.0
  0
SOLID
  5
208
  8
1__PRINTING_LAYERS_____1_3
 62
   254
 10
143.8037695980312
 20
100.5781915041769
 30
0.0
 11
142.7746633413988
 21
181.0407315038857
 31
0.0
 12
143.8037695980312
 22
179.4218084958231
 32
0.0
 13
143.8037695980312
 23
179.4218084958231
 33
0.0
  0
SOLID
  5
209
  8
1__PRINTING_LAYERS_____1_3
 62
   254
 10
143.8037695980312
 20
100.5781915041769
 30
0.0
 11
143.8037695980312
 21
179.4218084958231
 31
0.0
 12
144.7882635310574
 22
102.2179816760637
 32
0.0
 13
144.7882635310574
 23
102.2179816760637
 33
0.0
  0
SOLID
  5
20A
  8
1__PRINTING_LAYERS_____1_3
 62
   254
 10
144.7882635310574
 20
102.2179816760637
 30
0.0
 11
143.8037695980312
 21
179.4218084958231
 31
0.0
 12
144.7882635310574
 22
177.7820183239364
 32
0.0
 13
144.7882635310574
 23
177.7820183239364
 33
0.0
  0
SOLID
  5
20B
  8
1__PRINTING_LAYERS_____1_3
 62
   254
 10
144.7882635310574
 20
102.2179816760637
 30
0.0
 11
144.7882635310574
 21
177.7820183239364
 31
0.0
 12
145.7275926868337
 22
103.8768279411443
 32
0.0
 13
145.7275926868337
 23
103.8768279411443
 33
0.0
  0
SOLID
  5
20C
  8
1__PRINTING_LAYERS_____1_3
 62
   254
 10
145.7275926868337
 20
103.8768279411443
 30
0.0
 11
144.7882635310574
 21
177.7820183239364
 31
0.0
 12
145.7275926868337
 22
176.1231720588557
 32
0.0
 13
145.7275926868337
 23
176.1231720588557
 33
0.0
  0
SOLID
  5
20D
  8
1__PRINTING_LAYERS_____1_3
 62
   254
 10
145.7275926868337
 20
103.8768279411443
 30
0.0
 11
145.7275926868337
 21
176.1231720588557
 31
0.0
 12
146.6213005122315
 22
105.5529055207998
 32
0.0
 13
146.6213005122315
 23
105.5529055207998
 33
0.0
  0
SOLID
  5
20E
  8
1__PRINTING_LAYERS_____1_3
 62
   254
 10
146.6213005122315
 20
105.5529055207998
 30
0.0
 11
145.7275926868337
 21
176.1231720588557
 31
0.0
 12
146.6213005122315
 22
174.4470944792003
 32
0.0
 13
146.6213005122315
 23
174.4470944792003
 33
0.0
  0
SOLID
  5
20F
  8
1__PRINTING_LAYERS_____1_3
 62
   254
 10
146.6213005122315
 20
105.5529055207998
 30
0.0
 11
146.6213005122315
 21
174.4470944792003
 31
0.0
 12
147.4690262017219
 22
107.2443821094553
 32
0.0
 13
147.4690262017219
 23
107.2443821094553
 33
0.0
  0
SOLID
  5
210
  8
1__PRINTING_LAYERS_____1_3
 62
   254
 10
147.4690262017219
 20
107.2443821094553
 30
0.0
 11
146.6213005122315
 21
174.4470944792003
 31
0.0
 12
147.4690262017219
 22
172.7556178905448
 32
0.0
 13
147.4690262017219
 23
172.7556178905448
 33
0.0
  0
SOLID
  5
211
  8
1__PRINTING_LAYERS_____1_3
 62
   254
 10
147.4690262017219
 20
107.2443821094553
 30
0.0
 11
147.4690262017219
 21
172.7556178905448
 31
0.0
 12
148.2705040817566
 22
108.9494239598866
 32
0.0
 13
148.2705040817566
 23
108.9494239598866
 33
0.0
  0
SOLID
  5
212
  8
1__PRINTING_LAYERS_____1_3
 62
   254
 10
148.2705040817566
 20
108.9494239598866
 30
0.0
 11
147.4690262017219
 21
172.7556178905448
 31
0.0
 12
148.2705040817566
 22
171.0505760401135
 32
0.0
 13
148.2705040817566
 23
171.0505760401135
 33
0.0
  0
SOLID
  5
213
  8
1__PRINTING_LAYERS_____1_3
 62
   254
 10
148.2705040817566
 20
108.9494239598866
 30
0.0
 11
148.2705040817566
 21
171.0505760401135
 31
0.0
 12
149.0255625486501
 22
110.6662018340209
 32
0.0
 13
149.0255625486501
 23
110.6662018340209
 33
0.0
  0
SOLID
  5
214
  8
1__PRINTING_LAYERS_____1_3
 62
   254
 10
149.0255625486501
 20
110.6662018340209
 30
0.0
 11
148.2705040817566
 21
171.0505760401135
 31
0.0
 12
149.0255625486501
 22
169.3337981659791
 32
0.0
 13
149.0255625486501
 23
169.3337981659791
 33
0.0
  0
SOLID
  5
215
  8
1__PRINTING_LAYERS_____1_3
 62
   254
 10
149.0255625486501
 20
110.6662018340209
 30
0.0
 11
149.0255625486501
 21
169.3337981659791
 31
0.0
 12
149.7341225796823
 22
112.3928967828596
 32
0.0
 13
149.7341225796823
 23
112.3928967828596
 33
0.0
  0
SOLID
  5
216
  8
1__PRINTING_LAYERS_____1_3
 62
   254
 10
149.7341225796823
 20
112.3928967828596
 30
0.0
 11
149.0255625486501
 21
169.3337981659791
 31
0.0
 12
149.7341225796823
 22
167.6071032171405
 32
0.0
 13
149.7341225796823
 23
167.6071032171405
 33
0.0
  0
SOLID
  5
217
  8
1__PRINTING_LAYERS_____1_3
 62
   254
 10
149.7341225796823
 20
112.3928967828596
 30
0.0
 11
149.7341225796823
 21
167.6071032171405
 31
0.0
 12
150.3961958403063
 22
114.1277057218876
 32
0.0
 13
150.3961958403063
 23
114.1277057218876
 33
0.0
  0
SOLID
  5
218
  8
1__PRINTING_LAYERS_____1_3
 62
   254
 10
150.3961958403063
 20
114.1277057218876
 30
0.0
 11
149.7341225796823
 21
167.6071032171405
 31
0.0
 12
150.3961958403063
 22
165.8722942781124
 32
0.0
 13
150.3961958403063
 23
165.8722942781124
 33
0.0
  0
SOLID
  5
219
  8
1__PRINTING_LAYERS_____1_3
 62
   254
 10
150.3961958403063
 20
114.1277057218876
 30
0.0
 11
150.3961958403063
 21
165.8722942781124
 31
0.0
 12
151.0118824131258
 22
115.8688467713541
 32
0.0
 13
151.0118824131258
 23
115.8688467713541
 33
0.0
  0
SOLID
  5
21A
  8
1__PRINTING_LAYERS_____1_3
 62
   254
 10
151.0118824131258
 20
115.8688467713541
 30
0.0
 11
150.3961958403063
 21
165.8722942781124
 31
0.0
 12
151.0118824131258
 22
164.1311532286459
 32
0.0
 13
151.0118824131258
 23
164.1311532286459
 33
0.0
  0
SOLID
  5
21B
  8
1__PRINTING_LAYERS_____1_3
 62
   254
 10
151.0118824131258
 20
115.8688467713541
 30
0.0
 11
151.0118824131258
 21
164.1311532286459
 31
0.0
 12
151.5813681766805
 22
117.6145643340472
 32
0.0
 13
151.5813681766805
 23
117.6145643340472
 33
0.0
  0
SOLID
  5
21C
  8
1__PRINTING_LAYERS_____1_3
 62
   254
 10
151.5813681766805
 20
117.6145643340472
 30
0.0
 11
151.0118824131258
 21
164.1311532286459
 31
0.0
 12
151.5813681766805
 22
162.3854356659528
 32
0.0
 13
151.5813681766805
 23
162.3854356659528
 33
0.0
  0
SOLID
  5
21D
  8
1__PRINTING_LAYERS_____1_3
 62
   254
 10
151.5813681766805
 20
117.6145643340472
 30
0.0
 11
151.5813681766805
 21
162.3854356659528
 31
0.0
 12
152.1049218640274
 22
119.3631338865973
 32
0.0
 13
152.1049218640274
 23
119.3631338865973
 33
0.0
  0
SOLID
  5
21E
  8
1__PRINTING_LAYERS_____1_3
 62
   254
 10
152.1049218640274
 20
119.3631338865973
 30
0.0
 11
151.5813681766805
 21
162.3854356659528
 31
0.0
 12
152.1049218640274
 22
160.6368661134027
 32
0.0
 13
152.1049218640274
 23
160.6368661134027
 33
0.0
  0
SOLID
  5
21F
  8
1__PRINTING_LAYERS_____1_3
 62
   254
 10
152.1049218640274
 20
119.3631338865973
 30
0.0
 11
152.1049218640274
 21
160.6368661134027
 31
0.0
 12
152.5828918326354
 22
121.112866463861
 32
0.0
 13
152.5828918326354
 23
121.112866463861
 33
0.0
  0
SOLID
  5
220
  8
1__PRINTING_LAYERS_____1_3
 62
   254
 10
152.5828918326354
 20
121.112866463861
 30
0.0
 11
152.1049218640274
 21
160.6368661134027
 31
0.0
 12
152.5828918326354
 22
158.8871335361391
 32
0.0
 13
152.5828918326354
 23
158.8871335361391
 33
0.0
  0
SOLID
  5
221
  8
1__PRINTING_LAYERS_____1_3
 62
   254
 10
152.5828918326354
 20
121.112866463861
 30
0.0
 11
152.5828918326354
 21
158.8871335361391
 31
0.0
 12
153.0157025782059
 22
122.8621128195166
 32
0.0
 13
153.0157025782059
 23
122.8621128195166
 33
0.0
  0
SOLID
  5
222
  8
1__PRINTING_LAYERS_____1_3
 62
   254
 10
153.0157025782059
 20
122.8621128195166
 30
0.0
 11
152.5828918326354
 21
158.8871335361391
 31
0.0
 12
153.0157025782059
 22
157.1378871804835
 32
0.0
 13
153.0157025782059
 23
157.1378871804835
 33
0.0
  0
SOLID
  5
223
  8
1__PRINTING_LAYERS_____1_3
 62
   254
 10
153.0157025782059
 20
122.8621128195166
 30
0.0
 11
153.0157025782059
 21
157.1378871804835
 31
0.0
 12
153.4038510257137
 22
124.6092672495807
 32
0.0
 13
153.4038510257137
 23
124.6092672495807
 33
0.0
  0
SOLID
  5
224
  8
1__PRINTING_LAYERS_____1_3
 62
   254
 10
153.4038510257137
 20
124.6092672495807
 30
0.0
 11
153.0157025782059
 21
157.1378871804835
 31
0.0
 12
153.4038510257137
 22
155.3907327504193
 32
0.0
 13
153.4038510257137
 23
155.3907327504193
 33
0.0
  0
SOLID
  5
225
  8
1__PRINTING_LAYERS_____1_3
 62
   254
 10
153.4038510257137
 20
124.6092672495807
 30
0.0
 11
153.4038510257137
 21
155.3907327504193
 31
0.0
 12
153.7479026312431
 22
126.3527710690892
 32
0.0
 13
153.7479026312431
 23
126.3527710690892
 33
0.0
  0
SOLID
  5
226
  8
1__PRINTING_LAYERS_____1_3
 62
   254
 10
153.7479026312431
 20
126.3527710690892
 30
0.0
 11
153.4038510257137
 21
155.3907327504193
 31
0.0
 12
153.7479026312431
 22
153.6472289309108
 32
0.0
 13
153.7479026312431
 23
153.6472289309108
 33
0.0
  0
SOLID
  5
227
  8
1__PRINTING_LAYERS_____1_3
 62
   254
 10
153.7479026312431
 20
126.3527710690892
 30
0.0
 11
153.7479026312431
 21
153.6472289309108
 31
0.0
 12
154.0484873280868
 22
128.0911157356298
 32
0.0
 13
154.0484873280868
 23
128.0911157356298
 33
0.0
  0
SOLID
  5
228
  8
1__PRINTING_LAYERS_____1_3
 62
   254
 10
154.0484873280868
 20
128.0911157356298
 30
0.0
 11
153.7479026312431
 21
153.6472289309108
 31
0.0
 12
154.0484873280868
 22
151.9088842643701
 32
0.0
 13
154.0484873280868
 23
151.9088842643701
 33
0.0
  0
SOLID
  5
229
  8
1__PRINTING_LAYERS_____1_3
 62
   254
 10
154.0484873280868
 20
128.0911157356298
 30
0.0
 11
154.0484873280868
 21
151.9088842643701
 31
0.0
 12
154.3062953501183
 22
129.8228456167261
 32
0.0
 13
154.3062953501183
 23
129.8228456167261
 33
0.0
  0
SOLID
  5
22A
  8
1__PRINTING_LAYERS_____1_3
 62
   254
 10
154.3062953501183
 20
129.8228456167261
 30
0.0
 11
154.0484873280868
 21
151.9088842643701
 31
0.0
 12
154.3062953501183
 22
150.1771543832739
 32
0.0
 13
154.3062953501183
 23
150.1771543832739
 33
0.0
  0
SOLID
  5
22B
  8
1__PRINTING_LAYERS_____1_3
 62
   254
 10
154.3062953501183
 20
129.8228456167261
 30
0.0
 11
154.3062953501183
 21
150.1771543832739
 31
0.0
 12
154.5220729646566
 22
131.5465604012099
 32
0.0
 13
154.5220729646566
 23
131.5465604012099
 33
0.0
  0
SOLID
  5
22C
  8
1__PRINTING_LAYERS_____1_3
 62
   254
 10
154.5220729646566
 20
131.5465604012099
 30
0.0
 11
154.3062953501183
 21
150.1771543832739
 31
0.0
 12
154.5220729646566
 22
148.4534395987901
 32
0.0
 13
154.5220729646566
 23
148.4534395987901
 33
0.0
  0
SOLID
  5
22D
  8
1__PRINTING_LAYERS_____1_3
 62
   254
 10
154.5220729646566
 20
131.5465604012099
 30
0.0
 11
154.5220729646566
 21
148.4534395987901
 31
0.0
 12
154.6966181459659
 22
133.2609171576721
 32
0.0
 13
154.6966181459659
 23
133.2609171576721
 33
0.0
  0
SOLID
  5
22E
  8
1__PRINTING_LAYERS_____1_3
 62
   254
 10
154.6966181459659
 20
133.2609171576721
 30
0.0
 11
154.5220729646566
 21
148.4534395987901
 31
0.0
 12
154.6966181459659
 22
146.7390828423278
 32
0.0
 13
154.6966181459659
 23
146.7390828423278
 33
0.0
  0
SOLID
  5
22F
  8
1__PRINTING_LAYERS_____1_3
 62
   254
 10
154.6966181459659
 20
133.2609171576721
 30
0.0
 11
154.6966181459659
 21
146.7390828423278
 31
0.0
 12
154.8307762191851
 22
134.9646320457946
 32
0.0
 13
154.8307762191851
 23
134.9646320457946
 33
0.0
  0
SOLID
  5
230
  8
1__PRINTING_LAYERS_____1_3
 62
   254
 10
154.8307762191851
 20
134.9646320457946
 30
0.0
 11
154.6966181459659
 21
146.7390828423278
 31
0.0
 12
154.8307762191851
 22
145.0353679542054
 32
0.0
 13
154.8307762191851
 23
145.0353679542054
 33
0.0
  0
SOLID
  5
231
  8
1__PRINTING_LAYERS_____1_3
 62
   254
 10
154.8307762191851
 20
134.9646320457946
 30
0.0
 11
154.8307762191851
 21
145.0353679542054
 31
0.0
 12
154.9254355029252
 22
136.6564816888506
 32
0.0
 13
154.9254355029252
 23
136.6564816888506
 33
0.0
  0
SOLID
  5
232
  8
1__PRINTING_LAYERS_____1_3
 62
   254
 10
154.9254355029252
 20
136.6564816888506
 30
0.0
 11
154.8307762191851
 21
145.0353679542054
 31
0.0
 12
154.9254355029252
 22
143.3435183111493
 32
0.0
 13
154.9254355029252
 23
143.3435183111493
 33
0.0
  0
SOLID
  5
233
  8
1__PRINTING_LAYERS_____1_3
 62
   254
 10
154.9254355029252
 20
136.6564816888506
 30
0.0
 11
154.9254355029252
 21
143.3435183111493
 31
0.0
 12
154.9815229770174
 22
138.3353042178796
 32
0.0
 13
154.9815229770174
 23
138.3353042178796
 33
0.0
  0
SOLID
  5
234
  8
1__PRINTING_LAYERS_____1_3
 62
   254
 10
154.9815229770174
 20
138.3353042178796
 30
0.0
 11
154.9254355029252
 21
143.3435183111493
 31
0.0
 12
154.9815229770174
 22
141.6646957821204
 32
0.0
 13
154.9815229770174
 23
141.6646957821204
 33
0.0
  0
SOLID
  5
235
  8
1__PRINTING_LAYERS_____1_3
 62
   254
 10
154.9815229770174
 20
138.3353042178796
 30
0.0
 11
154.9815229770174
 21
141.6646957821204
 31
0.0
 12
155.0
 22
140.0
 32
0.0
 13
155.0
 23
140.0
 33
0.0
  0
ENDBLK
  5
25A
  8
0
  0
BLOCK
  8
0
  2
*U2
 70
     1
 10
0.0
 20
0.0
 30
0.0
  3
*U2
  1

  0
SOLID
  5
237
  8
1__PRINTING_LAYERS_____1_3
 62
     9
 10
62.67949192431121
 20
130.0
 30
0.0
 11
62.67949192431121
 21
150.0
 31
0.0
 12
79.99999999999994
 22
120.0
 32
0.0
 13
79.99999999999994
 23
120.0
 33
0.0
  0
SOLID
  5
238
  8
1__PRINTING_LAYERS_____1_3
 62
     9
 10
79.99999999999994
 20
120.0
 30
0.0
 11
62.67949192431121
 21
150.0
 31
0.0
 12
79.99999999999994
 22
160.0
 32
0.0
 13
79.99999999999994
 23
160.0
 33
0.0
  0
SOLID
  5
239
  8
1__PRINTING_LAYERS_____1_3
 62
     9
 10
80.0
 20
120.0
 30
0.0
 11
80.0
 21
160.0
 31
0.0
 12
97.32050807568874
 22
130.0
 32
0.0
 13
97.32050807568874
 23
130.0
 33
0.0
  0
SOLID
  5
23A
  8
1__PRINTING_LAYERS_____1_3
 62
     9
 10
97.32050807568874
 20
130.0
 30
0.0
 11
80.0
 21
160.0
 31
0.0
 12
97.32050807568874
 22
150.0
 32
0.0
 13
97.32050807568874
 23
150.0
 33
0.0
  0
ENDBLK
  5
25C
  8
0
  0
BLOCK
  8
0
  2
*U3
 70
     1
 10
0.0
 20
0.0
 30
0.0
  3
*U3
  1

  0
SOLID
  5
23C
  8
1__PRINTING_LAYERS_____1_3
 62
   251
 10
80.00000000000007
 20
160.0000000000002
 30
0.0
 11
80.00000000000007
 21
180.0000000000002
 31
0.0
 12
97.3205080756888
 22
150.0000000000002
 32
0.0
 13
97.3205080756888
 23
150.0000000000002
 33
0.0
  0
SOLID
  5
23D
  8
1__PRINTING_LAYERS_____1_3
 62
   251
 10
97.3205080756888
 20
150.0000000000002
 30
0.0
 11
80.00000000000007
 21
180.0000000000002
 31
0.0
 12
97.3205080756888
 22
190.0000000000001
 32
0.0
 13
97.3205080756888
 23
190.0000000000001
 33
0.0
  0
SOLID
  5
23E
  8
1__PRINTING_LAYERS_____1_3
 62
   251
 10
97.32050807568886
 20
150.0000000000002
 30
0.0
 11
97.32050807568886
 21
190.0000000000002
 31
0.0
 12
114.6410161513776
 22
160.0000000000002
 32
0.0
 13
114.6410161513776
 23
160.0000000000002
 33
0.0
  0
SOLID
  5
23F
  8
1__PRINTING_LAYERS_____1_3
 62
   251
 10
114.6410161513776
 20
160.0000000000002
 30
0.0
 11
97.32050807568886
 21
190.0000000000002
 31
0.0
 12
114.6410161513776
 22
180.0000000000002
 32
0.0
 13
114.6410161513776
 23
180.0000000000002
 33
0.0
  0
ENDBLK
  5
25E
  8
0
  0
BLOCK
  8
0
  2
*U4
 70
     1
 10
0.0
 20
0.0
 30
0.0
  3
*U4
  1

  0
SOLID
  5
241
  8
1__PRINTING_LAYERS_____1_3
 62
   250
 10
28.03847577293368
 20
130.0
 30
0.0
 11
28.03847577293368
 21
150.0
 31
0.0
 12
45.3589838486224
 22
120.0
 32
0.0
 13
45.3589838486224
 23
120.0
 33
0.0
  0
SOLID
  5
242
  8
1__PRINTING_LAYERS_____1_3
 62
   250
 10
45.3589838486224
 20
120.0
 30
0.0
 11
28.03847577293368
 21
150.0
 31
0.0
 12
45.3589838486224
 22
160.0
 32
0.0
 13
45.3589838486224
 23
160.0
 33
0.0
  0
SOLID
  5
243
  8
1__PRINTING_LAYERS_____1_3
 62
   250
 10
45.35898384862246
 20
120.0
 30
0.0
 11
45.35898384862246
 21
160.0
 31
0.0
 12
62.67949192431119
 22
130.0
 32
0.0
 13
62.67949192431119
 23
130.0
 33
0.0
  0
SOLID
  5
244
  8
1__PRINTING_LAYERS_____1_3
 62
   250
 10
62.67949192431119
 20
130.0
 30
0.0
 11
45.35898384862246
 21
160.0
 31
0.0
 12
62.67949192431119
 22
150.0000000000001
 32
0.0
 13
62.67949192431119
 23
150.0000000000001
 33
0.0
  0
ENDBLK
  5
260
  8
0
  0
BLOCK
  8
0
  2
*U5
 70
     1
 10
0.0
 20
0.0
 30
0.0
  3
*U5
  1

  0
SOLID
  5
246
  8
1__PRINTING_LAYERS_____1_3
 62
     8
 10
97.32050807568879
 20
130.0
 30
0.0
 11
97.32050807568879
 21
150.0
 31
0.0
 12
114.6410161513775
 22
120.0
 32
0.0
 13
114.6410161513775
 23
120.0
 33
0.0
  0
SOLID
  5
247
  8
1__PRINTING_LAYERS_____1_3
 62
     8
 10
114.6410161513775
 20
120.0
 30
0.0
 11
97.32050807568879
 21
150.0
 31
0.0
 12
114.6410161513775
 22
159.9999999999999
 32
0.0
 13
114.6410161513775
 23
159.9999999999999
 33
0.0
  0
SOLID
  5
248
  8
1__PRINTING_LAYERS_____1_3
 62
     8
 10
114.6410161513776
 20
120.0000000000001
 30
0.0
 11
114.6410161513776
 21
160.0
 31
0.0
 12
131.9615242270663
 22
130.0
 32
0.0
 13
131.9615242270663
 23
130.0
 33
0.0
  0
SOLID
  5
249
  8
1__PRINTING_LAYERS_____1_3
 62
     8
 10
131.9615242270663
 20
130.0
 30
0.0
 11
114.6410161513776
 21
160.0
 31
0.0
 12
131.9615242270663
 22
150.0000000000001
 32
0.0
 13
131.9615242270663
 23
150.0000000000001
 33
0.0
  0
ENDBLK
  5
262
  8
0
  0
BLOCK
  8
0
  2
*U6
 70
     1
 10
0.0
 20
0.0
 30
0.0
  3
*U6
  1

  0
SOLID
  5
24B
  8
1__PRINTING_LAYERS_____1_3
 62
   250
 10
45.3589838486225
 20
160.0
 30
0.0
 11
45.3589838486225
 21
180.0
 31
0.0
 12
62.67949192431124
 22
150.0
 32
0.0
 13
62.67949192431124
 23
150.0
 33
0.0
  0
SOLID
  5
24C
  8
1__PRINTING_LAYERS_____1_3
 62
   250
 10
62.67949192431124
 20
150.0
 30
0.0
 11
45.3589838486225
 21
180.0
 31
0.0
 12
62.67949192431124
 22
190.0
 32
0.0
 13
62.67949192431124
 23
190.0
 33
0.0
  0
SOLID
  5
24D
  8
1__PRINTING_LAYERS_____1_3
 62
   250
 10
62.67949192431129
 20
150.0000000000001
 30
0.0
 11
62.67949192431129
 21
190.0
 31
0.0
 12
80.00000000000003
 22
160.0
 32
0.0
 13
80.00000000000003
 23
160.0
 33
0.0
  0
SOLID
  5
24E
  8
1__PRINTING_LAYERS_____1_3
 62
   250
 10
80.00000000000003
 20
160.0
 30
0.0
 11
62.67949192431129
 21
190.0
 31
0.0
 12
80.00000000000003
 22
180.0000000000001
 32
0.0
 13
80.00000000000003
 23
180.0000000000001
 33
0.0
  0
ENDBLK
  5
264
  8
0
  0
BLOCK
  8
0
  2
*U7
 70
     1
 10
0.0
 20
0.0
 30
0.0
  3
*U7
  1

  0
SOLID
  5
250
  8
1__PRINTING_LAYERS_____1_3
 62
   253
 10
79.99999999999994
 20
100.0
 30
0.0
 11
79.99999999999994
 21
120.0
 31
0.0
 12
97.32050807568868
 22
90.0
 32
0.0
 13
97.32050807568868
 23
90.0
 33
0.0
  0
SOLID
  5
251
  8
1__PRINTING_LAYERS_____1_3
 62
   253
 10
97.32050807568868
 20
90.0
 30
0.0
 11
79.99999999999994
 21
120.0
 31
0.0
 12
97.32050807568868
 22
129.9999999999999
 32
0.0
 13
97.32050807568868
 23
129.9999999999999
 33
0.0
  0
SOLID
  5
252
  8
1__PRINTING_LAYERS_____1_3
 62
   253
 10
97.32050807568876
 20
90.00000000000004
 30
0.0
 11
97.32050807568876
 21
130.0
 31
0.0
 12
114.6410161513775
 22
100.0
 32
0.0
 13
114.6410161513775
 23
100.0
 33
0.0
  0
SOLID
  5
253
  8
1__PRINTING_LAYERS_____1_3
 62
   253
 10
114.6410161513775
 20
100.0
 30
0.0
 11
97.32050807568876
 21
130.0
 31
0.0
 12
114.6410161513775
 22
120.0
 32
0.0
 13
114.6410161513775
 23
120.0
 33
0.0
  0
ENDBLK
  5
266
  8
0
  0
BLOCK
  8
0
  2
*U8
 70
     1
 10
0.0
 20
0.0
 30
0.0
  3
*U8
  1

  0
SOLID
  5
255
  8
1__PRINTING_LAYERS_____1_3
 10
45.35898384862235
 20
100.0000000000001
 30
0.0
 11
45.35898384862235
 21
120.0000000000001
 31
0.0
 12
62.67949192431109
 22
90.00000000000003
 32
0.0
 13
62.67949192431109
 23
90.00000000000003
 33
0.0
  0
SOLID
  5
256
  8
1__PRINTING_LAYERS_____1_3
 10
62.67949192431109
 20
90.00000000000003
 30
0.0
 11
45.35898384862235
 21
120.0000000000001
 31
0.0
 12
62.67949192431109
 22
130.0
 32
0.0
 13
62.67949192431109
 23
130.0
 33
0.0
  0
SOLID
  5
257
  8
1__PRINTING_LAYERS_____1_3
 10
62.67949192431114
 20
90.00000000000006
 30
0.0
 11
62.67949192431114
 21
130.0000000000001
 31
0.0
 12
79.99999999999986
 22
100.0000000000001
 32
0.0
 13
79.99999999999986
 23
100.0000000000001
 33
0.0
  0
SOLID
  5
258
  8
1__PRINTING_LAYERS_____1_3
 10
79.99999999999986
 20
100.0000000000001
 30
0.0
 11
62.67949192431114
 21
130.0000000000001
 31
0.0
 12
79.99999999999986
 22
120.0000000000001
 32
0.0
 13
79.99999999999986
 23
120.0000000000001
 33
0.0
  0
ENDBLK
  5
268
  8
0
  0
ENDSEC
  0
SECTION
  2
ENTITIES
  0
INSERT
  5
6F
  8
1__PRINTING_LAYERS_____1_3
 62
   254
  2
*U1
 10
0.0
 20
0.0
 30
0.0
1001
ACAD
1002
{
1000
R14_HATCH_DATA
1000
6F
1011
1.0
1021
0.0
1031
0.0
1021
0.0
1031
0.0
1011
0.0
1021
1.0
1031
0.0
1021
1.0
1031
0.0
1011
0.0
1021
0.0
1031
1.0
1021
0.0
1031
1.0
1040
0.0
1010
0.0
1020
0.0
1030
1.0
1000
SOLID
1070
     1
1070
     1
1071
        2
1071
        2
1070
     0
1070
     1
1071
      256
1040
155.0
1040
140.0
1040
154.9815229770174
1040
141.6646957821204
1040
154.9254355029252
1040
143.3435183111493
1040
154.8307762191851
1040
145.0353679542054
1040
154.6966181459659
1040
146.7390828423278
1040
154.5220729646566
1040
148.4534395987901
1040
154.3062953501183
1040
150.1771543832739
1040
154.0484873280868
1040
151.9088842643701
1040
153.7479026312431
1040
153.6472289309108
1040
153.4038510257137
1040
155.3907327504193
1040
153.0157025782059
1040
157.1378871804835
1040
152.5828918326354
1040
158.8871335361391
1040
152.1049218640274
1040
160.6368661134027
1040
151.5813681766805
1040
162.3854356659528
1040
151.0118824131258
1040
164.1311532286459
1040
150.3961958403063
1040
165.8722942781124
1040
149.7341225796823
1040
167.6071032171405
1040
149.0255625486501
1040
169.3337981659791
1040
148.2705040817566
1040
171.0505760401135
1040
147.4690262017219
1040
172.7556178905448
1040
146.6213005122315
1040
174.4470944792003
1040
145.7275926868337
1040
176.1231720588557
1040
144.7882635310574
1040
177.7820183239364
1040
143.8037695980312
1040
179.4218084958231
1040
142.7746633413988
1040
181.0407315038857
1040
141.7015927931614
1040
182.6369962214376
1040
140.5853007581759
1040
184.2088377142101
1040
139.4266235213582
1040
185.7545234578043
1040
138.2264890681132
1040
187.2723594799423
1040
136.9859148230872
1040
188.7606963832127
1040
135.7060049169317
1040
190.2179352044145
1040
134.3879469953314
1040
191.6425330675503
1040
133.0330085889911
1040
193.0330085889911
1040
131.6425330675503
1040
194.3879469953313
1040
130.2179352044145
1040
195.7060049169317
1040
128.7606963832127
1040
196.9859148230873
1040
127.2723594799423
1040
198.2264890681133
1040
125.7545234578043
1040
199.4266235213582
1040
124.2088377142101
1040
200.5853007581759
1040
122.6369962214377
1040
201.7015927931614
1040
121.0407315038857
1040
202.7746633413988
1040
119.4218084958231
1040
203.8037695980312
1040
117.7820183239364
1040
204.7882635310574
1040
116.1231720588557
1040
205.7275926868336
1040
114.4470944792003
1040
206.6213005122315
1040
112.7556178905448
1040
207.4690262017218
1040
111.0505760401135
1040
208.2705040817565
1040
109.3337981659791
1040
209.0255625486501
1040
107.6071032171405
1040
209.7341225796823
1040
105.8722942781124
1040
210.3961958403062
1040
104.1311532286459
1040
211.0118824131258
1040
102.3854356659528
1040
211.5813681766805
1040
100.6368661134027
1040
212.1049218640274
1040
98.8871335361391
1040
212.5828918326355
1040
97.13788718048345
1040
213.0157025782059
1040
95.39073275041926
1040
213.4038510257137
1040
93.64722893091084
1040
213.7479026312431
1040
91.90888426437013
1040
214.0484873280868
1040
90.17715438327392
1040
214.3062953501183
1040
88.45343959879007
1040
214.5220729646566
1040
86.73908284232783
1040
214.6966181459659
1040
85.03536795420534
1040
214.8307762191851
1040
83.34351831114932
1040
214.9254355029252
1040
81.6646957821204
1040
214.9815229770174
1040
80.0
1040
215.0
1040
78.33530421787961
1040
214.9815229770174
1040
76.65648168885066
1040
214.9254355029252
1040
74.96463204579467
1040
214.8307762191851
1040
73.26091715767214
1040
214.6966181459659
1040
71.5465604012099
1040
214.5220729646566
1040
69.82284561672606
1040
214.3062953501183
1040
68.09111573562984
1040
214.0484873280868
1040
66.35277106908914
1040
213.7479026312431
1040
64.60926724958071
1040
213.4038510257137
1040
62.86211281951655
1040
213.0157025782059
1040
61.11286646386093
1040
212.5828918326355
1040
59.3631338865973
1040
212.1049218640274
1040
57.61456433404724
1040
211.5813681766805
1040
55.86884677135407
1040
211.0118824131258
1040
54.12770572188757
1040
210.3961958403062
1040
52.39289678285954
1040
209.7341225796823
1040
50.66620183402089
1040
209.0255625486501
1040
48.94942395988654
1040
208.2705040817565
1040
47.24438210945524
1040
207.4690262017218
1040
45.55290552079975
1040
206.6213005122315
1040
43.87682794114429
1040
205.7275926868336
1040
42.21798167606366
1040
204.7882635310574
1040
40.57819150417689
1040
203.8037695980312
1040
38.9592684961143
1040
202.7746633413988
1040
37.36300377856234
1040
201.7015927931614
1040
35.79116228578988
1040
200.5853007581759
1040
34.24547654219573
1040
199.4266235213582
1040
32.72764052005771
1040
198.2264890681133
1040
31.23930361678734
1040
196.9859148230873
1040
29.78206479558546
1040
195.7060049169317
1040
28.35746693244969
1040
194.3879469953313
1040
26.96699141100894
1040
193.0330085889911
1040
25.61205300466865
1040
191.6425330675503
1040
24.29399508306827
1040
190.2179352044145
1040
23.01408517691279
1040
188.7606963832127
1040
21.77351093188677
1040
187.2723594799423
1040
20.57337647864185
1040
185.7545234578043
1040
19.41469924182407
1040
184.2088377142101
1040
18.29840720683857
1040
182.6369962214376
1040
17.22533665860115
1040
181.0407315038857
1040
16.19623040196882
1040
179.4218084958231
1040
15.21173646894264
1040
177.7820183239364
1040
14.27240731316638
1040
176.1231720588557
1040
13.37869948776854
1040
174.4470944792003
1040
12.5309737982782
1040
172.7556178905448
1040
11.7294959182435
1040
171.0505760401135
1040
10.97443745134995
1040
169.3337981659791
1040
10.26587742031773
1040
167.6071032171405
1040
9.603804159693757
1040
165.8722942781124
1040
8.98811758687416
1040
164.1311532286459
1040
8.418631823319489
1040
162.3854356659528
1040
7.89507813597264
1040
160.6368661134027
1040
7.417108167364607
1040
158.8871335361391
1040
6.984297421794122
1040
157.1378871804835
1040
6.596148974286295
1040
155.3907327504193
1040
6.252097368756923
1040
153.6472289309108
1040
5.951512671913162
1040
151.9088842643701
1040
5.693704649881731
1040
150.1771543832739
1040
5.477927035343365
1040
148.4534395987901
1040
5.303381854034098
1040
146.7390828423278
1040
5.169223780814876
1040
145.0353679542054
1040
5.074564497074767
1040
143.3435183111493
1040
5.018477022982585
1040
141.6646957821204
1040
5.0
1040
140.0
1040
5.018477022982585
1040
138.3353042178796
1040
5.074564497074766
1040
136.6564816888506
1040
5.169223780814875
1040
134.9646320457946
1040
5.303381854034097
1040
133.2609171576721
1040
5.477927035343361
1040
131.5465604012099
1040
5.693704649881727
1040
129.8228456167261
1040
5.951512671913159
1040
128.0911157356298
1040
6.252097368756919
1040
126.3527710690892
1040
6.596148974286291
1040
124.6092672495807
1040
6.984297421794118
1040
122.8621128195166
1040
7.417108167364602
1040
121.112866463861
1040
7.895078135972634
1040
119.3631338865973
1040
8.418631823319483
1040
117.6145643340472
1040
8.988117586874157
1040
115.8688467713541
1040
9.603804159693752
1040
114.1277057218876
1040
10.26587742031773
1040
112.3928967828596
1040
10.97443745134994
1040
110.6662018340209
1040
11.72949591824349
1040
108.9494239598866
1040
12.53097379827819
1040
107.2443821094553
1040
13.37869948776854
1040
105.5529055207998
1040
14.27240731316637
1040
103.8768279411443
1040
15.21173646894263
1040
102.2179816760637
1040
16.19623040196881
1040
100.5781915041769
1040
17.22533665860114
1040
98.9592684961143
1040
18.29840720683856
1040
97.36300377856233
1040
19.41469924182406
1040
95.79116228578988
1040
20.57337647864184
1040
94.24547654219573
1040
21.77351093188676
1040
92.72764052005772
1040
23.01408517691278
1040
91.23930361678734
1040
24.29399508306826
1040
89.78206479558546
1040
25.61205300466864
1040
88.35746693244971
1040
26.96699141100893
1040
86.96699141100893
1040
28.35746693244969
1040
85.61205300466865
1040
29.78206479558546
1040
84.29399508306827
1040
31.23930361678734
1040
83.01408517691277
1040
32.7276405200577
1040
81.77351093188678
1040
34.24547654219572
1040
80.57337647864185
1040
35.79116228578987
1040
79.41469924182408
1040
37.36300377856232
1040
78.29840720683856
1040
38.95926849611429
1040
77.22533665860115
1040
40.57819150417689
1040
76.19623040196883
1040
42.21798167606364
1040
75.21173646894263
1040
43.87682794114427
1040
74.27240731316638
1040
45.55290552079974
1040
73.37869948776854
1040
47.24438210945523
1040
72.5309737982782
1040
48.94942395988652
1040
71.7294959182435
1040
50.66620183402087
1040
70.97443745134994
1040
52.39289678285953
1040
70.26587742031774
1040
54.12770572188755
1040
69.60380415969375
1040
55.86884677135406
1040
68.98811758687415
1040
57.61456433404722
1040
68.41863182331947
1040
59.36313388659728
1040
67.89507813597264
1040
61.11286646386091
1040
67.41710816736462
1040
62.86211281951653
1040
66.98429742179412
1040
64.6092672495807
1040
66.5961489742863
1040
66.35277106908913
1040
66.25209736875692
1040
68.09111573562983
1040
65.95151267191315
1040
69.82284561672606
1040
65.69370464988172
1040
71.54656040120989
1040
65.47792703534336
1040
73.26091715767213
1040
65.30338185403409
1040
74.96463204579466
1040
65.16922378081487
1040
76.65648168885063
1040
65.07456449707476
1040
78.33530421787958
1040
65.0184770229826
1040
79.99999999999999
1040
65.0
1040
81.66469578212039
1040
65.0184770229826
1040
83.34351831114931
1040
65.07456449707476
1040
85.03536795420534
1040
65.16922378081487
1040
86.73908284232783
1040
65.30338185403409
1040
88.45343959879007
1040
65.47792703534336
1040
90.17715438327392
1040
65.69370464988172
1040
91.90888426437013
1040
65.95151267191315
1040
93.64722893091084
1040
66.25209736875692
1040
95.39073275041926
1040
66.5961489742863
1040
97.13788718048345
1040
66.98429742179412
1040
98.8871335361391
1040
67.41710816736462
1040
100.6368661134027
1040
67.89507813597264
1040
102.3854356659528
1040
68.41863182331947
1040
104.1311532286459
1040
68.98811758687415
1040
105.8722942781124
1040
69.60380415969375
1040
107.6071032171405
1040
70.26587742031774
1040
109.3337981659791
1040
70.97443745134994
1040
111.0505760401135
1040
71.7294959182435
1040
112.7556178905448
1040
72.5309737982782
1040
114.4470944792003
1040
73.37869948776854
1040
116.1231720588557
1040
74.27240731316638
1040
117.7820183239364
1040
75.21173646894263
1040
119.4218084958231
1040
76.19623040196883
1040
121.0407315038857
1040
77.22533665860115
1040
122.6369962214377
1040
78.29840720683856
1040
124.2088377142101
1040
79.41469924182408
1040
125.7545234578043
1040
80.57337647864185
1040
127.2723594799423
1040
81.77351093188678
1040
128.7606963832127
1040
83.01408517691277
1040
130.2179352044145
1040
84.29399508306827
1040
131.6425330675503
1040
85.61205300466865
1040
133.0330085889911
1040
86.96699141100893
1040
134.3879469953314
1040
88.35746693244971
1040
135.7060049169317
1040
89.78206479558546
1040
136.9859148230872
1040
91.23930361678734
1040
138.2264890681132
1040
92.72764052005772
1040
139.4266235213582
1040
94.24547654219573
1040
140.5853007581759
1040
95.79116228578988
1040
141.7015927931614
1040
97.36300377856233
1040
142.7746633413988
1040
98.9592684961143
1040
143.8037695980312
1040
100.5781915041769
1040
144.7882635310574
1040
102.2179816760637
1040
145.7275926868337
1040
103.8768279411443
1040
146.6213005122315
1040
105.5529055207998
1040
147.4690262017219
1040
107.2443821094553
1040
148.2705040817566
1040
108.9494239598866
1040
149.0255625486501
1040
110.6662018340209
1040
149.7341225796823
1040
112.3928967828596
1040
150.3961958403063
1040
114.1277057218876
1040
151.0118824131258
1040
115.8688467713541
1040
151.5813681766805
1040
117.6145643340472
1040
152.1049218640274
1040
119.3631338865973
1040
152.5828918326354
1040
121.112866463861
1040
153.0157025782059
1040
122.8621128195166
1040
153.4038510257137
1040
124.6092672495807
1040
153.7479026312431
1040
126.3527710690892
1040
154.0484873280868
1040
128.0911157356298
1040
154.3062953501183
1040
129.8228456167261
1040
154.5220729646566
1040
131.5465604012099
1040
154.6966181459659
1040
133.2609171576721
1040
154.8307762191851
1040
134.9646320457946
1040
154.9254355029252
1040
136.6564816888506
1040
154.9815229770174
1040
138.3353042178796
1071
        0
1071
        2
1070
     0
1070
     1
1071
       18
1040
97.32050807568882
1040
190.0
1040
80.00000000000003
1040
180.0
1040
62.67949192431126
1040
190.0
1040
45.35898384862247
1040
180.0
1040
45.35898384862247
1040
160.0
1040
28.03847577293362
1040
150.0
1040
28.03847577293362
1040
130.0
1040
45.35898384862239
1040
120.0
1040
45.35898384862236
1040
100.0
1040
62.67949192431109
1040
90.0
1040
79.99999999999989
1040
100.0
1040
97.32050807568868
1040
90.0
1040
114.6410161513774
1040
100.0
1040
114.6410161513775
1040
120.0
1040
131.9615242270663
1040
130.0
1040
131.9615242270664
1040
149.9999999999998
1040
114.6410161513775
1040
160.0
1040
114.6410161513776
1040
180.0
1071
        0
1070
     0
1070
     1
1071
        0
1002
}
  0
INSERT
  5
70
  8
1__PRINTING_LAYERS_____1_3
 62
     9
  2
*U2
 10
0.0
 20
0.0
 30
0.0
1001
ACAD
1002
{
1000
R14_HATCH_DATA
1000
70
1011
1.0
1021
0.0
1031
0.0
1021
0.0
1031
0.0
1011
0.0
1021
1.0
1031
0.0
1021
1.0
1031
0.0
1011
0.0
1021
0.0
1031
1.0
1021
0.0
1031
1.0
1040
0.0
1010
0.0
1020
0.0
1030
1.0
1000
SOLID
1070
     1
1070
     1
1071
        1
1071
        2
1070
     0
1070
     1
1071
        6
1040
97.32050807568874
1040
130.0
1040
97.32050807568879
1040
150.0
1040
80.0
1040
160.0
1040
62.67949192431121
1040
150.0
1040
62.67949192431121
1040
130.0
1040
79.99999999999994
1040
120.0
1071
        0
1070
     0
1070
     1
1071
        0
1002
}
  0
INSERT
  5
71
  8
1__PRINTING_LAYERS_____1_3
 62
   251
  2
*U3
 10
0.0
 20
0.0
 30
0.0
1001
ACAD
1002
{
1000
R14_HATCH_DATA
1000
71
1011
1.0
1021
0.0
1031
0.0
1021
0.0
1031
0.0
1011
0.0
1021
1.0
1031
0.0
1021
1.0
1031
0.0
1011
0.0
1021
0.0
1031
1.0
1021
0.0
1031
1.0
1040
0.0
1010
0.0
1020
0.0
1030
1.0
1000
SOLID
1070
     1
1070
     1
1071
        1
1071
        2
1070
     0
1070
     1
1071
        6
1040
97.32050807568886
1040
190.0000000000002
1040
80.00000000000007
1040
180.0000000000002
1040
80.00000000000007
1040
160.0000000000002
1040
97.3205080756888
1040
150.0000000000002
1040
114.6410161513776
1040
160.0000000000002
1040
114.6410161513776
1040
180.0000000000002
1071
        0
1070
     0
1070
     1
1071
        0
1002
}
  0
INSERT
  5
72
  8
1__PRINTING_LAYERS_____1_3
 62
   250
  2
*U4
 10
0.0
 20
0.0
 30
0.0
1001
ACAD
1002
{
1000
R14_HATCH_DATA
1000
72
1011
1.0
1021
0.0
1031
0.0
1021
0.0
1031
0.0
1011
0.0
1021
1.0
1031
0.0
1021
1.0
1031
0.0
1011
0.0
1021
0.0
1031
1.0
1021
0.0
1031
1.0
1040
0.0
1010
0.0
1020
0.0
1030
1.0
1000
SOLID
1070
     1
1070
     1
1071
        1
1071
        2
1070
     0
1070
     1
1071
        6
1040
45.35898384862246
1040
160.0
1040
28.03847577293368
1040
150.0
1040
28.03847577293367
1040
130.0
1040
45.3589838486224
1040
120.0
1040
62.67949192431119
1040
130.0
1040
62.67949192431126
1040
150.0
1071
        0
1070
     0
1070
     1
1071
        0
1002
}
  0
INSERT
  5
73
  8
1__PRINTING_LAYERS_____1_3
 62
     8
  2
*U5
 10
0.0
 20
0.0
 30
0.0
1001
ACAD
1002
{
1000
R14_HATCH_DATA
1000
73
1011
1.0
1021
0.0
1031
0.0
1021
0.0
1031
0.0
1011
0.0
1021
1.0
1031
0.0
1021
1.0
1031
0.0
1011
0.0
1021
0.0
1031
1.0
1021
0.0
1031
1.0
1040
0.0
1010
0.0
1020
0.0
1030
1.0
1000
SOLID
1070
     1
1070
     1
1071
        1
1071
        2
1070
     0
1070
     1
1071
        6
1040
114.6410161513776
1040
160.0
1040
97.32050807568879
1040
150.0
1040
97.32050807568879
1040
130.0
1040
114.6410161513775
1040
120.0
1040
131.9615242270663
1040
130.0
1040
131.9615242270664
1040
150.0
1071
        0
1070
     0
1070
     1
1071
        0
1002
}
  0
INSERT
  5
74
  8
1__PRINTING_LAYERS_____1_3
 62
   250
  2
*U6
 10
0.0
 20
0.0
 30
0.0
1001
ACAD
1002
{
1000
R14_HATCH_DATA
1000
74
1011
1.0
1021
0.0
1031
0.0
1021
0.0
1031
0.0
1011
0.0
1021
1.0
1031
0.0
1021
1.0
1031
0.0
1011
0.0
1021
0.0
1031
1.0
1021
0.0
1031
1.0
1040
0.0
1010
0.0
1020
0.0
1030
1.0
1000
SOLID
1070
     1
1070
     1
1071
        1
1071
        2
1070
     0
1070
     1
1071
        6
1040
62.67949192431129
1040
190.0
1040
45.3589838486225
1040
180.0
1040
45.35898384862249
1040
160.0
1040
62.67949192431124
1040
150.0
1040
80.00000000000003
1040
160.0
1040
80.0000000000001
1040
180.0
1071
        0
1070
     0
1070
     1
1071
        0
1002
}
  0
INSERT
  5
75
  8
1__PRINTING_LAYERS_____1_3
 62
   253
  2
*U7
 10
0.0
 20
0.0
 30
0.0
1001
ACAD
1002
{
1000
R14_HATCH_DATA
1000
75
1011
1.0
1021
0.0
1031
0.0
1021
0.0
1031
0.0
1011
0.0
1021
1.0
1031
0.0
1021
1.0
1031
0.0
1011
0.0
1021
0.0
1031
1.0
1021
0.0
1031
1.0
1040
0.0
1010
0.0
1020
0.0
1030
1.0
1000
SOLID
1070
     1
1070
     1
1071
        1
1071
        2
1070
     0
1070
     1
1071
        6
1040
97.32050807568876
1040
130.0
1040
79.99999999999994
1040
120.0
1040
79.99999999999994
1040
100.0
1040
97.32050807568868
1040
90.0
1040
114.6410161513775
1040
100.0
1040
114.6410161513775
1040
120.0
1071
        0
1070
     0
1070
     1
1071
        0
1002
}
  0
INSERT
  5
76
  8
1__PRINTING_LAYERS_____1_3
  2
*U8
 10
0.0
 20
0.0
 30
0.0
1001
ACAD
1002
{
1000
R14_HATCH_DATA
1000
76
1011
1.0
1021
0.0
1031
0.0
1021
0.0
1031
0.0
1011
0.0
1021
1.0
1031
0.0
1021
1.0
1031
0.0
1011
0.0
1021
0.0
1031
1.0
1021
0.0
1031
1.0
1040
0.0
1010
0.0
1020
0.0
1030
1.0
1000
SOLID
1070
     1
1070
     1
1071
        1
1071
        2
1070
     0
1070
     1
1071
        6
1040
62.67949192431114
1040
130.0000000000001
1040
45.35898384862235
1040
120.0000000000001
1040
45.35898384862235
1040
100.0000000000001
1040
62.67949192431109
1040
90.00000000000003
1040
79.99999999999986
1040
100.0000000000001
1040
79.99999999999991
1040
120.0000000000001
1071
        0
1070
     0
1070
     1
1071
        0
1002
}
  0
LINE
  5
78
  8
2__NON-PRINTING_LAYERS____
 10
280.0
 20
220.0
 30
0.0
 11
280.0
 21
0.0
 31
0.0
  0
LINE
  5
79
  8
2__NON-PRINTING_LAYERS____
 10
0.0
 20
220.0
 30
0.0
 11
0.0
 21
0.0
 31
0.0
  0
LINE
  5
7A
  8
2__NON-PRINTING_LAYERS____
 10
280.0
 20
220.0
 30
0.0
 11
0.0
 21
220.0
 31
0.0
  0
LINE
  5
7B
  8
2__NON-PRINTING_LAYERS____
 10
0.0
 20
0.0
 30
0.0
 11
280.0
 21
0.0
 31
0.0
  0
LINE
  5
7D
  8
1__PRINTING_LAYERS_____1_2
 10
45.35898384862247
 20
180.0
 30
0.0
 11
45.35898384862247
 21
160.0
 31
0.0
  0
LINE
  5
7E
  8
1__PRINTING_LAYERS_____1_2
 10
28.03847577293362
 20
150.0
 30
0.0
 11
28.03847577293362
 21
130.0
 31
0.0
  0
LINE
  5
7F
  8
1__PRINTING_LAYERS_____1_2
 10
97.32050807568882
 20
190.0
 30
0.0
 11
80.00000000000003
 21
180.0
 31
0.0
  0
LINE
  5
80
  8
1__PRINTING_LAYERS_____1_2
 10
62.67949192431126
 20
190.0
 30
0.0
 11
45.35898384862247
 21
180.0
 31
0.0
  0
LINE
  5
81
  8
1__PRINTING_LAYERS_____1_2
 10
114.6410161513775
 20
160.0
 30
0.0
 11
97.32050807568874
 21
150.0
 31
0.0
  0
LINE
  5
82
  8
1__PRINTING_LAYERS_____1_2
 10
80.0
 20
160.0
 30
0.0
 11
62.67949192431121
 21
150.0
 31
0.0
  0
LINE
  5
83
  8
1__PRINTING_LAYERS_____1_2
 10
45.35898384862242
 20
160.0
 30
0.0
 11
28.03847577293362
 21
150.0
 31
0.0
  0
LINE
  5
84
  8
1__PRINTING_LAYERS_____1_2
 10
131.9615242270663
 20
130.0
 30
0.0
 11
114.6410161513775
 21
120.0
 31
0.0
  0
LINE
  5
85
  8
1__PRINTING_LAYERS_____1_2
 10
97.3205080756887
 20
130.0
 30
0.0
 11
79.99999999999991
 21
120.0
 31
0.0
  0
LINE
  5
86
  8
1__PRINTING_LAYERS_____1_2
 10
62.67949192431115
 20
130.0
 30
0.0
 11
45.35898384862236
 21
120.0
 31
0.0
  0
LINE
  5
87
  8
1__PRINTING_LAYERS_____1_2
 10
114.6410161513774
 20
100.0
 30
0.0
 11
97.32050807568868
 21
90.0
 31
0.0
  0
LINE
  5
88
  8
1__PRINTING_LAYERS_____1_2
 10
79.99999999999989
 20
100.0
 30
0.0
 11
62.67949192431109
 21
90.0
 31
0.0
  0
LINE
  5
89
  8
1__PRINTING_LAYERS_____1_2
 10
114.6410161513776
 20
180.0
 30
0.0
 11
97.32050807568882
 21
190.0
 31
0.0
  0
LINE
  5
8A
  8
1__PRINTING_LAYERS_____1_2
 10
80.00000000000006
 20
180.0
 30
0.0
 11
62.67949192431126
 21
190.0
 31
0.0
  0
LINE
  5
8B
  8
1__PRINTING_LAYERS_____1_2
 10
131.9615242270663
 20
149.9999999999999
 30
0.0
 11
114.6410161513775
 21
160.0
 31
0.0
  0
LINE
  5
8C
  8
1__PRINTING_LAYERS_____1_2
 10
97.32050807568879
 20
150.0
 30
0.0
 11
80.0
 21
160.0
 31
0.0
  0
LINE
  5
8D
  8
1__PRINTING_LAYERS_____1_2
 10
62.67949192431121
 20
150.0
 30
0.0
 11
45.35898384862242
 21
160.0
 31
0.0
  0
LINE
  5
8E
  8
1__PRINTING_LAYERS_____1_2
 10
114.6410161513775
 20
120.0
 30
0.0
 11
97.3205080756887
 21
130.0
 31
0.0
  0
LINE
  5
8F
  8
1__PRINTING_LAYERS_____1_2
 10
79.99999999999994
 20
120.0
 30
0.0
 11
62.67949192431115
 21
130.0
 31
0.0
  0
LINE
  5
90
  8
1__PRINTING_LAYERS_____1_2
 10
45.35898384862239
 20
120.0
 30
0.0
 11
28.03847577293359
 21
130.0
 31
0.0
  0
LINE
  5
91
  8
1__PRINTING_LAYERS_____1_2
 10
97.32050807568868
 20
90.0
 30
0.0
 11
79.99999999999989
 21
100.0
 31
0.0
  0
LINE
  5
92
  8
1__PRINTING_LAYERS_____1_2
 10
62.67949192431109
 20
90.0
 30
0.0
 11
45.3589838486223
 21
100.0
 31
0.0
  0
LINE
  5
93
  8
1__PRINTING_LAYERS_____1_2
 10
114.6410161513776
 20
160.0
 30
0.0
 11
114.6410161513776
 21
180.0
 31
0.0
  0
LINE
  5
94
  8
1__PRINTING_LAYERS_____1_2
 10
80.00000000000003
 20
160.0
 30
0.0
 11
80.00000000000006
 21
180.0
 31
0.0
  0
LINE
  5
95
  8
1__PRINTING_LAYERS_____1_2
 10
131.9615242270664
 20
129.9999999999999
 30
0.0
 11
131.9615242270664
 21
149.9999999999998
 31
0.0
  0
LINE
  5
96
  8
1__PRINTING_LAYERS_____1_2
 10
97.32050807568874
 20
130.0
 30
0.0
 11
97.32050807568879
 21
150.0
 31
0.0
  0
LINE
  5
97
  8
1__PRINTING_LAYERS_____1_2
 10
62.67949192431121
 20
130.0
 30
0.0
 11
62.67949192431121
 21
150.0
 31
0.0
  0
LINE
  5
98
  8
1__PRINTING_LAYERS_____1_2
 10
114.6410161513775
 20
100.0
 30
0.0
 11
114.6410161513775
 21
120.0
 31
0.0
  0
LINE
  5
99
  8
1__PRINTING_LAYERS_____1_2
 10
79.99999999999991
 20
100.0
 30
0.0
 11
79.99999999999994
 21
120.0
 31
0.0
  0
LINE
  5
9A
  8
1__PRINTING_LAYERS_____1_2
 10
45.35898384862236
 20
100.0
 30
0.0
 11
45.35898384862239
 21
120.0
 31
0.0
  0
CIRCLE
  5
9B
  8
1__PRINTING_LAYERS_____1_2
 10
80.0
 20
140.0
 30
0.0
 40
75.0
  0
ENDSEC
  0
EOF
